<svg width="24" height="20" viewBox="0 0 24 20" fill="none" xmlns="http://www.w3.org/2000/svg">
<path d="M10.3013 11.4H6.49875C2.91038 11.4 0 14.31 0 17.8988C0 18.6187 0.582 19.2 1.29975 19.2H15.501C16.2188 19.2 16.8 18.6187 16.8 17.8988C16.8 14.31 13.89 11.4 10.3013 11.4ZM15.4987 18H1.29975C1.245 18 1.2 17.955 1.2 17.8988C1.2 14.9775 3.5775 12.6 6.49875 12.6H10.3013C13.2225 12.6 15.6 14.9775 15.6 17.8988C15.6 17.955 15.555 18 15.4987 18ZM8.4 9.6C11.0513 9.6 13.2 7.45088 13.2 4.8C13.2 2.14913 11.0513 0 8.4 0C5.74875 0 3.6 2.14913 3.6 4.8C3.6 7.45088 5.74875 9.6 8.4 9.6ZM8.4 1.2C10.3853 1.2 12 2.81475 12 4.8C12 6.78488 10.3853 8.4 8.4 8.4C6.41475 8.4 4.8 6.78375 4.8 4.8C4.8 2.81475 6.41625 1.2 8.4 1.2ZM23.4 7.8H21V5.4C21 5.07 20.73 4.8 20.4 4.8C20.07 4.8 19.8 5.06835 19.8 5.4V7.8H17.4C17.07 7.8 16.8 8.07 16.8 8.4C16.8 8.73 17.0683 9 17.4 9H19.8V11.4C19.8 11.7317 20.0684 12 20.4 12C20.7317 12 21 11.7317 21 11.4V9H23.4C23.73 9 24 8.73 24 8.4C24 8.07 23.73 7.8 23.4 7.8Z" fill="#181941"/>
</svg>
