<svg width="40" height="18" viewBox="0 0 40 18" fill="none" xmlns="http://www.w3.org/2000/svg">
<rect x="7" y="0.982422" width="33" height="17" rx="5" fill="#F5F5FB"/>
<circle cx="6" cy="8.98242" r="6" fill="white"/>
<path fill-rule="evenodd" clip-rule="evenodd" d="M5.03838 7.83401L5.04065 7.81786C5.04224 7.80682 5.04396 7.79487 5.04427 7.79244C5.09436 7.35648 5.52043 7.02773 6.03467 7.02773L6.05522 7.02786C6.50673 7.02786 6.82814 7.22859 7.03765 7.64143C7.06009 7.68557 7.11184 7.70212 7.15311 7.67795C7.19443 7.65391 7.2097 7.59847 7.18726 7.55426C6.9485 7.08395 6.56762 6.84551 6.05595 6.84551L6.03541 6.84532C5.42472 6.84532 4.93684 7.23431 4.87534 7.76931L4.8724 7.78981C4.87093 7.80012 4.8694 7.81103 4.8694 7.81103C4.86394 7.86055 4.89674 7.90528 4.94297 7.91185C4.94671 7.91231 4.95039 7.91257 4.95401 7.91257C4.99577 7.91257 5.03225 7.8794 5.03838 7.83401ZM7.38206 10.0575C7.38206 9.22267 6.85855 9.01668 6.11886 8.81687L6.03069 8.79224C5.8251 8.73371 5.48101 8.63584 5.25856 8.41106C5.22435 8.37658 5.17045 8.37835 5.1382 8.41487C5.10595 8.45152 5.10754 8.50926 5.14169 8.54381C5.39554 8.80031 5.76581 8.90561 5.98697 8.96847L6.07723 8.99369C6.84844 9.20211 7.21179 9.375 7.21179 10.0575C7.21179 10.5871 6.73617 10.9569 6.05522 10.9569C5.54919 10.9569 5.11435 10.6871 4.92029 10.2527C4.89999 10.2072 4.84916 10.1879 4.80673 10.2097C4.7643 10.2315 4.7464 10.2859 4.7667 10.3314C4.98933 10.8297 5.48303 11.1393 6.05522 11.1393C6.83642 11.1393 7.38206 10.6945 7.38206 10.0575ZM6.73096 7.67079C6.76585 7.63709 6.76867 7.57942 6.73721 7.54198C6.58411 7.35996 6.39741 7.26715 6.14964 7.24994C6.10322 7.24698 6.0622 7.28469 6.05914 7.335C6.05607 7.38532 6.0917 7.42867 6.1386 7.43195C6.33922 7.44588 6.48926 7.51964 6.61072 7.66409C6.62746 7.68412 6.6507 7.69424 6.674 7.69424C6.69429 7.69424 6.71465 7.68655 6.73096 7.67079ZM7.59261 10.7098C7.70426 10.5121 7.76086 10.2935 7.76086 10.0601C7.76086 8.89595 6.85862 8.65206 6.19986 8.47405L6.13265 8.4554C5.76275 8.34978 5.43073 8.22603 5.43067 7.87816C5.43208 7.8126 5.4463 7.7523 5.47298 7.6987C5.49511 7.6543 5.47941 7.59906 5.4379 7.57528C5.39633 7.5517 5.34489 7.56838 5.32275 7.61292C5.28345 7.69174 5.26248 7.77963 5.2604 7.87605C5.2604 8.39517 5.77899 8.54316 6.08881 8.63163L6.15816 8.65088C6.82955 8.83237 7.59058 9.03803 7.59058 10.0601C7.59058 10.2597 7.54227 10.4466 7.44693 10.6154C7.42258 10.6585 7.43546 10.7145 7.47568 10.7406C7.48942 10.7495 7.50462 10.7538 7.5197 10.7538C7.54846 10.7538 7.5766 10.7382 7.59261 10.7098ZM7.04887 11.2452C7.09038 11.2215 7.10596 11.1662 7.08376 11.1218C7.06156 11.0774 7.01006 11.0606 6.96855 11.0844C6.7106 11.2323 6.39477 11.3105 6.05522 11.3105C5.39363 11.3105 4.79318 10.9318 4.56093 10.3684C4.54934 10.3403 4.54186 10.311 4.53861 10.2814C4.53309 10.2313 4.49066 10.1952 4.44412 10.2015C4.3974 10.2073 4.36398 10.2526 4.3695 10.3026C4.37471 10.3504 4.38673 10.3973 4.40519 10.442C4.66418 11.0705 5.32729 11.4928 6.05522 11.4928C6.42273 11.4928 6.76634 11.4072 7.04887 11.2452ZM6.87695 10.4815C6.98676 10.3657 7.04483 10.2229 7.04483 10.0686C7.04483 9.94186 7.01699 9.82606 6.96199 9.72457C6.93274 9.67052 6.8951 9.61922 6.85015 9.57212C6.81649 9.53698 6.7626 9.53757 6.72973 9.57356C6.69687 9.60963 6.69748 9.66736 6.73108 9.70257C6.76505 9.73811 6.79319 9.77634 6.81471 9.81601C6.855 9.89043 6.87456 9.97306 6.87456 10.0686C6.87456 10.1744 6.83513 10.2696 6.75751 10.3515C6.61471 10.5021 6.36037 10.5895 6.07851 10.5845C5.91125 10.5819 5.75159 10.5394 5.6167 10.4617C5.51878 10.4053 5.4555 10.3253 5.41362 10.2723C5.40559 10.2622 5.39836 10.2531 5.39186 10.2453C5.36065 10.2076 5.30687 10.2043 5.27162 10.2378C5.23655 10.2713 5.23342 10.3289 5.26469 10.3665C5.27033 10.3734 5.27671 10.3814 5.2837 10.3903C5.33085 10.4499 5.4097 10.5495 5.53601 10.6223C5.69481 10.7139 5.88157 10.7639 6.07594 10.7669C6.08397 10.767 6.09188 10.7671 6.09985 10.7671C6.41746 10.7671 6.70662 10.6612 6.87695 10.4815ZM6.14731 9.30169C6.15884 9.25289 6.13118 9.20323 6.08557 9.19095C6.02376 9.17426 5.95748 9.15784 5.88856 9.14227C5.03065 8.94863 4.64811 8.5624 4.64811 7.88978C4.64811 7.15154 5.2165 6.65542 6.06251 6.65542C6.56891 6.65542 7.20737 6.95908 7.41253 7.62573C7.42718 7.67355 7.47544 7.69962 7.52001 7.68386C7.56465 7.66803 7.58893 7.61653 7.57421 7.56865C7.34257 6.81589 6.6282 6.47308 6.06251 6.47308C5.11465 6.47308 4.47778 7.04244 4.47778 7.88978C4.47778 8.89411 5.26291 9.18753 5.85343 9.32074C5.92014 9.33585 5.98421 9.35168 6.04393 9.36777C6.05092 9.36968 6.05791 9.3706 6.06484 9.3706C6.10292 9.3706 6.13756 9.34307 6.14731 9.30169ZM8.09091 10.0601C8.09091 9.50374 7.97043 9.13853 7.70015 8.87592C7.66539 8.84209 7.61149 8.84498 7.57992 8.88216C7.54834 8.91947 7.55098 8.97714 7.5858 9.01103C7.82045 9.23909 7.92064 9.55287 7.92064 10.0601C7.92064 10.9894 7.13612 11.664 6.05522 11.664C5.3203 11.664 4.61206 11.2332 4.29274 10.592L4.28379 10.5743C4.2592 10.5263 4.20806 10.4265 4.16668 10.2796C4.15306 10.2313 4.10555 10.2039 4.0606 10.2186C4.01554 10.2332 3.99009 10.284 4.00364 10.3322C4.05018 10.4975 4.10714 10.6087 4.13455 10.662L4.14246 10.6778C4.4906 11.3768 5.25923 11.8464 6.05522 11.8464C7.23478 11.8464 8.09091 11.0952 8.09091 10.0601ZM5.86005 9.63531C5.87268 9.58677 5.84626 9.53652 5.80094 9.52292C5.39566 9.40153 4.55234 9.14897 4.32793 8.33152C4.31469 8.28324 4.26729 8.25545 4.22223 8.26984C4.1771 8.28403 4.15129 8.33474 4.16459 8.38308C4.41567 9.29742 5.35427 9.57856 5.75508 9.69863C5.76275 9.70093 5.77047 9.70205 5.77807 9.70205C5.81529 9.70205 5.84951 9.67564 5.86005 9.63531ZM4.28838 7.63624C4.4058 6.83402 5.09969 6.30157 6.021 6.30157C6.03431 6.30157 6.0478 6.3017 6.06122 6.3019C6.10966 6.30138 6.14694 6.26249 6.14769 6.21211C6.14841 6.16179 6.11089 6.12035 6.06386 6.11956C5.03433 6.10103 4.25301 6.70048 4.12014 7.60793C4.11284 7.65778 4.1446 7.70442 4.19102 7.71217C4.19555 7.71302 4.19997 7.71335 4.20438 7.71335C4.24559 7.71335 4.28176 7.68123 4.28838 7.63624ZM7.86313 7.67217C7.81818 7.67217 7.7806 7.63446 7.77815 7.58579C7.76539 7.4667 7.52694 6.7416 6.78203 6.43997C6.73807 6.42211 6.71587 6.36949 6.73249 6.32233C6.74911 6.2753 6.79822 6.25152 6.84225 6.26926C7.70671 6.61942 7.94253 7.46118 7.94823 7.57613C7.95075 7.62638 7.91469 7.66934 7.86772 7.67203C7.86619 7.67217 7.86466 7.67217 7.86313 7.67217Z" fill="#2020ED"/>
<line x1="5.94492" y1="5.60898" x2="5.94492" y2="4.58171" stroke="#2020ED" stroke-width="0.2" stroke-linecap="round"/>
<line x1="5.94492" y1="13.3824" x2="5.94492" y2="12.3551" stroke="#2020ED" stroke-width="0.2" stroke-linecap="round"/>
<line x1="6.76328" y1="5.60898" x2="6.76328" y2="4.58171" stroke="#2020ED" stroke-width="0.2" stroke-linecap="round"/>
<line x1="6.76328" y1="13.3824" x2="6.76328" y2="12.3551" stroke="#2020ED" stroke-width="0.2" stroke-linecap="round"/>
<line x1="6.35508" y1="6.01914" x2="6.35508" y2="4.99187" stroke="#2020ED" stroke-width="0.2" stroke-linecap="round"/>
<line x1="6.35508" y1="12.9742" x2="6.35508" y2="11.9469" stroke="#2020ED" stroke-width="0.2" stroke-linecap="round"/>
</svg>
