<svg width="19" height="18" viewBox="0 0 19 18" fill="none" xmlns="http://www.w3.org/2000/svg">
<path d="M5.84375 8.96836C5.84375 9.46758 5.46758 9.81211 5 9.81211C4.53242 9.81211 4.15625 9.46758 4.15625 8.96836C4.15625 8.53242 4.53242 8.12461 5 8.12461C5.46758 8.12461 5.84375 8.53242 5.84375 8.96836ZM5.28125 5.59336C5.28125 5.15742 5.65742 4.74961 6.125 4.74961C6.59258 4.74961 6.96875 5.15742 6.96875 5.59336C6.96875 6.09258 6.59258 6.43711 6.125 6.43711C5.65742 6.43711 5.28125 6.09258 5.28125 5.59336ZM10.3438 4.46836C10.3438 4.96758 9.96758 5.31211 9.5 5.31211C9.03242 5.31211 8.65625 4.96758 8.65625 4.46836C8.65625 4.03242 9.03242 3.62461 9.5 3.62461C9.96758 3.62461 10.3438 4.03242 10.3438 4.46836ZM12.0312 5.59336C12.0312 5.15742 12.4074 4.74961 12.875 4.74961C13.3426 4.74961 13.7188 5.15742 13.7188 5.59336C13.7188 6.09258 13.3426 6.43711 12.875 6.43711C12.4074 6.43711 12.0312 6.09258 12.0312 5.59336ZM16.0355 11.2184H12.5938C11.6621 11.2184 10.9062 12.0059 10.9062 12.9375C10.9062 13.057 10.9203 13.173 10.9414 13.2855C11.0188 13.6441 11.1699 13.9605 11.3246 14.3367C11.5355 14.8219 11.75 15.3035 11.75 15.8133C11.75 16.9348 10.9906 17.9473 9.87266 17.993C9.74961 17.9965 9.62305 18 9.5 18C4.52891 18 0.5 13.9711 0.5 9C0.5 4.02891 4.52891 0 9.5 0C14.4711 0 18.5 4.02891 18.5 9C18.5 9.03164 18.4684 9.06328 18.4684 9.09492C18.4859 10.3781 17.3188 11.25 16.0355 11.25V11.2184ZM17.3434 9.08086C17.3434 9.05625 17.375 9.02812 17.375 8.96836C17.375 4.65117 13.8488 1.09336 9.5 1.09336C5.15117 1.09336 1.625 4.65117 1.625 8.96836C1.625 13.3488 5.15117 16.875 9.5 16.875C9.60898 16.875 9.71797 16.8715 9.82695 16.868C10.1926 16.8539 10.625 16.4918 10.625 15.8133C10.625 15.6305 10.5582 15.3984 10.3824 14.9906C10.3578 14.9379 10.3332 14.8816 10.277 14.8219C10.1539 14.4809 9.94297 14.0027 9.84102 13.5211C9.80234 13.3313 9.78125 13.1344 9.78125 12.9375C9.78125 11.3836 11.0398 10.125 12.5938 10.125H16.0355C16.8898 10.125 17.368 9.57656 17.3434 9.08086Z" fill="black"/>
</svg>
