<svg width="31" height="32" viewBox="0 0 31 32" fill="none" xmlns="http://www.w3.org/2000/svg">
<g clip-path="url(#clip0_5367_26756)">
<rect x="0.670898" y="0.828125" width="30.333" height="30.333" rx="15.1665" fill="#D0BCFF"/>
<rect width="30.333" height="30.333" transform="translate(0.670898 0.828125)" fill="#381E72" fill-opacity="0.12" rx="15.1665" />
<path d="M21.4713 16.7405C21.5017 16.4978 21.5244 16.2551 21.5244 15.9973C21.5244 15.7395 21.5017 15.4968 21.4713 15.2542L23.0714 14.0029C23.2155 13.8892 23.2534 13.6844 23.1624 13.5176L21.6458 10.8938C21.5548 10.727 21.35 10.6663 21.1832 10.727L19.2949 11.4853C18.9006 11.1819 18.476 10.9317 18.0134 10.7421L17.7252 8.73256C17.7025 8.55056 17.5432 8.41406 17.3536 8.41406H14.3203C14.1308 8.41406 13.9715 8.55056 13.9488 8.73256L13.6606 10.7421C13.198 10.9317 12.7733 11.1895 12.379 11.4853L10.4908 10.727C10.3164 10.6587 10.1192 10.727 10.0282 10.8938L8.51156 13.5176C8.41298 13.6844 8.45848 13.8892 8.60256 14.0029L10.2026 15.2542C10.1723 15.4968 10.1495 15.7471 10.1495 15.9973C10.1495 16.2476 10.1723 16.4978 10.2026 16.7405L8.60256 17.9917C8.45848 18.1055 8.42056 18.3102 8.51156 18.477L10.0282 21.1008C10.1192 21.2677 10.324 21.3283 10.4908 21.2677L12.379 20.5094C12.7733 20.8127 13.198 21.0629 13.6606 21.2525L13.9488 23.2621C13.9715 23.4441 14.1308 23.5806 14.3203 23.5806H17.3536C17.5432 23.5806 17.7025 23.4441 17.7252 23.2621L18.0134 21.2525C18.476 21.0629 18.9006 20.8051 19.2949 20.5094L21.1832 21.2677C21.3576 21.3359 21.5548 21.2677 21.6458 21.1008L23.1624 18.477C23.2534 18.3102 23.2155 18.1055 23.0714 17.9917L21.4713 16.7405ZM15.837 18.6515C14.3734 18.6515 13.1828 17.4609 13.1828 15.9973C13.1828 14.5337 14.3734 13.3432 15.837 13.3432C17.3005 13.3432 18.4911 14.5337 18.4911 15.9973C18.4911 17.4609 17.3005 18.6515 15.837 18.6515Z" fill="white"/>
</g>
<defs>
<clipPath id="clip0_5367_26756">
<rect x="0.670898" y="0.828125" width="30.333" height="30.333" rx="15.1665" fill="white"/>
</clipPath>
</defs>
</svg>
