<svg width="22" height="27" viewBox="0 0 22 27" fill="none" xmlns="http://www.w3.org/2000/svg">
<path d="M5.95564 26.0434C5.44303 25.7023 4.98871 25.2809 4.61014 24.7954C4.19372 24.2942 3.8079 23.7684 3.45477 23.2207C2.62608 22.0067 1.97621 20.6799 1.52508 19.2809C0.983141 17.6559 0.720703 16.0984 0.720703 14.5749C0.720703 12.8735 1.08877 11.3883 1.80864 10.1403C2.34227 9.16484 3.12685 8.34969 4.0812 7.77917C5.00608 7.20471 6.06877 6.89034 7.15733 6.86917C7.53839 6.86917 7.9487 6.92442 8.3842 7.03005C8.69701 7.11861 9.07808 7.25836 9.54364 7.43224C10.136 7.66055 10.4618 7.8003 10.5723 7.83442C10.9192 7.96117 11.2109 8.01642 11.44 8.01642C11.6139 8.01642 11.8593 7.96117 12.138 7.87667C12.2948 7.82142 12.5905 7.72392 13.0138 7.54274C13.4331 7.38999 13.7629 7.25917 14.0254 7.16167C14.4276 7.04305 14.8168 6.93336 15.1637 6.87811C15.575 6.81327 15.9924 6.79609 16.4076 6.82692C17.1272 6.87395 17.836 7.02644 18.5112 7.27949C19.6154 7.72392 20.5083 8.4178 21.1729 9.40417C20.892 9.57731 20.6284 9.77702 20.3856 10.0005C19.8572 10.469 19.4071 11.019 19.0523 11.6296C18.5886 12.4641 18.3482 13.4042 18.3544 14.3588C18.3714 15.5312 18.6721 16.5639 19.2644 17.4569C19.6998 18.1186 20.2658 18.6846 20.9276 19.12C21.2664 19.3484 21.5581 19.5052 21.8376 19.6108C21.7068 20.017 21.567 20.4103 21.4021 20.8003C21.028 21.6749 20.5746 22.5133 20.0476 23.3052C19.578 23.9869 19.2099 24.4947 18.9304 24.8327C18.4949 25.3487 18.0757 25.7427 17.6524 26.0174C17.1868 26.3261 16.6368 26.491 16.0778 26.491C15.6992 26.5056 15.3207 26.4598 14.9565 26.3554C14.6437 26.2497 14.3341 26.1352 14.0295 26.0044C13.7127 25.8589 13.3861 25.7359 13.052 25.6363C12.2263 25.4242 11.3605 25.4228 10.5341 25.6322C10.1953 25.7297 9.86945 25.8435 9.5477 25.9832C9.09514 26.1734 8.79451 26.3009 8.62064 26.3554C8.2737 26.4569 7.91376 26.5203 7.54976 26.5414C6.9867 26.5414 6.46183 26.3805 5.94183 26.0547L5.95564 26.0434ZM13.3819 6.04367C12.6458 6.41174 11.943 6.56855 11.245 6.51736C11.1353 5.81455 11.245 5.09549 11.5367 4.30817C11.785 3.64116 12.152 3.02457 12.6198 2.48817C13.1138 1.9235 13.7132 1.46067 14.3845 1.12561C15.0995 0.757548 15.7812 0.558486 16.4328 0.529236C16.5173 1.26536 16.4328 1.9893 16.1623 2.77174C15.9119 3.4634 15.5456 4.10743 15.0792 4.67624C14.6031 5.24168 14.0189 5.70631 13.3608 6.04286L13.3819 6.04367Z" fill="black"/>
</svg>
