<svg width="41" height="41" viewBox="0 0 41 41" fill="none" xmlns="http://www.w3.org/2000/svg">
<rect x="0.5" y="0.5" width="40" height="40" rx="11.5" fill="white" stroke="#E8ECF4"/>
<path d="M24.54 13.3024C24.4444 13.2065 24.3308 13.1305 24.2058 13.0786C24.0807 13.0267 23.9467 13 23.8113 13C23.676 13 23.5419 13.0267 23.4169 13.0786C23.2919 13.1305 23.1783 13.2065 23.0827 13.3024L16.2408 20.1443C16.1645 20.2204 16.1039 20.3109 16.0626 20.4105C16.0213 20.5101 16 20.6169 16 20.7247C16 20.8325 16.0213 20.9393 16.0626 21.0389C16.1039 21.1385 16.1645 21.229 16.2408 21.3052L23.0827 28.1471C23.4861 28.5505 24.1365 28.5505 24.54 28.1471C24.9434 27.7436 24.9434 27.0932 24.54 26.6898L18.579 20.7206L24.5482 14.7514C24.9434 14.3562 24.9434 13.6976 24.54 13.3024Z" fill="#1E232C" stroke="#1E232C" stroke-width="0.2"/>
</svg>
