<svg width="41" height="42" viewBox="0 0 41 42" fill="none" xmlns="http://www.w3.org/2000/svg">
<rect x="0.5" y="1.03003" width="40" height="40" rx="11.5" fill="white" stroke="#E8ECF4"/>
<path d="M23.1578 13.8972C23.0659 13.805 22.9567 13.7319 22.8365 13.682C22.7162 13.6321 22.5873 13.6064 22.4572 13.6064C22.327 13.6064 22.1981 13.6321 22.0779 13.682C21.9577 13.7319 21.8485 13.805 21.7566 13.8972L15.1778 20.4759C15.1044 20.5492 15.0462 20.6362 15.0065 20.7319C14.9667 20.8277 14.9463 20.9304 14.9463 21.034C14.9463 21.1377 14.9667 21.2404 15.0065 21.3362C15.0462 21.4319 15.1044 21.5189 15.1778 21.5922L21.7566 28.1709C22.1445 28.5588 22.7699 28.5588 23.1578 28.1709C23.5457 27.783 23.5457 27.1576 23.1578 26.7697L17.4261 21.0301L23.1657 15.2905C23.5457 14.9105 23.5457 14.2772 23.1578 13.8972Z" fill="#1E232C" stroke="#1E232C" stroke-width="0.2"/>
</svg>
