<svg width="33" height="34" viewBox="0 0 33 34" fill="none" xmlns="http://www.w3.org/2000/svg">
<path d="M16.5 33.1577C25.5247 33.1577 33 25.6984 33 16.6577C33 7.63303 25.5247 0.157715 16.484 0.157715C7.45934 0.157715 0 7.63303 0 16.6577C0 25.6984 7.47532 33.1577 16.5 33.1577Z" fill="black"/>
<path d="M23.8417 20.3895C22.6447 19.3777 21.9583 17.8989 21.9583 16.3322V14.125C21.9583 11.3391 19.8889 9.033 17.2083 8.64667V7.79167C17.2083 7.35387 16.8537 7 16.4167 7C15.9797 7 15.625 7.35387 15.625 7.79167V8.64667C12.9436 9.033 10.875 11.3391 10.875 14.125V16.3322C10.875 17.8989 10.1886 19.3777 8.9845 20.3958C8.67654 20.6594 8.5 21.0426 8.5 21.4479C8.5 22.2119 9.12146 22.8333 9.88542 22.8333H22.9479C23.7119 22.8333 24.3333 22.2119 24.3333 21.4479C24.3333 21.0426 24.1568 20.6594 23.8417 20.3895Z" fill="white"/>
<path d="M16.4164 26C17.8501 26 19.0495 24.978 19.325 23.625H13.5078C13.7833 24.978 14.9827 26 16.4164 26Z" fill="white"/>
</svg>
