<svg width="17" height="19" viewBox="0 0 17 19" fill="none" xmlns="http://www.w3.org/2000/svg">
<path d="M5.8125 14.0811C5.8125 14.3904 5.55937 14.6436 5.25 14.6436C4.94063 14.6436 4.6875 14.3904 4.6875 14.0811V6.20605C4.6875 5.89668 4.94063 5.64355 5.25 5.64355C5.55937 5.64355 5.8125 5.89668 5.8125 6.20605V14.0811ZM9.1875 14.0811C9.1875 14.3904 8.93437 14.6436 8.625 14.6436C8.31563 14.6436 8.0625 14.3904 8.0625 14.0811V6.20605C8.0625 5.89668 8.31563 5.64355 8.625 5.64355C8.93437 5.64355 9.1875 5.89668 9.1875 6.20605V14.0811ZM12.5625 14.0811C12.5625 14.3904 12.3094 14.6436 12 14.6436C11.6906 14.6436 11.4375 14.3904 11.4375 14.0811V6.20605C11.4375 5.89668 11.6906 5.64355 12 5.64355C12.3094 5.64355 12.5625 5.89668 12.5625 6.20605V14.0811ZM11.652 0.81168L12.5941 2.26855H15.9375C16.2469 2.26855 16.5 2.52027 16.5 2.83105C16.5 3.14184 16.2469 3.39355 15.9375 3.39355H15.375V15.2061C15.375 16.76 14.1164 18.0186 12.5625 18.0186H4.6875C3.1343 18.0186 1.875 16.76 1.875 15.2061V3.39355H1.3125C1.00186 3.39355 0.75 3.14184 0.75 2.83105C0.75 2.52027 1.00186 2.26855 1.3125 2.26855H4.65586L5.56641 0.81168C5.87578 0.318297 6.41719 0.0185547 6.99727 0.0185547H10.2527C10.8328 0.0185547 11.3742 0.318297 11.652 0.81168ZM5.98477 2.26855H11.2652L10.7273 1.40793C10.6254 1.2434 10.4461 1.14355 10.2527 1.14355H6.99727C6.80391 1.14355 6.62461 1.2434 6.52266 1.40793L5.98477 2.26855ZM3 15.2061C3 16.1377 3.75551 16.8936 4.6875 16.8936H12.5625C13.4941 16.8936 14.25 16.1377 14.25 15.2061V3.39355H3V15.2061Z" fill="#B4B4B4"/>
</svg>
