<svg width="113" height="129" viewBox="0 0 113 129" fill="none" xmlns="http://www.w3.org/2000/svg">
<path d="M45.1115 8.41797H68.2365C69.6115 8.41797 70.8865 9.11797 71.6365 10.293L75.4615 16.418H37.9115L41.7365 10.293C42.4615 9.11797 43.7615 8.41797 45.1365 8.41797H45.1115ZM84.9115 16.418L78.4365 6.06797C76.2365 2.54297 72.3865 0.417969 68.2615 0.417969H45.1115C40.9865 0.417969 37.1365 2.54297 34.9365 6.06797L28.4615 16.418H16.7115H8.68652H4.68652C2.48652 16.418 0.686523 18.218 0.686523 20.418C0.686523 22.618 2.48652 24.418 4.68652 24.418H9.26152L15.6365 113.568C16.2115 121.943 23.1865 128.418 31.5865 128.418H81.7865C90.1865 128.418 97.1365 121.943 97.7365 113.568L104.112 24.418H108.687C110.887 24.418 112.687 22.618 112.687 20.418C112.687 18.218 110.887 16.418 108.687 16.418H104.687H96.6615H84.9115ZM96.1115 24.418L89.7615 112.993C89.4615 117.168 85.9865 120.418 81.7865 120.418H31.5865C27.3865 120.418 23.9115 117.168 23.6115 112.993L17.2865 24.418H96.0865H96.1115Z" fill="white"/>
</svg>
