<svg width="25" height="24" viewBox="0 0 25 24" fill="none" xmlns="http://www.w3.org/2000/svg">
<path d="M24.5 12C24.5 18.6281 19.1281 24 12.5 24C5.87188 24 0.5 18.6281 0.5 12C0.5 5.37188 5.87188 0 12.5 0C19.1281 0 24.5 5.37188 24.5 12ZM4.56406 5.12344C2.96656 6.96563 2 9.37031 2 12C2 17.7984 6.70156 22.5 12.5 22.5C15.1297 22.5 17.5344 21.5344 19.3766 19.9359L4.56406 5.12344ZM23 12C23 6.20156 18.2984 1.5 12.5 1.5C9.87031 1.5 7.46563 2.46656 5.62344 4.06406L20.4359 18.8766C22.0344 17.0344 23 14.6297 23 11.9578V12Z" fill="#2020ED"/>
</svg>
