<svg width="22" height="25" viewBox="0 0 22 25" fill="none" xmlns="http://www.w3.org/2000/svg">
<g id="bolt-solid 1" clip-path="url(#clip0_334_7152)">
<path id="Vector" d="M16.7394 2.59105C17.016 1.94886 16.8098 1.19886 16.2426 0.786362C15.6754 0.373862 14.9019 0.411362 14.3723 0.870737L2.37226 11.3707C1.90351 11.7832 1.73476 12.4442 1.95507 13.0254C2.17538 13.6067 2.73788 14.0004 3.36132 14.0004H8.58788L4.98319 22.4098C4.70663 23.052 4.91288 23.802 5.48007 24.2145C6.04726 24.627 6.82069 24.5895 7.35038 24.1301L19.3504 13.6301C19.8191 13.2176 19.9879 12.5567 19.7676 11.9754C19.5473 11.3942 18.9894 11.0051 18.3613 11.0051H13.1348L16.7394 2.59105Z" fill="white"/>
</g>
<defs>
<clipPath id="clip0_334_7152">
<rect width="21" height="24" fill="white" transform="translate(0.359375 0.5)"/>
</clipPath>
</defs>
</svg>
