<svg width="32" height="32" viewBox="0 0 32 32" fill="none" xmlns="http://www.w3.org/2000/svg">
<path d="M26.7156 19.4969L21.9437 17.4503C21.0766 17.0899 20.0594 17.339 19.4711 18.0634L17.9177 19.9605C15.4469 18.6156 13.3891 16.5578 12.0437 14.0875L13.9431 12.5317C14.6777 11.9261 14.9195 10.9305 14.545 10.0548L12.5031 5.28297C12.0953 4.3412 11.0687 3.82483 10.075 4.0541L5.64859 5.08094C4.67828 5.30219 4 6.15156 4 7.14625C4 18.6438 13.3562 28 24.8547 28C25.8498 28 26.702 27.3231 26.9252 26.3533L27.947 21.925C28.1734 20.9266 27.6578 19.9047 26.7156 19.4969ZM25.4641 26.0172C25.3996 26.297 25.1432 26.5005 24.8556 26.5005C14.1822 26.5005 5.50094 17.8192 5.50094 7.14578C5.50094 6.85572 5.69941 6.60766 5.98562 6.54203L10.4111 5.515C10.458 5.50401 10.5048 5.49889 10.551 5.49889C10.7963 5.49889 11.0249 5.64392 11.1252 5.87534L13.168 10.6425C13.2766 10.9 13.2062 11.1953 12.9906 11.3734L10.6234 13.3141C10.3562 13.5344 10.2719 13.9094 10.4266 14.2234C11.9912 17.402 14.6036 20.0125 17.7812 21.5781C18.0925 21.7334 18.4717 21.6499 18.6925 21.3804L20.6327 19.0132C20.8062 18.7993 21.1089 18.729 21.3592 18.833L26.1217 20.8749C26.3986 20.995 26.5509 21.2953 26.4835 21.5883L25.4641 26.0172Z" fill="#181941"/>
</svg>
