<svg width="24" height="22" viewBox="0 0 24 22" fill="none" xmlns="http://www.w3.org/2000/svg">
<path d="M18 4.60586L19.4906 3.7143C19.8422 3.50102 20.3063 3.61633 20.5172 3.97164C20.7328 4.32461 20.6156 4.78867 20.2594 4.99961L18.3844 6.12461C18.15 6.26992 17.85 6.26992 17.6156 6.12461L15.7406 4.99961C15.3844 4.78867 15.2672 4.32461 15.4828 3.97164C15.6937 3.61633 16.1578 3.50102 16.5094 3.7143L18 4.60586ZM18 11.4824C18.4125 11.4824 18.75 11.8199 18.75 12.2324C18.75 12.6449 18.4125 12.9824 18 12.9824H6C5.5875 12.9824 5.25 12.6449 5.25 12.2324C5.25 11.8199 5.5875 11.4824 6 11.4824H18ZM18 15.9824C18.4125 15.9824 18.75 16.3199 18.75 16.7324C18.75 17.1449 18.4125 17.4824 18 17.4824H6C5.5875 17.4824 5.25 17.1449 5.25 16.7324C5.25 16.3199 5.5875 15.9824 6 15.9824H18ZM0 3.98242C0 2.32539 1.34297 0.982422 3 0.982422H21C22.6547 0.982422 24 2.32539 24 3.98242V18.9824C24 20.6371 22.6547 21.9824 21 21.9824H3C1.34297 21.9824 0 20.6371 0 18.9824V3.98242ZM1.5 3.98242V6.98242H22.5V3.98242C22.5 3.15414 21.8297 2.48242 21 2.48242H3C2.17172 2.48242 1.5 3.15414 1.5 3.98242ZM1.5 18.9824C1.5 19.8121 2.17172 20.4824 3 20.4824H21C21.8297 20.4824 22.5 19.8121 22.5 18.9824V8.48242H1.5V18.9824Z" fill="#181941"/>
</svg>
