<svg width="26" height="18" viewBox="0 0 26 18" fill="none" xmlns="http://www.w3.org/2000/svg">
<path d="M2.9275 18H22.8222C24.1486 18 25.1907 16.9579 25.1907 15.6316V2.36842C25.1907 1.04211 24.1486 0 22.8222 0H2.9275C1.60119 0 0.559082 1.04211 0.559082 2.36842V15.6316C0.559082 16.9579 1.60119 18 2.9275 18ZM22.8222 17.0526H2.9275C2.12224 17.0526 1.50645 16.4368 1.50645 15.6316V8.05263H24.2433V15.6316C24.2433 16.4368 23.6275 17.0526 22.8222 17.0526ZM2.9275 0.947368H22.8222C23.6275 0.947368 24.2433 1.56316 24.2433 2.36842V4.26316H1.50645V2.36842C1.50645 1.56316 2.12224 0.947368 2.9275 0.947368Z" fill="white"/>
<path d="M6.38507 9.94531H5.43771C4.3956 9.94531 3.54297 10.7979 3.54297 11.84V12.7874C3.54297 13.8295 4.3956 14.6822 5.43771 14.6822H6.38507C7.42718 14.6822 8.27981 13.8295 8.27981 12.7874V11.84C8.27981 10.7979 7.42718 9.94531 6.38507 9.94531Z" fill="white"/>
<path d="M22.2538 11.0391H9.70117V11.9864H22.2538V11.0391Z" fill="white"/>
<path d="M19.8854 12.9297H9.70117V13.8771H19.8854V12.9297Z" fill="white"/>
</svg>
