<svg width="19" height="17" viewBox="0 0 19 17" fill="none" xmlns="http://www.w3.org/2000/svg">
<path d="M2.19514 11.0191H2.75793V12.9835C2.75793 13.1999 2.88564 13.3991 3.08263 13.4878C3.15731 13.5214 3.23524 13.5376 3.31208 13.5376C3.44196 13.5376 3.57292 13.49 3.6779 13.4023L6.40753 11.019H13.5616C14.5173 11.019 15.2965 10.2408 15.2965 9.28408L15.2955 2.48496C15.2955 1.52927 14.5173 0.75 13.5605 0.75L2.19492 0.751082C1.23923 0.751082 0.459961 1.52927 0.459961 2.48604V9.28516C0.459961 10.2408 1.23945 11.0191 2.19514 11.0191ZM1.56848 2.4849C1.56848 2.13856 1.84879 1.85824 2.19514 1.85824H13.5585C13.9049 1.85824 14.1852 2.13856 14.1852 2.4849V9.28402C14.1852 9.63037 13.9049 9.91068 13.5585 9.91068H6.19886C6.06573 9.91068 5.93585 9.96047 5.83304 10.046L3.86537 11.7614V10.4616C3.86537 10.1564 3.61643 9.90744 3.31122 9.90744H2.19428C1.84793 9.90744 1.56762 9.62712 1.56762 9.28078L1.56848 2.4849Z" fill="#434343"/>
<path d="M17.2576 3.46099H16.7229C16.4177 3.46099 16.1688 3.70993 16.1688 4.01514C16.1688 4.32037 16.4177 4.56929 16.7229 4.56929H17.2576C17.6039 4.56929 17.8843 4.84961 17.8843 5.19595V11.9951C17.8843 12.3414 17.6039 12.6217 17.2576 12.6217H16.1407C15.8354 12.6217 15.5865 12.8707 15.5865 13.1759V14.4757L13.6188 12.7603C13.5193 12.6715 13.3894 12.625 13.253 12.625L6.8393 12.6239C6.53408 12.6239 6.28516 12.8728 6.28516 13.178C6.28516 13.4833 6.53409 13.7322 6.8393 13.7322H13.0485L15.7782 16.1155C15.881 16.2042 16.0109 16.2508 16.144 16.2508C16.2219 16.2508 16.2988 16.2345 16.3734 16.201C16.5704 16.1122 16.6981 15.9131 16.6981 15.6966V13.7322H17.2609C18.2166 13.7322 18.9959 12.954 18.9959 11.9973L18.9948 5.19481C18.9926 4.23913 18.2133 3.46099 17.2576 3.46099Z" fill="#434343"/>
<path d="M5.53359 6.54569C5.85178 6.54569 6.10721 6.2881 6.10721 5.97206C6.10721 5.65603 5.84962 5.39844 5.53359 5.39844C5.2154 5.39844 4.95996 5.65603 4.95996 5.97206C4.95996 6.2881 5.21755 6.54569 5.53359 6.54569Z" fill="#434343"/>
<path d="M7.99941 6.54569C8.3176 6.54569 8.57304 6.2881 8.57304 5.97206C8.57304 5.65603 8.31544 5.39844 7.99941 5.39844C7.68122 5.39844 7.42578 5.65603 7.42578 5.97206C7.42578 6.2881 7.68337 6.54569 7.99941 6.54569Z" fill="#434343"/>
<path d="M11.0388 5.97233C11.0388 6.73645 9.89258 6.73645 9.89258 5.97233C9.89258 5.20714 11.0388 5.20714 11.0388 5.97233Z" fill="#434343"/>
</svg>
