<svg width="25" height="24" viewBox="0 0 25 24" fill="none" xmlns="http://www.w3.org/2000/svg">
<path d="M20.4842 0.5625H3.76781C1.75887 0.5625 0.125 2.19643 0.125 4.20531V15.3364C0.125 17.2811 1.65821 18.8753 3.57937 18.9729V22.5837C3.57937 22.9126 3.76687 23.2115 4.06259 23.3551C4.18151 23.4129 4.30902 23.4408 4.43652 23.4408C4.62617 23.4408 4.81367 23.3776 4.96795 23.2565L8.2775 20.6401C9.63394 19.5686 11.3333 18.9772 13.0613 18.9772L20.4822 18.9783C22.4911 18.9783 24.125 17.3443 24.125 15.3355V4.20323C24.125 2.19644 22.492 0.5625 20.4842 0.5625ZM22.4107 15.3353C22.4107 16.3993 21.546 17.2639 20.4821 17.2639H13.0613C10.9484 17.2639 8.87208 17.985 7.21456 19.2953L5.29348 20.8146V18.1211C5.29348 17.6475 4.90991 17.2639 4.43633 17.2639H3.76562C2.70382 17.2639 1.83919 16.3993 1.83919 15.3375V4.20525C1.83919 3.14132 2.70382 2.27669 3.76775 2.27669H20.4842C21.546 2.27669 22.4106 3.14132 22.4106 4.20311L22.4107 15.3353Z" fill="#616180"/>
<path d="M12.125 10.7812H6.98215C6.50856 10.7812 6.125 11.1648 6.125 11.6384C6.125 12.112 6.50856 12.4955 6.98215 12.4955H12.125C12.5986 12.4955 12.9822 12.112 12.9822 11.6384C12.9822 11.1648 12.5986 10.7812 12.125 10.7812Z" fill="#616180"/>
<path d="M17.2679 7.04688H6.98215C6.50856 7.04688 6.125 7.43044 6.125 7.90402C6.125 8.37761 6.50856 8.76117 6.98215 8.76117H17.2679C17.7415 8.76117 18.1251 8.37761 18.1251 7.90402C18.1251 7.43044 17.7415 7.04688 17.2679 7.04688Z" fill="#616180"/>
</svg>
