<svg width="24" height="25" viewBox="0 0 24 25" fill="none" xmlns="http://www.w3.org/2000/svg">
<defs>
        <linearGradient id="paint0_linear_3600_13528" x1="24" y1="9.08023" x2="0.0182603" y2="14.8759" gradientUnits="userSpaceOnUse">
            <stop stop-color="#AC0D86"/>
            <stop offset="1" stop-color="#7A14AB"/>
        </linearGradient>
</defs>
<path d="M21 0.5H3C1.34766 0.5 0 1.84766 0 3.45781V16.9156C0 18.568 1.34766 19.8734 3 19.8734H7.5V23.7687C7.5 24.2299 8.01656 24.4977 8.39625 24.2234L14.25 19.9578H21C22.6523 19.9578 24 18.6102 24 17V3.45781C24 1.84766 22.6547 0.5 21 0.5ZM22.5 17C22.5 17.825 21.825 18.5 21 18.5H14.2453C13.9207 18.5 13.6045 18.6054 13.3448 18.8003L9 22.0625V19.25C9 18.8357 8.66419 18.5 8.25 18.5H3C2.175 18.5 1.5 17.825 1.5 17V3.5C1.5 2.675 2.175 2 3 2H21C21.825 2 22.5 2.675 22.5 3.5V17ZM15.75 9.5H12.75V6.45781C12.75 6.0875 12.4125 5.75 12 5.75C11.5875 5.75 11.25 6.0875 11.25 6.45781V9.5H8.25C7.8375 9.5 7.5 9.8375 7.5 10.25C7.5 10.6641 7.83544 10.9578 8.25 10.9578H11.25V14C11.25 14.4125 11.5875 14.75 12 14.75C12.4142 14.75 12.75 14.4144 12.75 14.0422V10.9578H15.75C16.1644 10.9578 16.5 10.6222 16.5 10.25C16.5 9.87781 16.1625 9.5 15.75 9.5Z" fill="url(#paint0_linear_3600_13528)"/>
</svg>
