<svg width="19" height="18" viewBox="0 0 19 18" fill="none" xmlns="http://www.w3.org/2000/svg">
<path d="M12.1473 6.35273C12.3688 6.5707 12.3688 6.9293 12.1473 7.14727L10.2945 9L12.1473 10.8527C12.3688 11.0707 12.3688 11.4293 12.1473 11.6473C11.9293 11.8687 11.5707 11.8687 11.3527 11.6473L9.5 9.79453L7.64727 11.6473C7.4293 11.8687 7.0707 11.8687 6.85273 11.6473C6.63125 11.4293 6.63125 11.0707 6.85273 10.8527L8.70547 9L6.85273 7.14727C6.63125 6.9293 6.63125 6.5707 6.85273 6.35273C7.0707 6.13125 7.4293 6.13125 7.64727 6.35273L9.5 8.20547L11.3527 6.35273C11.5707 6.13125 11.9293 6.13125 12.1473 6.35273ZM9.5 18C4.52891 18 0.5 13.9711 0.5 9C0.5 4.02891 4.52891 0 9.5 0C14.4711 0 18.5 4.02891 18.5 9C18.5 13.9711 14.4711 18 9.5 18ZM17.375 9C17.375 4.65117 13.8488 1.125 9.5 1.125C5.15117 1.125 1.625 4.65117 1.625 9C1.625 13.3488 5.15117 16.875 9.5 16.875C13.8488 16.875 17.375 13.3488 17.375 9Z" fill="#2D2D53"/>
</svg>
