<svg width="168" height="206" viewBox="0 0 168 206" fill="none" xmlns="http://www.w3.org/2000/svg">
<path d="M1.62046 102.443C1.61006 104.143 1.63373 105.835 1.69068 107.515C1.86638 112.701 2.35889 117.786 3.14512 122.741C3.90426 127.526 4.93723 132.191 6.2233 136.709C7.66578 141.777 9.42664 146.661 11.4766 151.324C13.6416 156.249 16.1291 160.928 18.9045 165.318C21.641 169.647 24.6574 173.695 27.9207 177.42C31.9034 181.967 36.2537 186.034 40.9116 189.546C45.3252 192.875 50.0149 195.705 54.9296 197.973C55.7667 198.359 56.6103 198.729 57.4602 199.083C65.6113 202.472 74.3396 204.334 83.4221 204.389C128.943 204.668 166.122 159.476 166.465 103.451C166.807 47.4257 130.183 1.78261 84.663 1.50421C77.5243 1.46055 70.5907 2.53517 63.9722 4.59449C61.071 5.49717 58.2304 6.58905 55.4595 7.85889C51.2581 9.78433 47.2171 12.1189 43.3689 14.8234C37.3257 19.0704 31.7578 24.2298 26.7902 30.1494C22.7442 34.9707 19.0964 40.2964 15.9143 46.0445C13.363 50.6531 11.111 55.5331 9.19323 60.6424C7.3663 65.5096 5.84263 70.5849 4.65232 75.8316C3.53469 80.7579 2.71097 85.8353 2.20604 91.0335C1.84236 94.7777 1.64406 98.5845 1.62046 102.443Z" fill="#FFF857"/>
<path d="M43.3689 14.8234L122.621 15.3081M43.3689 14.8234C37.3257 19.0704 31.7578 24.2298 26.7902 30.1494M43.3689 14.8234C47.2171 12.1189 51.2581 9.78433 55.4595 7.85889C58.2304 6.58905 61.071 5.49717 63.9722 4.59449M26.7902 30.1494L132.671 30.7969M26.7902 30.1494C22.7442 34.9707 19.0964 40.2964 15.9143 46.0445M15.9143 46.0445L132.573 46.7579M15.9143 46.0445C13.3629 50.6531 11.111 55.5331 9.19324 60.6424M9.19324 60.6424L132.484 61.3964M9.19324 60.6424C7.3663 65.5096 5.84263 70.5849 4.65232 75.8316M4.65232 75.8316L132.391 76.6128M4.65232 75.8316C3.53469 80.7579 2.71097 85.8353 2.20604 91.0335M2.20604 91.0335C1.84236 94.7777 1.64406 98.5845 1.62047 102.443C1.61007 104.143 1.63373 105.835 1.69068 107.515M2.20604 91.0335L132.298 91.8292M1.69068 107.515L132.197 108.314M1.69068 107.515C1.86638 112.701 2.35888 117.786 3.14512 122.741M3.14512 122.741L128.934 123.511M3.14512 122.741C3.90426 127.526 4.93724 132.191 6.22329 136.709M6.22329 136.709L125.678 137.44M6.22329 136.709C7.66578 141.777 9.42664 146.661 11.4766 151.324M11.4766 151.324L109.105 151.921M11.4766 151.324C13.6416 156.249 16.1291 160.928 18.9045 165.318M18.9045 165.318L87.4627 165.738M18.9045 165.318C21.641 169.647 24.6574 173.695 27.9207 177.42M27.9207 177.42L87.3891 177.784M27.9207 177.42C31.9034 181.967 36.2537 186.034 40.9116 189.546M40.9116 189.546L105.068 189.939M40.9116 189.546C45.3252 192.875 50.0149 195.705 54.9296 197.973C55.7667 198.359 56.6103 198.729 57.4602 199.083M57.4602 199.083C65.6113 202.472 74.3396 204.334 83.4221 204.389C128.943 204.668 166.122 159.476 166.465 103.451C166.807 47.4257 130.183 1.78261 84.663 1.50421C77.5243 1.46055 70.5907 2.53517 63.9722 4.59449M57.4602 199.083L98.0372 199.331M70.6926 5.22301L63.9722 4.59449" stroke="black" stroke-width="1.75701"/>
<ellipse cx="76.0833" cy="101.444" rx="76.0833" ry="101.444" transform="matrix(-0.999981 -0.00611583 -0.00611583 0.999981 167.085 2.0083)" fill="#FFF857" stroke="black" stroke-width="1.75701"/>
<path d="M92.2714 1.55518L85.9665 204.409" stroke="black" stroke-width="1.75701"/>
<path d="M14.2681 107.597L166.455 105.992" stroke="black" stroke-width="1.75701"/>
<path d="M15.4472 122.818L165.935 87.5982" stroke="black" stroke-width="1.75701"/>
<path d="M30.4021 165.39L153.503 45.6753" stroke="black" stroke-width="1.75701"/>
<path d="M38.5715 177.489L142.828 29.1271" stroke="black" stroke-width="1.75701"/>
<path d="M50.5459 188.972L130.226 15.7324" stroke="black" stroke-width="1.75701"/>
<path d="M65.707 198.581L113.173 5.48871" stroke="black" stroke-width="1.75701"/>
<path d="M150.87 164.861L26.6924 46.1703" stroke="black" stroke-width="1.75701"/>
<path d="M128.854 137.459L20.9018 60.7139" stroke="black" stroke-width="1.75701"/>
<path d="M122.796 193.852L52.8759 15.259" stroke="black" stroke-width="1.75701"/>
<path d="M139.368 181.278L36.9419 30.3843" stroke="black" stroke-width="1.75701"/>
<path d="M106.266 201.36L70.057 5.22058" stroke="black" stroke-width="1.75701"/>
<path d="M159.875 144.627L16.3705 75.2724" stroke="black" stroke-width="1.75701"/>
<path d="M165.078 123.098L15.0057 91.1121" stroke="black" stroke-width="1.75701"/>
<path d="M161.879 69.5776L18.8872 137.04" stroke="black" stroke-width="1.75701"/>
<ellipse cx="64.6708" cy="86.2278" rx="64.6708" ry="86.2278" transform="matrix(-0.999981 -0.00611583 -0.00611583 0.999981 155.579 17.1555)" fill="#FFF857" stroke="black" stroke-width="1.75701"/>
<ellipse cx="51.9903" cy="71.0111" rx="51.9903" ry="71.0111" transform="matrix(-0.999981 -0.00611583 -0.00611583 0.999981 144.083 32.303)" fill="#FFF857" stroke="black" stroke-width="1.75701"/>
</svg>
