<svg width="27" height="30" viewBox="0 0 27 30" fill="none" xmlns="http://www.w3.org/2000/svg">
<path id="Vector" d="M25.2919 15.6246L20.0844 17.0192L18.0772 15.8613V13.6883L20.0615 12.5488L25.2918 13.9503C25.3969 13.9783 25.5026 13.9922 25.6073 13.9922C26.1445 13.9922 26.6361 13.6334 26.7813 13.0899C26.9553 12.4404 26.5702 11.773 25.9208 11.5992L23.0535 10.8309L25.6968 9.3133C26.2794 8.97867 26.481 8.2348 26.1463 7.65195C25.8105 7.0691 25.0681 6.86717 24.4853 7.2026L21.8365 8.72377L22.6046 5.85543C22.7784 5.20613 22.3939 4.53854 21.7442 4.36473C21.0988 4.19544 20.4286 4.57624 20.2545 5.22511L18.8589 10.4328L16.8621 11.5796L14.9692 10.4851V8.18869L18.7971 4.3609C19.2723 3.88547 19.2723 3.1154 18.7971 2.63991C18.3218 2.16454 17.5519 2.16454 17.0762 2.63991L14.9692 4.74683V1.68818C14.9693 1.0162 14.4243 0.471298 13.7522 0.471298C13.0803 0.471298 12.5354 1.01614 12.5354 1.68818V4.73175L10.4437 2.63991C9.96833 2.16454 9.19825 2.16454 8.72276 2.63991C8.24739 3.11534 8.24739 3.88541 8.72276 4.3609L12.5354 8.17343V10.494L10.6568 11.5777L8.66003 10.432L7.26538 5.22517C7.09164 4.5763 6.4246 4.19445 5.7758 4.36479C5.12644 4.5386 4.74107 5.20619 4.91506 5.85549L5.68309 8.72334L3.03448 7.2026C2.45057 6.86711 1.70733 7.0686 1.37319 7.65226C1.03874 8.23524 1.24043 8.97861 1.82322 9.31324L4.46627 10.8308L1.59885 11.5991C0.949432 11.7729 0.56418 12.4404 0.738109 13.0899C0.883667 13.6333 1.37517 13.9921 1.91247 13.9921C2.01711 13.9921 2.1228 13.9783 2.22825 13.9502L7.45922 12.5483L9.44135 13.6863L9.44339 15.8612L7.43548 17.0212L2.22825 15.6245C1.5834 15.4553 0.912285 15.8365 0.738109 16.4851C0.56418 17.1343 0.949432 17.802 1.59885 17.9749L4.45576 18.7411L1.82019 20.2626C1.23839 20.5989 1.03874 21.3425 1.37523 21.9244C1.60064 22.316 2.00957 22.5328 2.42968 22.5328C2.63594 22.5328 2.84528 22.4815 3.03707 22.3693L5.68599 20.8406L4.91506 23.7195C4.74107 24.3698 5.12644 25.0354 5.7758 25.2102C5.88094 25.2387 5.98657 25.2522 6.09127 25.2522C6.62832 25.2522 7.11982 24.8928 7.26538 24.349L8.66695 19.1197L10.6604 17.9695L12.5354 19.0514V21.4017L8.72276 25.2143C8.24739 25.6896 8.24739 26.4596 8.72276 26.9352C8.96048 27.1729 9.27131 27.2907 9.5832 27.2907C9.89403 27.2907 10.206 27.1729 10.4437 26.9352L12.5354 24.8435V27.886C12.5354 28.5592 13.0803 29.1029 13.7522 29.1029C14.4243 29.1029 14.9693 28.5591 14.9693 27.886V24.8283L17.0763 26.9352C17.3139 27.1729 17.6248 27.2907 17.9367 27.2907C18.2487 27.2907 18.5595 27.1729 18.7972 26.9352C19.2723 26.4597 19.2723 25.6897 18.7972 25.2143L14.9693 21.3865V19.0608L16.8603 17.9694L18.8532 19.1196L20.2548 24.3489C20.4002 24.8927 20.8917 25.2521 21.4287 25.2521C21.533 25.2521 21.6389 25.2386 21.7443 25.2101C22.394 25.0352 22.7785 24.3697 22.6047 23.7194L21.8329 20.8405L24.4829 22.3691C24.6747 22.4813 24.884 22.5327 25.0903 22.5327C25.5104 22.5327 25.9192 22.3159 26.1447 21.9242C26.4811 21.3424 26.2816 20.5989 25.6997 20.2625L23.0642 18.7412L25.921 17.9749C26.5704 17.8021 26.9555 17.1343 26.7815 16.4852C26.6086 15.8365 25.9402 15.4545 25.2919 15.6246ZM15.6433 15.8613L13.7598 16.949L11.8778 15.8612L11.8757 13.6844L13.7598 12.5974L15.6433 13.686V15.8613Z" fill="#A3ADB2"/>
</svg>
