<svg width="19" height="19" viewBox="0 0 19 19" fill="none" xmlns="http://www.w3.org/2000/svg">
<path d="M10.5199 15.4609C10.2105 15.4609 9.95738 15.7141 9.95738 16.0234V16.5859C9.95738 17.2071 9.45359 17.7109 8.83238 17.7109H3.20738C2.58617 17.7109 2.08238 17.2071 2.08238 16.5859V7.58594C2.08238 6.96473 2.58617 6.46094 3.20738 6.46094H7.14488C7.45426 6.46094 7.70738 6.20781 7.70738 5.89844C7.70738 5.58906 7.45426 5.33594 7.14488 5.33594H3.20703C1.96426 5.33594 0.957031 6.34316 0.957031 7.58594L0.957376 16.5859C0.957383 17.827 1.96461 18.8359 3.20738 18.8359H8.83238C10.0752 18.8359 11.0824 17.8287 11.0824 16.5859V16.0234C11.0824 15.7141 10.8293 15.4609 10.5199 15.4609ZM18.6269 3.88152L15.9111 1.1657C15.7019 0.954449 15.4136 0.835938 15.1148 0.835938H11.0824C9.84137 0.835938 8.83238 1.84316 8.83238 3.08594V12.0859C8.83238 13.3287 9.83961 14.3359 11.0824 14.3359H16.7074C17.9502 14.3359 18.9574 13.3287 18.9574 12.0859V4.67852C18.9574 4.37969 18.8379 4.09246 18.6269 3.88152ZM15.5824 2.42676L17.3648 4.21094H15.5824V2.42676ZM17.8324 12.0859C17.8324 12.7071 17.3286 13.2109 16.7074 13.2109H11.0824C10.4612 13.2109 9.95738 12.7071 9.95738 12.0859V3.08594C9.95738 2.46473 10.4612 1.96094 11.0824 1.96094H14.4574L14.4575 4.21094C14.4575 4.83215 14.9613 5.33594 15.5825 5.33594H17.8324V12.0859Z" fill="#181941"/>
</svg>
