<svg width="16" height="18" viewBox="0 0 16 18" fill="none" xmlns="http://www.w3.org/2000/svg">
<path d="M5.0625 14.0625C5.0625 14.3719 4.80937 14.625 4.5 14.625C4.19063 14.625 3.9375 14.3719 3.9375 14.0625V6.1875C3.9375 5.87813 4.19063 5.625 4.5 5.625C4.80937 5.625 5.0625 5.87813 5.0625 6.1875V14.0625ZM8.4375 14.0625C8.4375 14.3719 8.18437 14.625 7.875 14.625C7.56563 14.625 7.3125 14.3719 7.3125 14.0625V6.1875C7.3125 5.87813 7.56563 5.625 7.875 5.625C8.18437 5.625 8.4375 5.87813 8.4375 6.1875V14.0625ZM11.8125 14.0625C11.8125 14.3719 11.5594 14.625 11.25 14.625C10.9406 14.625 10.6875 14.3719 10.6875 14.0625V6.1875C10.6875 5.87813 10.9406 5.625 11.25 5.625C11.5594 5.625 11.8125 5.87813 11.8125 6.1875V14.0625ZM10.902 0.793125L11.8441 2.25H15.1875C15.4969 2.25 15.75 2.50172 15.75 2.8125C15.75 3.12328 15.4969 3.375 15.1875 3.375H14.625V15.1875C14.625 16.7414 13.3664 18 11.8125 18H3.9375C2.3843 18 1.125 16.7414 1.125 15.1875V3.375H0.5625C0.251859 3.375 0 3.12328 0 2.8125C0 2.50172 0.251859 2.25 0.5625 2.25H3.90586L4.81641 0.793125C5.12578 0.299742 5.66719 0 6.24727 0H9.50273C10.0828 0 10.6242 0.299742 10.902 0.793125ZM5.23477 2.25H10.5152L9.97734 1.38937C9.87539 1.22484 9.69609 1.125 9.50273 1.125H6.24727C6.05391 1.125 5.87461 1.22484 5.77266 1.38937L5.23477 2.25ZM2.25 15.1875C2.25 16.1191 3.00551 16.875 3.9375 16.875H11.8125C12.7441 16.875 13.5 16.1191 13.5 15.1875V3.375H2.25V15.1875Z" fill="#EA4841"/>
</svg>
