<svg width="32" height="32" viewBox="0 0 32 32" fill="none" xmlns="http://www.w3.org/2000/svg">
<rect width="32" height="32" rx="6" fill="#F3F3F3"/>
<path d="M17.3333 10.3333V5H10C8.89542 5 8 5.89542 8 7V24.3333C8 25.4375 8.89542 26.3333 10 26.3333H22C23.1046 26.3333 24 25.4379 24 24.3333V11.6667H18.7042C17.9292 11.6667 17.3333 11.0708 17.3333 10.3333ZM19.3375 16.0167L17.3333 19.3333L19.3746 22.6504C19.65 23.0958 19.3292 23.6667 18.8083 23.6667H17.7071C17.4755 23.6667 17.2608 23.5465 17.1392 23.3493L16 21.5L14.8621 23.3492C14.7417 23.5458 14.525 23.6667 14.2958 23.6667H13.1917C12.67 23.6667 12.3504 23.0946 12.6238 22.6504L14.6667 19.3333L12.625 16.0167C12.35 15.5708 12.6708 15 13.1917 15H14.2929C14.5245 15 14.7392 15.1201 14.8608 15.3172L16 17.1667L17.1379 15.3171C17.2583 15.1208 17.475 15 17.7042 15H18.8054C19.3292 15 19.65 15.5708 19.3375 16.0167ZM18.6667 5V10.3333H24L18.6667 5Z" fill="#2062AF"/>
</svg>
