<svg width="16" height="21" viewBox="0 0 16 21" fill="none" xmlns="http://www.w3.org/2000/svg">
<path d="M13.333 0.257812H3.33301C1.95215 0.257812 0.833008 1.37695 0.833008 2.75781V17.7578C0.833008 19.1387 1.95215 20.2578 3.33301 20.2578H13.333C14.7139 20.2578 15.833 19.1387 15.833 17.7578V2.75781C15.833 1.37695 14.7119 0.257812 13.333 0.257812ZM8.95801 14.0078H3.95801C3.6127 14.0078 3.33301 13.7266 3.33301 13.3828C3.33301 13.0391 3.6127 12.7578 3.95801 12.7578H8.95801C9.30324 12.7578 9.58301 13.0377 9.58301 13.3828C9.58301 13.728 9.30176 14.0078 8.95801 14.0078ZM12.708 10.2578H3.95801C3.6127 10.2578 3.33301 9.97656 3.33301 9.63281C3.33301 9.28906 3.6127 9.00781 3.95801 9.00781H12.708C13.0518 9.00781 13.333 9.28906 13.333 9.63281C13.333 9.97656 13.0518 10.2578 12.708 10.2578ZM12.708 6.50781H3.95801C3.6127 6.50781 3.33301 6.22656 3.33301 5.88281C3.33301 5.53906 3.6127 5.25781 3.95801 5.25781H12.708C13.0518 5.25781 13.333 5.53906 13.333 5.88281C13.333 6.22656 13.0518 6.50781 12.708 6.50781Z" fill="#2020ED"/>
</svg>
