<svg width="18" height="25" viewBox="0 0 18 25" fill="none" xmlns="http://www.w3.org/2000/svg">
<path d="M17.1234 6.16446L12.1312 1.17227C11.5641 0.607051 10.8047 0.29102 10.0078 0.29102L3 0.291016C1.34297 0.291016 0 1.63398 0 3.29101L0.000304688 21.291C0.000304688 22.948 1.34327 24.291 3.0003 24.291H15C16.657 24.291 18 22.948 18 21.291V8.2832C18 7.48633 17.6859 6.72696 17.1234 6.16446ZM10.5 1.88852C10.7099 1.96193 10.9062 2.0688 11.0681 2.23066L16.0603 7.22285C16.2234 7.38321 16.3312 7.58008 16.4016 7.79102H11.25C10.8375 7.79102 10.5 7.45352 10.5 7.04102V1.88852ZM16.5 21.291C16.5 22.1179 15.8269 22.791 15 22.791H3C2.17313 22.791 1.5 22.1179 1.5 21.291V3.29102C1.5 2.46414 2.17313 1.79102 3 1.79102H9V7.04102C9 8.28321 10.0078 9.29102 11.25 9.29102H16.5V21.291ZM4.5 13.041C4.5 13.4535 4.8375 13.791 5.25 13.791H12.75C13.1625 13.791 13.5 13.4535 13.5 13.041C13.5 12.6285 13.1625 12.291 12.75 12.291H5.25C4.8375 12.291 4.5 12.6285 4.5 13.041ZM12.75 15.291H5.25C4.8375 15.291 4.5 15.6285 4.5 16.041C4.5 16.4535 4.8375 16.791 5.25 16.791H12.75C13.1643 16.791 13.5 16.4552 13.5 16.041C13.5 15.6268 13.1625 15.291 12.75 15.291ZM12.75 18.291H5.25C4.8375 18.291 4.5 18.6285 4.5 19.041C4.5 19.4535 4.8375 19.791 5.25 19.791H12.75C13.1643 19.791 13.5 19.4552 13.5 19.041C13.5 18.6268 13.1625 18.291 12.75 18.291Z" fill="#181941"/>
</svg>
