<svg width="32" height="32" viewBox="0 0 32 32" fill="none" xmlns="http://www.w3.org/2000/svg">
<path d="M0 16C0 7.16344 7.16344 0 16 0V0C24.8366 0 32 7.16344 32 16V16C32 24.8366 24.8366 32 16 32V32C7.16344 32 0 24.8366 0 16V16Z" fill="#B0B0B0" fill-opacity="0.56"/>
<path d="M19.9703 16.2203L16.75 19.4406V10.75C16.75 10.3375 16.4125 10 16 10C15.5875 10 15.25 10.3375 15.25 10.75V19.4406L12.0297 16.2203C11.7367 15.9273 11.2619 15.9273 10.9694 16.2203C10.6769 16.5133 10.6764 16.9881 10.9694 17.2806L15.4694 21.7806C15.6156 21.925 15.8078 22 16 22C16.1922 22 16.3838 21.9268 16.5302 21.7803L21.0302 17.2803C21.3231 16.9873 21.3231 16.5124 21.0302 16.2199C20.7372 15.9274 20.2609 15.925 19.9703 16.2203ZM16 4C9.37188 4 4 9.37188 4 16C4 22.6281 9.37188 28 16 28C22.6281 28 28 22.6281 28 16C28 9.37188 22.6281 4 16 4ZM16 26.5C10.2109 26.5 5.5 21.7891 5.5 16C5.5 10.2109 10.2109 5.5 16 5.5C21.7891 5.5 26.5 10.2109 26.5 16C26.5 21.7891 21.7891 26.5 16 26.5Z" fill="white"/>
</svg>
