<svg width="21" height="21" viewBox="0 0 21 21" fill="none" xmlns="http://www.w3.org/2000/svg">
<g id="ei:plus">
<path id="Vector" d="M10.4992 17.1137C6.73922 17.1137 3.69922 14.0737 3.69922 10.3137C3.69922 6.55367 6.73922 3.51367 10.4992 3.51367C14.2592 3.51367 17.2992 6.55367 17.2992 10.3137C17.2992 14.0737 14.2592 17.1137 10.4992 17.1137ZM10.4992 4.31367C7.17922 4.31367 4.49922 6.99367 4.49922 10.3137C4.49922 13.6337 7.17922 16.3137 10.4992 16.3137C13.8192 16.3137 16.4992 13.6337 16.4992 10.3137C16.4992 6.99367 13.8192 4.31367 10.4992 4.31367Z" fill="white"/>
<path id="Vector_2" d="M6.89844 9.91406H14.0984V10.7141H6.89844V9.91406Z" fill="white"/>
<path id="Vector_3" d="M10.1016 6.71484H10.9016V13.9148H10.1016V6.71484Z" fill="white"/>
</g>
</svg>
