<svg width="18" height="16" viewBox="0 0 18 16" fill="none" xmlns="http://www.w3.org/2000/svg">
<path d="M17.8348 7.47773L12.7723 2.41523C12.5525 2.19551 12.1964 2.19551 11.977 2.41523C11.7577 2.63496 11.7573 2.99109 11.977 3.21047L16.0805 7.3125H6.1875C5.87813 7.3125 5.625 7.56563 5.625 7.875C5.625 8.18437 5.87658 8.4375 6.1875 8.4375H16.0805L11.9777 12.5402C11.758 12.76 11.758 13.1161 11.9777 13.3355C12.1975 13.5548 12.5536 13.5552 12.773 13.3355L17.8355 8.27297C17.9438 8.16328 18 8.01914 18 7.875C18 7.73086 17.9438 7.58672 17.8348 7.47773ZM6.1875 14.625H2.8125C1.88191 14.625 1.125 13.8691 1.125 12.9375V2.8125C1.125 1.88191 1.88191 1.125 2.8125 1.125H6.1875C6.49687 1.125 6.75 0.873281 6.75 0.5625C6.75 0.251719 6.49687 0 6.1875 0H2.8125C1.26141 0 0 1.26141 0 2.8125V12.9375C0 14.4879 1.26141 15.75 2.8125 15.75H6.1875C6.49687 15.75 6.75 15.4969 6.75 15.1875C6.75 14.8781 6.49687 14.625 6.1875 14.625Z" fill="#EA4841"/>
</svg>
