<svg width="18" height="14" viewBox="0 0 18 14" fill="none" xmlns="http://www.w3.org/2000/svg">
<path d="M13.0006 7.0003C13.0006 9.20977 11.2099 11.0005 9.00039 11.0005C6.79092 11.0005 5.00022 9.20977 5.00022 7.0003C5.00022 4.79083 6.79092 3.00013 9.00039 3.00013C11.2099 3.00013 13.0006 4.79083 13.0006 7.0003ZM9.00039 4.00017C7.31595 4.00017 6.00026 5.31586 6.00026 7.0003C6.00026 8.65662 7.31595 10.0004 9.00039 10.0004C10.6567 10.0004 12.0005 8.65662 12.0005 7.0003C12.0005 5.31586 10.6567 4.00017 9.00039 4.00017ZM15.0194 2.51886C16.482 3.87517 17.4601 5.47211 17.9227 6.61591C18.0258 6.8628 18.0258 7.13781 17.9227 7.38469C17.4601 8.50037 16.482 10.0973 15.0194 11.4817C13.5475 12.8506 11.5255 14.0006 9.00039 14.0006C6.47528 14.0006 4.45332 12.8506 2.98201 11.4817C1.51944 10.0973 0.541902 8.50037 0.0769135 7.38469C-0.0256378 7.13781 -0.0256378 6.8628 0.0769135 6.61591C0.541902 5.47211 1.51944 3.87517 2.98201 2.51886C4.45332 1.1513 6.47528 0 9.00039 0C11.5255 0 13.5475 1.1513 15.0194 2.51886ZM1.00005 7.0003C1.41663 8.00035 2.31667 9.50041 3.66266 10.7505C5.0096 12.0005 6.8003 13.0006 9.00039 13.0006C11.2005 13.0006 12.9912 12.0005 14.3381 10.7505C15.6851 9.50041 16.5851 8.00035 17.0007 7.0003C16.5851 5.97213 15.6851 4.47207 14.3381 3.25014C12.9912 1.99977 11.2005 1.00004 9.00039 1.00004C6.8003 1.00004 5.0096 1.99977 3.66266 3.25014C2.31667 4.47207 1.41663 5.97213 1.00005 7.0003Z" fill="#2020ED"/>
</svg>
