<svg width="19" height="18" viewBox="0 0 19 18" fill="none" xmlns="http://www.w3.org/2000/svg">
<path d="M9.5 0C4.52891 0 0.5 4.02891 0.5 9C0.5 13.9711 4.52891 18 9.5 18C14.4711 18 18.5 13.9711 18.5 9C18.5 4.02891 14.4711 0 9.5 0ZM9.5 16.875C5.1582 16.875 1.625 13.3418 1.625 9C1.625 4.6582 5.1582 1.125 9.5 1.125C13.8418 1.125 17.375 4.6582 17.375 9C17.375 13.3418 13.8418 16.875 9.5 16.875ZM8.9375 12.0938C8.47168 12.0938 8.09375 12.4717 8.09375 12.9375C8.09375 13.4033 8.47168 13.7812 8.9375 13.7812C9.40332 13.7812 9.78125 13.4033 9.78125 12.9375C9.78125 12.4717 9.40508 12.0938 8.9375 12.0938ZM10.5406 4.5H8.45937C7.17266 4.5 6.125 5.54766 6.125 6.83437V7.17188C6.125 7.4828 6.37658 7.73438 6.6875 7.73438C6.99842 7.73438 7.25 7.48125 7.25 7.17188V6.83437C7.25 6.16641 7.79141 5.625 8.45937 5.625H10.5424C11.2086 5.625 11.75 6.16641 11.75 6.83437C11.75 7.27312 11.5116 7.67812 11.1502 7.87922L9.02539 8.94023C8.62461 9.16523 8.375 9.58711 8.375 10.0477V10.6875C8.375 10.9969 8.62813 11.25 8.9375 11.25C9.24687 11.25 9.5 10.9969 9.5 10.6875V10.0477C9.5 9.99657 9.52747 9.94932 9.55055 9.93614L11.6743 8.87372C12.4145 8.46211 12.875 7.68164 12.875 6.83437C12.875 5.54766 11.8273 4.5 10.5406 4.5Z" fill="#181941"/>
</svg>
