<svg width="16" height="19" viewBox="0 0 16 19" fill="none" xmlns="http://www.w3.org/2000/svg">
<path d="M14.0625 6.12501H12.9375C12.6281 6.12501 12.375 6.37813 12.375 6.68751C12.375 6.99688 12.6281 7.25 12.9375 7.25H14.0625C14.3719 7.25 14.625 7.50313 14.625 7.8125V16.8125C14.625 17.1223 14.3723 17.375 14.0625 17.375H1.6875C1.37777 17.375 1.125 17.1219 1.125 16.8125V7.8125C1.125 7.50313 1.37777 7.25 1.6875 7.25H2.8125C3.12187 7.25 3.375 6.99688 3.375 6.68751C3.375 6.37813 3.12187 6.12501 2.8125 6.12501H1.6875C0.756914 6.12501 0 6.88086 0 7.8125V16.8125C0 17.7441 0.756914 18.5 1.6875 18.5H14.0625C14.9931 18.5 15.75 17.7431 15.75 16.8125V7.8125C15.75 6.88086 14.9941 6.12501 14.0625 6.12501ZM4.5 5.00001C4.64393 5.00001 4.78786 4.94509 4.89762 4.83519L7.3125 2.42059V12.3125C7.3125 12.6234 7.56408 12.8757 7.875 12.8757C8.18592 12.8757 8.4375 12.6219 8.4375 12.3125V2.42059L10.8524 4.83547C10.9617 4.94376 11.1059 5.00001 11.25 5.00001C11.5713 5.00001 11.8125 4.73728 11.8125 4.43751C11.8125 4.29358 11.7576 4.14965 11.6477 4.03989L8.27269 0.66489C8.16328 0.554921 8.01914 0.5 7.875 0.5C7.73086 0.5 7.58672 0.554921 7.47773 0.664819L4.10273 4.03982C3.99375 4.14922 3.9375 4.29337 3.9375 4.43751C3.9375 4.73633 4.18008 5.00001 4.5 5.00001Z" fill="black"/>
</svg>
