<svg width="24" height="24" viewBox="0 0 24 24" fill="none" xmlns="http://www.w3.org/2000/svg">
<path d="M12 4.7999V3H6.59995V4.80005L3 4.7999V6.59996H6.59995V8.40001H12V6.59996H20.9998V4.7999L12 4.7999ZM10.1999 6.59995H8.40001V4.7999H10.2001L10.1999 6.59995Z" fill="#B3B3B3"/>
<path d="M18.2999 9.29688H12.8998V11.0969H3.00009V12.897H12.9002V14.697H18.3002V12.897H21.0002V11.0969H18.3002L18.2999 9.29688ZM16.5 12.8968H14.6999V11.0968H16.5V12.8968Z" fill="#B3B3B3"/>
<path d="M14.7 15.6016H9.29997V17.4016H3.00009V19.2017H9.29997V21.0017H14.7V19.2017H20.9999V17.4016H14.7V15.6016ZM12.8999 19.2017H11.0999V17.4016H12.8999V19.2017Z" fill="#B3B3B3"/>
</svg>
