<svg width="24" height="18" viewBox="0 0 24 18" fill="none" xmlns="http://www.w3.org/2000/svg">
<path d="M8.25 7.49927H21.1781L13.7672 1.32583C13.4493 1.06071 13.4068 0.587549 13.672 0.269737C13.9386 -0.0495759 14.4117 -0.0905915 14.7281 0.174534L23.7281 7.63235C23.9016 7.81802 24 8.02427 24 8.20708C24 8.42974 23.9018 8.64082 23.7305 8.78271L14.7305 16.2405C14.5898 16.3577 14.4199 16.4148 14.25 16.4148C14.0362 16.4148 13.8223 16.3225 13.6744 16.1453C13.4093 15.8275 13.4517 15.3545 13.7696 15.0892L21.1805 8.91578H8.25C4.52766 8.91578 1.5 11.9434 1.5 15.6236V17.0814C1.5 17.6618 1.16438 17.9993 0.75 17.9993C0.335625 17.9993 0 17.6618 0 17.2493V15.7915C0 11.1602 3.70172 7.49927 8.25 7.49927Z" fill="#181941"/>
</svg>
