<svg width="390" height="844" viewBox="0 0 390 844" fill="none" xmlns="http://www.w3.org/2000/svg">
<g clip-path="url(#clip0_14_178)">
<rect width="390" height="844" fill="#FCFF76"/>
<rect x="119" y="300" width="151" height="151" rx="32.6653" fill="white"/>
<path d="M260.563 350.972L244.833 359.623L229.104 374.566V425.843H251.125C256.338 425.843 260.563 421.618 260.563 416.405V350.972Z" fill="#4CAF50"/>
<path d="M128.438 350.972L139.807 356.351L159.896 374.566V425.843H137.875C132.662 425.843 128.438 421.618 128.438 416.405V350.972Z" fill="#1E88E5"/>
<path d="M229.104 335.241L194.5 361.194L159.896 335.241L156.75 353.487L159.896 374.564L194.5 400.517L229.104 374.564L232.25 353.487L229.104 335.241Z" fill="#E53935"/>
<path d="M128.438 338.689V350.964L159.896 374.558V335.235L150.068 327.871C147.728 326.115 144.884 325.168 141.958 325.168C134.49 325.168 128.438 331.221 128.438 338.689Z" fill="#C62828"/>
<path d="M260.563 338.689V350.964L229.104 374.558V335.235L238.932 327.871C241.272 326.115 244.116 325.168 247.042 325.168C254.51 325.168 260.563 331.221 260.563 338.689Z" fill="#FBC02D"/>
<path d="M139.399 205.235C139.393 206.329 139.408 207.417 139.445 208.498C139.558 211.832 139.874 215.102 140.38 218.289C140.868 221.366 141.532 224.366 142.359 227.271C143.287 230.53 144.419 233.671 145.738 236.67C147.13 239.837 148.73 242.846 150.514 245.669C152.274 248.453 154.214 251.056 156.313 253.452C158.874 256.376 161.671 258.991 164.667 261.25C167.505 263.39 170.521 265.21 173.681 266.669C174.22 266.917 174.762 267.155 175.309 267.382C180.55 269.562 186.163 270.759 192.004 270.795C221.277 270.974 245.187 241.912 245.407 205.884C245.627 169.855 222.075 140.503 192.802 140.324C188.211 140.296 183.753 140.987 179.496 142.311C177.631 142.892 175.804 143.594 174.022 144.411C171.32 145.649 168.722 147.15 166.247 148.889C162.361 151.621 158.78 154.938 155.585 158.745C152.984 161.846 150.638 165.271 148.591 168.967C146.951 171.931 145.503 175.069 144.269 178.355C143.094 181.485 142.115 184.748 141.349 188.122C140.63 191.29 140.101 194.556 139.776 197.898C139.542 200.306 139.415 202.754 139.399 205.235Z" fill="#FFF857"/>
<path d="M166.247 148.889L217.212 149.201M166.247 148.889C162.361 151.621 158.78 154.938 155.585 158.745M166.247 148.889C168.722 147.15 171.32 145.649 174.022 144.411C175.804 143.594 177.631 142.892 179.496 142.311M155.585 158.745L223.675 159.162M155.585 158.745C152.984 161.846 150.638 165.271 148.591 168.967M148.591 168.967L223.612 169.426M148.591 168.967C146.951 171.931 145.503 175.069 144.269 178.355M144.269 178.355L223.555 178.839M144.269 178.355C143.094 181.485 142.115 184.748 141.349 188.122M141.349 188.122L223.495 188.625M141.349 188.122C140.63 191.29 140.101 194.556 139.776 197.898M139.776 197.898C139.542 200.306 139.415 202.754 139.399 205.235C139.393 206.329 139.408 207.417 139.445 208.498M139.776 197.898L223.435 198.41M139.445 208.498L223.37 209.011M139.445 208.498C139.558 211.832 139.874 215.102 140.38 218.289M140.38 218.289L221.272 218.784M140.38 218.289C140.868 221.366 141.532 224.366 142.359 227.271M142.359 227.271L219.178 227.741M142.359 227.271C143.287 230.53 144.419 233.671 145.738 236.67M145.738 236.67L208.52 237.054M145.738 236.67C147.13 239.837 148.73 242.846 150.514 245.669M150.514 245.669L194.603 245.939M150.514 245.669C152.274 248.453 154.214 251.056 156.313 253.452M156.313 253.452L194.555 253.686M156.313 253.452C158.874 256.376 161.671 258.991 164.667 261.25M164.667 261.25L205.924 261.502M164.667 261.25C167.505 263.39 170.521 265.21 173.681 266.669C174.22 266.917 174.762 267.155 175.309 267.382M175.309 267.382C180.55 269.562 186.163 270.759 192.004 270.795C221.277 270.974 245.187 241.912 245.407 205.884C245.627 169.855 222.075 140.503 192.802 140.324C188.211 140.296 183.753 140.987 179.496 142.311M175.309 267.382L201.403 267.542M183.818 142.716L179.496 142.311" stroke="black" stroke-width="1.12989"/>
<ellipse cx="48.9275" cy="65.2366" rx="48.9275" ry="65.2366" transform="matrix(-0.999981 -0.00611583 -0.00611583 0.999981 245.806 140.648)" fill="#FFF857" stroke="black" stroke-width="1.12989"/>
<path d="M197.695 140.357L193.641 270.808" stroke="black" stroke-width="1.12989"/>
<path d="M147.533 208.551L245.401 207.519" stroke="black" stroke-width="1.12989"/>
<path d="M148.291 218.34L245.066 195.691" stroke="black" stroke-width="1.12989"/>
<path d="M157.908 245.716L237.071 168.731" stroke="black" stroke-width="1.12989"/>
<path d="M163.161 253.5L230.206 158.092" stroke="black" stroke-width="1.12989"/>
<path d="M170.862 260.884L222.103 149.477" stroke="black" stroke-width="1.12989"/>
<path d="M180.612 267.063L211.136 142.89" stroke="black" stroke-width="1.12989"/>
<path d="M235.378 245.379L155.522 169.052" stroke="black" stroke-width="1.12989"/>
<path d="M221.22 227.755L151.799 178.402" stroke="black" stroke-width="1.12989"/>
<path d="M217.324 264.019L172.36 149.17" stroke="black" stroke-width="1.12989"/>
<path d="M227.981 255.935L162.114 158.899" stroke="black" stroke-width="1.12989"/>
<path d="M206.694 268.847L183.409 142.714" stroke="black" stroke-width="1.12989"/>
<path d="M241.169 232.367L148.885 187.766" stroke="black" stroke-width="1.12989"/>
<path d="M244.515 218.521L148.007 197.952" stroke="black" stroke-width="1.12989"/>
<path d="M242.458 184.101L150.503 227.485" stroke="black" stroke-width="1.12989"/>
<ellipse cx="41.5883" cy="55.4511" rx="41.5883" ry="55.4511" transform="matrix(-0.999981 -0.00611583 -0.00611583 0.999981 238.406 150.39)" fill="#FFF857" stroke="black" stroke-width="1.12989"/>
<ellipse cx="33.4338" cy="45.6656" rx="33.4338" ry="45.6656" transform="matrix(-0.999981 -0.00611583 -0.00611583 0.999981 231.013 160.132)" fill="#FFF857" stroke="black" stroke-width="1.12989"/>
<path fill-rule="evenodd" clip-rule="evenodd" d="M424.258 242.714C421.638 248.643 419.247 254.063 418.203 257.022L452.15 269.003C452.606 267.712 454.215 263.991 457.187 257.263C457.531 256.484 457.889 255.675 458.259 254.839C460.873 248.926 464.096 241.638 467.582 233.524C475.517 215.053 485.005 191.871 492.228 169.717C499.159 148.456 505.078 125.091 503.52 107.574C502.737 98.7762 499.655 86.9413 488.916 79.7698C478.095 72.5433 465.42 73.9836 455.023 77.4232C436.412 83.5802 413.52 96.093 391.464 108.64C386.674 111.365 381.897 114.108 377.154 116.83C359.292 127.085 341.912 137.063 326.139 144.782C316.219 149.637 307.582 153.267 300.44 155.413C294.553 157.181 290.897 157.559 288.936 157.51C288.52 155.117 288.36 149.996 290.299 140.68C298.546 101.052 325.776 67.7813 348.232 40.3437C350.7 37.3276 353.111 34.382 355.433 31.5061C361.001 24.6078 366.392 17.6505 370.279 11.2046C373.681 5.56251 378.4 -3.51615 377.169 -13.5996C375.557 -26.7926 365.525 -33.5988 356.703 -36.5519C348.435 -39.3195 337.892 -40.1168 325.98 -39.9866C298.412 -39.6853 271.561 -27.8239 248.469 -14.7434C236.724 -8.09016 225.402 -0.792432 214.959 6.07329C212.717 7.54749 210.527 8.99355 208.385 10.408C200.372 15.6996 193.029 20.5489 186.108 24.7749C177.262 30.1766 170.251 33.8338 164.775 35.726C161.711 36.7848 159.959 37.0008 159.13 37.0306C158.724 36.3762 158.09 35.0827 157.413 32.7178C155.68 26.6693 154.566 16.4461 155.164 0.173599L119.189 -1.14903C118.537 16.5785 119.533 31.2146 122.806 42.6349C126.123 54.2098 132.612 65.049 144.63 70.2086C155.915 75.0535 167.574 72.8475 176.533 69.7517C185.798 66.5502 195.497 61.2229 204.87 55.4996C212.391 50.9068 220.438 45.5918 228.523 40.2515C230.594 38.8836 232.668 37.514 234.736 36.1544C245.065 29.3639 255.559 22.6147 266.212 16.5804C287.917 4.28599 308.191 -3.79008 326.373 -3.98878C330.745 -4.03657 334.261 -3.92124 337.058 -3.71528C334.653 -0.241401 331.45 3.90163 327.421 8.89342C325.264 11.5648 322.909 14.4224 320.408 17.4586C298.477 44.0729 265.238 84.411 255.054 133.345C252.27 146.724 251.505 159.419 255.071 170.08C259.225 182.493 268.615 190.229 280.436 192.653C290.567 194.73 301.373 192.722 310.796 189.891C320.631 186.937 331.26 182.356 341.964 177.117C358.919 168.82 377.69 158.04 395.673 147.713C400.269 145.073 404.814 142.463 409.265 139.931C431.896 127.057 451.691 116.444 466.33 111.601C466.83 111.436 467.284 111.297 467.695 111.181C468.391 120.62 464.904 137.384 458.001 158.558C451.286 179.154 442.305 201.159 434.505 219.314C431.1 227.241 427.956 234.351 425.339 240.269C424.968 241.109 424.607 241.924 424.258 242.714ZM467.11 107.803C467.108 107.806 467.125 107.852 467.166 107.931C467.133 107.84 467.112 107.8 467.11 107.803ZM470.928 110.584C471.008 110.596 471.051 110.596 471.053 110.594C471.054 110.591 471.014 110.585 470.928 110.584ZM159.589 37.6147C159.592 37.6071 159.545 37.5513 159.44 37.4703C159.533 37.5819 159.585 37.6224 159.589 37.6147Z" fill="#FFF857" stroke="black"/>
<path fill-rule="evenodd" clip-rule="evenodd" d="M-216.748 239.476C-222.336 242.76 -227.445 245.758 -230.264 247.136L-246.068 214.79C-244.838 214.189 -241.326 212.163 -234.985 208.437C-234.25 208.006 -233.488 207.557 -232.7 207.094C-227.126 203.817 -220.256 199.778 -212.597 195.383C-195.16 185.378 -173.222 173.289 -152.045 163.568C-131.722 154.239 -109.191 145.674 -91.6112 145.209C-82.7822 144.975 -70.6715 146.677 -62.3133 156.521C-53.8911 166.44 -53.8653 179.196 -56.0872 189.92C-60.0647 209.115 -69.8637 233.294 -79.7932 256.645C-81.9495 261.717 -84.1249 266.777 -86.2847 271.802C-94.4186 290.723 -102.333 309.135 -108.189 325.691C-111.871 336.103 -114.485 345.1 -115.796 352.442C-116.876 358.492 -116.831 362.168 -116.556 364.11C-114.132 364.248 -109.026 363.819 -99.9947 360.822C-61.5773 348.075 -31.6562 317.202 -6.98093 291.742C-4.2685 288.944 -1.61944 286.21 0.970542 283.574C7.18322 277.249 13.475 271.095 19.4315 266.493C24.6452 262.465 33.1213 256.733 43.2796 256.798C56.5703 256.882 64.4844 266.066 68.4317 274.49C72.1311 282.385 74.1348 292.767 75.3744 304.615C78.2432 332.035 69.546 360.071 59.2059 384.513C53.9466 396.946 47.9983 409.031 42.3781 420.194C41.1714 422.591 39.9866 424.932 38.8276 427.222C34.4919 435.79 30.5186 443.642 27.1159 451.002C22.7666 460.411 19.9395 467.796 18.689 473.453C17.9894 476.618 17.9761 478.383 18.0418 479.21C18.7386 479.539 20.0963 480.019 22.5234 480.421C28.731 481.447 39.0144 481.378 55.1103 478.914L60.5586 514.499C43.0234 517.184 28.3698 517.877 16.6491 515.938C4.76969 513.973 -6.74349 508.772 -13.2501 497.427C-19.3597 486.774 -18.5082 474.938 -16.4624 465.683C-14.3468 456.112 -10.1695 445.864 -5.56126 435.896C-1.86321 427.897 2.49181 419.292 6.86753 410.647C7.9884 408.432 9.11064 406.215 10.2235 404.005C15.7821 392.964 21.2805 381.763 26.0506 370.487C35.7693 347.514 41.4619 326.446 39.5698 308.361C39.1149 304.013 38.5962 300.533 38.0702 297.778C34.8957 300.567 31.1482 304.225 26.6526 308.801C24.2467 311.25 21.6787 313.918 18.9501 316.752C-4.96764 341.596 -41.2187 379.25 -88.6578 394.99C-101.629 399.294 -114.152 401.512 -125.151 399.195C-137.96 396.496 -146.724 388.057 -150.49 376.592C-153.718 366.767 -152.964 355.802 -151.235 346.116C-149.431 336.007 -146.102 324.922 -142.128 313.687C-135.834 295.891 -127.283 276.005 -119.091 256.955C-116.997 252.085 -114.926 247.27 -112.923 242.558C-102.734 218.597 -94.467 197.714 -91.3384 182.615C-91.2317 182.1 -91.146 181.633 -91.0775 181.211C-100.534 181.605 -116.787 186.995 -137.027 196.286C-156.715 205.323 -177.542 216.774 -194.68 226.608C-202.163 230.901 -208.864 234.842 -214.443 238.122C-215.234 238.587 -216.003 239.039 -216.748 239.476ZM-87.6552 181.404C-87.6579 181.406 -87.7051 181.395 -87.7885 181.363C-87.6942 181.385 -87.6525 181.401 -87.6552 181.404ZM-90.8561 177.931C-90.8769 177.853 -90.8826 177.81 -90.8802 177.808C-90.8778 177.806 -90.8674 177.845 -90.8561 177.931ZM17.4088 478.822C17.4161 478.818 17.4768 478.858 17.5694 478.953C17.4479 478.874 17.4016 478.826 17.4088 478.822Z" fill="white" stroke="black"/>
</g>
<defs>
<clipPath id="clip0_14_178">
<rect width="390" height="844" fill="white"/>
</clipPath>
</defs>
</svg>
