<svg width="245" height="245" viewBox="0 0 245 245" fill="none" xmlns="http://www.w3.org/2000/svg">
<path d="M229.687 82.7031L204.167 96.7396L178.646 120.984V204.182H214.375C222.833 204.182 229.687 197.327 229.687 188.87V82.7031Z" fill="#4CAF50"/>
<path d="M15.3125 82.7031L33.759 91.4312L66.3542 120.984V204.182H30.625C22.1674 204.182 15.3125 197.327 15.3125 188.87V82.7031Z" fill="#1E88E5"/>
<path d="M178.646 57.1797L122.5 99.2891L66.3542 57.1797L61.25 86.7839L66.3542 120.982L122.5 163.091L178.646 120.982L183.75 86.7839L178.646 57.1797Z" fill="#E53935"/>
<path d="M15.3125 62.7736V82.6901L66.3542 120.971V57.1693L50.4088 45.2204C46.6113 42.3723 41.9971 40.8359 37.2502 40.8359C25.1329 40.8359 15.3125 50.6564 15.3125 62.7736Z" fill="#C62828"/>
<path d="M229.687 62.7736V82.6901L178.646 120.971V57.1693L194.591 45.2204C198.389 42.3723 203.003 40.8359 207.75 40.8359C219.867 40.8359 229.687 50.6564 229.687 62.7736Z" fill="#FBC02D"/>
</svg>
