<svg width="25" height="25" viewBox="0 0 25 25" fill="none" xmlns="http://www.w3.org/2000/svg">
<path d="M6.13285 14.9956L5.3101 18.067L2.30297 18.1307C1.40428 16.4638 0.894531 14.5567 0.894531 12.53C0.894531 10.5703 1.37114 8.72223 2.21595 7.09497H2.2166L4.89379 7.58579L6.06656 10.2469C5.8211 10.9625 5.68731 11.7307 5.68731 12.53C5.6874 13.3976 5.84455 14.2288 6.13285 14.9956Z" fill="#FBBB00"/>
<path d="M24.3245 10.3222C24.4603 11.0371 24.531 11.7754 24.531 12.53C24.531 13.3761 24.4421 14.2014 24.2726 14.9975C23.6973 17.7066 22.194 20.0722 20.1116 21.7462L20.1109 21.7456L16.7389 21.5735L16.2616 18.5943C17.6434 17.7839 18.7233 16.5157 19.2922 14.9975H12.9727V10.3222H19.3843H24.3245Z" fill="#518EF8"/>
<path d="M20.1105 21.7456L20.1112 21.7463C18.0859 23.3742 15.5131 24.3482 12.7125 24.3482C8.21182 24.3482 4.29885 21.8327 2.30273 18.1307L6.13261 14.9957C7.13065 17.6593 9.70013 19.5554 12.7125 19.5554C14.0073 19.5554 15.2203 19.2054 16.2612 18.5943L20.1105 21.7456Z" fill="#28B446"/>
<path d="M20.2561 3.43262L16.4275 6.56702C15.3503 5.89366 14.0768 5.50468 12.7126 5.50468C9.63205 5.50468 7.01451 7.48778 6.06647 10.2469L2.21647 7.09496H2.21582C4.18272 3.30276 8.14504 0.711853 12.7126 0.711853C15.5801 0.711853 18.2093 1.73329 20.2561 3.43262Z" fill="#F14336"/>
</svg>
