<svg width="18" height="15" viewBox="0 0 18 15" fill="none" xmlns="http://www.w3.org/2000/svg">
<path d="M7.72594 8.55H4.87406C2.18166 8.55 0 10.7325 0 13.4241C0 13.9641 0.4365 14.4 0.974812 14.4H11.6241C12.1641 14.4 12.6 13.9641 12.6 13.4241C12.6 10.7325 10.4175 8.55 7.72594 8.55ZM11.6241 13.5H0.974812C0.93375 13.5 0.9 13.4662 0.9 13.4241C0.9 11.2331 2.68312 9.45 4.87406 9.45H7.72594C9.91688 9.45 11.7 11.2331 11.7 13.4241C11.7 13.4662 11.6662 13.5 11.6241 13.5ZM6.3 7.2C8.28844 7.2 9.9 5.58816 9.9 3.6C9.9 1.61184 8.28844 0 6.3 0C4.31156 0 2.7 1.61184 2.7 3.6C2.7 5.58816 4.31156 7.2 6.3 7.2ZM6.3 0.9C7.78894 0.9 9 2.11106 9 3.6C9 5.08866 7.78894 6.3 6.3 6.3C4.81106 6.3 3.6 5.08781 3.6 3.6C3.6 2.11106 4.81219 0.9 6.3 0.9ZM10.5497 6.77812C11.0503 7.05375 11.5959 7.2 12.15 7.2C13.8881 7.2 15.3 5.78812 15.3 4.05C15.3 2.31187 13.8881 0.9 12.15 0.9C11.7892 0.9 11.4359 0.960637 11.0998 1.07975C10.8656 1.1628 10.7429 1.41978 10.826 1.65406C10.9091 1.88873 11.1669 2.01012 11.4004 1.92783C11.6409 1.84303 11.8912 1.8 12.15 1.8C13.3903 1.8 14.4 2.80941 14.4 4.05C14.4 5.29059 13.3903 6.3 12.15 6.3C11.754 6.3 11.365 6.19585 11.0256 5.99934C10.8102 5.8741 10.5351 5.94793 10.4107 6.16326C10.2853 6.37875 10.3584 6.65437 10.5497 6.77812ZM13.8009 9H12.6C12.3513 9 12.15 9.20126 12.15 9.45C12.15 9.69874 12.3525 9.9 12.6 9.9H13.8001C15.6206 9.9 17.1 11.3794 17.1 13.1991C17.1 13.365 16.965 13.5 16.7991 13.5H13.95C13.7013 13.5 13.5 13.7013 13.5 13.95C13.5 14.1987 13.7013 14.4 13.95 14.4H16.7991C17.4628 14.4 18 13.8628 18 13.1991C18 10.8591 16.1156 9 13.8009 9Z" fill="#2020ED"/>
</svg>
