<svg width="19" height="17" viewBox="0 0 19 17" fill="none" xmlns="http://www.w3.org/2000/svg">
<path d="M9.39417 4.04363L8.97229 3.56902L8.82463 3.40378C7.91057 2.37722 6.52893 1.89909 5.17542 2.14519C3.30159 2.4862 1.94104 4.11745 1.94104 6.02292V6.14597C1.94104 7.28152 2.41213 8.36433 3.24534 9.13777L9.71057 15.16C9.7387 15.1846 9.77737 15.2022 9.81604 15.2022C9.85471 15.2022 9.89338 15.1882 9.92151 15.16L16.3903 9.13777C17.2199 8.36433 17.691 7.28152 17.691 6.14597V6.02292C17.691 4.11745 16.3305 2.4862 14.4567 2.14519C13.1031 1.89909 11.7215 2.37722 10.8074 3.40378L10.6598 3.56902L10.2379 4.04363C10.1324 4.16316 9.97776 4.23347 9.81604 4.23347C9.65432 4.23347 9.50315 4.16316 9.39417 4.04363ZM10.6211 2.0362C11.7496 1.15378 13.2156 0.77761 14.6571 1.03777C17.0653 1.47722 18.816 3.57605 18.816 6.02292V6.14597C18.816 7.4116 18.3555 8.628 17.5293 9.5737C17.4098 9.7073 17.2867 9.83738 17.1532 9.96042L10.6844 15.9827C10.6563 16.0108 10.6246 16.0354 10.593 16.06C10.3715 16.2323 10.0973 16.3237 9.81604 16.3237C9.4926 16.3237 9.18323 16.2007 8.94417 15.9827L2.47542 9.96394C2.34182 9.84089 2.21877 9.71081 2.09924 9.57722C1.27659 8.628 0.81604 7.4116 0.81604 6.14597V6.02292C0.81604 3.57605 2.56682 1.47722 4.97502 1.03777C6.41292 0.77761 7.87893 1.15027 9.00745 2.0362C9.24299 2.22253 9.46448 2.42644 9.66487 2.65495L9.81252 2.82019L9.96018 2.65495C10.1078 2.48972 10.2625 2.33503 10.4278 2.19441C10.491 2.14167 10.5543 2.08894 10.6176 2.0362H10.6211Z" fill="#8A8A8A"/>
</svg>
