<svg width="33" height="32" viewBox="0 0 33 32" fill="none" xmlns="http://www.w3.org/2000/svg">
<path d="M16.5 4C9.87188 4 4.5 9.37188 4.5 16C4.5 22.6281 9.87188 28 16.5 28C23.1281 28 28.5 22.6281 28.5 16C28.5 9.37188 23.1281 4 16.5 4ZM16.5 26.5C10.7109 26.5 6 21.7891 6 16C6 10.2109 10.7109 5.5 16.5 5.5C22.2891 5.5 27 10.2109 27 16C27 21.7891 22.2891 26.5 16.5 26.5ZM15.75 20.125C15.1289 20.125 14.625 20.6289 14.625 21.25C14.625 21.8711 15.1289 22.375 15.75 22.375C16.3711 22.375 16.875 21.8711 16.875 21.25C16.875 20.6289 16.3734 20.125 15.75 20.125ZM17.8875 10H15.1125C13.3969 10 12 11.3969 12 13.1125V13.5625C12 13.9771 12.3354 14.3125 12.75 14.3125C13.1646 14.3125 13.5 13.975 13.5 13.5625V13.1125C13.5 12.2219 14.2219 11.5 15.1125 11.5H17.8898C18.7781 11.5 19.5 12.2219 19.5 13.1125C19.5 13.6975 19.1821 14.2375 18.7003 14.5056L15.8672 15.9203C15.3328 16.2203 15 16.7828 15 17.3969V18.25C15 18.6625 15.3375 19 15.75 19C16.1625 19 16.5 18.6625 16.5 18.25V17.3969C16.5 17.3288 16.5366 17.2658 16.5674 17.2482L19.3991 15.8316C20.3859 15.2828 21 14.2422 21 13.1125C21 11.3969 19.6031 10 17.8875 10Z" fill="#616180"/>
</svg>
