<svg width="33" height="32" viewBox="0 0 33 32" fill="none" xmlns="http://www.w3.org/2000/svg">
<path d="M13.4587 18.5002C13.4587 17.6742 12.7851 16.9983 11.9587 16.9983H10.4582C8.79982 16.9983 7.45828 18.3398 7.45828 19.9561L7.49906 22.9814C7.49906 24.6398 8.84107 25.9813 10.4995 25.9813H11.9995C12.8259 25.9813 13.4995 25.3073 13.4995 24.4813L13.4587 18.5002ZM11.9587 24.4813H10.4587C9.63231 24.4813 8.95873 23.8073 8.95873 22.9814V20.0001C8.95873 19.1742 9.63278 18.5002 10.4587 18.5002L11.9596 18.5002L11.9587 24.4813ZM22.4586 25.9813C24.117 25.9813 25.459 24.6398 25.459 22.9814L25.4591 19.9987C25.4591 18.3403 24.1176 17.041 22.4592 17.041H21.0014C20.175 17.041 19.5014 17.7169 19.5014 18.5428L19.5009 24.524C19.5009 25.3499 20.1749 26.024 21.0009 26.024H22.4586V25.9813ZM20.9586 18.5002L22.4164 18.5002C23.2428 18.5002 23.9164 19.1742 23.9164 20.0001V22.9814C23.9164 23.8073 23.2423 24.4813 22.4164 24.4813H20.9164L20.9586 18.5002ZM17.6352 8.0533C10.44 7.38347 4.68847 13.1204 4.50097 20.0016L4.5 20.7478C4.49882 21.1626 4.83636 21.5001 5.25096 21.5001C5.66135 21.5001 5.99908 21.1644 6.00095 20.7539L6.00488 20.0001C6.16595 14.0283 11.1806 8.96731 17.4805 9.54527C22.932 10.0459 27.0007 14.8093 27.0007 20.2842V28.2107C27.0007 29.4533 25.9934 30.4606 24.7507 30.4606H20.8597C21.051 29.9506 21.0757 29.3572 20.7527 28.7408C20.3265 27.9275 19.4383 27.4607 18.5205 27.4607L15.8352 27.5C14.7472 27.5 13.7498 28.2355 13.5445 29.3042C13.2665 30.7438 14.3633 32 15.7086 32L24.6663 32C26.7377 32 28.4168 30.321 28.4168 28.2922V20.3236C28.5007 14.0752 23.8554 8.63262 17.6352 8.0533ZM18.7086 30.5H15.7086C15.2926 30.5 14.9587 30.166 14.9587 29.75C14.9587 29.334 15.2927 29 15.7086 29H18.7091C19.1251 29 19.4591 29.334 19.4591 29.75C19.4591 30.166 19.168 30.5 18.7086 30.5Z" fill="#616180"/>
</svg>
