<svg width="262" height="80" viewBox="0 0 262 80" fill="none" xmlns="http://www.w3.org/2000/svg">
    <defs>
        <linearGradient id="paint0_linear_257_2376" x1="58.1417" y1="45.1923" x2="155.129" y2="-28.9425" gradientUnits="userSpaceOnUse">
            <stop stop-color="#2020ED"/>
            <stop offset="1" stop-color="#CC2058"/>
        </linearGradient>
    </defs>
<path fill-rule="evenodd" clip-rule="evenodd" d="M64.3395 52.9504V28.6146C64.3395 27.3906 63.3367 26.3986 62.0988 26.3986H57.1153C55.8774 26.3986 54.8745 27.3906 54.8745 28.6146V52.9504C54.8745 68.9946 63.2872 79.4823 76.6087 79.4823C80.9818 79.4823 84.9468 77.7927 87.7999 75.069C89.2233 73.7105 91.5931 74.7001 91.5931 76.6575C91.5931 77.8814 92.596 78.8734 93.8332 78.8734H98.8174C100.055 78.8734 101.058 77.8814 101.058 76.6575V28.6146C101.058 27.3906 100.055 26.3986 98.8174 26.3986H93.8332C92.596 26.3986 91.5931 27.3906 91.5931 28.6146V52.871C91.5931 62.9265 85.9847 70.115 78.1869 70.115C69.7743 70.115 64.3395 63.4467 64.3395 52.9504ZM252.557 53.2759V77.6328C252.557 78.693 253.426 79.553 254.497 79.553H260.059C261.131 79.553 262 78.693 262 77.6328V53.2759C262 37.1262 253.616 26.5623 240.114 26.5623C235.474 26.5623 231.292 28.4478 228.394 31.4499C227.17 32.7166 225.023 31.9094 225.023 30.1572V1.91958C225.023 0.859348 224.154 0 223.082 0H217.521C216.449 0 215.581 0.859348 215.581 1.91958V77.6328C215.581 78.693 216.449 79.553 217.521 79.553H223.082C224.154 79.553 225.023 78.693 225.023 77.6328V53.3633C225.023 43.2371 230.759 35.9041 238.525 35.9041C247.086 35.9041 252.557 42.7132 252.557 53.2759ZM197.404 53.2759V77.6328C197.404 78.693 198.273 79.553 199.345 79.553H204.906C205.978 79.553 206.847 78.693 206.847 77.6328V53.2759C206.847 37.1262 198.463 26.5623 184.961 26.5623C180.322 26.5623 176.139 28.4478 173.241 31.4499C172.017 32.7166 169.87 31.9094 169.87 30.1572V1.91958C169.87 0.859348 169.002 0 167.929 0H162.368C161.297 0 160.428 0.859348 160.428 1.91958V77.6328C160.428 78.693 161.297 79.553 162.368 79.553H167.929C169.002 79.553 169.87 78.693 169.87 77.6328V53.3633C169.87 43.2371 175.607 35.9041 183.372 35.9041C191.933 35.9041 197.404 42.7132 197.404 53.2759ZM36.9768 53.2759V77.6328C36.9768 78.693 37.8456 79.553 38.9173 79.553H44.4788C45.5506 79.553 46.4193 78.693 46.4193 77.6328V53.2759C46.4193 37.1262 38.0361 26.5623 24.534 26.5623C19.894 26.5623 15.7121 28.4478 12.8132 31.4499C11.5898 32.7166 9.44243 31.9094 9.44243 30.1572V1.91958C9.44243 0.859348 8.57371 0 7.50192 0H1.94114C0.869343 0 0 0.859348 0 1.91958V77.6328C0 78.693 0.869343 79.553 1.94114 79.553H7.50192C8.57371 79.553 9.44243 78.693 9.44243 77.6328V53.3633C9.44243 43.2371 15.1793 35.9041 22.9451 35.9041C31.5057 35.9041 36.9768 42.7132 36.9768 53.2759ZM120.359 42.1261L120.382 41.9735C120.398 41.8694 120.416 41.7565 120.419 41.7336C120.931 37.6185 125.286 34.5153 130.543 34.5153L130.753 34.5165C135.369 34.5165 138.654 36.4113 140.796 40.3082C141.025 40.7248 141.554 40.8811 141.976 40.6529C142.399 40.426 142.555 39.9027 142.325 39.4854C139.885 35.046 135.991 32.7954 130.761 32.7954L130.551 32.7935C124.308 32.7935 119.321 36.4653 118.692 41.5153L118.662 41.7088C118.647 41.8061 118.633 41.8966 118.631 41.909C118.575 42.3765 118.911 42.7988 119.383 42.8608C119.422 42.8651 119.459 42.8676 119.496 42.8676C119.923 42.8676 120.296 42.5545 120.359 42.1261ZM144.317 63.1144C144.317 55.2339 138.965 53.2895 131.404 51.4034L130.502 51.1709C128.401 50.6185 124.883 49.6946 122.609 47.5729C122.26 47.2474 121.709 47.2642 121.379 47.6089C121.049 47.9549 121.066 48.4999 121.415 48.826C124.01 51.2472 127.795 52.2411 130.055 52.8344L130.978 53.0725C138.862 55.0398 142.576 56.6717 142.576 63.1144C142.576 68.113 137.714 71.6037 130.753 71.6037C125.58 71.6037 121.135 69.0566 119.151 64.9565C118.944 64.5274 118.424 64.3451 117.991 64.551C117.557 64.7562 117.374 65.2702 117.581 65.6992C119.857 70.4033 124.904 73.3255 130.753 73.3255C138.739 73.3255 144.317 69.1267 144.317 63.1144ZM137.661 40.5853C138.017 40.2672 138.046 39.7229 137.725 39.3694C136.16 37.6514 134.251 36.7753 131.718 36.6128C131.244 36.5849 130.824 36.9408 130.793 37.4158C130.762 37.8907 131.126 38.2999 131.605 38.3309C133.656 38.4624 135.19 39.1586 136.432 40.5221C136.603 40.7112 136.84 40.8066 137.078 40.8066C137.286 40.8066 137.494 40.7341 137.661 40.5853ZM146.469 69.2712C147.61 67.4049 148.189 65.3421 148.189 63.1385C148.189 52.1499 138.966 49.8478 132.232 48.1675L131.545 47.9914C127.763 46.9945 124.369 45.8263 124.369 42.5427C124.383 41.9239 124.529 41.3547 124.801 40.8488C125.027 40.4297 124.867 39.9082 124.443 39.6838C124.018 39.4612 123.492 39.6187 123.266 40.0391C122.864 40.7831 122.649 41.6127 122.628 42.5229C122.628 47.4229 127.929 48.8198 131.097 49.655L131.805 49.8366C138.669 51.5497 146.448 53.491 146.448 63.1385C146.448 65.0228 145.954 66.7867 144.98 68.3802C144.731 68.7869 144.862 69.3158 145.274 69.562C145.414 69.6463 145.569 69.6866 145.724 69.6866C146.018 69.6866 146.305 69.539 146.469 69.2712ZM140.911 74.325C141.335 74.1011 141.494 73.5791 141.267 73.1599C141.04 72.7408 140.514 72.5827 140.09 72.8072C137.453 74.2028 134.224 74.9413 130.753 74.9413C123.99 74.9413 117.852 71.3668 115.478 66.0483C115.359 65.7836 115.283 65.507 115.25 65.2274C115.193 64.7543 114.76 64.4139 114.284 64.4728C113.806 64.528 113.465 64.9558 113.521 65.4277C113.574 65.8784 113.697 66.3211 113.886 66.7433C116.533 72.6763 123.312 76.6624 130.753 76.6624C134.51 76.6624 138.022 75.8546 140.911 74.325ZM139.153 67.116C140.276 66.0229 140.869 64.675 140.869 63.2191C140.869 62.0225 140.585 60.9294 140.022 59.9715C139.724 59.4612 139.339 58.977 138.879 58.5324C138.535 58.2007 137.984 58.2063 137.648 58.5461C137.312 58.8864 137.319 59.4314 137.662 59.7638C138.009 60.0992 138.297 60.4601 138.517 60.8346C138.929 61.537 139.129 62.317 139.129 63.2191C139.129 64.2174 138.726 65.1158 137.932 65.889C136.472 67.3107 133.873 68.1359 130.991 68.0882C129.281 68.064 127.649 67.6628 126.27 66.9294C125.269 66.3968 124.623 65.6416 124.194 65.1418C124.112 65.0463 124.038 64.9602 123.972 64.8864C123.653 64.5305 123.103 64.4995 122.743 64.8157C122.384 65.1319 122.352 65.6757 122.672 66.0309C122.73 66.096 122.795 66.1717 122.866 66.2554C123.348 66.8177 124.154 67.7583 125.445 68.4453C127.069 69.3096 128.978 69.7814 130.965 69.81C131.047 69.8112 131.128 69.8118 131.209 69.8118C134.456 69.8118 137.412 68.8124 139.153 67.116ZM131.694 55.9798C131.812 55.5191 131.53 55.0504 131.063 54.9344C130.431 54.7769 129.754 54.622 129.049 54.475C120.28 52.6472 116.369 49.0015 116.369 42.6525C116.369 35.684 122.179 31.001 130.828 31.001C136.004 31.001 142.531 33.8674 144.628 40.16C144.778 40.6113 145.271 40.8575 145.727 40.7087C146.183 40.5593 146.431 40.0732 146.281 39.6212C143.913 32.5157 136.61 29.2798 130.828 29.2798C121.138 29.2798 114.628 34.6542 114.628 42.6525C114.628 52.1326 122.654 54.9022 128.69 56.1596C129.372 56.3022 130.027 56.4516 130.638 56.6035C130.709 56.6215 130.781 56.6302 130.851 56.6302C131.241 56.6302 131.595 56.3704 131.694 55.9798ZM151.563 63.1385C151.563 57.887 150.331 54.4397 147.568 51.9608C147.213 51.6415 146.662 51.6688 146.339 52.0197C146.016 52.3719 146.043 52.9163 146.399 53.2362C148.798 55.3889 149.822 58.3507 149.822 63.1385C149.822 71.9106 141.803 78.2782 130.753 78.2782C123.24 78.2782 116.001 74.2115 112.736 68.1595L112.645 67.9921C112.393 67.5395 111.871 66.597 111.448 65.21C111.308 64.7543 110.823 64.4958 110.363 64.6347C109.903 64.7723 109.642 65.2522 109.781 65.7073C110.257 67.2673 110.839 68.317 111.119 68.8204L111.2 68.9692C114.759 75.5669 122.616 80 130.753 80C142.811 80 151.563 72.9095 151.563 63.1385ZM128.758 59.1289C128.887 58.6707 128.617 58.1964 128.154 58.068C124.011 56.9222 115.39 54.5382 113.096 46.8221C112.961 46.3664 112.476 46.1041 112.015 46.2399C111.554 46.3738 111.29 46.8525 111.426 47.3088C113.993 55.9395 123.588 58.5932 127.685 59.7266C127.763 59.7483 127.842 59.7588 127.92 59.7588C128.3 59.7588 128.65 59.5096 128.758 59.1289ZM112.692 40.2592C113.892 32.6869 120.985 27.661 130.403 27.661C130.539 27.661 130.677 27.6622 130.814 27.6641C131.31 27.6591 131.691 27.2921 131.698 26.8165C131.706 26.3416 131.322 25.9503 130.841 25.9429C120.317 25.7681 112.33 31.4264 110.972 39.9919C110.897 40.4625 111.222 40.9028 111.696 40.9759C111.743 40.984 111.788 40.9871 111.833 40.9871C112.254 40.9871 112.624 40.6839 112.692 40.2592ZM149.234 40.5983C148.775 40.5983 148.391 40.2424 148.366 39.783C148.235 38.6589 145.798 31.8145 138.183 28.9674C137.733 28.7987 137.507 28.3021 137.676 27.8569C137.846 27.413 138.348 27.1885 138.798 27.3559C147.635 30.6613 150.046 38.6068 150.104 39.6918C150.13 40.1662 149.761 40.5717 149.281 40.5971C149.266 40.5983 149.25 40.5983 149.234 40.5983Z" fill="url(#paint0_linear_257_2376)"/>
</svg>
