<svg width="272" height="270" viewBox="0 0 272 270" fill="none" xmlns="http://www.w3.org/2000/svg">
<path fill-rule="evenodd" clip-rule="evenodd" d="M306.258 242.715C303.638 248.643 301.247 254.063 300.203 257.022L334.15 269.003C334.606 267.712 336.215 263.991 339.187 257.263C339.531 256.484 339.889 255.675 340.259 254.839C342.873 248.926 346.096 241.638 349.582 233.524C357.517 215.053 367.005 191.871 374.228 169.717C381.159 148.456 387.078 125.091 385.52 107.574C384.737 98.7764 381.655 86.9415 370.916 79.7699C360.095 72.5434 347.42 73.9837 337.023 77.4233C318.412 83.5803 295.52 96.0931 273.464 108.64C268.674 111.365 263.897 114.108 259.154 116.831C241.292 127.085 223.912 137.063 208.139 144.782C198.219 149.637 189.582 153.268 182.44 155.413C176.553 157.181 172.897 157.559 170.936 157.51C170.52 155.117 170.36 149.996 172.299 140.68C180.546 101.052 207.776 67.7814 230.232 40.3438C232.7 37.3277 235.111 34.3821 237.433 31.5063C243.001 24.6079 248.392 17.6506 252.279 11.2047C255.681 5.56262 260.4 -3.51603 259.169 -13.5995C257.557 -26.7925 247.525 -33.5987 238.703 -36.5518C230.435 -39.3193 219.892 -40.1167 207.98 -39.9865C180.412 -39.6852 153.561 -27.8238 130.469 -14.7432C118.724 -8.09004 107.402 -0.79231 96.959 6.07341C94.7167 7.54759 92.527 8.99367 90.3851 10.4081C82.3723 15.6997 75.029 20.549 68.1083 24.7751C59.2623 30.1767 52.2508 33.8339 46.775 35.7261C43.7111 36.7849 41.9591 37.0009 41.1303 37.0307C40.7237 36.3763 40.0905 35.0828 39.4128 32.7179C37.6795 26.6695 36.5662 16.4462 37.1644 0.173721L1.18873 -1.14891C0.536998 16.5786 1.53303 31.2147 4.80564 42.635C8.12257 54.2099 14.6122 65.0491 26.6302 70.2087C37.9151 75.0536 49.5744 72.8476 58.5332 69.7518C67.7977 66.5503 77.4971 61.223 86.8699 55.4997C94.3913 50.9069 102.438 45.5919 110.523 40.2517C112.594 38.8837 114.668 37.5141 116.736 36.1545C127.065 29.364 137.559 22.6148 148.212 16.5805C169.917 4.28612 190.191 -3.78996 208.373 -3.98866C212.745 -4.03645 216.261 -3.92112 219.058 -3.71516C216.653 -0.241279 213.45 3.90176 209.421 8.89355C207.264 11.5649 204.909 14.4225 202.408 17.4587C180.477 44.073 147.238 84.4111 137.054 133.345C134.27 146.724 133.505 159.419 137.071 170.08C141.225 182.494 150.615 190.23 162.436 192.653C172.567 194.731 183.373 192.722 192.796 189.891C202.631 186.937 213.26 182.356 223.964 177.118C240.919 168.82 259.69 158.04 277.673 147.713C282.269 145.073 286.814 142.463 291.265 139.931C313.896 127.057 333.691 116.444 348.33 111.602C348.83 111.436 349.284 111.297 349.695 111.181C350.391 120.62 346.904 137.384 340.001 158.558C333.286 179.154 324.305 201.159 316.505 219.314C313.1 227.241 309.956 234.351 307.339 240.27C306.968 241.109 306.607 241.924 306.258 242.715ZM349.11 107.803C349.108 107.806 349.125 107.852 349.166 107.931C349.133 107.84 349.112 107.8 349.11 107.803ZM352.928 110.584C353.008 110.596 353.051 110.596 353.053 110.594C353.054 110.591 353.014 110.585 352.928 110.584ZM41.5886 37.6149C41.5918 37.6072 41.5454 37.5514 41.4398 37.4705C41.5326 37.582 41.5855 37.6225 41.5886 37.6149Z" fill="#FFB200" stroke="black"/>
</svg>
