<svg width="63" height="62" viewBox="0 0 63 62" fill="none" xmlns="http://www.w3.org/2000/svg">
<path d="M38.5552 59.7491C53.3318 54.8108 61.0986 38.2053 55.9032 22.6599C50.7082 7.11445 34.5175 -1.48415 19.7408 3.4543C4.96422 8.39291 -2.80261 24.9981 2.3924 40.5435C7.5878 56.0889 23.7785 64.6877 38.5552 59.7491Z" fill="#FBD772"/>
<path d="M29.9639 61.2152C25.48 61.2152 21.0033 60.0959 16.8405 57.8863C9.99851 54.2567 4.84545 48.1055 2.3289 40.5751C-0.188036 33.045 0.234984 25.0359 3.51641 18.0171C6.79784 10.9983 12.5496 5.81819 19.7091 3.42592C26.8683 1.03397 34.579 1.71676 41.421 5.3544C48.2626 8.99181 53.4157 15.1364 55.9326 22.6652C58.4496 30.1945 58.0262 38.2048 54.7451 45.2236C51.4637 52.2424 45.7096 57.419 38.5524 59.8124C35.7838 60.74 32.8834 61.2136 29.9639 61.2152ZM2.42064 40.5445C7.5984 56.0398 23.7935 64.642 38.5219 59.7203C45.6552 57.3386 51.3853 52.1718 54.6577 45.1793C57.9301 38.1867 58.3496 30.1992 55.8405 22.6927C50.6628 7.19741 34.4677 -1.40468 19.7397 3.51688C12.6064 5.89895 6.87468 11.0653 3.60345 18.0579C0.332602 25.0508 -0.0884576 33.038 2.42064 40.5445Z" fill="#191A1F"/>
<path d="M43.7165 58.0235C58.3033 53.1484 65.9169 36.5942 60.7215 21.0487C55.5261 5.50331 39.4894 -3.14665 24.9021 1.72845C10.3153 6.60339 2.70173 23.1576 7.89713 38.703C13.0925 54.2484 29.1292 62.8986 43.7165 58.0235Z" fill="#FBD772"/>
<path d="M35.331 59.4558C30.8656 59.4558 26.3955 58.3216 22.2429 56.0803C15.4668 52.426 10.349 46.2658 7.83797 38.7353C5.32652 31.2049 5.70758 23.2064 8.92433 16.2123C12.1411 9.21854 17.8069 4.06352 24.8743 1.70073C31.9418 -0.661937 39.5675 0.0515112 46.3448 3.70715C53.1217 7.36298 58.2383 13.522 60.7498 21.0525C63.2608 28.5825 62.8797 36.5814 59.663 43.5763C56.4463 50.5712 50.7808 55.7255 43.7134 58.0868C41.0114 58.9928 38.1808 59.455 35.331 59.4558ZM33.2022 0.44285C30.3799 0.442301 27.5763 0.898879 24.9002 1.79486C10.3616 6.65299 2.74606 23.2119 7.92382 38.7071C10.4329 46.2148 15.535 52.3543 22.2892 55.9987C29.0438 59.6432 36.6401 60.3508 43.6824 57.9974C50.7251 55.6435 56.369 50.5112 59.5756 43.5379C62.7821 36.5642 63.1667 28.5915 60.658 21.0854C56.4564 8.50972 45.1016 0.44285 33.2022 0.44285Z" fill="#191A1F"/>
<path d="M42.1785 53.4221C54.3813 49.3436 60.7505 35.4954 56.4043 22.4912C52.0584 9.48701 38.6426 2.25089 26.4398 6.32907C14.2369 10.4075 7.86773 24.2554 12.214 37.26C16.5602 50.2642 29.9756 57.5002 42.1785 53.4221Z" fill="#FBD772"/>
<path d="M35.1609 54.6319C31.4247 54.6319 27.6837 53.6816 24.2086 51.8076C18.5373 48.7453 14.2554 43.5946 12.1501 37.2893C7.80267 24.2804 14.1985 10.378 26.4076 6.29801C38.6171 2.21802 52.0851 9.483 56.4325 22.4919C58.5378 28.7925 58.216 35.4871 55.5253 41.3395C52.8347 47.1924 48.0925 51.5061 42.1773 53.4832C39.916 54.2422 37.5465 54.6303 35.1609 54.6319ZM12.2422 37.2619C14.3393 43.5401 18.6051 48.6759 24.2537 51.7225C29.9023 54.7691 36.2555 55.3623 42.1444 53.3946C48.0337 51.4265 52.7543 47.1324 55.4356 41.3023C58.1172 35.4722 58.439 28.8038 56.3432 22.5256C52.0126 9.5669 38.5987 2.33595 26.4406 6.39328C14.2828 10.4506 7.91166 24.3043 12.2422 37.2619Z" fill="#191A1F"/>
<path d="M9.15249 10.9028C9.14229 10.9028 9.13249 10.8997 9.12465 10.8938C9.11641 10.8879 9.11014 10.8797 9.10701 10.8699C9.10465 10.864 9.10348 10.8577 9.10387 10.851C9.10426 10.8448 9.10583 10.8385 9.10897 10.8326C9.11171 10.8267 9.11563 10.8216 9.12073 10.8177C9.12582 10.8134 9.13131 10.8107 9.13759 10.8087L12.1614 9.79801C12.1677 9.79566 12.174 9.79487 12.1803 9.79526C12.1869 9.79526 12.1932 9.79722 12.1991 9.79997C12.2046 9.80271 12.2097 9.80703 12.214 9.81173C12.2179 9.81683 12.221 9.82271 12.2226 9.82859C12.225 9.83486 12.2257 9.84113 12.2253 9.84741C12.225 9.85368 12.2234 9.85995 12.2203 9.86544C12.2175 9.87093 12.2136 9.87603 12.2089 9.87995C12.2038 9.88426 12.1983 9.887 12.192 9.88896L9.16816 10.9008L9.15249 10.9028Z" fill="#191A1F"/>
<path d="M5.22452 16.5359C5.21433 16.5355 5.20453 16.5324 5.19669 16.5265C5.18846 16.5206 5.18218 16.5124 5.17905 16.503C5.17552 16.4908 5.1767 16.4775 5.18218 16.4661C5.18807 16.4548 5.19786 16.4461 5.20963 16.4418L8.23348 15.4311C8.24603 15.4272 8.25897 15.428 8.27073 15.4339C8.2821 15.4398 8.29072 15.4496 8.29504 15.4617C8.297 15.468 8.29778 15.4743 8.29739 15.4805C8.29699 15.4868 8.29543 15.4931 8.29268 15.499C8.28954 15.5044 8.28562 15.5095 8.28092 15.5139C8.27582 15.5178 8.27034 15.5209 8.26446 15.5229L5.24021 16.5336C5.23511 16.5355 5.23001 16.5363 5.22452 16.5359Z" fill="#191A1F"/>
<path d="M3.0385 21.5865C3.0287 21.5865 3.0189 21.583 3.01067 21.5771C3.00283 21.5712 2.99655 21.563 2.99342 21.5536C2.9895 21.5414 2.99068 21.5281 2.99656 21.5167C3.00205 21.5053 3.01185 21.4967 3.024 21.4924L6.04903 20.4817C6.05491 20.4797 6.06118 20.479 6.06746 20.4793C6.07373 20.4797 6.07961 20.4817 6.08549 20.4844C6.09098 20.4872 6.09608 20.4911 6.1 20.4962C6.10392 20.5009 6.10706 20.5064 6.10902 20.5123C6.11137 20.5182 6.11254 20.5248 6.11215 20.5311C6.11176 20.5378 6.11019 20.544 6.10705 20.5495C6.10431 20.5554 6.10039 20.5605 6.09529 20.5648C6.09019 20.5687 6.08471 20.5719 6.07844 20.5734L3.05458 21.5841C3.04948 21.5861 3.04399 21.5869 3.0385 21.5865Z" fill="#191A1F"/>
<path d="M2.63823 37.2925C2.62687 37.2925 2.61589 37.2886 2.60726 37.2812C2.59864 37.2737 2.59276 37.2635 2.5908 37.2522C2.58923 37.2412 2.59158 37.2294 2.59746 37.2196C2.60334 37.2102 2.61275 37.2028 2.62334 37.1992L5.64837 36.1878C5.65464 36.1858 5.66091 36.185 5.66719 36.1854C5.67346 36.1858 5.67934 36.1878 5.68483 36.1905C5.69071 36.1932 5.69541 36.1972 5.69973 36.2019C5.70365 36.207 5.70678 36.2125 5.70874 36.2183C5.7107 36.2242 5.71188 36.2305 5.71149 36.2368C5.7111 36.243 5.70953 36.2493 5.70678 36.2552C5.70404 36.2607 5.70012 36.2658 5.69541 36.2701C5.69071 36.2744 5.68522 36.2775 5.67934 36.2795L2.65392 37.2902C2.64921 37.2922 2.64372 37.2929 2.63823 37.2925Z" fill="#191A1F"/>
<path d="M25.5671 60.023C25.5573 60.023 25.5475 60.0198 25.5393 60.014C25.531 60.0081 25.5251 59.9999 25.522 59.9901C25.5197 59.9842 25.5189 59.9775 25.5193 59.9712C25.5197 59.965 25.5212 59.9587 25.5244 59.9528C25.5271 59.9473 25.531 59.9422 25.5357 59.9379C25.5408 59.934 25.5463 59.9309 25.5526 59.9289L28.5764 58.9182C28.5886 58.9143 28.6019 58.9151 28.6133 58.9209C28.6247 58.9268 28.6337 58.9366 28.6376 58.9488C28.6415 58.9609 28.6403 58.9743 28.6345 58.9856C28.629 58.997 28.6192 59.0056 28.607 59.0099L25.582 60.0206L25.5671 60.023Z" fill="#191A1F"/>
<path d="M19.0419 57.883C19.0317 57.883 19.0219 57.8798 19.0136 57.8739C19.0058 57.8677 18.9995 57.8594 18.9964 57.85C18.9944 57.8441 18.9933 57.8375 18.9936 57.8312C18.994 57.8249 18.9956 57.8187 18.9984 57.8132C19.0011 57.8073 19.005 57.8022 19.0097 57.7983C19.0144 57.794 19.0199 57.7908 19.0258 57.7889L22.0512 56.7782C22.0634 56.7742 22.0763 56.7754 22.0877 56.7813C22.099 56.7868 22.1081 56.7966 22.1124 56.8087C22.1163 56.8209 22.1151 56.8342 22.1096 56.8456C22.1038 56.857 22.0939 56.866 22.0818 56.8699L19.0568 57.8806C19.0521 57.8826 19.047 57.8833 19.0419 57.883Z" fill="#191A1F"/>
<path d="M14.2589 55.1606C14.2487 55.1606 14.2389 55.1575 14.2307 55.1516C14.2224 55.1457 14.2165 55.1375 14.2134 55.1277C14.2111 55.1218 14.2103 55.1155 14.2107 55.1093C14.2111 55.103 14.2126 55.0967 14.2154 55.0908C14.2181 55.0854 14.222 55.0803 14.2267 55.0759C14.2314 55.0716 14.2369 55.0685 14.2428 55.0665L17.2678 54.0558C17.28 54.0523 17.2933 54.0535 17.3047 54.059C17.3161 54.0649 17.3247 54.0747 17.329 54.0864C17.3333 54.0986 17.3321 54.1119 17.3263 54.1233C17.3208 54.135 17.3106 54.1437 17.2984 54.148L14.2734 55.1583C14.2687 55.1602 14.2636 55.161 14.2589 55.1606Z" fill="#191A1F"/>
<path d="M10.0303 51.2008C10.0189 51.2005 10.0083 51.1961 10.0001 51.1887C9.99145 51.1812 9.98596 51.171 9.984 51.1601C9.98243 51.1491 9.98439 51.1377 9.98988 51.1279C9.99537 51.1181 10.004 51.1107 10.0146 51.1067L13.0396 50.096C13.0518 50.0921 13.0651 50.0929 13.0765 50.0988C13.0878 50.1043 13.0965 50.1145 13.1008 50.1266C13.1043 50.1388 13.1031 50.1517 13.0976 50.1631C13.0918 50.1745 13.0819 50.1835 13.0702 50.1878L10.0452 51.1985L10.0303 51.2008Z" fill="#191A1F"/>
<path d="M6.62417 46.9657C6.61397 46.9657 6.60417 46.9621 6.59594 46.9563C6.5877 46.9504 6.58183 46.9421 6.57869 46.9327C6.57673 46.9265 6.57555 46.9202 6.57594 46.9139C6.57633 46.9072 6.57829 46.9014 6.58104 46.8955C6.58378 46.8896 6.58771 46.8845 6.5928 46.8806C6.59751 46.8763 6.60339 46.8731 6.60927 46.8712L9.63313 45.8609C9.64528 45.8566 9.65861 45.8577 9.66998 45.8636C9.68174 45.8691 9.69036 45.8793 9.69467 45.8914C9.69664 45.8973 9.69742 45.9036 9.69703 45.9103C9.69664 45.9165 9.69506 45.9228 9.69232 45.9283C9.68918 45.9342 9.68527 45.9393 9.68056 45.9432C9.67547 45.9475 9.66997 45.9506 9.6637 45.9526L6.63985 46.9633L6.62417 46.9657Z" fill="#191A1F"/>
<path d="M4.2307 42.5406C4.2205 42.5406 4.2107 42.5371 4.20247 42.5308C4.19463 42.5249 4.18835 42.5163 4.18522 42.5065C4.18326 42.5006 4.18248 42.4943 4.18287 42.4881C4.18326 42.4818 4.18483 42.4755 4.18796 42.47C4.19071 42.4645 4.19463 42.4594 4.19933 42.4555C4.20443 42.4512 4.20992 42.4485 4.21619 42.4465L7.24005 41.4358C7.24593 41.4338 7.2522 41.4327 7.25847 41.4331C7.26474 41.4335 7.27102 41.435 7.2769 41.4378C7.28239 41.4405 7.28748 41.4444 7.2918 41.4491C7.29611 41.4538 7.29924 41.4593 7.3012 41.4656C7.30316 41.4715 7.30434 41.4778 7.30395 41.4844C7.30356 41.4907 7.3016 41.497 7.29885 41.5025C7.29611 41.5083 7.29219 41.5134 7.28709 41.5173C7.28239 41.5217 7.27651 41.5248 7.27063 41.5268L4.24677 42.5375C4.24168 42.5394 4.23619 42.5406 4.2307 42.5406Z" fill="#191A1F"/>
<path d="M22.7181 2.72634C22.7114 2.72634 22.7051 2.72477 22.6993 2.72242C22.6934 2.71967 22.6883 2.71615 22.684 2.71144C22.01 2.01619 22.2359 1.63394 22.2461 1.61692C22.2531 1.60638 22.2641 1.59901 22.2766 1.59626C22.2892 1.59352 22.3021 1.59564 22.3131 1.60218C22.3182 1.60556 22.3229 1.60987 22.3264 1.61496C22.33 1.6201 22.3327 1.62586 22.3339 1.63198C22.3354 1.6381 22.3354 1.64441 22.3347 1.6506C22.3335 1.65676 22.3311 1.66264 22.3276 1.66793C22.3276 1.67475 22.1406 2.00827 22.7542 2.6444C22.7632 2.65381 22.7683 2.66596 22.7683 2.67851C22.7683 2.69145 22.7632 2.7036 22.7542 2.71262C22.7498 2.71771 22.744 2.72124 22.7377 2.72359C22.7314 2.72595 22.7247 2.72673 22.7181 2.72634Z" fill="#191A1F"/>
<path d="M40.8118 31.6264L45.3479 30.543C45.7133 33.847 44.0323 37.256 39.8042 38.9873L39.6726 39.0412L39.7056 39.1795L40.7902 43.7206L36.8862 44.6531L35.795 40.0845L35.7627 39.9494L35.6241 39.9573C30.7416 40.2343 26.7117 37.2712 25.4272 31.893C24.582 28.3543 25.2522 25.768 26.4738 23.8991C27.6991 22.0244 29.4896 20.856 30.9059 20.1796L31.0271 20.1217L30.9959 19.9912L29.8961 15.3867L33.8002 14.4542L34.8909 19.0207L34.9228 19.1545L35.0602 19.148C36.4218 19.0836 38.1806 19.2118 39.8261 19.9584C41.4261 20.6844 42.9271 21.9985 43.8548 24.3116L39.3196 25.3948C38.2902 23.6335 36.2488 22.8531 34.0429 23.3799C32.592 23.7265 31.4327 24.606 30.7537 25.8835C30.0755 27.1597 29.8833 28.8195 30.3373 30.7202L30.3373 30.7203C30.7985 32.6466 31.7245 34.058 32.9064 34.9019C34.0897 35.7468 35.518 36.014 36.9603 35.6696C38.1781 35.3787 39.1401 34.8462 39.7998 34.1268C40.4322 33.4372 40.7799 32.5829 40.8118 31.6264Z" stroke="#191A1F" stroke-width="0.332088"/>
</svg>
