<svg width="678" height="669" viewBox="0 0 678 669" fill="none" xmlns="http://www.w3.org/2000/svg">
<path d="M39.6235 653.119H38.5645C38.6376 638.262 47.2824 638.236 54.8208 638.172C61.6316 638.172 67.5125 638.172 67.5728 628.446H68.6319C68.5716 639.196 61.5843 639.218 54.8337 639.231C47.0327 639.295 39.6967 639.321 39.6235 653.119Z" fill="#191A1F"/>
<path d="M415.63 652.478C577.897 598.25 663.188 415.899 606.135 245.189C549.087 74.4799 371.291 -19.9442 209.024 34.2866C46.7572 88.5191 -38.5329 270.866 18.5152 441.575C75.5676 612.285 253.363 706.71 415.63 652.478Z" fill="#FBD772"/>
<path d="M321.286 668.575C272.048 668.575 222.887 656.284 177.174 632.02C102.04 592.162 45.4527 524.614 17.8177 441.919C-9.82166 359.23 -5.17634 271.279 30.8581 194.203C66.8926 117.127 130.054 60.2425 208.676 33.9722C287.293 7.70533 371.967 15.2033 447.101 55.1494C522.231 95.093 578.819 162.568 606.458 245.245C634.097 327.926 629.448 415.89 593.418 492.966C557.383 570.042 494.196 626.888 415.6 653.171C385.197 663.357 353.347 668.558 321.286 668.575ZM18.8251 441.584C75.6838 611.742 253.527 706.207 415.265 652.159C493.598 626.005 556.522 569.267 592.458 492.48C628.393 415.692 633 327.978 605.446 245.547C548.588 75.3882 370.745 -19.0743 209.011 34.971C130.678 61.1293 67.7364 117.863 31.8139 194.651C-4.10436 271.442 -8.72815 359.152 18.8251 441.584Z" fill="#191A1F"/>
<path d="M472.308 633.526C632.492 579.991 716.098 398.205 659.046 227.495C601.994 56.7855 425.89 -38.2025 265.702 15.3325C105.519 68.8659 21.9118 250.653 78.9643 421.362C136.017 592.072 312.121 687.062 472.308 633.526Z" fill="#FBD772"/>
<path d="M380.225 649.257C331.189 649.257 282.101 636.803 236.5 612.19C162.089 572.061 105.889 504.414 78.3144 421.719C50.7353 339.025 54.92 251.191 90.2441 174.386C125.568 97.5857 187.787 40.9767 265.397 15.0302C343.006 -10.9151 426.747 -3.08048 501.171 37.0633C575.59 77.2092 631.777 144.844 659.356 227.538C686.931 310.228 682.746 398.067 647.422 474.88C612.098 551.693 549.884 608.294 472.274 634.224C442.603 644.173 411.519 649.249 380.225 649.257ZM356.847 1.21694C325.854 1.21091 295.068 6.22475 265.681 16.0638C106.027 69.4125 22.3985 251.251 79.2572 421.409C106.81 503.854 162.838 571.273 237.008 611.294C311.182 651.315 394.6 659.086 471.934 633.242C549.272 607.394 611.25 551.034 646.462 474.458C681.674 397.877 685.898 310.327 658.349 227.9C612.21 89.8019 487.519 1.21694 356.847 1.21694Z" fill="#191A1F"/>
<path d="M455.419 583.001C589.422 538.214 659.365 386.142 611.637 243.338C563.914 100.535 416.59 21.0728 282.587 65.8568C148.584 110.644 78.6415 262.712 126.369 405.519C174.096 548.323 321.416 627.783 455.419 583.001Z" fill="#FBD772"/>
<path d="M378.356 596.282C337.328 596.282 296.247 585.847 258.086 565.268C195.807 531.64 148.786 475.078 125.667 405.838C77.9268 262.983 148.162 110.316 282.234 65.5123C416.311 20.7086 564.207 100.488 611.947 243.343C635.066 312.531 631.532 386.047 601.985 450.315C572.439 514.587 520.363 561.957 455.406 583.668C430.574 592.003 404.553 596.265 378.356 596.282ZM126.679 405.536C149.707 474.48 196.552 530.878 258.581 564.333C320.611 597.789 390.376 604.303 455.044 582.695C519.717 561.083 571.556 513.928 600.999 449.906C630.447 385.883 633.981 312.656 610.966 243.713C563.411 101.409 416.108 22.0036 282.596 66.5585C149.087 111.113 79.1236 263.246 126.679 405.536Z" fill="#191A1F"/>
<path d="M92.7497 116.081C92.6378 116.081 92.5301 116.046 92.444 115.982C92.3536 115.917 92.2848 115.827 92.2503 115.719C92.2245 115.655 92.2116 115.586 92.2159 115.512C92.2202 115.444 92.2374 115.375 92.2719 115.31C92.302 115.246 92.345 115.19 92.401 115.147C92.457 115.099 92.5173 115.069 92.5861 115.048L125.792 103.949C125.861 103.923 125.93 103.914 125.999 103.919C126.072 103.919 126.141 103.94 126.205 103.97C126.266 104 126.322 104.048 126.369 104.099C126.412 104.155 126.446 104.22 126.464 104.285C126.49 104.353 126.498 104.422 126.494 104.491C126.49 104.56 126.472 104.629 126.438 104.689C126.408 104.749 126.365 104.805 126.313 104.848C126.257 104.896 126.197 104.926 126.128 104.947L92.9219 116.059L92.7497 116.081Z" fill="#191A1F"/>
<path d="M49.6157 177.938C49.5037 177.934 49.3961 177.899 49.31 177.835C49.2196 177.77 49.1507 177.68 49.1163 177.576C49.0775 177.443 49.0905 177.296 49.1507 177.172C49.2153 177.047 49.3229 176.952 49.4521 176.905L82.658 165.806C82.7958 165.763 82.9379 165.771 83.0671 165.836C83.1919 165.901 83.2866 166.008 83.334 166.142C83.3555 166.211 83.3641 166.279 83.3598 166.348C83.3555 166.417 83.3383 166.486 83.3081 166.551C83.2737 166.611 83.2306 166.667 83.1789 166.714C83.123 166.757 83.0627 166.792 82.9982 166.813L49.7879 177.912C49.7319 177.934 49.6759 177.942 49.6157 177.938Z" fill="#191A1F"/>
<path d="M25.61 233.402C25.5024 233.402 25.3948 233.363 25.3044 233.298C25.2183 233.234 25.1494 233.143 25.1149 233.04C25.0719 232.907 25.0848 232.76 25.1494 232.635C25.2097 232.51 25.3173 232.416 25.4507 232.368L58.6696 221.27C58.7342 221.248 58.8031 221.239 58.872 221.244C58.9408 221.248 59.0054 221.27 59.07 221.3C59.1302 221.33 59.1863 221.373 59.2293 221.429C59.2724 221.481 59.3068 221.541 59.3283 221.605C59.3542 221.67 59.3671 221.743 59.3628 221.812C59.3584 221.885 59.3412 221.954 59.3068 222.014C59.2766 222.079 59.2336 222.135 59.1776 222.182C59.1216 222.225 59.0614 222.26 58.9925 222.277L25.7866 233.376C25.7306 233.397 25.6703 233.406 25.61 233.402Z" fill="#191A1F"/>
<path d="M21.2146 405.876C21.0897 405.876 20.9692 405.833 20.8745 405.752C20.7798 405.67 20.7152 405.558 20.6937 405.433C20.6765 405.313 20.7023 405.183 20.7668 405.076C20.8314 404.972 20.9348 404.891 21.051 404.852L54.2699 393.744C54.3388 393.723 54.4076 393.714 54.4765 393.719C54.5454 393.723 54.61 393.744 54.6702 393.775C54.7348 393.805 54.7865 393.848 54.8338 393.899C54.8769 393.955 54.9113 394.016 54.9328 394.08C54.9544 394.145 54.9673 394.214 54.963 394.283C54.9587 394.351 54.9415 394.42 54.9113 394.485C54.8812 394.545 54.8381 394.601 54.7865 394.649C54.7348 394.696 54.6745 394.73 54.61 394.752L21.3868 405.851C21.3351 405.872 21.2749 405.881 21.2146 405.876Z" fill="#191A1F"/>
<path d="M273.004 655.487C272.896 655.487 272.789 655.453 272.698 655.388C272.608 655.323 272.543 655.233 272.509 655.125C272.483 655.061 272.474 654.988 272.479 654.919C272.483 654.85 272.5 654.781 272.535 654.716C272.565 654.656 272.608 654.6 272.659 654.553C272.715 654.51 272.776 654.475 272.845 654.454L306.05 643.355C306.184 643.312 306.33 643.321 306.455 643.385C306.58 643.45 306.679 643.557 306.722 643.691C306.765 643.824 306.752 643.971 306.688 644.095C306.627 644.22 306.52 644.315 306.386 644.362L273.167 655.461L273.004 655.487Z" fill="#191A1F"/>
<path d="M201.348 631.985C201.236 631.985 201.128 631.951 201.038 631.886C200.952 631.817 200.883 631.727 200.849 631.623C200.827 631.559 200.814 631.486 200.818 631.417C200.823 631.348 200.84 631.279 200.87 631.219C200.9 631.154 200.943 631.098 200.995 631.055C201.047 631.008 201.107 630.973 201.172 630.952L234.395 619.853C234.528 619.81 234.67 619.823 234.795 619.887C234.92 619.948 235.019 620.055 235.066 620.189C235.109 620.322 235.096 620.469 235.036 620.594C234.972 620.718 234.864 620.817 234.73 620.86L201.512 631.959C201.46 631.981 201.404 631.989 201.348 631.985Z" fill="#191A1F"/>
<path d="M148.825 602.09C148.713 602.09 148.605 602.056 148.515 601.991C148.424 601.926 148.36 601.836 148.325 601.728C148.3 601.664 148.291 601.595 148.295 601.526C148.3 601.457 148.317 601.388 148.347 601.324C148.377 601.263 148.42 601.207 148.472 601.16C148.523 601.113 148.584 601.078 148.648 601.057L181.867 589.958C182.001 589.919 182.147 589.932 182.272 589.992C182.397 590.057 182.491 590.165 182.539 590.294C182.586 590.427 182.573 590.574 182.509 590.698C182.448 590.828 182.336 590.922 182.203 590.97L148.984 602.064C148.932 602.086 148.876 602.094 148.825 602.09Z" fill="#191A1F"/>
<path d="M102.389 558.607C102.264 558.603 102.148 558.556 102.058 558.474C101.963 558.392 101.903 558.28 101.881 558.159C101.864 558.039 101.885 557.914 101.946 557.806C102.006 557.699 102.101 557.617 102.217 557.574L135.436 546.475C135.569 546.432 135.715 546.441 135.84 546.505C135.965 546.566 136.06 546.677 136.107 546.811C136.146 546.944 136.133 547.087 136.073 547.211C136.008 547.336 135.901 547.435 135.771 547.483L102.553 558.581L102.389 558.607Z" fill="#191A1F"/>
<path d="M64.9855 512.098C64.8735 512.098 64.7659 512.059 64.6755 511.995C64.5851 511.93 64.5205 511.84 64.4861 511.736C64.4645 511.668 64.4516 511.599 64.4559 511.53C64.4602 511.457 64.4817 511.392 64.5119 511.328C64.542 511.263 64.5851 511.207 64.641 511.164C64.6927 511.117 64.7573 511.082 64.8219 511.061L98.0278 499.966C98.1613 499.919 98.3077 499.932 98.4325 499.996C98.5617 500.057 98.6564 500.168 98.7037 500.302C98.7253 500.366 98.7339 500.435 98.7296 500.509C98.7253 500.577 98.708 500.646 98.6779 500.707C98.6434 500.771 98.6004 500.827 98.5488 500.87C98.4928 500.918 98.4325 500.952 98.3636 500.974L65.1577 512.072L64.9855 512.098Z" fill="#191A1F"/>
<path d="M38.7021 463.505C38.5901 463.505 38.4825 463.467 38.3921 463.398C38.306 463.333 38.2371 463.238 38.2027 463.131C38.1811 463.066 38.1726 462.997 38.1769 462.928C38.1812 462.86 38.1984 462.791 38.2328 462.73C38.263 462.67 38.306 462.614 38.3576 462.571C38.4136 462.524 38.4739 462.494 38.5428 462.472L71.7487 451.373C71.8133 451.352 71.8822 451.339 71.9511 451.343C72.02 451.347 72.0888 451.365 72.1534 451.395C72.2137 451.425 72.2697 451.468 72.317 451.52C72.3644 451.571 72.3988 451.632 72.4203 451.7C72.4419 451.765 72.4548 451.834 72.4505 451.907C72.4462 451.976 72.4247 452.045 72.3945 452.105C72.3644 452.17 72.3213 452.226 72.2654 452.269C72.2137 452.316 72.1491 452.351 72.0846 452.372L38.8786 463.471C38.8226 463.492 38.7624 463.505 38.7021 463.505Z" fill="#191A1F"/>
<path d="M241.718 26.2917C241.645 26.2917 241.576 26.2745 241.511 26.2487C241.447 26.2185 241.391 26.1798 241.343 26.1281C233.943 18.4933 236.423 14.2957 236.535 14.1089C236.612 13.9931 236.733 13.9121 236.87 13.882C237.008 13.8519 237.15 13.8751 237.271 13.947C237.327 13.984 237.378 14.0314 237.417 14.0874C237.456 14.1438 237.486 14.2071 237.499 14.2742C237.516 14.3414 237.516 14.4107 237.508 14.4787C237.495 14.5463 237.469 14.6109 237.43 14.669C237.43 14.7439 235.376 18.4063 242.114 25.3919C242.213 25.4953 242.269 25.6287 242.269 25.7665C242.269 25.9086 242.213 26.042 242.114 26.141C242.067 26.197 242.002 26.2358 241.933 26.2616C241.864 26.2874 241.791 26.296 241.718 26.2917Z" fill="#191A1F"/>
<mask id="path-19-inside-1_245_37691" fill="white">
<path fill-rule="evenodd" clip-rule="evenodd" d="M307.099 288.371L306.996 287.468C306.928 286.85 306.854 286.181 306.836 286.045C303.42 261.837 323.05 237.632 352.459 229.752L353.636 229.444C379.458 222.525 400.73 228.393 418.66 247.38C420.579 249.409 423.777 249.506 425.789 247.574C427.806 245.648 427.88 242.434 425.96 240.401C405.53 218.772 380.312 211.788 351.051 219.629L349.873 219.933C314.949 229.291 292.652 257.682 296.843 287.391L296.97 288.538C297.034 289.115 297.095 289.651 297.104 289.724C297.505 292.471 300.026 294.373 302.764 294.018C302.985 293.986 303.199 293.943 303.406 293.888C305.794 293.248 307.402 290.906 307.099 288.371ZM473.165 372.011C461.137 327.123 428.231 324.069 383.05 324.66L377.653 324.687C365.052 324.69 343.964 324.701 328.004 316.024C325.551 314.694 322.494 315.615 321.176 318.073C319.859 320.538 320.782 323.618 323.233 324.952C341.446 334.854 364.138 334.841 377.692 334.832L383.217 334.806C430.324 334.194 453.594 337.922 463.427 374.62C471.057 403.093 449.185 430.265 410.242 440.7C381.303 448.454 352.547 440.609 335.191 420.227C333.376 418.094 330.191 417.835 328.078 419.658C325.965 421.477 325.726 424.679 327.541 426.812C347.453 450.196 380.147 459.276 412.87 450.508C457.546 438.537 482.341 406.259 473.165 372.011ZM401.544 253.658C403.053 251.312 402.384 248.168 400.045 246.637C388.667 239.196 376.653 237.067 362.235 239.938C359.538 240.49 357.736 243.146 358.285 245.899C358.835 248.651 361.497 250.436 364.226 249.894C375.9 247.568 385.543 249.235 394.571 255.14C395.817 255.961 397.291 256.149 398.624 255.792C399.784 255.481 400.838 254.756 401.544 253.658ZM494.603 403.855C498.14 391.514 498.228 378.896 494.865 366.344C478.093 303.751 422.981 304.463 382.743 304.987L378.631 305.013C355.955 305.003 335.184 303.437 330.169 284.733C329.305 281.187 329.25 277.727 330.003 274.436C330.629 271.709 328.936 268.98 326.219 268.337C323.502 267.706 320.801 269.392 320.176 272.126C319.064 276.966 319.131 282.013 320.401 287.229C327.88 315.141 359.67 315.151 378.663 315.161L382.906 315.133C423.917 314.603 470.402 313.999 485.127 368.954C488.003 379.687 487.932 390.475 484.912 401.012C484.14 403.702 485.684 406.518 488.36 407.303C489.274 407.573 490.205 407.57 491.068 407.339C492.712 406.898 494.097 405.626 494.603 403.855ZM471.221 440.975C473.253 439.064 473.347 435.851 471.438 433.804C469.529 431.757 466.342 431.645 464.311 433.56C451.689 445.462 434.755 454.508 415.336 459.712C377.501 469.849 337.706 458.69 316.306 431.954C315.239 430.623 314.39 429.163 313.777 427.619C312.739 425.009 309.793 423.721 307.222 424.769C304.634 425.799 303.376 428.748 304.412 431.352C305.398 433.839 306.761 436.177 308.461 438.299C332.327 468.126 376.334 480.67 417.963 469.516C438.981 463.884 457.398 454.017 471.221 440.975ZM450.386 402.545C454.998 394.636 456.261 386.068 454.039 377.776C452.213 370.959 448.952 365.159 444.345 360.546C441.893 358.087 439.001 355.906 435.753 354.062C433.321 352.688 430.248 353.546 428.887 355.985C427.527 358.428 428.394 361.523 430.822 362.901C433.277 364.291 435.437 365.915 437.24 367.719C440.616 371.103 442.925 375.246 444.302 380.385C445.825 386.071 444.942 391.793 441.683 397.386C435.686 407.673 422.401 416.271 406.208 420.318C396.606 422.743 386.863 422.905 378.029 420.794C371.616 419.261 366.845 415.929 363.687 413.724C363.082 413.303 362.537 412.923 362.053 412.602C359.725 411.053 356.602 411.701 355.068 414.042C353.545 416.381 354.196 419.526 356.527 421.07C356.949 421.355 357.429 421.688 357.957 422.058C361.511 424.538 367.456 428.688 375.728 430.666C386.129 433.155 397.53 432.981 408.689 430.165C409.15 430.049 409.604 429.932 410.059 429.809C428.223 424.942 443.234 414.818 450.386 402.545ZM391.662 350.292C391.618 347.491 389.321 345.245 386.535 345.284C382.76 345.334 378.733 345.466 374.568 345.685C322.715 348.42 295.274 333.515 285.583 297.35C274.948 257.656 300.305 222.271 348.687 209.307C377.647 201.547 418.535 208.091 439.872 240.791C441.399 243.138 444.535 243.801 446.857 242.27C449.181 240.735 449.828 237.594 448.296 235.245C424.204 198.32 378.411 190.835 346.06 199.503C291.854 214.028 263.635 254.4 275.842 299.96C290.312 353.961 339.44 357.706 375.13 355.82C379.162 355.61 383.055 355.479 386.702 355.429C387.129 355.424 387.542 355.367 387.938 355.261C390.116 354.677 391.701 352.666 391.662 350.292ZM513.74 361.287C505.724 331.373 493.573 313.582 474.333 303.604C471.857 302.318 468.817 303.299 467.546 305.782C466.278 308.272 467.26 311.332 469.74 312.621C486.445 321.288 496.695 336.624 504.002 363.896C517.391 413.863 482.245 462.156 420.429 478.72C378.4 489.981 331.69 477.669 304.191 448.089L303.424 447.272C301.327 445.071 296.964 440.486 292.48 433.22C291.006 430.833 287.894 430.088 285.536 431.568C283.169 433.043 282.446 436.166 283.915 438.551C288.958 446.723 293.817 451.83 296.153 454.278L296.833 455.004C326.812 487.251 377.536 500.725 423.057 488.527C490.515 470.452 528.653 416.944 513.74 361.287ZM380.04 372.632C380.063 369.828 377.828 367.531 375.041 367.495C350.114 367.178 298.248 366.521 273.637 326.007C272.184 323.614 269.073 322.847 266.703 324.311C264.327 325.765 263.581 328.887 265.038 331.283C292.57 376.597 350.298 377.331 374.95 377.645C375.421 377.651 375.879 377.593 376.314 377.476C378.442 376.906 380.018 374.962 380.04 372.632ZM261.358 289.23C256.515 244.297 288.527 205.036 341.216 190.918C341.977 190.714 342.75 190.514 343.521 190.319C346.283 189.549 347.855 186.887 347.172 184.166C346.488 181.45 343.745 179.796 341.044 180.474C281.9 195.255 245.853 239.458 251.328 290.286C251.629 293.078 254.118 295.099 256.884 294.804C257.156 294.781 257.413 294.731 257.665 294.663C260.022 294.032 261.628 291.75 261.358 289.23ZM466.31 236.383C463.74 237.072 461.048 235.621 460.206 233.041C457.761 226.834 433.678 191.501 386.732 186.697C383.96 186.41 381.933 183.922 382.204 181.131C382.476 178.348 384.943 176.317 387.716 176.596C442.199 182.177 467.812 223.823 469.794 229.916C470.662 232.579 469.219 235.441 466.571 236.306C466.486 236.336 466.398 236.36 466.31 236.383Z"/>
</mask>
<path fill-rule="evenodd" clip-rule="evenodd" d="M307.099 288.371L306.996 287.468C306.928 286.85 306.854 286.181 306.836 286.045C303.42 261.837 323.05 237.632 352.459 229.752L353.636 229.444C379.458 222.525 400.73 228.393 418.66 247.38C420.579 249.409 423.777 249.506 425.789 247.574C427.806 245.648 427.88 242.434 425.96 240.401C405.53 218.772 380.312 211.788 351.051 219.629L349.873 219.933C314.949 229.291 292.652 257.682 296.843 287.391L296.97 288.538C297.034 289.115 297.095 289.651 297.104 289.724C297.505 292.471 300.026 294.373 302.764 294.018C302.985 293.986 303.199 293.943 303.406 293.888C305.794 293.248 307.402 290.906 307.099 288.371ZM473.165 372.011C461.137 327.123 428.231 324.069 383.05 324.66L377.653 324.687C365.052 324.69 343.964 324.701 328.004 316.024C325.551 314.694 322.494 315.615 321.176 318.073C319.859 320.538 320.782 323.618 323.233 324.952C341.446 334.854 364.138 334.841 377.692 334.832L383.217 334.806C430.324 334.194 453.594 337.922 463.427 374.62C471.057 403.093 449.185 430.265 410.242 440.7C381.303 448.454 352.547 440.609 335.191 420.227C333.376 418.094 330.191 417.835 328.078 419.658C325.965 421.477 325.726 424.679 327.541 426.812C347.453 450.196 380.147 459.276 412.87 450.508C457.546 438.537 482.341 406.259 473.165 372.011ZM401.544 253.658C403.053 251.312 402.384 248.168 400.045 246.637C388.667 239.196 376.653 237.067 362.235 239.938C359.538 240.49 357.736 243.146 358.285 245.899C358.835 248.651 361.497 250.436 364.226 249.894C375.9 247.568 385.543 249.235 394.571 255.14C395.817 255.961 397.291 256.149 398.624 255.792C399.784 255.481 400.838 254.756 401.544 253.658ZM494.603 403.855C498.14 391.514 498.228 378.896 494.865 366.344C478.093 303.751 422.981 304.463 382.743 304.987L378.631 305.013C355.955 305.003 335.184 303.437 330.169 284.733C329.305 281.187 329.25 277.727 330.003 274.436C330.629 271.709 328.936 268.98 326.219 268.337C323.502 267.706 320.801 269.392 320.176 272.126C319.064 276.966 319.131 282.013 320.401 287.229C327.88 315.141 359.67 315.151 378.663 315.161L382.906 315.133C423.917 314.603 470.402 313.999 485.127 368.954C488.003 379.687 487.932 390.475 484.912 401.012C484.14 403.702 485.684 406.518 488.36 407.303C489.274 407.573 490.205 407.57 491.068 407.339C492.712 406.898 494.097 405.626 494.603 403.855ZM471.221 440.975C473.253 439.064 473.347 435.851 471.438 433.804C469.529 431.757 466.342 431.645 464.311 433.56C451.689 445.462 434.755 454.508 415.336 459.712C377.501 469.849 337.706 458.69 316.306 431.954C315.239 430.623 314.39 429.163 313.777 427.619C312.739 425.009 309.793 423.721 307.222 424.769C304.634 425.799 303.376 428.748 304.412 431.352C305.398 433.839 306.761 436.177 308.461 438.299C332.327 468.126 376.334 480.67 417.963 469.516C438.981 463.884 457.398 454.017 471.221 440.975ZM450.386 402.545C454.998 394.636 456.261 386.068 454.039 377.776C452.213 370.959 448.952 365.159 444.345 360.546C441.893 358.087 439.001 355.906 435.753 354.062C433.321 352.688 430.248 353.546 428.887 355.985C427.527 358.428 428.394 361.523 430.822 362.901C433.277 364.291 435.437 365.915 437.24 367.719C440.616 371.103 442.925 375.246 444.302 380.385C445.825 386.071 444.942 391.793 441.683 397.386C435.686 407.673 422.401 416.271 406.208 420.318C396.606 422.743 386.863 422.905 378.029 420.794C371.616 419.261 366.845 415.929 363.687 413.724C363.082 413.303 362.537 412.923 362.053 412.602C359.725 411.053 356.602 411.701 355.068 414.042C353.545 416.381 354.196 419.526 356.527 421.07C356.949 421.355 357.429 421.688 357.957 422.058C361.511 424.538 367.456 428.688 375.728 430.666C386.129 433.155 397.53 432.981 408.689 430.165C409.15 430.049 409.604 429.932 410.059 429.809C428.223 424.942 443.234 414.818 450.386 402.545ZM391.662 350.292C391.618 347.491 389.321 345.245 386.535 345.284C382.76 345.334 378.733 345.466 374.568 345.685C322.715 348.42 295.274 333.515 285.583 297.35C274.948 257.656 300.305 222.271 348.687 209.307C377.647 201.547 418.535 208.091 439.872 240.791C441.399 243.138 444.535 243.801 446.857 242.27C449.181 240.735 449.828 237.594 448.296 235.245C424.204 198.32 378.411 190.835 346.06 199.503C291.854 214.028 263.635 254.4 275.842 299.96C290.312 353.961 339.44 357.706 375.13 355.82C379.162 355.61 383.055 355.479 386.702 355.429C387.129 355.424 387.542 355.367 387.938 355.261C390.116 354.677 391.701 352.666 391.662 350.292ZM513.74 361.287C505.724 331.373 493.573 313.582 474.333 303.604C471.857 302.318 468.817 303.299 467.546 305.782C466.278 308.272 467.26 311.332 469.74 312.621C486.445 321.288 496.695 336.624 504.002 363.896C517.391 413.863 482.245 462.156 420.429 478.72C378.4 489.981 331.69 477.669 304.191 448.089L303.424 447.272C301.327 445.071 296.964 440.486 292.48 433.22C291.006 430.833 287.894 430.088 285.536 431.568C283.169 433.043 282.446 436.166 283.915 438.551C288.958 446.723 293.817 451.83 296.153 454.278L296.833 455.004C326.812 487.251 377.536 500.725 423.057 488.527C490.515 470.452 528.653 416.944 513.74 361.287ZM380.04 372.632C380.063 369.828 377.828 367.531 375.041 367.495C350.114 367.178 298.248 366.521 273.637 326.007C272.184 323.614 269.073 322.847 266.703 324.311C264.327 325.765 263.581 328.887 265.038 331.283C292.57 376.597 350.298 377.331 374.95 377.645C375.421 377.651 375.879 377.593 376.314 377.476C378.442 376.906 380.018 374.962 380.04 372.632ZM261.358 289.23C256.515 244.297 288.527 205.036 341.216 190.918C341.977 190.714 342.75 190.514 343.521 190.319C346.283 189.549 347.855 186.887 347.172 184.166C346.488 181.45 343.745 179.796 341.044 180.474C281.9 195.255 245.853 239.458 251.328 290.286C251.629 293.078 254.118 295.099 256.884 294.804C257.156 294.781 257.413 294.731 257.665 294.663C260.022 294.032 261.628 291.75 261.358 289.23ZM466.31 236.383C463.74 237.072 461.048 235.621 460.206 233.041C457.761 226.834 433.678 191.501 386.732 186.697C383.96 186.41 381.933 183.922 382.204 181.131C382.476 178.348 384.943 176.317 387.716 176.596C442.199 182.177 467.812 223.823 469.794 229.916C470.662 232.579 469.219 235.441 466.571 236.306C466.486 236.336 466.398 236.36 466.31 236.383Z" fill="#FFF4EE" stroke="#191A1F" stroke-width="2" mask="url(#path-19-inside-1_245_37691)"/>
</svg>
