<svg width="77" height="374" viewBox="0 0 77 374" fill="none" xmlns="http://www.w3.org/2000/svg">
<path fill-rule="evenodd" clip-rule="evenodd" d="M-216.748 95.4765C-222.336 98.7599 -227.445 101.758 -230.264 103.136L-246.068 70.7898C-244.838 70.1888 -241.326 68.1632 -234.985 64.4374C-234.25 64.0057 -233.488 63.5576 -232.7 63.0942C-227.126 59.8173 -220.256 55.7782 -212.597 51.383C-195.16 41.3778 -173.222 29.289 -152.045 19.5682C-131.722 10.2394 -109.191 1.6744 -91.6112 1.20921C-82.7822 0.975585 -70.6715 2.67732 -62.3133 12.5209C-53.8911 22.44 -53.8653 35.1965 -56.0872 45.9198C-60.0647 65.1151 -69.8637 89.2938 -79.7932 112.646C-81.9495 117.717 -84.1249 122.777 -86.2847 127.802C-94.4186 146.724 -102.333 165.135 -108.189 181.691C-111.871 192.104 -114.485 201.1 -115.796 208.442C-116.876 214.492 -116.831 218.168 -116.556 220.11C-114.132 220.248 -109.026 219.819 -99.9947 216.822C-61.5773 204.075 -31.6562 173.202 -6.98093 147.742C-4.2685 144.944 -1.61944 142.21 0.970542 139.574C7.18322 133.249 13.475 127.095 19.4315 122.493C24.6452 118.465 33.1213 112.733 43.2796 112.798C56.5703 112.882 64.4844 122.066 68.4317 130.491C72.1311 138.386 74.1348 148.767 75.3744 160.615C78.2432 188.035 69.546 216.071 59.2059 240.514C53.9466 252.946 47.9983 265.031 42.3781 276.194C41.1714 278.591 39.9866 280.932 38.8276 283.222C34.4919 291.79 30.5186 299.642 27.1159 307.003C22.7666 316.411 19.9395 323.796 18.689 329.453C17.9894 332.618 17.9761 334.383 18.0418 335.21C18.7386 335.539 20.0963 336.019 22.5234 336.421C28.731 337.447 39.0144 337.379 55.1103 334.914L60.5586 370.5C43.0234 373.184 28.3698 373.877 16.6491 371.938C4.76969 369.974 -6.74349 364.773 -13.2501 353.427C-19.3597 342.774 -18.5082 330.938 -16.4624 321.683C-14.3468 312.112 -10.1695 301.865 -5.56126 291.896C-1.86321 283.897 2.49181 275.292 6.86753 266.647C7.9884 264.433 9.11064 262.215 10.2235 260.005C15.7821 248.964 21.2805 237.763 26.0506 226.488C35.7693 203.514 41.4619 182.446 39.5698 164.361C39.1149 160.013 38.5962 156.533 38.0702 153.779C34.8957 156.567 31.1482 160.225 26.6526 164.801C24.2467 167.251 21.6787 169.918 18.9501 172.752C-4.96764 197.596 -41.2187 235.25 -88.6578 250.99C-101.629 255.294 -114.152 257.513 -125.151 255.195C-137.96 252.496 -146.724 244.057 -150.49 232.592C-153.718 222.767 -152.964 211.802 -151.235 202.116C-149.431 192.007 -146.102 180.922 -142.128 169.687C-135.834 151.891 -127.283 132.005 -119.091 112.955C-116.997 108.085 -114.926 103.27 -112.923 98.5586C-102.734 74.5975 -94.467 53.714 -91.3384 38.6154C-91.2317 38.1002 -91.146 37.6331 -91.0775 37.2109C-100.534 37.605 -116.787 42.9953 -137.027 52.286C-156.715 61.3232 -177.542 72.7737 -194.68 82.6076C-202.163 86.9016 -208.864 90.8418 -214.443 94.1218C-215.234 94.5869 -216.003 95.0388 -216.748 95.4765ZM-87.6552 37.404C-87.6579 37.4064 -87.7051 37.3953 -87.7885 37.3633C-87.6942 37.3856 -87.6525 37.4016 -87.6552 37.404ZM-90.8561 33.9311C-90.8769 33.853 -90.8826 33.8101 -90.8802 33.8082C-90.8778 33.8063 -90.8674 33.8454 -90.8561 33.9311ZM17.4088 334.822C17.4161 334.818 17.4768 334.858 17.5694 334.953C17.4479 334.874 17.4016 334.826 17.4088 334.822Z" fill="white" stroke="black"/>
</svg>
