<svg width="12" height="25" viewBox="0 0 12 25" fill="none" xmlns="http://www.w3.org/2000/svg">
<path fill-rule="evenodd" clip-rule="evenodd" d="M2.85554 9.2159L2.86178 9.17147C2.86617 9.14112 2.87089 9.10825 2.87173 9.10156C3.00949 7.90269 4.18119 6.99861 5.59535 6.99861L5.65184 6.99897C6.89352 6.99897 7.77739 7.55099 8.35355 8.68628C8.41526 8.80767 8.55757 8.85319 8.67105 8.78672C8.78469 8.7206 8.82668 8.56815 8.76497 8.44658C8.10838 7.15323 7.06095 6.49753 5.65386 6.49753L5.59738 6.49699C3.91798 6.49699 2.57632 7.56671 2.4072 9.03798L2.39911 9.09434C2.39506 9.1227 2.39084 9.15268 2.39084 9.15268C2.37584 9.28888 2.46604 9.41189 2.59318 9.42996C2.60347 9.43122 2.61358 9.43194 2.62353 9.43194C2.73836 9.43194 2.83868 9.34072 2.85554 9.2159ZM9.30065 15.3306C9.30065 13.0347 7.86102 12.4682 5.82686 11.9187L5.58439 11.851C5.01903 11.6901 4.07277 11.4209 3.46104 10.8028C3.36695 10.708 3.21874 10.7128 3.13005 10.8133C3.04136 10.9141 3.04574 11.0728 3.13966 11.1678C3.83772 11.8732 4.85598 12.1628 5.46417 12.3357L5.71237 12.405C7.8332 12.9782 8.83241 13.4536 8.83241 15.3306C8.83241 16.7869 7.52447 17.8038 5.65184 17.8038C4.26027 17.8038 3.06446 17.0618 2.53079 15.8673C2.47498 15.7423 2.3352 15.6891 2.21852 15.7491C2.10184 15.8089 2.0526 15.9587 2.10841 16.0837C2.72065 17.4541 4.07834 18.3055 5.65184 18.3055C7.80016 18.3055 9.30065 17.0822 9.30065 15.3306ZM7.51014 8.76703C7.60608 8.67436 7.61383 8.51576 7.52733 8.4128C7.1063 7.91226 6.59288 7.65702 5.91151 7.6097C5.78387 7.60157 5.67106 7.70525 5.66263 7.84362C5.6542 7.98199 5.75217 8.10121 5.88116 8.11024C6.43286 8.14853 6.84546 8.35139 7.17948 8.7486C7.22551 8.8037 7.28942 8.83151 7.3535 8.83151C7.40931 8.83151 7.46528 8.81038 7.51014 8.76703ZM9.87967 17.1243C10.1867 16.5806 10.3424 15.9796 10.3424 15.3376C10.3424 12.1362 7.86119 11.4655 6.0496 10.976L5.8648 10.9247C4.84755 10.6343 3.93451 10.2939 3.93434 9.33729C3.93822 9.15702 3.97734 8.9912 4.05068 8.8438C4.11155 8.72169 4.06839 8.56977 3.95423 8.50438C3.83991 8.43953 3.69844 8.48542 3.63757 8.60789C3.52949 8.82465 3.47183 9.06634 3.46609 9.33151C3.46609 10.7591 4.89223 11.166 5.74424 11.4094L5.93494 11.4623C7.78127 11.9614 9.87411 12.5269 9.87411 15.3376C9.87411 15.8866 9.74124 16.4005 9.47905 16.8647C9.41211 16.9832 9.44751 17.1373 9.55812 17.209C9.59589 17.2336 9.63771 17.2453 9.67919 17.2453C9.75827 17.2453 9.83566 17.2023 9.87967 17.1243ZM8.3844 18.5966C8.49855 18.5314 8.54138 18.3793 8.48034 18.2572C8.4193 18.1351 8.27767 18.0891 8.16352 18.1545C7.45416 18.5611 6.58563 18.7762 5.65184 18.7762C3.8325 18.7762 2.18126 17.7348 1.54255 16.1854C1.51068 16.1082 1.49011 16.0277 1.48117 15.9462C1.466 15.8084 1.34932 15.7092 1.22134 15.7264C1.09285 15.7424 1.00096 15.8671 1.01613 16.0045C1.03046 16.1359 1.06351 16.2648 1.11427 16.3878C1.82649 18.1163 3.65006 19.2776 5.65184 19.2776C6.66252 19.2776 7.60743 19.0423 8.3844 18.5966ZM7.91161 16.4964C8.2136 16.1779 8.37328 15.7852 8.37328 15.3611C8.37328 15.0125 8.29672 14.694 8.14548 14.4149C8.06505 14.2663 7.96152 14.1252 7.83792 13.9957C7.74535 13.8991 7.59714 13.9007 7.50676 13.9997C7.41639 14.0988 7.41808 14.2576 7.51048 14.3544C7.60389 14.4522 7.68128 14.5573 7.74047 14.6664C7.85124 14.871 7.90503 15.0983 7.90503 15.3611C7.90503 15.6519 7.79661 15.9137 7.58315 16.1389C7.19044 16.5531 6.49103 16.7935 5.71591 16.7796C5.25593 16.7726 4.81686 16.6557 4.44591 16.442C4.17664 16.2869 4.00263 16.0669 3.88746 15.9213C3.86537 15.8934 3.84548 15.8683 3.82761 15.8468C3.74178 15.7432 3.5939 15.7341 3.49695 15.8262C3.4005 15.9184 3.3919 16.0768 3.4779 16.1803C3.49341 16.1993 3.51095 16.2213 3.53017 16.2457C3.65983 16.4095 3.87667 16.6835 4.22402 16.8837C4.66073 17.1355 5.17433 17.273 5.70883 17.2813C5.73092 17.2816 5.75267 17.2818 5.77459 17.2818C6.64801 17.2818 7.4432 16.9906 7.91161 16.4964ZM5.9051 13.252C5.9368 13.1178 5.86075 12.9812 5.7353 12.9475C5.56534 12.9016 5.38307 12.8564 5.19355 12.8136C2.8343 12.2811 1.78232 11.219 1.78232 9.36926C1.78232 7.33911 3.34537 5.97477 5.67191 5.97477C7.06449 5.97477 8.82027 6.80985 9.38445 8.64311C9.42475 8.77461 9.55745 8.84632 9.68003 8.80297C9.80278 8.75944 9.86955 8.61782 9.82908 8.48614C9.19206 6.41606 7.22754 5.47333 5.67191 5.47333C3.0653 5.47333 1.31391 7.03907 1.31391 9.36926C1.31391 12.1312 3.47301 12.9381 5.09693 13.3044C5.28039 13.3459 5.45658 13.3895 5.62081 13.4337C5.64004 13.439 5.65926 13.4415 5.67832 13.4415C5.78302 13.4415 5.87829 13.3658 5.9051 13.252ZM11.25 15.3376C11.25 13.8077 10.9187 12.8033 10.1754 12.0811C10.0798 11.9881 9.93161 11.9961 9.84477 12.0983C9.75793 12.2009 9.76519 12.3595 9.86096 12.4527C10.5062 13.0799 10.7818 13.9428 10.7818 15.3376C10.7818 17.8933 8.62434 19.7484 5.65184 19.7484C3.63083 19.7484 1.68317 18.5636 0.805029 16.8004L0.780412 16.7516C0.712797 16.6198 0.572172 16.3452 0.458357 15.9411C0.420925 15.8084 0.29025 15.733 0.166656 15.7735C0.0427241 15.8136 -0.0272532 15.9534 0.0100105 16.086C0.137989 16.5405 0.294632 16.8463 0.370002 16.993L0.391754 17.0363C1.34914 18.9585 3.46289 20.25 5.65184 20.25C8.89564 20.25 11.25 18.1843 11.25 15.3376ZM5.11514 14.1695C5.14988 14.036 5.0772 13.8978 4.9526 13.8604C3.83806 13.5266 1.51894 12.832 0.901814 10.584C0.865393 10.4513 0.735051 10.3749 0.61112 10.4144C0.48702 10.4534 0.416036 10.5929 0.452625 10.7258C1.1431 13.2403 3.72425 14.0134 4.82648 14.3436C4.84755 14.3499 4.8688 14.353 4.8897 14.353C4.99205 14.353 5.08614 14.2804 5.11514 14.1695ZM0.793056 8.67201C1.11595 6.46592 3.02416 5.00169 5.55775 5.00169C5.59434 5.00169 5.63144 5.00205 5.66836 5.00259C5.80157 5.00115 5.90409 4.89421 5.90614 4.75566C5.90813 4.6173 5.80494 4.50332 5.67561 4.50115C2.84441 4.45021 0.695765 6.09869 0.330378 8.59416C0.310313 8.73126 0.397655 8.85951 0.525296 8.88083C0.537773 8.88317 0.549913 8.88408 0.562054 8.88408C0.675362 8.88408 0.774845 8.79575 0.793056 8.67201ZM10.6236 8.77082C10.5 8.77082 10.3966 8.66714 10.3899 8.53329C10.3548 8.20579 9.69909 6.21176 7.65059 5.38229C7.5297 5.33315 7.46866 5.18846 7.51435 5.05877C7.56005 4.92943 7.69511 4.86404 7.81617 4.91282C10.1935 5.87578 10.842 8.19062 10.8576 8.50673C10.8645 8.64492 10.7654 8.76305 10.6362 8.77046C10.632 8.77082 10.6278 8.77082 10.6236 8.77082Z" fill="#2020ED"/>
<line x1="5.425" y1="3.175" x2="5.425" y2="0.2" stroke="#2020ED" stroke-width="0.4" stroke-linecap="round"/>
<line x1="5.425" y1="24.55" x2="5.425" y2="21.575" stroke="#2020ED" stroke-width="0.4" stroke-linecap="round"/>
<line x1="7.675" y1="3.175" x2="7.675" y2="0.2" stroke="#2020ED" stroke-width="0.4" stroke-linecap="round"/>
<line x1="7.675" y1="24.55" x2="7.675" y2="21.575" stroke="#2020ED" stroke-width="0.4" stroke-linecap="round"/>
<line x1="6.55586" y1="4.3" x2="6.55586" y2="1.325" stroke="#2020ED" stroke-width="0.4" stroke-linecap="round"/>
<line x1="6.55586" y1="23.425" x2="6.55586" y2="20.45" stroke="#2020ED" stroke-width="0.4" stroke-linecap="round"/>
</svg>
