<svg width="56" height="16" viewBox="0 0 56 16" fill="none" xmlns="http://www.w3.org/2000/svg">
<path fill-rule="evenodd" clip-rule="evenodd" d="M13.752 10.5901V5.72291C13.752 5.47813 13.5376 5.27972 13.273 5.27972H12.2078C11.9433 5.27972 11.7289 5.47813 11.7289 5.72291V10.5901C11.7289 13.7989 13.527 15.8965 16.3744 15.8965C17.3091 15.8965 18.1566 15.5585 18.7664 15.0138C19.0706 14.7421 19.5772 14.94 19.5772 15.3315C19.5772 15.5763 19.7915 15.7747 20.056 15.7747H21.1213C21.3857 15.7747 21.6002 15.5763 21.6002 15.3315V5.72291C21.6002 5.47813 21.3857 5.27972 21.1213 5.27972H20.056C19.7915 5.27972 19.5772 5.47813 19.5772 5.72291V10.5742C19.5772 12.5853 18.3784 14.023 16.7117 14.023C14.9136 14.023 13.752 12.6893 13.752 10.5901ZM53.9816 10.6552V15.5266C53.9816 15.7386 54.1675 15.9106 54.3964 15.9106H55.5851C55.8142 15.9106 56 15.7386 56 15.5266V10.6552C56 7.42524 54.208 5.31246 51.3221 5.31246C50.3303 5.31246 49.4365 5.68956 48.817 6.28998C48.5554 6.54332 48.0966 6.38187 48.0966 6.03144V0.383917C48.0966 0.17187 47.9107 0 47.6817 0H46.4931C46.264 0 46.0783 0.17187 46.0783 0.383917V15.5266C46.0783 15.7386 46.264 15.9106 46.4931 15.9106H47.6817C47.9107 15.9106 48.0966 15.7386 48.0966 15.5266V10.6727C48.0966 8.64742 49.3226 7.18083 50.9825 7.18083C52.8122 7.18083 53.9816 8.54264 53.9816 10.6552ZM42.1933 10.6552V15.5266C42.1933 15.7386 42.3789 15.9106 42.608 15.9106H43.7967C44.0258 15.9106 44.2116 15.7386 44.2116 15.5266V10.6552C44.2116 7.42524 42.4197 5.31246 39.5337 5.31246C38.5421 5.31246 37.6481 5.68956 37.0285 6.28998C36.767 6.54332 36.3082 6.38187 36.3082 6.03144V0.383917C36.3082 0.17187 36.1225 0 35.8933 0H34.7047C34.4756 0 34.2899 0.17187 34.2899 0.383917V15.5266C34.2899 15.7386 34.4756 15.9106 34.7047 15.9106H35.8933C36.1225 15.9106 36.3082 15.7386 36.3082 15.5266V10.6727C36.3082 8.64742 37.5342 7.18083 39.1941 7.18083C41.0238 7.18083 42.1933 8.54264 42.1933 10.6552ZM7.90345 10.6552V15.5266C7.90345 15.7386 8.08913 15.9106 8.31821 15.9106H9.50691C9.736 15.9106 9.92168 15.7386 9.92168 15.5266V10.6552C9.92168 7.42524 8.12985 5.31246 5.24391 5.31246C4.25215 5.31246 3.35831 5.68956 2.73871 6.28998C2.4772 6.54332 2.01823 6.38187 2.01823 6.03144V0.383917C2.01823 0.17187 1.83255 0 1.60346 0H0.414899C0.185814 0 0 0.17187 0 0.383917V15.5266C0 15.7386 0.185814 15.9106 0.414899 15.9106H1.60346C1.83255 15.9106 2.01823 15.7386 2.01823 15.5266V10.6727C2.01823 8.64742 3.24444 7.18083 4.9043 7.18083C6.73404 7.18083 7.90345 8.54264 7.90345 10.6552ZM25.7255 8.42521L25.7304 8.3947C25.7339 8.37387 25.7377 8.3513 25.7384 8.34671C25.8478 7.5237 26.7787 6.90306 27.9023 6.90306L27.9472 6.90331C28.9338 6.90331 29.636 7.28226 30.0938 8.06163C30.1428 8.14496 30.2559 8.17621 30.346 8.13058C30.4363 8.08519 30.4697 7.98053 30.4207 7.89708C29.899 7.00921 29.0668 6.55907 27.9488 6.55907L27.9039 6.5587C26.5696 6.5587 25.5036 7.29305 25.3693 8.30307L25.3628 8.34175C25.3596 8.36122 25.3567 8.37933 25.3563 8.38181C25.3444 8.47531 25.416 8.55975 25.517 8.57215C25.5252 8.57302 25.5332 8.57352 25.5412 8.57352C25.6324 8.57352 25.7121 8.5109 25.7255 8.42521ZM30.8463 12.6229C30.8463 11.0468 29.7025 10.6579 28.0863 10.2807L27.8936 10.2342C27.4444 10.1237 26.6926 9.93893 26.2066 9.51459C26.1318 9.44948 26.0141 9.45283 25.9436 9.52178C25.8731 9.59097 25.8766 9.69997 25.9512 9.7652C26.5059 10.2494 27.3149 10.4482 27.7981 10.5669L27.9953 10.6145C29.6804 11.008 30.4743 11.3343 30.4743 12.6229C30.4743 13.6226 29.4351 14.3207 27.9472 14.3207C26.8416 14.3207 25.8915 13.8113 25.4675 12.9913C25.4231 12.9055 25.3121 12.869 25.2194 12.9102C25.1267 12.9512 25.0875 13.054 25.1319 13.1398C25.6183 14.0807 26.697 14.6651 27.9472 14.6651C29.6541 14.6651 30.8463 13.8253 30.8463 12.6229ZM29.4237 8.11706C29.4999 8.05345 29.5061 7.94457 29.4373 7.87389C29.1028 7.53027 28.6949 7.35505 28.1535 7.32257C28.0521 7.31699 27.9625 7.38816 27.9558 7.48315C27.9491 7.57814 28.0269 7.65998 28.1294 7.66618C28.5678 7.69247 28.8956 7.83173 29.161 8.10441C29.1975 8.14223 29.2483 8.16133 29.2992 8.16133C29.3436 8.16133 29.388 8.14682 29.4237 8.11706ZM31.3063 13.8542C31.5503 13.481 31.6739 13.0684 31.6739 12.6277C31.6739 10.43 29.7026 9.96956 28.2632 9.6335L28.1164 9.59829C27.3082 9.39889 26.5828 9.16527 26.5826 8.50854C26.5857 8.38478 26.6168 8.27095 26.6751 8.16976C26.7234 8.08593 26.6891 7.98165 26.5984 7.93676C26.5076 7.89224 26.3952 7.92374 26.3468 8.00781C26.261 8.15662 26.2151 8.32253 26.2106 8.50457C26.2106 9.48458 27.3437 9.76396 28.0206 9.93099L28.1721 9.96732C29.6391 10.3099 31.3019 10.6982 31.3019 12.6277C31.3019 13.0046 31.1963 13.3573 30.988 13.676C30.9348 13.7574 30.963 13.8632 31.0509 13.9124C31.0809 13.9293 31.1141 13.9373 31.147 13.9373C31.2099 13.9373 31.2714 13.9078 31.3063 13.8542ZM30.1183 14.865C30.209 14.8202 30.243 14.7158 30.1945 14.632C30.146 14.5482 30.0335 14.5165 29.9428 14.5614C29.3792 14.8406 28.6891 14.9883 27.9472 14.9883C26.5017 14.9883 25.1898 14.2734 24.6823 13.2097C24.657 13.1567 24.6406 13.1014 24.6335 13.0455C24.6215 12.9509 24.5288 12.8828 24.4271 12.8946C24.325 12.9056 24.252 12.9912 24.264 13.0855C24.2754 13.1757 24.3017 13.2642 24.342 13.3487C24.9079 14.5353 26.3568 15.3325 27.9472 15.3325C28.7502 15.3325 29.501 15.1709 30.1183 14.865ZM29.7427 13.4232C29.9826 13.2046 30.1095 12.935 30.1095 12.6438C30.1095 12.4045 30.0486 12.1859 29.9285 11.9943C29.8646 11.8922 29.7823 11.7954 29.6841 11.7065C29.6106 11.6401 29.4928 11.6413 29.421 11.7092C29.3492 11.7773 29.3505 11.8863 29.424 11.9528C29.4982 12.0198 29.5597 12.092 29.6067 12.1669C29.6947 12.3074 29.7374 12.4634 29.7374 12.6438C29.7374 12.8435 29.6513 13.0232 29.4817 13.1778C29.1697 13.4621 28.614 13.6272 27.9981 13.6176C27.6327 13.6128 27.2838 13.5326 26.9891 13.3859C26.7751 13.2794 26.6369 13.1283 26.5454 13.0284C26.5278 13.0093 26.512 12.992 26.4978 12.9773C26.4296 12.9061 26.3121 12.8999 26.2351 12.9631C26.1585 13.0264 26.1516 13.1351 26.22 13.2062C26.2323 13.2192 26.2462 13.2343 26.2615 13.2511C26.3645 13.3635 26.5368 13.5517 26.8128 13.6891C27.1598 13.8619 27.5678 13.9563 27.9925 13.962C28.01 13.9622 28.0273 13.9624 28.0447 13.9624C28.7387 13.9624 29.3705 13.7625 29.7427 13.4232ZM28.1484 11.196C28.1736 11.1038 28.1132 11.0101 28.0135 10.9869C27.8785 10.9554 27.7337 10.9244 27.5831 10.895C25.7086 10.5294 24.8728 9.80029 24.8728 8.53049C24.8728 7.13681 26.1147 6.2002 27.9632 6.2002C29.0696 6.2002 30.4646 6.77348 30.9129 8.03199C30.9449 8.12227 31.0503 8.1715 31.1477 8.14174C31.2452 8.11185 31.2983 8.01463 31.2661 7.92423C30.76 6.50315 29.1992 5.85597 27.9632 5.85597C25.8921 5.85597 24.5006 6.93084 24.5006 8.53049C24.5006 10.4265 26.2161 10.9804 27.5063 11.2319C27.6521 11.2604 27.7921 11.2903 27.9226 11.3207C27.9378 11.3243 27.9531 11.326 27.9683 11.326C28.0514 11.326 28.1271 11.2741 28.1484 11.196ZM32.3951 12.6277C32.3951 11.5774 32.1318 10.8879 31.5413 10.3922C31.4654 10.3283 31.3476 10.3338 31.2786 10.4039C31.2096 10.4744 31.2154 10.5833 31.2915 10.6472C31.8042 11.0778 32.0231 11.6701 32.0231 12.6277C32.0231 14.3821 30.3089 15.6556 27.9472 15.6556C26.3415 15.6556 24.794 14.8423 24.0963 13.6319L24.0767 13.5984C24.023 13.5079 23.9113 13.3194 23.8209 13.042C23.7911 12.9509 23.6873 12.8992 23.5891 12.9269C23.4906 12.9545 23.435 13.0504 23.4646 13.1415C23.5663 13.4535 23.6908 13.6634 23.7507 13.7641L23.7679 13.7938C24.5286 15.1134 26.208 16 27.9472 16C30.5245 16 32.3951 14.5819 32.3951 12.6277ZM27.5208 11.8258C27.5484 11.7341 27.4907 11.6393 27.3917 11.6136C26.5061 11.3844 24.6635 10.9076 24.1732 9.36442C24.1443 9.27327 24.0407 9.22082 23.9422 9.24798C23.8436 9.27476 23.7872 9.37049 23.8163 9.46176C24.3649 11.1879 26.4157 11.7186 27.2914 11.9453C27.3082 11.9497 27.3251 11.9518 27.3417 11.9518C27.423 11.9518 27.4978 11.9019 27.5208 11.8258ZM24.0868 8.05183C24.3433 6.53737 25.8595 5.53219 27.8725 5.53219C27.9015 5.53219 27.931 5.53244 27.9603 5.53281C28.0662 5.53182 28.1476 5.45841 28.1493 5.3633C28.1509 5.26831 28.0689 5.19007 27.9661 5.18858C25.7166 5.15361 24.0095 6.28527 23.7192 7.99839C23.7032 8.09251 23.7726 8.18055 23.8741 8.19518C23.884 8.19679 23.8936 8.19742 23.9033 8.19742C23.9933 8.19742 24.0723 8.13678 24.0868 8.05183ZM31.8974 8.11966C31.7992 8.11966 31.7171 8.04849 31.7117 7.9566C31.6839 7.73178 31.1629 6.3629 29.5353 5.79347C29.4392 5.75974 29.3907 5.66041 29.427 5.57138C29.4633 5.48259 29.5706 5.4377 29.6668 5.47118C31.5556 6.13225 32.0709 7.72136 32.0834 7.93837C32.0888 8.03323 32.0101 8.11433 31.9074 8.11942C31.9041 8.11966 31.9008 8.11966 31.8974 8.11966Z" fill="white"/>
</svg>
