<svg width="65" height="20" viewBox="0 0 65 20" fill="none" xmlns="http://www.w3.org/2000/svg">
<path fill-rule="evenodd" clip-rule="evenodd" d="M16.5298 13.2513V7.28943C16.5298 6.98959 16.2841 6.74656 15.9808 6.74656H14.76C14.4567 6.74656 14.211 6.98959 14.211 7.28943V13.2513C14.211 17.1819 16.272 19.7513 19.5356 19.7513C20.6069 19.7513 21.5782 19.3373 22.2772 18.6701C22.6259 18.3373 23.2065 18.5797 23.2065 19.0592C23.2065 19.3591 23.4522 19.6021 23.7553 19.6021H24.9763C25.2795 19.6021 25.5253 19.3591 25.5253 19.0592V7.28943C25.5253 6.98959 25.2795 6.74656 24.9763 6.74656H23.7553C23.4522 6.74656 23.2065 6.98959 23.2065 7.28943V13.2319C23.2065 15.6953 21.8325 17.4564 19.9222 17.4564C17.8612 17.4564 16.5298 15.8228 16.5298 13.2513ZM62.6402 13.3311V19.2982C62.6402 19.5579 62.8532 19.7686 63.1156 19.7686H64.4781C64.7406 19.7686 64.9536 19.5579 64.9536 19.2982V13.3311C64.9536 9.37466 62.8997 6.78666 59.5919 6.78666C58.4552 6.78666 57.4307 7.24857 56.7206 7.98405C56.4208 8.29438 55.8949 8.09661 55.8949 7.66735V0.749566C55.8949 0.489824 55.6819 0.279297 55.4193 0.279297H54.057C53.7944 0.279297 53.5816 0.489824 53.5816 0.749566V19.2982C53.5816 19.5579 53.7944 19.7686 54.057 19.7686H55.4193C55.6819 19.7686 55.8949 19.5579 55.8949 19.2982V13.3525C55.8949 10.8717 57.3002 9.07527 59.2027 9.07527C61.2999 9.07527 62.6402 10.7434 62.6402 13.3311ZM49.1286 13.3311V19.2982C49.1286 19.5579 49.3414 19.7686 49.604 19.7686H50.9665C51.229 19.7686 51.442 19.5579 51.442 19.2982V13.3311C51.442 9.37466 49.3881 6.78666 46.0803 6.78666C44.9437 6.78666 43.9191 7.24857 43.2089 7.98405C42.9092 8.29438 42.3832 8.09661 42.3832 7.66735V0.749566C42.3832 0.489824 42.1704 0.279297 41.9077 0.279297H40.5454C40.2828 0.279297 40.07 0.489824 40.07 0.749566V19.2982C40.07 19.5579 40.2828 19.7686 40.5454 19.7686H41.9077C42.1704 19.7686 42.3832 19.5579 42.3832 19.2982V13.3525C42.3832 10.8717 43.7885 9.07527 45.6911 9.07527C47.7883 9.07527 49.1286 10.7434 49.1286 13.3311ZM9.82635 13.3311V19.2982C9.82635 19.5579 10.0392 19.7686 10.3017 19.7686H11.6642C11.9268 19.7686 12.1396 19.5579 12.1396 19.2982V13.3311C12.1396 9.37466 10.0858 6.78666 6.77804 6.78666C5.6413 6.78666 4.61681 7.24857 3.90663 7.98405C3.6069 8.29438 3.08083 8.09661 3.08083 7.66735V0.749566C3.08083 0.489824 2.86801 0.279297 2.60544 0.279297H1.24313C0.980554 0.279297 0.767578 0.489824 0.767578 0.749566V19.2982C0.767578 19.5579 0.980554 19.7686 1.24313 19.7686H2.60544C2.86801 19.7686 3.08083 19.5579 3.08083 19.2982V13.3525C3.08083 10.8717 4.48629 9.07527 6.38879 9.07527C8.486 9.07527 9.82635 10.7434 9.82635 13.3311ZM30.2536 10.5995L30.2593 10.5622C30.2633 10.5367 30.2676 10.509 30.2683 10.5034C30.3938 9.49526 31.4608 8.73502 32.7487 8.73502L32.8001 8.73533C33.9309 8.73533 34.7358 9.19952 35.2605 10.1542C35.3167 10.2563 35.4463 10.2945 35.5496 10.2386C35.6531 10.183 35.6913 10.0548 35.6351 9.95262C35.0372 8.86505 34.0833 8.31367 32.8019 8.31367L32.7505 8.31321C31.2211 8.31321 29.9993 9.21274 29.8453 10.4499L29.8379 10.4973C29.8343 10.5212 29.8309 10.5433 29.8304 10.5464C29.8167 10.6609 29.8989 10.7644 30.0147 10.7795C30.024 10.7806 30.0333 10.7812 30.0423 10.7812C30.1469 10.7812 30.2382 10.7045 30.2536 10.5995ZM36.123 15.7414C36.123 13.8108 34.8119 13.3344 32.9595 12.8724L32.7387 12.8154C32.2238 12.6801 31.3621 12.4537 30.805 11.9339C30.7193 11.8542 30.5843 11.8583 30.5036 11.9428C30.4228 12.0275 30.4268 12.161 30.5123 12.2409C31.148 12.8341 32.0753 13.0776 32.6292 13.2229L32.8552 13.2813C34.7866 13.7632 35.6965 14.163 35.6965 15.7414C35.6965 16.9659 34.5054 17.8211 32.8001 17.8211C31.5328 17.8211 30.4439 17.1971 29.9579 16.1926C29.907 16.0875 29.7797 16.0429 29.6735 16.0933C29.5672 16.1436 29.5224 16.2695 29.5732 16.3746C30.1308 17.5271 31.3672 18.2429 32.8001 18.2429C34.7565 18.2429 36.123 17.2143 36.123 15.7414ZM34.4924 10.2221C34.5798 10.1442 34.5868 10.0108 34.508 9.92422C34.1246 9.50331 33.6571 9.28868 33.0366 9.24889C32.9203 9.24205 32.8176 9.32924 32.8099 9.44559C32.8022 9.56195 32.8915 9.6622 33.0089 9.66979C33.5113 9.70199 33.8871 9.87257 34.1913 10.2066C34.2332 10.2529 34.2914 10.2763 34.3497 10.2763C34.4006 10.2763 34.4515 10.2585 34.4924 10.2221ZM36.6502 17.2497C36.9299 16.7925 37.0716 16.2871 37.0716 15.7473C37.0716 13.0552 34.8121 12.4913 33.1623 12.0796L32.994 12.0365C32.0677 11.7922 31.2362 11.5061 31.236 10.7016C31.2396 10.55 31.2752 10.4106 31.342 10.2866C31.3974 10.184 31.3581 10.0562 31.2541 10.0012C31.15 9.9467 31.0212 9.98528 30.9658 10.0883C30.8673 10.2705 30.8148 10.4738 30.8096 10.6968C30.8096 11.8972 32.1083 12.2394 32.8842 12.444L33.0579 12.4885C34.7393 12.9082 36.6452 13.3838 36.6452 15.7473C36.6452 16.2089 36.5242 16.641 36.2854 17.0314C36.2245 17.1311 36.2567 17.2606 36.3574 17.3209C36.3918 17.3416 36.4299 17.3515 36.4677 17.3515C36.5397 17.3515 36.6102 17.3153 36.6502 17.2497ZM35.2886 18.4878C35.3925 18.433 35.4315 18.3051 35.3759 18.2024C35.3203 18.0997 35.1914 18.061 35.0874 18.1159C34.4414 18.4579 33.6505 18.6388 32.8001 18.6388C31.1433 18.6388 29.6396 17.7631 29.0579 16.4601C29.0289 16.3953 29.0101 16.3275 29.002 16.259C28.9882 16.1431 28.8819 16.0597 28.7654 16.0742C28.6484 16.0877 28.5647 16.1925 28.5785 16.3081C28.5916 16.4185 28.6217 16.527 28.6679 16.6304C29.3165 18.0839 30.9771 19.0604 32.8001 19.0604C33.7205 19.0604 34.581 18.8625 35.2886 18.4878ZM34.858 16.7217C35.133 16.4539 35.2784 16.1237 35.2784 15.767C35.2784 15.4739 35.2087 15.2061 35.071 14.9714C34.9977 14.8464 34.9034 14.7278 34.7909 14.6189C34.7066 14.5376 34.5716 14.539 34.4893 14.6222C34.407 14.7056 34.4086 14.8391 34.4927 14.9205C34.5778 15.0027 34.6482 15.0911 34.7021 15.1828C34.803 15.3549 34.852 15.546 34.852 15.767C34.852 16.0116 34.7533 16.2317 34.5589 16.4211C34.2013 16.7694 33.5643 16.9716 32.8584 16.9599C32.4396 16.9539 32.0397 16.8557 31.7019 16.676C31.4567 16.5455 31.2982 16.3605 31.1933 16.2381C31.1732 16.2147 31.1551 16.1936 31.1388 16.1755C31.0607 16.0883 30.926 16.0807 30.8377 16.1582C30.7499 16.2356 30.742 16.3688 30.8204 16.4559C30.8345 16.4718 30.8505 16.4904 30.868 16.5109C30.986 16.6486 31.1835 16.8791 31.4998 17.0474C31.8975 17.2591 32.3652 17.3747 32.852 17.3817C32.8721 17.382 32.8919 17.3821 32.9119 17.3821C33.7073 17.3821 34.4314 17.1373 34.858 16.7217ZM33.0307 13.9935C33.0596 13.8806 32.9903 13.7658 32.8761 13.7374C32.7213 13.6988 32.5553 13.6609 32.3827 13.6249C30.2343 13.1771 29.2762 12.2839 29.2762 10.7285C29.2762 9.02135 30.6997 7.87408 32.8184 7.87408C34.0866 7.87408 35.6855 8.57629 36.1993 10.1179C36.236 10.2285 36.3568 10.2888 36.4684 10.2523C36.5802 10.2157 36.641 10.0966 36.6042 9.98589C36.0241 8.24516 34.235 7.45242 32.8184 7.45242C30.4446 7.45242 28.8497 8.76905 28.8497 10.7285C28.8497 13.051 30.8159 13.7295 32.2948 14.0376C32.4618 14.0725 32.6223 14.1091 32.7718 14.1463C32.7893 14.1507 32.8069 14.1528 32.8242 14.1528C32.9196 14.1528 33.0063 14.0892 33.0307 13.9935ZM37.8982 15.7473C37.8982 14.4607 37.5964 13.6162 36.9196 13.0089C36.8325 12.9307 36.6975 12.9374 36.6185 13.0233C36.5394 13.1096 36.546 13.243 36.6332 13.3214C37.2208 13.8487 37.4717 14.5744 37.4717 15.7473C37.4717 17.8963 35.5071 19.4563 32.8001 19.4563C30.9596 19.4563 29.186 18.46 28.3863 16.9773L28.3638 16.9363C28.3023 16.8254 28.1742 16.5946 28.0706 16.2548C28.0365 16.1431 27.9175 16.0798 27.8049 16.1138C27.6921 16.1475 27.6283 16.2651 27.6623 16.3766C27.7788 16.7588 27.9215 17.0159 27.9901 17.1393L28.0099 17.1757C28.8818 18.792 30.8067 19.8781 32.8001 19.8781C35.7541 19.8781 37.8982 18.141 37.8982 15.7473ZM32.3113 14.765C32.343 14.6527 32.2768 14.5365 32.1633 14.5051C31.1483 14.2244 29.0364 13.6403 28.4744 11.75C28.4412 11.6384 28.3225 11.5741 28.2097 11.6074C28.0967 11.6402 28.032 11.7574 28.0653 11.8692C28.6941 13.9836 31.0447 14.6337 32.0485 14.9114C32.0677 14.9167 32.087 14.9193 32.106 14.9193C32.1993 14.9193 32.2849 14.8582 32.3113 14.765ZM28.3754 10.1422C28.6694 8.28709 30.4072 7.05582 32.7144 7.05582C32.7477 7.05582 32.7815 7.05612 32.8151 7.05658C32.9364 7.05536 33.0298 6.96544 33.0317 6.84894C33.0335 6.73258 32.9395 6.63674 32.8217 6.63492C30.2435 6.59208 28.2868 7.97828 27.954 10.0767C27.9357 10.192 28.0153 10.2999 28.1315 10.3178C28.1429 10.3198 28.1539 10.3205 28.165 10.3205C28.2682 10.3205 28.3588 10.2462 28.3754 10.1422ZM37.3277 10.2253C37.2152 10.2253 37.121 10.1381 37.1149 10.0255C37.083 9.75014 36.4858 8.07337 34.6203 7.37586C34.5102 7.33455 34.4546 7.21288 34.4962 7.10382C34.5378 6.99506 34.6608 6.94007 34.7711 6.98109C36.936 7.79084 37.5266 9.73738 37.5408 10.0032C37.5471 10.1194 37.4568 10.2187 37.3392 10.225C37.3354 10.2253 37.3316 10.2253 37.3277 10.2253Z" fill="white"/>
</svg>
