<?xml version="1.0" encoding="UTF-8"?>
<!DOCTYPE svg PUBLIC "-//W3C//DTD SVG 1.1//EN" "http://www.w3.org/Graphics/SVG/1.1/DTD/svg11.dtd">
<svg xmlns="http://www.w3.org/2000/svg" version="1.1" width="80px" height="81px" style="shape-rendering:geometricPrecision; text-rendering:geometricPrecision; image-rendering:optimizeQuality; fill-rule:evenodd; clip-rule:evenodd" xmlns:xlink="http://www.w3.org/1999/xlink">
<g><path style="opacity:0.998" fill="#b10ce1" d="M 16.5,-0.5 C 22.5,-0.5 28.5,-0.5 34.5,-0.5C 23.1667,11.5 11.5,23.1667 -0.5,34.5C -0.5,28.1667 -0.5,21.8333 -0.5,15.5C 1.43772,11.8075 3.77106,8.30753 6.5,5C 9.7667,2.8703 13.1,1.03697 16.5,-0.5 Z"/></g>
<g><path style="opacity:0.997" fill="#9811d7" d="M 34.5,-0.5 C 40.8333,-0.5 47.1667,-0.5 53.5,-0.5C 48.1667,5.16667 42.8333,10.8333 37.5,16.5C 31.3441,16.3251 28.6775,19.3251 29.5,25.5C 18.6779,22.6583 14.3446,26.6583 16.5,37.5C 24.6978,37.5738 27.0312,41.2404 23.5,48.5C 21.2534,49.3742 18.9201,49.7076 16.5,49.5C 16.5654,49.0618 16.3988,48.7284 16,48.5C 10.9646,53.7031 5.79798,58.7031 0.5,63.5C 0.166667,63.5 -0.166667,63.5 -0.5,63.5C -0.5,53.8333 -0.5,44.1667 -0.5,34.5C 11.5,23.1667 23.1667,11.5 34.5,-0.5 Z"/></g>
<g><path style="opacity:0.985" fill="#8011cd" d="M 53.5,-0.5 C 56.5,-0.5 59.5,-0.5 62.5,-0.5C 66.1323,0.983589 69.4656,2.98359 72.5,5.5C 71.448,5.35055 70.448,5.51722 69.5,6C 62.9043,12.0899 56.9043,18.5899 51.5,25.5C 47.8333,25.5 44.1667,25.5 40.5,25.5C 41.0762,21.8875 40.0762,18.8875 37.5,16.5C 42.8333,10.8333 48.1667,5.16667 53.5,-0.5 Z"/></g>
<g><path style="opacity:0.999" fill="#6613c3" d="M 72.5,5.5 C 75.3258,8.48351 77.6591,11.8168 79.5,15.5C 79.5,17.1667 79.5,18.8333 79.5,20.5C 73.1118,26.8923 66.4451,32.8923 59.5,38.5C 57.5,38.5 55.5,38.5 53.5,38.5C 54.0251,33.8602 53.3584,29.5269 51.5,25.5C 56.9043,18.5899 62.9043,12.0899 69.5,6C 70.448,5.51722 71.448,5.35055 72.5,5.5 Z"/></g>
<g><path style="opacity:1" fill="#fdfcfe" d="M 37.5,16.5 C 40.0762,18.8875 41.0762,21.8875 40.5,25.5C 44.1667,25.5 47.8333,25.5 51.5,25.5C 53.3584,29.5269 54.0251,33.8602 53.5,38.5C 55.5,38.5 57.5,38.5 59.5,38.5C 64.5875,45.7785 62.5875,49.4451 53.5,49.5C 56.3417,60.3221 52.3417,64.6554 41.5,62.5C 41.4262,54.3022 37.7596,51.9688 30.5,55.5C 29.6258,57.7466 29.2924,60.0799 29.5,62.5C 27.1667,62.5 24.8333,62.5 22.5,62.5C 20.2776,62.822 18.4443,62.1554 17,60.5C 16.5014,56.8484 16.3347,53.1817 16.5,49.5C 18.9201,49.7076 21.2534,49.3742 23.5,48.5C 27.0312,41.2404 24.6978,37.5738 16.5,37.5C 14.3446,26.6583 18.6779,22.6583 29.5,25.5C 28.6775,19.3251 31.3441,16.3251 37.5,16.5 Z"/></g>
<g><path style="opacity:1" fill="#3714b0" d="M 79.5,37.5 C 79.5,46.1667 79.5,54.8333 79.5,63.5C 75.499,73.4983 68.1657,79.165 57.5,80.5C 50.8333,80.5 44.1667,80.5 37.5,80.5C 50.7808,65.5515 64.7808,51.2181 79.5,37.5 Z"/></g>
<g><path style="opacity:0.985" fill="#7310c9" d="M 16.5,49.5 C 16.3347,53.1817 16.5014,56.8484 17,60.5C 18.4443,62.1554 20.2776,62.822 22.5,62.5C 18.5,67.1667 14.1667,71.5 9.5,75.5C 4.57967,73.0139 1.57967,69.0139 0.5,63.5C 5.79798,58.7031 10.9646,53.7031 16,48.5C 16.3988,48.7284 16.5654,49.0618 16.5,49.5 Z"/></g>
<g><path style="opacity:1" fill="#5415bb" d="M 79.5,20.5 C 79.5,26.1667 79.5,31.8333 79.5,37.5C 64.7808,51.2181 50.7808,65.5515 37.5,80.5C 32.1667,80.5 26.8333,80.5 21.5,80.5C 18.6282,79.6746 15.6282,78.8412 12.5,78C 11.0577,77.6232 10.0577,76.7899 9.5,75.5C 14.1667,71.5 18.5,67.1667 22.5,62.5C 24.8333,62.5 27.1667,62.5 29.5,62.5C 29.2924,60.0799 29.6258,57.7466 30.5,55.5C 37.7596,51.9688 41.4262,54.3022 41.5,62.5C 52.3417,64.6554 56.3417,60.3221 53.5,49.5C 62.5875,49.4451 64.5875,45.7785 59.5,38.5C 66.4451,32.8923 73.1118,26.8923 79.5,20.5 Z"/></g>
</svg>
