<svg width="62" height="62" viewBox="0 0 62 62" fill="none" xmlns="http://www.w3.org/2000/svg">
<path d="M38.1528 59.6504C52.9294 54.7122 60.6962 38.1067 55.5008 22.5612C50.3058 7.01582 34.1151 -1.58278 19.3385 3.35567C4.56184 8.29428 -3.20499 24.8994 1.99001 40.4449C7.18542 55.9903 23.3762 64.589 38.1528 59.6504Z" fill="#FBD772"/>
<path d="M29.5615 61.1162C25.0777 61.1162 20.6009 59.9969 16.4381 57.7873C9.59612 54.1577 4.44306 48.0065 1.92651 40.4761C-0.590425 32.946 -0.167406 24.9369 3.11402 17.9181C6.39545 10.8993 12.1472 5.71919 19.3067 3.32692C26.4659 0.934967 34.1767 1.61776 41.0187 5.2554C47.8603 8.89281 53.0133 15.0374 55.5303 22.5662C58.0472 30.0955 57.6238 38.1058 54.3428 45.1246C51.0613 52.1434 45.3073 57.32 38.1501 59.7134C35.3814 60.641 32.4811 61.1146 29.5615 61.1162ZM2.01825 40.4455C7.19601 55.9408 23.3911 64.543 38.1195 59.6213C45.2528 57.2396 50.9829 52.0728 54.2553 45.0803C57.5277 38.0877 57.9472 30.1002 55.4381 22.5937C50.2604 7.09841 34.0653 -1.50368 19.3373 3.41788C12.204 5.79995 6.47229 10.9663 3.20106 17.9589C-0.0697873 24.9518 -0.490847 32.939 2.01825 40.4455Z" fill="#191A1F"/>
<path d="M43.3141 57.9245C57.9009 53.0494 65.5145 36.4952 60.3191 20.9497C55.1237 5.40431 39.087 -3.24565 24.4998 1.62945C9.91287 6.50439 2.29933 23.0586 7.49473 38.604C12.6901 54.1494 28.7268 62.7996 43.3141 57.9245Z" fill="#FBD772"/>
<path d="M34.9286 59.3571C30.4632 59.3571 25.9931 58.223 21.8405 55.9816C15.0644 52.3274 9.94662 46.1671 7.43556 38.6367C4.92411 31.1063 5.30518 23.1077 8.52192 16.1136C11.7387 9.11991 17.4045 3.96489 24.4719 1.6021C31.5394 -0.760569 39.1651 -0.0471216 45.9424 3.60852C52.7193 7.26435 57.8359 13.4234 60.3473 20.9538C62.8584 28.4839 62.4773 36.4828 59.2606 43.4777C56.0439 50.4726 50.3784 55.6268 43.311 57.9881C40.609 58.8941 37.7784 59.3564 34.9286 59.3571ZM32.7998 0.344217C29.9775 0.343668 27.1739 0.800246 24.4978 1.69623C9.95916 6.55435 2.34366 23.1132 7.52142 38.6085C10.0305 46.1162 15.1326 52.2556 21.8868 55.9001C28.6414 59.5445 36.2377 60.2522 43.28 57.8987C50.3227 55.5449 55.9666 50.4126 59.1732 43.4393C62.3797 36.4655 62.7643 28.4929 60.2556 20.9868C56.054 8.41109 44.6992 0.344217 32.7998 0.344217Z" fill="#191A1F"/>
<path d="M41.7761 53.3233C53.9789 49.2449 60.3481 35.3966 56.0019 22.3924C51.656 9.38825 38.2402 2.15213 26.0374 6.23032C13.8345 10.3088 7.46533 24.1567 11.8116 37.1612C16.1578 50.1654 29.5732 57.4014 41.7761 53.3233Z" fill="#FBD772"/>
<path d="M34.7585 54.533C31.0223 54.533 27.2814 53.5827 23.8063 51.7087C18.1349 48.6464 13.853 43.4957 11.7477 37.1904C7.40029 24.1815 13.7961 10.2792 26.0053 6.19913C38.2148 2.11914 51.6827 9.38412 56.0301 22.393C58.1354 28.6936 57.8136 35.3882 55.123 41.2407C52.4323 47.0935 47.6901 51.4072 41.7749 53.3843C39.5136 54.1433 37.1441 54.5314 34.7585 54.533ZM11.8398 37.163C13.9369 43.4412 18.2027 48.577 23.8514 51.6236C29.5 54.6702 35.8531 55.2634 41.742 53.2957C47.6313 51.3276 52.352 47.0335 55.0332 41.2034C57.7148 35.3733 58.0367 28.705 55.9408 22.4267C51.6102 9.46802 38.1963 2.23707 26.0382 6.2944C13.8804 10.3517 7.50928 24.2054 11.8398 37.163Z" fill="#191A1F"/>
<path d="M8.7501 10.8039C8.73991 10.8039 8.73011 10.8008 8.72227 10.7949C8.71403 10.789 8.70776 10.7808 8.70463 10.771C8.70227 10.7651 8.7011 10.7588 8.70149 10.7522C8.70188 10.7459 8.70345 10.7396 8.70659 10.7337C8.70933 10.7279 8.71325 10.7228 8.71835 10.7188C8.72344 10.7145 8.72893 10.7118 8.73521 10.7098L11.7591 9.69913C11.7653 9.69678 11.7716 9.69599 11.7779 9.69639C11.7845 9.69639 11.7908 9.69835 11.7967 9.70109C11.8022 9.70383 11.8073 9.70815 11.8116 9.71285C11.8155 9.71795 11.8187 9.72383 11.8202 9.72971C11.8226 9.73599 11.8234 9.74226 11.823 9.74853C11.8226 9.7548 11.821 9.76107 11.8179 9.76656C11.8151 9.77205 11.8112 9.77715 11.8065 9.78107C11.8014 9.78538 11.7959 9.78812 11.7896 9.79008L8.76578 10.802L8.7501 10.8039Z" fill="#191A1F"/>
<path d="M4.82214 16.437C4.81195 16.4367 4.80215 16.4335 4.79431 16.4276C4.78608 16.4218 4.7798 16.4135 4.77666 16.4041C4.77313 16.392 4.77431 16.3786 4.7798 16.3673C4.78568 16.3559 4.79548 16.3473 4.80724 16.343L7.8311 15.3323C7.84365 15.3283 7.85659 15.3291 7.86835 15.335C7.87972 15.3409 7.88834 15.3507 7.89265 15.3628C7.89461 15.3691 7.8954 15.3754 7.895 15.3817C7.89461 15.3879 7.89304 15.3942 7.8903 15.4001C7.88716 15.4056 7.88324 15.4107 7.87854 15.415C7.87344 15.4189 7.86795 15.422 7.86207 15.424L4.83782 16.4347C4.83273 16.4367 4.82763 16.4374 4.82214 16.437Z" fill="#191A1F"/>
<path d="M2.6361 21.4879C2.6263 21.4879 2.6165 21.4843 2.60827 21.4784C2.60043 21.4726 2.59415 21.4643 2.59101 21.4549C2.58709 21.4428 2.58827 21.4294 2.59415 21.4181C2.59964 21.4067 2.60944 21.3981 2.62159 21.3938L5.64663 20.3831C5.65251 20.3811 5.65878 20.3803 5.66505 20.3807C5.67132 20.3811 5.6772 20.3831 5.68308 20.3858C5.68857 20.3886 5.69367 20.3925 5.6976 20.3976C5.70152 20.4023 5.70465 20.4078 5.70661 20.4136C5.70896 20.4195 5.71014 20.4262 5.70975 20.4325C5.70935 20.4391 5.70779 20.4454 5.70465 20.4509C5.70191 20.4568 5.69798 20.4619 5.69289 20.4662C5.68779 20.4701 5.6823 20.4732 5.67603 20.4748L2.65218 21.4855C2.64708 21.4875 2.64159 21.4882 2.6361 21.4879Z" fill="#191A1F"/>
<path d="M2.23587 37.1939C2.2245 37.1939 2.21352 37.19 2.20489 37.1825C2.19627 37.1751 2.19039 37.1649 2.18843 37.1535C2.18686 37.1426 2.18921 37.1308 2.19509 37.121C2.20097 37.1116 2.21038 37.1041 2.22097 37.1006L5.246 36.0891C5.25228 36.0872 5.25855 36.0864 5.26482 36.0868C5.27109 36.0872 5.27697 36.0891 5.28246 36.0919C5.28834 36.0946 5.29305 36.0985 5.29736 36.1032C5.30128 36.1083 5.30441 36.1138 5.30637 36.1197C5.30834 36.1256 5.30951 36.1319 5.30912 36.1381C5.30873 36.1444 5.30716 36.1507 5.30442 36.1566C5.30167 36.162 5.29775 36.1671 5.29305 36.1715C5.28834 36.1758 5.28285 36.1789 5.27697 36.1809L2.25155 37.1916C2.24685 37.1935 2.24136 37.1943 2.23587 37.1939Z" fill="#191A1F"/>
<path d="M25.1647 59.9244C25.1549 59.9244 25.1451 59.9212 25.1369 59.9153C25.1286 59.9094 25.1228 59.9012 25.1196 59.8914C25.1173 59.8855 25.1165 59.8789 25.1169 59.8726C25.1173 59.8663 25.1188 59.8601 25.122 59.8542C25.1247 59.8487 25.1286 59.8436 25.1333 59.8393C25.1384 59.8354 25.1439 59.8322 25.1502 59.8303L28.1741 58.8196C28.1862 58.8156 28.1995 58.8164 28.2109 58.8223C28.2223 58.8282 28.2313 58.838 28.2352 58.8501C28.2391 58.8623 28.238 58.8756 28.2321 58.887C28.2266 58.8984 28.2168 58.907 28.2046 58.9113L25.1796 59.922L25.1647 59.9244Z" fill="#191A1F"/>
<path d="M18.6395 57.7844C18.6293 57.7844 18.6195 57.7813 18.6112 57.7754C18.6034 57.7692 18.5971 57.7609 18.594 57.7515C18.592 57.7456 18.5909 57.739 18.5912 57.7327C18.5916 57.7264 18.5932 57.7201 18.596 57.7147C18.5987 57.7088 18.6026 57.7037 18.6073 57.6998C18.612 57.6954 18.6175 57.6923 18.6234 57.6903L21.6488 56.6797C21.661 56.6757 21.6739 56.6769 21.6853 56.6828C21.6966 56.6883 21.7057 56.6981 21.71 56.7102C21.7139 56.7224 21.7127 56.7357 21.7072 56.7471C21.7014 56.7585 21.6916 56.7675 21.6794 56.7714L18.6544 57.7821C18.6497 57.784 18.6446 57.7848 18.6395 57.7844Z" fill="#191A1F"/>
<path d="M13.8565 55.0619C13.8463 55.0619 13.8365 55.0587 13.8283 55.0529C13.82 55.047 13.8142 55.0387 13.811 55.0289C13.8087 55.0231 13.8079 55.0168 13.8083 55.0105C13.8087 55.0042 13.8102 54.998 13.813 54.9921C13.8157 54.9866 13.8196 54.9815 13.8244 54.9772C13.8291 54.9729 13.8345 54.9697 13.8404 54.9678L16.8655 53.9571C16.8776 53.9536 16.8909 53.9547 16.9023 53.9602C16.9137 53.9661 16.9223 53.9759 16.9266 53.9877C16.9309 53.9998 16.9298 54.0131 16.9239 54.0245C16.9184 54.0363 16.9082 54.0449 16.896 54.0492L13.871 55.0595C13.8663 55.0615 13.8612 55.0623 13.8565 55.0619Z" fill="#191A1F"/>
<path d="M9.62787 51.1021C9.6165 51.1017 9.60592 51.0974 9.59768 51.0899C9.58906 51.0825 9.58357 51.0723 9.58161 51.0613C9.58004 51.0503 9.582 51.039 9.58749 51.0292C9.59298 51.0194 9.6016 51.0119 9.61219 51.008L12.6372 49.9973C12.6494 49.9934 12.6627 49.9942 12.6741 50C12.6854 50.0055 12.6941 50.0157 12.6984 50.0279C12.7019 50.04 12.7007 50.053 12.6952 50.0643C12.6894 50.0757 12.6796 50.0847 12.6678 50.089L9.64276 51.0997L9.62787 51.1021Z" fill="#191A1F"/>
<path d="M6.22178 46.8669C6.21158 46.8669 6.20178 46.8634 6.19355 46.8575C6.18531 46.8516 6.17944 46.8434 6.1763 46.834C6.17434 46.8277 6.17316 46.8214 6.17355 46.8152C6.17394 46.8085 6.1759 46.8026 6.17865 46.7967C6.18139 46.7908 6.18532 46.7857 6.19041 46.7818C6.19512 46.7775 6.201 46.7744 6.20688 46.7724L9.23074 45.7621C9.24289 45.7578 9.25622 45.759 9.26759 45.7649C9.27935 45.7703 9.28797 45.7805 9.29229 45.7927C9.29425 45.7986 9.29503 45.8048 9.29464 45.8115C9.29425 45.8178 9.29268 45.8241 9.28993 45.8296C9.28679 45.8354 9.28288 45.8405 9.27817 45.8444C9.27308 45.8488 9.26759 45.8519 9.26131 45.8539L6.23746 46.8646L6.22178 46.8669Z" fill="#191A1F"/>
<path d="M3.82831 42.4418C3.81811 42.4418 3.80831 42.4383 3.80008 42.432C3.79224 42.4262 3.78596 42.4175 3.78283 42.4077C3.78087 42.4018 3.78009 42.3956 3.78048 42.3893C3.78087 42.383 3.78244 42.3768 3.78558 42.3713C3.78832 42.3658 3.79224 42.3607 3.79694 42.3568C3.80204 42.3525 3.80753 42.3497 3.8138 42.3477L6.83766 41.3371C6.84354 41.3351 6.84981 41.3339 6.85608 41.3343C6.86236 41.3347 6.86863 41.3363 6.87451 41.339C6.88 41.3418 6.88509 41.3457 6.88941 41.3504C6.89372 41.3551 6.89685 41.3606 6.89881 41.3668C6.90077 41.3727 6.90195 41.379 6.90156 41.3857C6.90117 41.3919 6.89921 41.3982 6.89646 41.4037C6.89372 41.4096 6.8898 41.4147 6.8847 41.4186C6.88 41.4229 6.87412 41.426 6.86824 41.428L3.84438 42.4387C3.83929 42.4407 3.8338 42.4418 3.82831 42.4418Z" fill="#191A1F"/>
<path d="M22.3157 2.62783C22.309 2.62783 22.3028 2.62626 22.2969 2.62391C22.291 2.62116 22.2859 2.61764 22.2816 2.61293C21.6077 1.91768 21.8335 1.53543 21.8437 1.51841C21.8507 1.50787 21.8617 1.5005 21.8743 1.49775C21.8868 1.49501 21.8997 1.49713 21.9107 1.50367C21.9158 1.50705 21.9205 1.51136 21.924 1.51645C21.9276 1.52159 21.9303 1.52735 21.9315 1.53347C21.9331 1.53959 21.9331 1.5459 21.9323 1.55209C21.9311 1.55825 21.9287 1.56413 21.9252 1.56942C21.9252 1.57624 21.7382 1.90976 22.3518 2.54589C22.3608 2.5553 22.3659 2.56745 22.3659 2.58C22.3659 2.59294 22.3608 2.60509 22.3518 2.61411C22.3475 2.6192 22.3416 2.62273 22.3353 2.62508C22.329 2.62744 22.3224 2.62822 22.3157 2.62783Z" fill="#191A1F"/>
<mask id="path-18-inside-1_278_41120" fill="white">
<path fill-rule="evenodd" clip-rule="evenodd" d="M28.2695 26.4937L28.2601 26.4114C28.2539 26.3551 28.2472 26.2942 28.2456 26.2819C27.9345 24.0774 29.7221 21.8732 32.4002 21.1556L32.5073 21.1276C34.8587 20.4975 36.7959 21.0319 38.4286 22.7609C38.6034 22.9457 38.8946 22.9545 39.0778 22.7786C39.2615 22.6032 39.2683 22.3105 39.0934 22.1253C37.233 20.1557 34.9366 19.5198 32.2719 20.2337L32.1647 20.2614C28.9843 21.1136 26.9539 23.699 27.3356 26.4044L27.3471 26.5088C27.353 26.5614 27.3585 26.6102 27.3593 26.6169C27.3959 26.867 27.6254 27.0403 27.8748 27.0079C27.8948 27.005 27.9143 27.0011 27.9332 26.9961C28.1506 26.9378 28.2971 26.7245 28.2695 26.4937ZM43.3921 34.1103C42.2967 30.0225 39.3002 29.7445 35.1859 29.7983L34.6944 29.8007C33.5469 29.801 31.6266 29.802 30.1732 29.0118C29.9498 28.8907 29.6714 28.9746 29.5514 29.1984C29.4315 29.4229 29.5156 29.7034 29.7388 29.8249C31.3972 30.7266 33.4637 30.7254 34.6979 30.7246L35.201 30.7222C39.4908 30.6665 41.6099 31.006 42.5053 34.3479C43.2001 36.9407 41.2083 39.4151 37.6621 40.3653C35.0268 41.0714 32.4082 40.357 30.8277 38.501C30.6624 38.3068 30.3723 38.2831 30.18 38.4491C29.9875 38.6148 29.9657 38.9064 30.131 39.1006C31.9443 41.23 34.9216 42.0569 37.9014 41.2585C41.9697 40.1683 44.2277 37.229 43.3921 34.1103ZM36.87 23.3326C37.0075 23.1189 36.9465 22.8326 36.7335 22.6932C35.6974 22.0156 34.6034 21.8217 33.2904 22.0832C33.0448 22.1335 32.8807 22.3753 32.9307 22.626C32.9808 22.8766 33.2232 23.0392 33.4717 22.9898C34.5348 22.778 35.4129 22.9298 36.235 23.4676C36.3485 23.5423 36.4828 23.5594 36.6041 23.5269C36.7098 23.4986 36.8057 23.4325 36.87 23.3326ZM45.3443 37.0101C45.6664 35.8862 45.6744 34.7372 45.3681 33.5942C43.8408 27.8942 38.8222 27.9591 35.1579 28.0068L34.7835 28.0092C32.7185 28.0082 30.8271 27.8656 30.3704 26.1624C30.2917 25.8395 30.2867 25.5244 30.3553 25.2247C30.4123 24.9764 30.258 24.7278 30.0107 24.6693C29.7632 24.6119 29.5172 24.7654 29.4604 25.0143C29.3591 25.4551 29.3652 25.9147 29.4809 26.3897C30.1619 28.9314 33.0568 28.9324 34.7864 28.9333L35.1728 28.9307C38.9074 28.8825 43.1405 28.8275 44.4814 33.8318C44.7433 34.8092 44.7368 35.7916 44.4618 36.7512C44.3916 36.9962 44.5321 37.2525 44.7758 37.3241C44.859 37.3487 44.9438 37.3483 45.0224 37.3273C45.1721 37.2872 45.2982 37.1714 45.3443 37.0101ZM43.2151 40.3903C43.4001 40.2163 43.4087 39.9238 43.2348 39.7373C43.061 39.5509 42.7708 39.5407 42.5858 39.7151C41.4364 40.799 39.8943 41.6228 38.126 42.0966C34.6806 43.0198 31.0567 42.0035 29.108 39.5688C29.0108 39.4477 28.9334 39.3147 28.8776 39.1742C28.7831 38.9365 28.5149 38.8191 28.2807 38.9146C28.045 39.0084 27.9305 39.277 28.0248 39.514C28.1146 39.7405 28.2387 39.9534 28.3935 40.1467C30.5669 42.8628 34.5743 44.0051 38.3652 42.9894C40.2791 42.4765 41.9563 41.578 43.2151 40.3903ZM41.3177 36.8908C41.7377 36.1706 41.8527 35.3903 41.6504 34.6352C41.4841 34.0145 41.1872 33.4863 40.7676 33.0662C40.5444 32.8423 40.281 32.6436 39.9852 32.4758C39.7638 32.3507 39.4839 32.4288 39.3599 32.6509C39.2361 32.8733 39.315 33.1551 39.5362 33.2806C39.7597 33.4072 39.9565 33.5551 40.1206 33.7194C40.428 34.0275 40.6383 34.4048 40.7637 34.8728C40.9024 35.3906 40.822 35.9116 40.5252 36.421C39.9791 37.3577 38.7693 38.1407 37.2948 38.5093C36.4203 38.7301 35.5331 38.7448 34.7287 38.5526C34.1447 38.413 33.7102 38.1095 33.4226 37.9087C33.3675 37.8704 33.3179 37.8358 33.2738 37.8066C33.0618 37.6656 32.7774 37.7245 32.6378 37.9377C32.4991 38.1507 32.5584 38.4371 32.7706 38.5778C32.809 38.6037 32.8528 38.634 32.9008 38.6677C33.2245 38.8936 33.7659 39.2714 34.5191 39.4515C35.4663 39.6783 36.5045 39.6624 37.5207 39.406C37.5627 39.3954 37.604 39.3847 37.6455 39.3736C39.2995 38.9304 40.6665 38.0084 41.3177 36.8908ZM35.9701 32.1324C35.9661 31.8774 35.7569 31.6728 35.5033 31.6763C35.1595 31.6809 34.7928 31.693 34.4135 31.7129C29.6916 31.962 27.1927 30.6047 26.3102 27.3113C25.3417 23.6967 27.6508 20.4744 32.0567 19.2938C34.6939 18.5872 38.4173 19.1831 40.3603 22.1609C40.4994 22.3746 40.7849 22.4349 40.9963 22.2955C41.208 22.1557 41.2669 21.8697 41.1275 21.6558C38.9335 18.2933 34.7634 17.6117 31.8175 18.401C26.8812 19.7237 24.3115 23.4002 25.4232 27.549C26.7408 32.4665 31.2146 32.8076 34.4646 32.6358C34.8319 32.6167 35.1863 32.6048 35.5184 32.6002C35.5573 32.5998 35.595 32.5945 35.631 32.5849C35.8293 32.5317 35.9736 32.3487 35.9701 32.1324ZM47.087 33.1336C46.3571 30.4096 45.2505 28.7895 43.4984 27.8808C43.273 27.7637 42.9961 27.8531 42.8804 28.0792C42.7649 28.3059 42.8543 28.5846 43.0802 28.702C44.6014 29.4912 45.5348 30.8877 46.2003 33.3712C47.4195 37.9215 44.2189 42.3192 38.5898 43.8275C34.7625 44.853 30.5089 43.7319 28.0047 41.0382L27.9348 40.9638C27.7439 40.7633 27.3466 40.3458 26.9383 39.6841C26.804 39.4668 26.5206 39.3989 26.3059 39.5337C26.0903 39.668 26.0245 39.9524 26.1583 40.1696C26.6175 40.9138 27.06 41.3788 27.2727 41.6017L27.3346 41.6679C30.0647 44.6044 34.6837 45.8314 38.8291 44.7206C44.972 43.0746 48.445 38.202 47.087 33.1336ZM34.9118 34.1668C34.9139 33.9115 34.7104 33.7023 34.4566 33.699C32.1866 33.6702 27.4635 33.6103 25.2223 29.921C25.09 29.7031 24.8067 29.6332 24.5909 29.7665C24.3745 29.8989 24.3066 30.1832 24.4393 30.4014C26.9465 34.5279 32.2034 34.5947 34.4482 34.6233C34.4912 34.6238 34.5329 34.6185 34.5725 34.6079C34.7663 34.556 34.9098 34.3789 34.9118 34.1668ZM24.1042 26.5719C23.6632 22.4801 26.5783 18.9048 31.3763 17.6192C31.4456 17.6007 31.516 17.5825 31.5862 17.5647C31.8378 17.4945 31.9809 17.2521 31.9187 17.0044C31.8564 16.757 31.6066 16.6065 31.3607 16.6682C25.9748 18.0142 22.6923 22.0395 23.1908 26.668C23.2183 26.9223 23.4448 27.1063 23.6967 27.0795C23.7215 27.0774 23.7449 27.0728 23.7679 27.0667C23.9825 27.0092 24.1287 26.8014 24.1042 26.5719ZM42.7679 21.7595C42.5338 21.8222 42.2886 21.6901 42.212 21.4552C41.9893 20.8899 39.7962 17.6723 35.5212 17.2349C35.2688 17.2088 35.0842 16.9821 35.1088 16.728C35.1337 16.4746 35.3582 16.2896 35.6108 16.315C40.5722 16.8232 42.9046 20.6157 43.0851 21.1705C43.1641 21.4131 43.0327 21.6737 42.7916 21.7524C42.7838 21.7552 42.7759 21.7574 42.7679 21.7595Z"/>
</mask>
<path fill-rule="evenodd" clip-rule="evenodd" d="M28.2695 26.4937L28.2601 26.4114C28.2539 26.3551 28.2472 26.2942 28.2456 26.2819C27.9345 24.0774 29.7221 21.8732 32.4002 21.1556L32.5073 21.1276C34.8587 20.4975 36.7959 21.0319 38.4286 22.7609C38.6034 22.9457 38.8946 22.9545 39.0778 22.7786C39.2615 22.6032 39.2683 22.3105 39.0934 22.1253C37.233 20.1557 34.9366 19.5198 32.2719 20.2337L32.1647 20.2614C28.9843 21.1136 26.9539 23.699 27.3356 26.4044L27.3471 26.5088C27.353 26.5614 27.3585 26.6102 27.3593 26.6169C27.3959 26.867 27.6254 27.0403 27.8748 27.0079C27.8948 27.005 27.9143 27.0011 27.9332 26.9961C28.1506 26.9378 28.2971 26.7245 28.2695 26.4937ZM43.3921 34.1103C42.2967 30.0225 39.3002 29.7445 35.1859 29.7983L34.6944 29.8007C33.5469 29.801 31.6266 29.802 30.1732 29.0118C29.9498 28.8907 29.6714 28.9746 29.5514 29.1984C29.4315 29.4229 29.5156 29.7034 29.7388 29.8249C31.3972 30.7266 33.4637 30.7254 34.6979 30.7246L35.201 30.7222C39.4908 30.6665 41.6099 31.006 42.5053 34.3479C43.2001 36.9407 41.2083 39.4151 37.6621 40.3653C35.0268 41.0714 32.4082 40.357 30.8277 38.501C30.6624 38.3068 30.3723 38.2831 30.18 38.4491C29.9875 38.6148 29.9657 38.9064 30.131 39.1006C31.9443 41.23 34.9216 42.0569 37.9014 41.2585C41.9697 40.1683 44.2277 37.229 43.3921 34.1103ZM36.87 23.3326C37.0075 23.1189 36.9465 22.8326 36.7335 22.6932C35.6974 22.0156 34.6034 21.8217 33.2904 22.0832C33.0448 22.1335 32.8807 22.3753 32.9307 22.626C32.9808 22.8766 33.2232 23.0392 33.4717 22.9898C34.5348 22.778 35.4129 22.9298 36.235 23.4676C36.3485 23.5423 36.4828 23.5594 36.6041 23.5269C36.7098 23.4986 36.8057 23.4325 36.87 23.3326ZM45.3443 37.0101C45.6664 35.8862 45.6744 34.7372 45.3681 33.5942C43.8408 27.8942 38.8222 27.9591 35.1579 28.0068L34.7835 28.0092C32.7185 28.0082 30.8271 27.8656 30.3704 26.1624C30.2917 25.8395 30.2867 25.5244 30.3553 25.2247C30.4123 24.9764 30.258 24.7278 30.0107 24.6693C29.7632 24.6119 29.5172 24.7654 29.4604 25.0143C29.3591 25.4551 29.3652 25.9147 29.4809 26.3897C30.1619 28.9314 33.0568 28.9324 34.7864 28.9333L35.1728 28.9307C38.9074 28.8825 43.1405 28.8275 44.4814 33.8318C44.7433 34.8092 44.7368 35.7916 44.4618 36.7512C44.3916 36.9962 44.5321 37.2525 44.7758 37.3241C44.859 37.3487 44.9438 37.3483 45.0224 37.3273C45.1721 37.2872 45.2982 37.1714 45.3443 37.0101ZM43.2151 40.3903C43.4001 40.2163 43.4087 39.9238 43.2348 39.7373C43.061 39.5509 42.7708 39.5407 42.5858 39.7151C41.4364 40.799 39.8943 41.6228 38.126 42.0966C34.6806 43.0198 31.0567 42.0035 29.108 39.5688C29.0108 39.4477 28.9334 39.3147 28.8776 39.1742C28.7831 38.9365 28.5149 38.8191 28.2807 38.9146C28.045 39.0084 27.9305 39.277 28.0248 39.514C28.1146 39.7405 28.2387 39.9534 28.3935 40.1467C30.5669 42.8628 34.5743 44.0051 38.3652 42.9894C40.2791 42.4765 41.9563 41.578 43.2151 40.3903ZM41.3177 36.8908C41.7377 36.1706 41.8527 35.3903 41.6504 34.6352C41.4841 34.0145 41.1872 33.4863 40.7676 33.0662C40.5444 32.8423 40.281 32.6436 39.9852 32.4758C39.7638 32.3507 39.4839 32.4288 39.3599 32.6509C39.2361 32.8733 39.315 33.1551 39.5362 33.2806C39.7597 33.4072 39.9565 33.5551 40.1206 33.7194C40.428 34.0275 40.6383 34.4048 40.7637 34.8728C40.9024 35.3906 40.822 35.9116 40.5252 36.421C39.9791 37.3577 38.7693 38.1407 37.2948 38.5093C36.4203 38.7301 35.5331 38.7448 34.7287 38.5526C34.1447 38.413 33.7102 38.1095 33.4226 37.9087C33.3675 37.8704 33.3179 37.8358 33.2738 37.8066C33.0618 37.6656 32.7774 37.7245 32.6378 37.9377C32.4991 38.1507 32.5584 38.4371 32.7706 38.5778C32.809 38.6037 32.8528 38.634 32.9008 38.6677C33.2245 38.8936 33.7659 39.2714 34.5191 39.4515C35.4663 39.6783 36.5045 39.6624 37.5207 39.406C37.5627 39.3954 37.604 39.3847 37.6455 39.3736C39.2995 38.9304 40.6665 38.0084 41.3177 36.8908ZM35.9701 32.1324C35.9661 31.8774 35.7569 31.6728 35.5033 31.6763C35.1595 31.6809 34.7928 31.693 34.4135 31.7129C29.6916 31.962 27.1927 30.6047 26.3102 27.3113C25.3417 23.6967 27.6508 20.4744 32.0567 19.2938C34.6939 18.5872 38.4173 19.1831 40.3603 22.1609C40.4994 22.3746 40.7849 22.4349 40.9963 22.2955C41.208 22.1557 41.2669 21.8697 41.1275 21.6558C38.9335 18.2933 34.7634 17.6117 31.8175 18.401C26.8812 19.7237 24.3115 23.4002 25.4232 27.549C26.7408 32.4665 31.2146 32.8076 34.4646 32.6358C34.8319 32.6167 35.1863 32.6048 35.5184 32.6002C35.5573 32.5998 35.595 32.5945 35.631 32.5849C35.8293 32.5317 35.9736 32.3487 35.9701 32.1324ZM47.087 33.1336C46.3571 30.4096 45.2505 28.7895 43.4984 27.8808C43.273 27.7637 42.9961 27.8531 42.8804 28.0792C42.7649 28.3059 42.8543 28.5846 43.0802 28.702C44.6014 29.4912 45.5348 30.8877 46.2003 33.3712C47.4195 37.9215 44.2189 42.3192 38.5898 43.8275C34.7625 44.853 30.5089 43.7319 28.0047 41.0382L27.9348 40.9638C27.7439 40.7633 27.3466 40.3458 26.9383 39.6841C26.804 39.4668 26.5206 39.3989 26.3059 39.5337C26.0903 39.668 26.0245 39.9524 26.1583 40.1696C26.6175 40.9138 27.06 41.3788 27.2727 41.6017L27.3346 41.6679C30.0647 44.6044 34.6837 45.8314 38.8291 44.7206C44.972 43.0746 48.445 38.202 47.087 33.1336ZM34.9118 34.1668C34.9139 33.9115 34.7104 33.7023 34.4566 33.699C32.1866 33.6702 27.4635 33.6103 25.2223 29.921C25.09 29.7031 24.8067 29.6332 24.5909 29.7665C24.3745 29.8989 24.3066 30.1832 24.4393 30.4014C26.9465 34.5279 32.2034 34.5947 34.4482 34.6233C34.4912 34.6238 34.5329 34.6185 34.5725 34.6079C34.7663 34.556 34.9098 34.3789 34.9118 34.1668ZM24.1042 26.5719C23.6632 22.4801 26.5783 18.9048 31.3763 17.6192C31.4456 17.6007 31.516 17.5825 31.5862 17.5647C31.8378 17.4945 31.9809 17.2521 31.9187 17.0044C31.8564 16.757 31.6066 16.6065 31.3607 16.6682C25.9748 18.0142 22.6923 22.0395 23.1908 26.668C23.2183 26.9223 23.4448 27.1063 23.6967 27.0795C23.7215 27.0774 23.7449 27.0728 23.7679 27.0667C23.9825 27.0092 24.1287 26.8014 24.1042 26.5719ZM42.7679 21.7595C42.5338 21.8222 42.2886 21.6901 42.212 21.4552C41.9893 20.8899 39.7962 17.6723 35.5212 17.2349C35.2688 17.2088 35.0842 16.9821 35.1088 16.728C35.1337 16.4746 35.3582 16.2896 35.6108 16.315C40.5722 16.8232 42.9046 20.6157 43.0851 21.1705C43.1641 21.4131 43.0327 21.6737 42.7916 21.7524C42.7838 21.7552 42.7759 21.7574 42.7679 21.7595Z" stroke="#191A1F" stroke-width="0.582497" mask="url(#path-18-inside-1_278_41120)"/>
</svg>
