<svg width="25" height="22" viewBox="0 0 25 22" fill="none" xmlns="http://www.w3.org/2000/svg">
<path d="M9.26989 6.39688C9.80333 5.58219 11.1397 5.58547 11.6713 6.39395L15.1011 11.5859L15.8699 10.5266C16.4043 9.73906 17.6605 9.77656 18.1996 10.5266L21.2239 14.7059C21.5426 15.1468 21.5872 15.7241 21.3433 16.2059C21.0997 16.6953 20.6066 17 20.0582 17H4.94098C4.40614 17 3.91911 16.7056 3.6688 16.2322C3.4198 15.7634 3.44689 15.1967 3.73986 14.7528L9.26989 6.39688ZM20.0089 15.5L17.0844 11.4041L15.6824 13.3419C15.5371 13.5406 15.2933 13.6813 15.059 13.6531C14.8129 13.6473 14.5846 13.5228 14.4486 13.3162L10.5191 7.22712L5.04645 15.5H20.0089ZM3.54177 0.5H21.5418C23.1566 0.5 24.5 1.84297 24.5 3.5V18.5C24.5 20.157 23.157 21.5 21.5422 21.5H3.54219C1.88516 21.5 0.542192 20.157 0.542192 18.5V3.5C0.541767 1.84297 1.84489 0.5 3.54177 0.5ZM1.99958 18.5C1.99958 19.3269 2.6727 20 3.49958 20H21.4996C22.3264 20 22.9996 19.3269 22.9996 18.5V3.5C22.9996 2.67313 22.3264 2 21.4996 2H3.49958C2.6727 2 1.99958 2.67313 1.99958 3.5V18.5ZM17.7496 8C16.5074 8 15.4996 6.99219 15.4996 5.75C15.4996 4.50781 16.5074 3.5 17.7496 3.5C18.9918 3.5 19.9996 4.50781 19.9996 5.75C19.9996 6.99219 18.9918 8 17.7496 8ZM17.7496 5C17.336 5 17.0418 5.33647 17.0418 5.75C17.0418 6.16353 17.3371 6.5 17.7496 6.5C18.1621 6.5 18.4996 6.1625 18.4996 5.75C18.4996 5.3375 18.1621 5 17.7496 5Z" fill="black"/>
</svg>
