<svg width="18" height="19" viewBox="0 0 18 19" fill="none" xmlns="http://www.w3.org/2000/svg">
<path d="M9 0.482422C4.02891 0.482422 0 4.51133 0 9.48242C0 14.4535 4.02891 18.4824 9 18.4824C13.9711 18.4824 18 14.4535 18 9.48242C18 4.51133 13.9711 0.482422 9 0.482422ZM9 17.3574C4.6582 17.3574 1.125 13.8242 1.125 9.48242C1.125 5.14062 4.6582 1.60742 9 1.60742C13.3418 1.60742 16.875 5.14062 16.875 9.48242C16.875 13.8242 13.3418 17.3574 9 17.3574ZM9 6.95117C9.46582 6.95117 9.84375 6.57359 9.84375 6.10742C9.84375 5.6416 9.46582 5.26367 9 5.26367C8.53418 5.26367 8.15625 5.63984 8.15625 6.10742C8.15625 6.575 8.53242 6.95117 9 6.95117ZM10.6875 12.8574H9.5625V8.91992C9.5625 8.61055 9.30937 8.35742 9 8.35742H7.875C7.56563 8.35742 7.3125 8.61055 7.3125 8.91992C7.3125 9.2293 7.56563 9.48242 7.875 9.48242H8.4375V12.8574H7.3125C7.00313 12.8574 6.75 13.1105 6.75 13.4199C6.75 13.7293 7.00313 13.9824 7.3125 13.9824H10.6875C10.9981 13.9824 11.25 13.7306 11.25 13.4199C11.25 13.1105 10.9969 12.8574 10.6875 12.8574Z" fill="#0A0A2F"/>
</svg>
