<svg width="17" height="22" viewBox="0 0 17 22" fill="none" xmlns="http://www.w3.org/2000/svg">
<path d="M8.5 22C8.5 22 16.75 13.0625 16.75 8.25C16.75 3.69531 13.0547 0 8.5 0C3.94531 0 0.25 3.69531 0.25 8.25C0.25 13.0625 8.5 22 8.5 22ZM8.5 5.5C9.22935 5.5 9.92882 5.78973 10.4445 6.30546C10.9603 6.82118 11.25 7.52065 11.25 8.25C11.25 8.97935 10.9603 9.67882 10.4445 10.1945C9.92882 10.7103 9.22935 11 8.5 11C7.77065 11 7.07118 10.7103 6.55546 10.1945C6.03973 9.67882 5.75 8.97935 5.75 8.25C5.75 7.52065 6.03973 6.82118 6.55546 6.30546C7.07118 5.78973 7.77065 5.5 8.5 5.5Z" fill="#545454"/>
</svg>
