<svg width="164" height="193" viewBox="0 0 164 193" fill="none" xmlns="http://www.w3.org/2000/svg">
<path fill-rule="evenodd" clip-rule="evenodd" d="M99.5046 142.611L89.9855 153.297C87.9533 155.57 85.0476 156.872 81.9994 156.872C78.9512 156.872 76.0455 155.57 74.0134 153.297L64.4942 142.611H13.744L7.32666 164.002H53.4792C54.7181 164.002 55.859 164.644 56.5095 165.695C57.1602 166.747 57.2226 168.057 56.67 169.162L44.985 192.523H65.5384L78.8098 165.97C79.4159 164.767 80.6459 164.001 82.0006 164.001H156.675L150.257 142.609L99.5046 142.611Z" fill="#3BBA26"/>
<path fill-rule="evenodd" clip-rule="evenodd" d="M5.18745 171.133H47.712L37.0164 192.524H3.56628C2.44323 192.524 1.37367 191.989 0.705218 191.089C0.0367397 190.18 -0.177173 189.012 0.152605 187.934L5.18745 171.133Z" fill="#3BBA26"/>
<path fill-rule="evenodd" clip-rule="evenodd" d="M158.811 171.133L163.847 187.934C164.177 189.012 163.963 190.18 163.295 191.089C162.626 191.989 161.556 192.524 160.433 192.524H123.417L134.113 171.133L158.811 171.133Z" fill="#3BBA26"/>
<path fill-rule="evenodd" clip-rule="evenodd" d="M73.5044 192.524H115.449L126.145 171.133H84.2L73.5044 192.524Z" fill="#3BBA26"/>
<path fill-rule="evenodd" clip-rule="evenodd" d="M105.869 135.477H148.117L142.457 116.626C142.003 115.12 140.621 114.086 139.044 114.086H124.943L105.869 135.477Z" fill="#3BBA26"/>
<path fill-rule="evenodd" clip-rule="evenodd" d="M39.0567 114.086H24.9563C23.3787 114.086 21.9972 115.12 21.5426 116.626L15.8828 135.477H58.1313L39.0567 114.086Z" fill="#3BBA26"/>
<path fill-rule="evenodd" clip-rule="evenodd" d="M34.6991 98.4885C26.3745 88.1137 21.3921 74.9411 21.3921 60.6073C21.3921 27.1571 48.5492 0 81.9994 0C115.449 0 142.607 27.1571 142.607 60.6073C142.607 74.9392 137.624 88.1135 129.3 98.4885C129.219 98.5866 84.6553 148.545 84.6553 148.545C83.9868 149.303 83.0153 149.739 81.9991 149.739C80.983 149.739 80.0115 149.303 79.343 148.545C79.343 148.545 34.779 98.5866 34.6991 98.4885ZM81.9994 35.652C68.2287 35.652 57.0418 46.8377 57.0418 60.6095C57.0418 74.3814 68.2275 85.5671 81.9994 85.5671C95.7712 85.5671 106.957 74.3814 106.957 60.6095C106.957 46.8377 95.7712 35.652 81.9994 35.652Z" fill="#6725F2"/>
</svg>
