<svg width="19" height="16" viewBox="0 0 19 16" fill="none" xmlns="http://www.w3.org/2000/svg">
<path d="M18.3348 7.47773L13.2723 2.41523C13.0525 2.19551 12.6964 2.19551 12.477 2.41523C12.2577 2.63496 12.2573 2.99109 12.477 3.21047L16.5805 7.3125H6.6875C6.37813 7.3125 6.125 7.56563 6.125 7.875C6.125 8.18437 6.37658 8.4375 6.6875 8.4375H16.5805L12.4777 12.5402C12.258 12.76 12.258 13.1161 12.4777 13.3355C12.6975 13.5548 13.0536 13.5552 13.273 13.3355L18.3355 8.27297C18.4438 8.16328 18.5 8.01914 18.5 7.875C18.5 7.73086 18.4438 7.58672 18.3348 7.47773ZM6.6875 14.625H3.3125C2.38191 14.625 1.625 13.8691 1.625 12.9375V2.8125C1.625 1.88191 2.38191 1.125 3.3125 1.125H6.6875C6.99687 1.125 7.25 0.873281 7.25 0.5625C7.25 0.251719 6.99687 0 6.6875 0H3.3125C1.76141 0 0.5 1.26141 0.5 2.8125V12.9375C0.5 14.4879 1.76141 15.75 3.3125 15.75H6.6875C6.99687 15.75 7.25 15.4969 7.25 15.1875C7.25 14.8781 6.99687 14.625 6.6875 14.625Z" fill="#0A0A2F"/>
</svg>
