<svg width="25" height="26" viewBox="0 0 25 26" fill="none" xmlns="http://www.w3.org/2000/svg">
<path d="M6.27846 4.69308C6.74989 4.69308 7.1356 5.07879 7.1356 5.55022V6.40737C7.1356 6.87879 6.74989 7.26451 6.27846 7.26451H5.42132C4.94775 7.26451 4.56417 6.87879 4.56417 6.40737V5.55022C4.56417 5.07879 4.94775 4.69308 5.42132 4.69308H6.27846ZM8.42132 0.835938C9.84096 0.835938 10.9927 1.98719 10.9927 3.40737V8.55022C10.9927 9.96987 9.84096 11.1217 8.42132 11.1217H3.27846C1.85828 11.1217 0.707031 9.96987 0.707031 8.55022V3.40737C0.707031 1.98719 1.85828 0.835938 3.27846 0.835938H8.42132ZM8.42132 2.55022H3.27846C2.80489 2.55022 2.42132 2.93379 2.42132 3.40737V8.55022C2.42132 9.02165 2.80489 9.40737 3.27846 9.40737H8.42132C8.89275 9.40737 9.27846 9.02165 9.27846 8.55022V3.40737C9.27846 2.93379 8.89275 2.55022 8.42132 2.55022ZM4.56417 19.2645C4.56417 18.7931 4.94775 18.4074 5.42132 18.4074H6.27846C6.74989 18.4074 7.1356 18.7931 7.1356 19.2645V20.1217C7.1356 20.5931 6.74989 20.9788 6.27846 20.9788H5.42132C4.94775 20.9788 4.56417 20.5931 4.56417 20.1217V19.2645ZM8.42132 14.5502C9.84096 14.5502 10.9927 15.702 10.9927 17.1217V22.2645C10.9927 23.6842 9.84096 24.8359 8.42132 24.8359H3.27846C1.85828 24.8359 0.707031 23.6842 0.707031 22.2645V17.1217C0.707031 15.702 1.85828 14.5502 3.27846 14.5502H8.42132ZM8.42132 16.2645H3.27846C2.80489 16.2645 2.42132 16.6502 2.42132 17.1217V22.2645C2.42132 22.7359 2.80489 23.1217 3.27846 23.1217H8.42132C8.89275 23.1217 9.27846 22.7359 9.27846 22.2645V17.1217C9.27846 16.6502 8.89275 16.2645 8.42132 16.2645ZM19.9927 4.69308C20.4642 4.69308 20.8499 5.07879 20.8499 5.55022V6.40737C20.8499 6.87879 20.4642 7.26451 19.9927 7.26451H19.1356C18.6642 7.26451 18.2785 6.87879 18.2785 6.40737V5.55022C18.2785 5.07879 18.6642 4.69308 19.1356 4.69308H19.9927ZM14.4213 3.40737C14.4213 1.98719 15.5731 0.835938 16.9927 0.835938H22.1356C23.5552 0.835938 24.707 1.98719 24.707 3.40737V8.55022C24.707 9.96987 23.5552 11.1217 22.1356 11.1217H16.9927C15.5731 11.1217 14.4213 9.96987 14.4213 8.55022V3.40737ZM16.1356 3.40737V8.55022C16.1356 9.02165 16.5213 9.40737 16.9927 9.40737H22.1356C22.607 9.40737 22.9927 9.02165 22.9927 8.55022V3.40737C22.9927 2.93379 22.607 2.55022 22.1356 2.55022H16.9927C16.5213 2.55022 16.1356 2.93379 16.1356 3.40737ZM14.4213 15.4074C14.4213 14.9359 14.807 14.5502 15.2785 14.5502H18.707C19.1785 14.5502 19.5642 14.9359 19.5642 15.4074V19.0502H22.9927V15.4074C22.9927 14.9359 23.3785 14.5502 23.8499 14.5502C24.3213 14.5502 24.707 14.9359 24.707 15.4074V19.9074C24.707 20.3788 24.3213 20.7645 23.8499 20.7645H18.707C18.2356 20.7645 17.8499 20.3788 17.8499 19.9074V16.2645H16.1356V24.4074C16.1356 24.8788 15.7499 25.2645 15.2785 25.2645C14.807 25.2645 14.4213 24.8788 14.4213 24.4074V15.4074ZM17.8499 23.1217C17.8499 22.6502 18.2356 22.2645 18.707 22.2645H19.5642C20.0356 22.2645 20.4213 22.6502 20.4213 23.1217V23.9788C20.4213 24.4502 20.0356 24.8359 19.5642 24.8359H18.707C18.2356 24.8359 17.8499 24.4502 17.8499 23.9788V23.1217ZM23.8499 22.2645C24.3213 22.2645 24.707 22.6502 24.707 23.1217V23.9788C24.707 24.4502 24.3213 24.8359 23.8499 24.8359H22.9927C22.5213 24.8359 22.1356 24.4502 22.1356 23.9788V23.1217C22.1356 22.6502 22.5213 22.2645 22.9927 22.2645H23.8499Z" fill="#181941"/>
</svg>
