<svg width="360" height="347" viewBox="0 0 360 347" fill="none" xmlns="http://www.w3.org/2000/svg">
<rect width="360" height="347" rx="7" fill="#1E1E1E"/>
<path d="M160.42 35.985C160.42 36.895 160.135 37.63 159.565 38.19C159.005 38.74 158.265 39.07 157.345 39.18V40.5H156.295V39.195C155.445 39.135 154.715 38.895 154.105 38.475C153.505 38.055 153.07 37.485 152.8 36.765L154.87 35.565C155.19 36.295 155.665 36.715 156.295 36.825V34.755C156.275 34.745 156.24 34.735 156.19 34.725C156.15 34.705 156.12 34.69 156.1 34.68C155.78 34.55 155.51 34.435 155.29 34.335C155.07 34.225 154.82 34.075 154.54 33.885C154.26 33.695 154.03 33.495 153.85 33.285C153.68 33.065 153.535 32.795 153.415 32.475C153.295 32.155 153.235 31.8 153.235 31.41C153.235 30.49 153.53 29.765 154.12 29.235C154.71 28.695 155.435 28.385 156.295 28.305V27H157.345V28.335C158.755 28.515 159.74 29.24 160.3 30.51L158.275 31.695C158.085 31.195 157.775 30.87 157.345 30.72V32.745C157.395 32.765 157.56 32.835 157.84 32.955C158.12 33.065 158.3 33.14 158.38 33.18C158.47 33.22 158.635 33.305 158.875 33.435C159.115 33.555 159.285 33.66 159.385 33.75C159.485 33.84 159.615 33.97 159.775 34.14C159.945 34.31 160.065 34.48 160.135 34.65C160.205 34.81 160.27 35.005 160.33 35.235C160.39 35.465 160.42 35.715 160.42 35.985ZM155.635 31.425C155.635 31.725 155.855 32 156.295 32.25V30.675C155.855 30.785 155.635 31.035 155.635 31.425ZM157.345 36.795C157.795 36.675 158.02 36.415 158.02 36.015C158.02 35.685 157.795 35.41 157.345 35.19V36.795ZM163.813 28.5H165.913V39H163.513V31.035L161.653 31.545L161.068 29.49L163.813 28.5ZM167.318 28.5H174.218V30.51L170.798 39H168.248L171.548 30.81H167.318V28.5ZM176.14 36.675L174.94 41.1H173.14L173.74 36.675H176.14ZM181.291 32.19C182.321 32.19 183.176 32.5 183.856 33.12C184.546 33.73 184.891 34.59 184.891 35.7C184.891 36.8 184.521 37.66 183.781 38.28C183.041 38.9 182.136 39.21 181.066 39.21C180.196 39.21 179.431 39.025 178.771 38.655C178.111 38.275 177.626 37.71 177.316 36.96L179.386 35.76C179.646 36.5 180.206 36.87 181.066 36.87C181.536 36.87 181.891 36.76 182.131 36.54C182.371 36.32 182.491 36.04 182.491 35.7C182.491 35.36 182.376 35.08 182.146 34.86C181.916 34.64 181.581 34.53 181.141 34.53H177.856L178.291 28.5H184.366V30.75H180.541L180.436 32.19H181.291ZM193.176 37.725C192.426 38.715 191.381 39.21 190.041 39.21C188.701 39.21 187.651 38.715 186.891 37.725C186.141 36.725 185.766 35.4 185.766 33.75C185.766 32.1 186.141 30.78 186.891 29.79C187.651 28.79 188.701 28.29 190.041 28.29C191.381 28.29 192.426 28.79 193.176 29.79C193.936 30.78 194.316 32.1 194.316 33.75C194.316 35.4 193.936 36.725 193.176 37.725ZM188.166 33.75C188.166 35.83 188.791 36.87 190.041 36.87C191.291 36.87 191.916 35.83 191.916 33.75C191.916 31.67 191.291 30.63 190.041 30.63C188.791 30.63 188.166 31.67 188.166 33.75ZM202.825 37.725C202.075 38.715 201.03 39.21 199.69 39.21C198.35 39.21 197.3 38.715 196.54 37.725C195.79 36.725 195.415 35.4 195.415 33.75C195.415 32.1 195.79 30.78 196.54 29.79C197.3 28.79 198.35 28.29 199.69 28.29C201.03 28.29 202.075 28.79 202.825 29.79C203.585 30.78 203.965 32.1 203.965 33.75C203.965 35.4 203.585 36.725 202.825 37.725ZM197.815 33.75C197.815 35.83 198.44 36.87 199.69 36.87C200.94 36.87 201.565 35.83 201.565 33.75C201.565 31.67 200.94 30.63 199.69 30.63C198.44 30.63 197.815 31.67 197.815 33.75Z" fill="white" fill-opacity="0.8"/>
<rect x="12.5" y="223.173" width="62" height="78.8462" rx="5" fill="#EDFE79"/>
<path d="M28.42 199.812C28.42 200.722 28.135 201.457 27.565 202.017C27.005 202.567 26.265 202.897 25.345 203.007V204.327H24.295V203.022C23.445 202.962 22.715 202.722 22.105 202.302C21.505 201.882 21.07 201.312 20.8 200.592L22.87 199.392C23.19 200.122 23.665 200.542 24.295 200.652V198.582C24.275 198.572 24.24 198.562 24.19 198.552C24.15 198.532 24.12 198.517 24.1 198.507C23.78 198.377 23.51 198.262 23.29 198.162C23.07 198.052 22.82 197.902 22.54 197.712C22.26 197.522 22.03 197.322 21.85 197.112C21.68 196.892 21.535 196.622 21.415 196.302C21.295 195.982 21.235 195.627 21.235 195.237C21.235 194.317 21.53 193.592 22.12 193.062C22.71 192.522 23.435 192.212 24.295 192.132V190.827H25.345V192.162C26.755 192.342 27.74 193.067 28.3 194.337L26.275 195.522C26.085 195.022 25.775 194.697 25.345 194.547V196.572C25.395 196.592 25.56 196.662 25.84 196.782C26.12 196.892 26.3 196.967 26.38 197.007C26.47 197.047 26.635 197.132 26.875 197.262C27.115 197.382 27.285 197.487 27.385 197.577C27.485 197.667 27.615 197.797 27.775 197.967C27.945 198.137 28.065 198.307 28.135 198.477C28.205 198.637 28.27 198.832 28.33 199.062C28.39 199.292 28.42 199.542 28.42 199.812ZM23.635 195.252C23.635 195.552 23.855 195.827 24.295 196.077V194.502C23.855 194.612 23.635 194.862 23.635 195.252ZM25.345 200.622C25.795 200.502 26.02 200.242 26.02 199.842C26.02 199.512 25.795 199.237 25.345 199.017V200.622ZM34.4828 196.587C35.1528 196.817 35.6928 197.192 36.1028 197.712C36.5128 198.222 36.7178 198.827 36.7178 199.527C36.7178 200.627 36.3478 201.487 35.6078 202.107C34.8678 202.727 33.9628 203.037 32.8928 203.037C32.0628 203.037 31.3178 202.847 30.6578 202.467C30.0078 202.087 29.5278 201.527 29.2178 200.787L31.2878 199.587C31.5478 200.327 32.0828 200.697 32.8928 200.697C33.3628 200.697 33.7178 200.587 33.9578 200.367C34.1978 200.147 34.3178 199.867 34.3178 199.527C34.3178 199.187 34.1978 198.907 33.9578 198.687C33.7178 198.467 33.3628 198.357 32.8928 198.357H32.3978L31.4828 196.992L33.3878 194.577H29.5478V192.327H36.2978V194.277L34.4828 196.587ZM40.7469 200.502L39.5469 204.927H37.7469L38.3469 200.502H40.7469ZM26.065 221.587C26.735 221.817 27.275 222.192 27.685 222.712C28.095 223.222 28.3 223.827 28.3 224.527C28.3 225.627 27.93 226.487 27.19 227.107C26.45 227.727 25.545 228.037 24.475 228.037C23.645 228.037 22.9 227.847 22.24 227.467C21.59 227.087 21.11 226.527 20.8 225.787L22.87 224.587C23.13 225.327 23.665 225.697 24.475 225.697C24.945 225.697 25.3 225.587 25.54 225.367C25.78 225.147 25.9 224.867 25.9 224.527C25.9 224.187 25.78 223.907 25.54 223.687C25.3 223.467 24.945 223.357 24.475 223.357H23.98L23.065 221.992L24.97 219.577H21.13V217.327H27.88V219.277L26.065 221.587ZM34.2191 221.587C34.8891 221.817 35.4291 222.192 35.8391 222.712C36.2491 223.222 36.4541 223.827 36.4541 224.527C36.4541 225.627 36.0841 226.487 35.3441 227.107C34.6041 227.727 33.6991 228.037 32.6291 228.037C31.7991 228.037 31.0541 227.847 30.3941 227.467C29.7441 227.087 29.2641 226.527 28.9541 225.787L31.0241 224.587C31.2841 225.327 31.8191 225.697 32.6291 225.697C33.0991 225.697 33.4541 225.587 33.6941 225.367C33.9341 225.147 34.0541 224.867 34.0541 224.527C34.0541 224.187 33.9341 223.907 33.6941 223.687C33.4541 223.467 33.0991 223.357 32.6291 223.357H32.1341L31.2191 221.992L33.1241 219.577H29.2841V217.327H36.0341V219.277L34.2191 221.587ZM44.9612 226.552C44.2112 227.542 43.1662 228.037 41.8262 228.037C40.4862 228.037 39.4362 227.542 38.6762 226.552C37.9262 225.552 37.5512 224.227 37.5512 222.577C37.5512 220.927 37.9262 219.607 38.6762 218.617C39.4362 217.617 40.4862 217.117 41.8262 217.117C43.1662 217.117 44.2112 217.617 44.9612 218.617C45.7212 219.607 46.1012 220.927 46.1012 222.577C46.1012 224.227 45.7212 225.552 44.9612 226.552ZM39.9512 222.577C39.9512 224.657 40.5762 225.697 41.8262 225.697C43.0762 225.697 43.7012 224.657 43.7012 222.577C43.7012 220.497 43.0762 219.457 41.8262 219.457C40.5762 219.457 39.9512 220.497 39.9512 222.577Z" fill="white" fill-opacity="0.8"/>
<path d="M24.616 309.436C24.728 309.324 24.864 309.268 25.024 309.268C25.184 309.268 25.32 309.324 25.432 309.436C25.544 309.548 25.6 309.684 25.6 309.844C25.6 310.004 25.544 310.14 25.432 310.252C25.32 310.364 25.184 310.42 25.024 310.42C24.864 310.42 24.728 310.364 24.616 310.252C24.504 310.14 24.448 310.004 24.448 309.844C24.448 309.684 24.504 309.548 24.616 309.436ZM24.628 318.172V311.692H25.42V318.172C25.42 318.892 25.232 319.432 24.856 319.792C24.48 320.152 23.948 320.3 23.26 320.236V319.468C23.732 319.516 24.076 319.44 24.292 319.24C24.516 319.04 24.628 318.684 24.628 318.172ZM30.0776 311.548C30.9656 311.548 31.6816 311.864 32.2256 312.496C32.7776 313.12 33.0536 313.86 33.0536 314.716C33.0536 314.804 33.0456 314.928 33.0296 315.088H27.7616C27.8416 315.696 28.0976 316.18 28.5296 316.54C28.9696 316.892 29.5096 317.068 30.1496 317.068C30.6056 317.068 30.9976 316.976 31.3256 316.792C31.6616 316.6 31.9136 316.352 32.0816 316.048L32.7776 316.456C32.5136 316.88 32.1536 317.216 31.6976 317.464C31.2416 317.712 30.7216 317.836 30.1376 317.836C29.1936 317.836 28.4256 317.54 27.8336 316.948C27.2416 316.356 26.9456 315.604 26.9456 314.692C26.9456 313.796 27.2376 313.048 27.8216 312.448C28.4056 311.848 29.1576 311.548 30.0776 311.548ZM30.0776 312.316C29.4536 312.316 28.9296 312.504 28.5056 312.88C28.0896 313.248 27.8416 313.728 27.7616 314.32H32.2376C32.1576 313.688 31.9136 313.196 31.5056 312.844C31.0976 312.492 30.6216 312.316 30.0776 312.316ZM41.5031 311.692H42.3191L40.4711 317.692H39.6071L38.0591 312.856L36.5111 317.692H35.6471L33.7991 311.692H34.6151L36.0911 316.672L37.6631 311.692H38.4551L40.0271 316.672L41.5031 311.692ZM46.2511 311.548C47.1391 311.548 47.8551 311.864 48.3991 312.496C48.9511 313.12 49.2271 313.86 49.2271 314.716C49.2271 314.804 49.2191 314.928 49.2031 315.088H43.9351C44.0151 315.696 44.2711 316.18 44.7031 316.54C45.1431 316.892 45.6831 317.068 46.3231 317.068C46.7791 317.068 47.1711 316.976 47.4991 316.792C47.8351 316.6 48.0871 316.352 48.2551 316.048L48.9511 316.456C48.6871 316.88 48.3271 317.216 47.8711 317.464C47.4151 317.712 46.8951 317.836 46.3111 317.836C45.3671 317.836 44.5991 317.54 44.0071 316.948C43.4151 316.356 43.1191 315.604 43.1191 314.692C43.1191 313.796 43.4111 313.048 43.9951 312.448C44.5791 311.848 45.3311 311.548 46.2511 311.548ZM46.2511 312.316C45.6271 312.316 45.1031 312.504 44.6791 312.88C44.2631 313.248 44.0151 313.728 43.9351 314.32H48.4111C48.3311 313.688 48.0871 313.196 47.6791 312.844C47.2711 312.492 46.7951 312.316 46.2511 312.316ZM50.6869 317.692V308.932H51.4789V317.692H50.6869ZM54.1515 312.688C54.5195 311.96 55.1515 311.596 56.0475 311.596V312.364C55.5035 312.364 55.0515 312.524 54.6915 312.844C54.3315 313.164 54.1515 313.668 54.1515 314.356V317.692H53.3595V311.692H54.1515V312.688ZM61.7702 311.692H62.6102L60.0422 318.244C59.8102 318.836 59.4782 319.3 59.0462 319.636C58.6222 319.98 58.1462 320.132 57.6182 320.092V319.348C58.3382 319.428 58.8862 319.012 59.2622 318.1L59.4182 317.728L56.7302 311.692H57.5702L59.8262 316.72L61.7702 311.692Z" fill="white" fill-opacity="0.8"/>
<rect x="80.5" y="164.039" width="62" height="137.981" rx="5" fill="#EDFE79"/>
<path d="M94.42 152.676C94.42 153.586 94.135 154.321 93.565 154.881C93.005 155.431 92.265 155.761 91.345 155.871V157.191H90.295V155.886C89.445 155.826 88.715 155.586 88.105 155.166C87.505 154.746 87.07 154.176 86.8 153.456L88.87 152.256C89.19 152.986 89.665 153.406 90.295 153.516V151.446C90.275 151.436 90.24 151.426 90.19 151.416C90.15 151.396 90.12 151.381 90.1 151.371C89.78 151.241 89.51 151.126 89.29 151.026C89.07 150.916 88.82 150.766 88.54 150.576C88.26 150.386 88.03 150.186 87.85 149.976C87.68 149.756 87.535 149.486 87.415 149.166C87.295 148.846 87.235 148.491 87.235 148.101C87.235 147.181 87.53 146.456 88.12 145.926C88.71 145.386 89.435 145.076 90.295 144.996V143.691H91.345V145.026C92.755 145.206 93.74 145.931 94.3 147.201L92.275 148.386C92.085 147.886 91.775 147.561 91.345 147.411V149.436C91.395 149.456 91.56 149.526 91.84 149.646C92.12 149.756 92.3 149.831 92.38 149.871C92.47 149.911 92.635 149.996 92.875 150.126C93.115 150.246 93.285 150.351 93.385 150.441C93.485 150.531 93.615 150.661 93.775 150.831C93.945 151.001 94.065 151.171 94.135 151.341C94.205 151.501 94.27 151.696 94.33 151.926C94.39 152.156 94.42 152.406 94.42 152.676ZM89.635 148.116C89.635 148.416 89.855 148.691 90.295 148.941V147.366C89.855 147.476 89.635 147.726 89.635 148.116ZM91.345 153.486C91.795 153.366 92.02 153.106 92.02 152.706C92.02 152.376 91.795 152.101 91.345 151.881V153.486ZM99.5228 148.506C100.563 148.586 101.403 148.966 102.043 149.646C102.693 150.326 103.018 151.176 103.018 152.196C103.018 153.286 102.653 154.176 101.923 154.866C101.203 155.556 100.268 155.901 99.1178 155.901C97.9578 155.901 97.0178 155.556 96.2978 154.866C95.5778 154.176 95.2178 153.286 95.2178 152.196C95.2178 151.386 95.4228 150.676 95.8328 150.066L99.0428 145.191H101.803L99.5228 148.506ZM98.0528 153.261C98.3428 153.521 98.6978 153.651 99.1178 153.651C99.5378 153.651 99.8928 153.521 100.183 153.261C100.473 152.991 100.618 152.636 100.618 152.196C100.618 151.756 100.473 151.406 100.183 151.146C99.8928 150.876 99.5378 150.741 99.1178 150.741C98.6978 150.741 98.3428 150.871 98.0528 151.131C97.7628 151.391 97.6178 151.746 97.6178 152.196C97.6178 152.646 97.7628 153.001 98.0528 153.261ZM106.893 153.366L105.693 157.791H103.893L104.493 153.366H106.893ZM116.319 151.791V154.011H115.269V155.691H112.839V154.011H108.069V151.791L111.414 145.191H113.994L110.649 151.791H112.839V149.541H115.269V151.791H116.319ZM124.53 154.416C123.78 155.406 122.735 155.901 121.395 155.901C120.055 155.901 119.005 155.406 118.245 154.416C117.495 153.416 117.12 152.091 117.12 150.441C117.12 148.791 117.495 147.471 118.245 146.481C119.005 145.481 120.055 144.981 121.395 144.981C122.735 144.981 123.78 145.481 124.53 146.481C125.29 147.471 125.67 148.791 125.67 150.441C125.67 152.091 125.29 153.416 124.53 154.416ZM119.52 150.441C119.52 152.521 120.145 153.561 121.395 153.561C122.645 153.561 123.27 152.521 123.27 150.441C123.27 148.361 122.645 147.321 121.395 147.321C120.145 147.321 119.52 148.361 119.52 150.441ZM134.178 154.416C133.428 155.406 132.383 155.901 131.043 155.901C129.703 155.901 128.653 155.406 127.893 154.416C127.143 153.416 126.768 152.091 126.768 150.441C126.768 148.791 127.143 147.471 127.893 146.481C128.653 145.481 129.703 144.981 131.043 144.981C132.383 144.981 133.428 145.481 134.178 146.481C134.938 147.471 135.318 148.791 135.318 150.441C135.318 152.091 134.938 153.416 134.178 154.416ZM129.168 150.441C129.168 152.521 129.793 153.561 131.043 153.561C132.293 153.561 132.918 152.521 132.918 150.441C132.918 148.361 132.293 147.321 131.043 147.321C129.793 147.321 129.168 148.361 129.168 150.441Z" fill="white" fill-opacity="0.8"/>
<path d="M96.964 313.264C96.964 313.536 97.084 313.752 97.324 313.912C97.564 314.072 97.856 314.196 98.2 314.284C98.544 314.372 98.888 314.472 99.232 314.584C99.576 314.688 99.868 314.868 100.108 315.124C100.348 315.372 100.468 315.7 100.468 316.108C100.468 316.62 100.264 317.036 99.856 317.356C99.456 317.676 98.936 317.836 98.296 317.836C97.72 317.836 97.228 317.708 96.82 317.452C96.42 317.196 96.14 316.864 95.98 316.456L96.652 316.06C96.764 316.372 96.964 316.62 97.252 316.804C97.548 316.98 97.896 317.068 98.296 317.068C98.688 317.068 99.016 316.992 99.28 316.84C99.544 316.68 99.676 316.436 99.676 316.108C99.676 315.836 99.556 315.62 99.316 315.46C99.076 315.3 98.784 315.176 98.44 315.088C98.096 315 97.752 314.904 97.408 314.8C97.064 314.688 96.772 314.508 96.532 314.26C96.292 314.004 96.172 313.672 96.172 313.264C96.172 312.776 96.364 312.368 96.748 312.04C97.14 311.712 97.632 311.548 98.224 311.548C98.712 311.548 99.14 311.66 99.508 311.884C99.876 312.1 100.148 312.396 100.324 312.772L99.664 313.156C99.432 312.596 98.952 312.316 98.224 312.316C97.88 312.316 97.584 312.4 97.336 312.568C97.088 312.728 96.964 312.96 96.964 313.264ZM104.739 311.548C105.467 311.548 106.039 311.772 106.455 312.22C106.879 312.66 107.091 313.256 107.091 314.008V317.692H106.299V314.008C106.299 313.472 106.155 313.056 105.867 312.76C105.587 312.464 105.187 312.316 104.667 312.316C104.091 312.316 103.623 312.5 103.263 312.868C102.903 313.228 102.723 313.788 102.723 314.548V317.692H101.931V309.292H102.723V312.628C103.171 311.908 103.843 311.548 104.739 311.548ZM113.85 316.936C113.242 317.536 112.498 317.836 111.618 317.836C110.738 317.836 109.99 317.536 109.374 316.936C108.766 316.328 108.462 315.58 108.462 314.692C108.462 313.804 108.766 313.06 109.374 312.46C109.99 311.852 110.738 311.548 111.618 311.548C112.498 311.548 113.242 311.852 113.85 312.46C114.466 313.06 114.774 313.804 114.774 314.692C114.774 315.58 114.466 316.328 113.85 316.936ZM109.938 316.384C110.394 316.84 110.954 317.068 111.618 317.068C112.282 317.068 112.842 316.84 113.298 316.384C113.754 315.92 113.982 315.356 113.982 314.692C113.982 314.028 113.754 313.468 113.298 313.012C112.842 312.548 112.282 312.316 111.618 312.316C110.954 312.316 110.394 312.548 109.938 313.012C109.482 313.468 109.254 314.028 109.254 314.692C109.254 315.356 109.482 315.92 109.938 316.384ZM119.071 311.548C119.959 311.548 120.675 311.864 121.219 312.496C121.771 313.12 122.047 313.86 122.047 314.716C122.047 314.804 122.039 314.928 122.023 315.088H116.755C116.835 315.696 117.091 316.18 117.523 316.54C117.963 316.892 118.503 317.068 119.143 317.068C119.599 317.068 119.991 316.976 120.319 316.792C120.655 316.6 120.907 316.352 121.075 316.048L121.771 316.456C121.507 316.88 121.147 317.216 120.691 317.464C120.235 317.712 119.715 317.836 119.131 317.836C118.187 317.836 117.419 317.54 116.827 316.948C116.235 316.356 115.939 315.604 115.939 314.692C115.939 313.796 116.231 313.048 116.815 312.448C117.399 311.848 118.151 311.548 119.071 311.548ZM119.071 312.316C118.447 312.316 117.923 312.504 117.499 312.88C117.083 313.248 116.835 313.728 116.755 314.32H121.231C121.151 313.688 120.907 313.196 120.499 312.844C120.091 312.492 119.615 312.316 119.071 312.316ZM123.897 313.264C123.897 313.536 124.017 313.752 124.257 313.912C124.497 314.072 124.789 314.196 125.133 314.284C125.477 314.372 125.821 314.472 126.165 314.584C126.509 314.688 126.801 314.868 127.041 315.124C127.281 315.372 127.401 315.7 127.401 316.108C127.401 316.62 127.197 317.036 126.789 317.356C126.389 317.676 125.869 317.836 125.229 317.836C124.653 317.836 124.161 317.708 123.753 317.452C123.353 317.196 123.073 316.864 122.913 316.456L123.585 316.06C123.697 316.372 123.897 316.62 124.185 316.804C124.481 316.98 124.829 317.068 125.229 317.068C125.621 317.068 125.949 316.992 126.213 316.84C126.477 316.68 126.609 316.436 126.609 316.108C126.609 315.836 126.489 315.62 126.249 315.46C126.009 315.3 125.717 315.176 125.373 315.088C125.029 315 124.685 314.904 124.341 314.8C123.997 314.688 123.705 314.508 123.465 314.26C123.225 314.004 123.105 313.672 123.105 313.264C123.105 312.776 123.297 312.368 123.681 312.04C124.073 311.712 124.565 311.548 125.157 311.548C125.645 311.548 126.073 311.66 126.441 311.884C126.809 312.1 127.081 312.396 127.257 312.772L126.597 313.156C126.365 312.596 125.885 312.316 125.157 312.316C124.813 312.316 124.517 312.4 124.269 312.568C124.021 312.728 123.897 312.96 123.897 313.264Z" fill="white" fill-opacity="0.8"/>
<rect x="215.5" y="107.269" width="62" height="194.75" rx="5" fill="#EDFE79"/>
<path d="M227.42 83.9088C227.42 84.8188 227.135 85.5538 226.565 86.1138C226.005 86.6638 225.265 86.9938 224.345 87.1038V88.4238H223.295V87.1188C222.445 87.0588 221.715 86.8188 221.105 86.3988C220.505 85.9788 220.07 85.4088 219.8 84.6888L221.87 83.4888C222.19 84.2188 222.665 84.6388 223.295 84.7488V82.6788C223.275 82.6688 223.24 82.6588 223.19 82.6488C223.15 82.6288 223.12 82.6138 223.1 82.6038C222.78 82.4738 222.51 82.3588 222.29 82.2588C222.07 82.1488 221.82 81.9988 221.54 81.8088C221.26 81.6188 221.03 81.4188 220.85 81.2088C220.68 80.9888 220.535 80.7188 220.415 80.3988C220.295 80.0788 220.235 79.7238 220.235 79.3338C220.235 78.4138 220.53 77.6888 221.12 77.1588C221.71 76.6188 222.435 76.3088 223.295 76.2288V74.9238H224.345V76.2588C225.755 76.4388 226.74 77.1638 227.3 78.4338L225.275 79.6188C225.085 79.1188 224.775 78.7938 224.345 78.6438V80.6688C224.395 80.6888 224.56 80.7588 224.84 80.8788C225.12 80.9888 225.3 81.0638 225.38 81.1038C225.47 81.1438 225.635 81.2288 225.875 81.3588C226.115 81.4788 226.285 81.5838 226.385 81.6738C226.485 81.7638 226.615 81.8938 226.775 82.0638C226.945 82.2338 227.065 82.4038 227.135 82.5738C227.205 82.7338 227.27 82.9288 227.33 83.1588C227.39 83.3888 227.42 83.6388 227.42 83.9088ZM222.635 79.3488C222.635 79.6488 222.855 79.9238 223.295 80.1738V78.5988C222.855 78.7088 222.635 78.9588 222.635 79.3488ZM224.345 84.7188C224.795 84.5988 225.02 84.3388 225.02 83.9388C225.02 83.6088 224.795 83.3338 224.345 83.1138V84.7188ZM230.813 76.4238H232.913V86.9238H230.513V78.9588L228.653 79.4688L228.068 77.4138L230.813 76.4238ZM242.028 85.6488C241.278 86.6388 240.233 87.1338 238.893 87.1338C237.553 87.1338 236.503 86.6388 235.743 85.6488C234.993 84.6488 234.618 83.3238 234.618 81.6738C234.618 80.0238 234.993 78.7038 235.743 77.7138C236.503 76.7138 237.553 76.2138 238.893 76.2138C240.233 76.2138 241.278 76.7138 242.028 77.7138C242.788 78.7038 243.168 80.0238 243.168 81.6738C243.168 83.3238 242.788 84.6488 242.028 85.6488ZM237.018 81.6738C237.018 83.7538 237.643 84.7938 238.893 84.7938C240.143 84.7938 240.768 83.7538 240.768 81.6738C240.768 79.5938 240.143 78.5538 238.893 78.5538C237.643 78.5538 237.018 79.5938 237.018 81.6738ZM247.037 84.5988L245.837 89.0238H244.037L244.637 84.5988H247.037ZM227.6 104.919C227.6 105.729 227.395 106.439 226.985 107.049L223.775 111.924H221.015L223.295 108.609C222.255 108.529 221.41 108.149 220.76 107.469C220.12 106.789 219.8 105.939 219.8 104.919C219.8 103.829 220.16 102.939 220.88 102.249C221.61 101.559 222.55 101.214 223.7 101.214C224.86 101.214 225.8 101.559 226.52 102.249C227.24 102.939 227.6 103.829 227.6 104.919ZM222.635 103.869C222.345 104.129 222.2 104.479 222.2 104.919C222.2 105.359 222.345 105.714 222.635 105.984C222.925 106.244 223.28 106.374 223.7 106.374C224.12 106.374 224.475 106.244 224.765 105.984C225.055 105.724 225.2 105.369 225.2 104.919C225.2 104.469 225.055 104.114 224.765 103.854C224.475 103.594 224.12 103.464 223.7 103.464C223.28 103.464 222.925 103.599 222.635 103.869ZM235.954 110.649C235.204 111.639 234.159 112.134 232.819 112.134C231.479 112.134 230.429 111.639 229.669 110.649C228.919 109.649 228.544 108.324 228.544 106.674C228.544 105.024 228.919 103.704 229.669 102.714C230.429 101.714 231.479 101.214 232.819 101.214C234.159 101.214 235.204 101.714 235.954 102.714C236.714 103.704 237.094 105.024 237.094 106.674C237.094 108.324 236.714 109.649 235.954 110.649ZM230.944 106.674C230.944 108.754 231.569 109.794 232.819 109.794C234.069 109.794 234.694 108.754 234.694 106.674C234.694 104.594 234.069 103.554 232.819 103.554C231.569 103.554 230.944 104.594 230.944 106.674ZM245.602 110.649C244.852 111.639 243.807 112.134 242.467 112.134C241.127 112.134 240.077 111.639 239.317 110.649C238.567 109.649 238.192 108.324 238.192 106.674C238.192 105.024 238.567 103.704 239.317 102.714C240.077 101.714 241.127 101.214 242.467 101.214C243.807 101.214 244.852 101.714 245.602 102.714C246.362 103.704 246.742 105.024 246.742 106.674C246.742 108.324 246.362 109.649 245.602 110.649ZM240.592 106.674C240.592 108.754 241.217 109.794 242.467 109.794C243.717 109.794 244.342 108.754 244.342 106.674C244.342 104.594 243.717 103.554 242.467 103.554C241.217 103.554 240.592 104.594 240.592 106.674Z" fill="white" fill-opacity="0.8"/>
<path d="M236.556 311.548C237.412 311.548 238.14 311.852 238.74 312.46C239.348 313.068 239.652 313.812 239.652 314.692C239.652 315.572 239.348 316.316 238.74 316.924C238.14 317.532 237.412 317.836 236.556 317.836C235.492 317.836 234.684 317.396 234.132 316.516V317.692H233.34V309.292H234.132V312.868C234.684 311.988 235.492 311.548 236.556 311.548ZM234.816 316.384C235.272 316.84 235.832 317.068 236.496 317.068C237.16 317.068 237.72 316.84 238.176 316.384C238.632 315.92 238.86 315.356 238.86 314.692C238.86 314.028 238.632 313.468 238.176 313.012C237.72 312.548 237.16 312.316 236.496 312.316C235.832 312.316 235.272 312.548 234.816 313.012C234.36 313.468 234.132 314.028 234.132 314.692C234.132 315.356 234.36 315.92 234.816 316.384ZM246.329 311.692H247.121V317.692H246.329V316.516C245.777 317.396 244.969 317.836 243.905 317.836C243.049 317.836 242.317 317.532 241.709 316.924C241.109 316.316 240.809 315.572 240.809 314.692C240.809 313.812 241.109 313.068 241.709 312.46C242.317 311.852 243.049 311.548 243.905 311.548C244.969 311.548 245.777 311.988 246.329 312.868V311.692ZM242.285 316.384C242.741 316.84 243.301 317.068 243.965 317.068C244.629 317.068 245.189 316.84 245.645 316.384C246.101 315.92 246.329 315.356 246.329 314.692C246.329 314.028 246.101 313.468 245.645 313.012C245.189 312.548 244.629 312.316 243.965 312.316C243.301 312.316 242.741 312.548 242.285 313.012C241.829 313.468 241.601 314.028 241.601 314.692C241.601 315.356 241.829 315.92 242.285 316.384ZM254.158 311.692H254.95V317.452C254.95 318.316 254.654 318.996 254.062 319.492C253.47 319.988 252.762 320.236 251.938 320.236C250.53 320.236 249.582 319.748 249.094 318.772L249.79 318.376C250.15 319.104 250.866 319.468 251.938 319.468C252.626 319.468 253.166 319.284 253.558 318.916C253.958 318.556 254.158 318.068 254.158 317.452V316.516C253.606 317.396 252.798 317.836 251.734 317.836C250.878 317.836 250.146 317.532 249.538 316.924C248.938 316.316 248.638 315.572 248.638 314.692C248.638 313.812 248.938 313.068 249.538 312.46C250.146 311.852 250.878 311.548 251.734 311.548C252.798 311.548 253.606 311.988 254.158 312.868V311.692ZM250.114 316.384C250.57 316.84 251.13 317.068 251.794 317.068C252.458 317.068 253.018 316.84 253.474 316.384C253.93 315.92 254.158 315.356 254.158 314.692C254.158 314.028 253.93 313.468 253.474 313.012C253.018 312.548 252.458 312.316 251.794 312.316C251.13 312.316 250.57 312.548 250.114 313.012C249.658 313.468 249.43 314.028 249.43 314.692C249.43 315.356 249.658 315.92 250.114 316.384ZM257.451 313.264C257.451 313.536 257.571 313.752 257.811 313.912C258.051 314.072 258.343 314.196 258.687 314.284C259.031 314.372 259.375 314.472 259.719 314.584C260.063 314.688 260.355 314.868 260.595 315.124C260.835 315.372 260.955 315.7 260.955 316.108C260.955 316.62 260.751 317.036 260.343 317.356C259.943 317.676 259.423 317.836 258.783 317.836C258.207 317.836 257.715 317.708 257.307 317.452C256.907 317.196 256.627 316.864 256.467 316.456L257.139 316.06C257.251 316.372 257.451 316.62 257.739 316.804C258.035 316.98 258.383 317.068 258.783 317.068C259.175 317.068 259.503 316.992 259.767 316.84C260.031 316.68 260.163 316.436 260.163 316.108C260.163 315.836 260.043 315.62 259.803 315.46C259.563 315.3 259.271 315.176 258.927 315.088C258.583 315 258.239 314.904 257.895 314.8C257.551 314.688 257.259 314.508 257.019 314.26C256.779 314.004 256.659 313.672 256.659 313.264C256.659 312.776 256.851 312.368 257.235 312.04C257.627 311.712 258.119 311.548 258.711 311.548C259.199 311.548 259.627 311.66 259.995 311.884C260.363 312.1 260.635 312.396 260.811 312.772L260.151 313.156C259.919 312.596 259.439 312.316 258.711 312.316C258.367 312.316 258.071 312.4 257.823 312.568C257.575 312.728 257.451 312.96 257.451 313.264Z" fill="white" fill-opacity="0.8"/>
<rect x="283.5" y="92.2891" width="62" height="209.731" rx="5" fill="#EDFE79"/>
<path d="M296.42 68.9264C296.42 69.8364 296.135 70.5714 295.565 71.1314C295.005 71.6814 294.265 72.0114 293.345 72.1214V73.4414H292.295V72.1364C291.445 72.0764 290.715 71.8364 290.105 71.4164C289.505 70.9964 289.07 70.4264 288.8 69.7064L290.87 68.5064C291.19 69.2364 291.665 69.6564 292.295 69.7664V67.6964C292.275 67.6864 292.24 67.6764 292.19 67.6664C292.15 67.6464 292.12 67.6314 292.1 67.6214C291.78 67.4914 291.51 67.3764 291.29 67.2764C291.07 67.1664 290.82 67.0164 290.54 66.8264C290.26 66.6364 290.03 66.4364 289.85 66.2264C289.68 66.0064 289.535 65.7364 289.415 65.4164C289.295 65.0964 289.235 64.7414 289.235 64.3514C289.235 63.4314 289.53 62.7064 290.12 62.1764C290.71 61.6364 291.435 61.3264 292.295 61.2464V59.9414H293.345V61.2764C294.755 61.4564 295.74 62.1814 296.3 63.4514L294.275 64.6364C294.085 64.1364 293.775 63.8114 293.345 63.6614V65.6864C293.395 65.7064 293.56 65.7764 293.84 65.8964C294.12 66.0064 294.3 66.0814 294.38 66.1214C294.47 66.1614 294.635 66.2464 294.875 66.3764C295.115 66.4964 295.285 66.6014 295.385 66.6914C295.485 66.7814 295.615 66.9114 295.775 67.0814C295.945 67.2514 296.065 67.4214 296.135 67.5914C296.205 67.7514 296.27 67.9464 296.33 68.1764C296.39 68.4064 296.42 68.6564 296.42 68.9264ZM291.635 64.3664C291.635 64.6664 291.855 64.9414 292.295 65.1914V63.6164C291.855 63.7264 291.635 63.9764 291.635 64.3664ZM293.345 69.7364C293.795 69.6164 294.02 69.3564 294.02 68.9564C294.02 68.6264 293.795 68.3514 293.345 68.1314V69.7364ZM299.813 61.4414H301.913V71.9414H299.513V63.9764L297.653 64.4864L297.068 62.4314L299.813 61.4414ZM306.063 61.4414H308.163V71.9414H305.763V63.9764L303.903 64.4864L303.318 62.4314L306.063 61.4414ZM313.092 69.6164L311.892 74.0414H310.092L310.692 69.6164H313.092ZM294.065 90.7014C294.735 90.9314 295.275 91.3064 295.685 91.8264C296.095 92.3364 296.3 92.9414 296.3 93.6414C296.3 94.7414 295.93 95.6014 295.19 96.2214C294.45 96.8414 293.545 97.1514 292.475 97.1514C291.645 97.1514 290.9 96.9614 290.24 96.5814C289.59 96.2014 289.11 95.6414 288.8 94.9014L290.87 93.7014C291.13 94.4414 291.665 94.8114 292.475 94.8114C292.945 94.8114 293.3 94.7014 293.54 94.4814C293.78 94.2614 293.9 93.9814 293.9 93.6414C293.9 93.3014 293.78 93.0214 293.54 92.8014C293.3 92.5814 292.945 92.4714 292.475 92.4714H291.98L291.065 91.1064L292.97 88.6914H289.13V86.4414H295.88V88.3914L294.065 90.7014ZM304.807 95.6664C304.057 96.6564 303.012 97.1514 301.672 97.1514C300.332 97.1514 299.282 96.6564 298.522 95.6664C297.772 94.6664 297.397 93.3414 297.397 91.6914C297.397 90.0414 297.772 88.7214 298.522 87.7314C299.282 86.7314 300.332 86.2314 301.672 86.2314C303.012 86.2314 304.057 86.7314 304.807 87.7314C305.567 88.7214 305.947 90.0414 305.947 91.6914C305.947 93.3414 305.567 94.6664 304.807 95.6664ZM299.797 91.6914C299.797 93.7714 300.422 94.8114 301.672 94.8114C302.922 94.8114 303.547 93.7714 303.547 91.6914C303.547 89.6114 302.922 88.5714 301.672 88.5714C300.422 88.5714 299.797 89.6114 299.797 91.6914ZM314.455 95.6664C313.705 96.6564 312.66 97.1514 311.32 97.1514C309.98 97.1514 308.93 96.6564 308.17 95.6664C307.42 94.6664 307.045 93.3414 307.045 91.6914C307.045 90.0414 307.42 88.7214 308.17 87.7314C308.93 86.7314 309.98 86.2314 311.32 86.2314C312.66 86.2314 313.705 86.7314 314.455 87.7314C315.215 88.7214 315.595 90.0414 315.595 91.6914C315.595 93.3414 315.215 94.6664 314.455 95.6664ZM309.445 91.6914C309.445 93.7714 310.07 94.8114 311.32 94.8114C312.57 94.8114 313.195 93.7714 313.195 91.6914C313.195 89.6114 312.57 88.5714 311.32 88.5714C310.07 88.5714 309.445 89.6114 309.445 91.6914Z" fill="white" fill-opacity="0.8"/>
<path d="M287.5 311.692H288.292V317.692H287.5V316.516C286.948 317.396 286.14 317.836 285.076 317.836C284.22 317.836 283.488 317.532 282.88 316.924C282.28 316.316 281.98 315.572 281.98 314.692C281.98 313.812 282.28 313.068 282.88 312.46C283.488 311.852 284.22 311.548 285.076 311.548C286.14 311.548 286.948 311.988 287.5 312.868V311.692ZM283.456 316.384C283.912 316.84 284.472 317.068 285.136 317.068C285.8 317.068 286.36 316.84 286.816 316.384C287.272 315.92 287.5 315.356 287.5 314.692C287.5 314.028 287.272 313.468 286.816 313.012C286.36 312.548 285.8 312.316 285.136 312.316C284.472 312.316 283.912 312.548 283.456 313.012C283 313.468 282.772 314.028 282.772 314.692C282.772 315.356 283 315.92 283.456 316.384ZM292.965 317.836C292.061 317.836 291.309 317.536 290.709 316.936C290.109 316.328 289.809 315.58 289.809 314.692C289.809 313.804 290.109 313.06 290.709 312.46C291.309 311.852 292.061 311.548 292.965 311.548C293.557 311.548 294.089 311.692 294.561 311.98C295.033 312.26 295.377 312.64 295.593 313.12L294.945 313.492C294.785 313.132 294.525 312.848 294.165 312.64C293.813 312.424 293.413 312.316 292.965 312.316C292.301 312.316 291.741 312.548 291.285 313.012C290.829 313.468 290.601 314.028 290.601 314.692C290.601 315.356 290.829 315.92 291.285 316.384C291.741 316.84 292.301 317.068 292.965 317.068C293.413 317.068 293.813 316.964 294.165 316.756C294.517 316.54 294.793 316.252 294.993 315.892L295.653 316.276C295.405 316.756 295.041 317.136 294.561 317.416C294.081 317.696 293.549 317.836 292.965 317.836ZM299.727 317.836C298.823 317.836 298.071 317.536 297.471 316.936C296.871 316.328 296.571 315.58 296.571 314.692C296.571 313.804 296.871 313.06 297.471 312.46C298.071 311.852 298.823 311.548 299.727 311.548C300.319 311.548 300.851 311.692 301.323 311.98C301.795 312.26 302.139 312.64 302.355 313.12L301.707 313.492C301.547 313.132 301.287 312.848 300.927 312.64C300.575 312.424 300.175 312.316 299.727 312.316C299.063 312.316 298.503 312.548 298.047 313.012C297.591 313.468 297.363 314.028 297.363 314.692C297.363 315.356 297.591 315.92 298.047 316.384C298.503 316.84 299.063 317.068 299.727 317.068C300.175 317.068 300.575 316.964 300.927 316.756C301.279 316.54 301.555 316.252 301.755 315.892L302.415 316.276C302.167 316.756 301.803 317.136 301.323 317.416C300.843 317.696 300.311 317.836 299.727 317.836ZM306.466 311.548C307.354 311.548 308.07 311.864 308.614 312.496C309.166 313.12 309.442 313.86 309.442 314.716C309.442 314.804 309.434 314.928 309.418 315.088H304.15C304.23 315.696 304.486 316.18 304.918 316.54C305.358 316.892 305.898 317.068 306.538 317.068C306.994 317.068 307.386 316.976 307.714 316.792C308.05 316.6 308.302 316.352 308.47 316.048L309.166 316.456C308.902 316.88 308.542 317.216 308.086 317.464C307.63 317.712 307.11 317.836 306.526 317.836C305.582 317.836 304.814 317.54 304.222 316.948C303.63 316.356 303.334 315.604 303.334 314.692C303.334 313.796 303.626 313.048 304.21 312.448C304.794 311.848 305.546 311.548 306.466 311.548ZM306.466 312.316C305.842 312.316 305.318 312.504 304.894 312.88C304.478 313.248 304.23 313.728 304.15 314.32H308.626C308.546 313.688 308.302 313.196 307.894 312.844C307.486 312.492 307.01 312.316 306.466 312.316ZM311.291 313.264C311.291 313.536 311.411 313.752 311.651 313.912C311.891 314.072 312.183 314.196 312.527 314.284C312.871 314.372 313.215 314.472 313.559 314.584C313.903 314.688 314.195 314.868 314.435 315.124C314.675 315.372 314.795 315.7 314.795 316.108C314.795 316.62 314.591 317.036 314.183 317.356C313.783 317.676 313.263 317.836 312.623 317.836C312.047 317.836 311.555 317.708 311.147 317.452C310.747 317.196 310.467 316.864 310.307 316.456L310.979 316.06C311.091 316.372 311.291 316.62 311.579 316.804C311.875 316.98 312.223 317.068 312.623 317.068C313.015 317.068 313.343 316.992 313.607 316.84C313.871 316.68 314.003 316.436 314.003 316.108C314.003 315.836 313.883 315.62 313.643 315.46C313.403 315.3 313.111 315.176 312.767 315.088C312.423 315 312.079 314.904 311.735 314.8C311.391 314.688 311.099 314.508 310.859 314.26C310.619 314.004 310.499 313.672 310.499 313.264C310.499 312.776 310.691 312.368 311.075 312.04C311.467 311.712 311.959 311.548 312.551 311.548C313.039 311.548 313.467 311.66 313.835 311.884C314.203 312.1 314.475 312.396 314.651 312.772L313.991 313.156C313.759 312.596 313.279 312.316 312.551 312.316C312.207 312.316 311.911 312.4 311.663 312.568C311.415 312.728 311.291 312.96 311.291 313.264ZM316.577 313.264C316.577 313.536 316.697 313.752 316.937 313.912C317.177 314.072 317.469 314.196 317.813 314.284C318.157 314.372 318.501 314.472 318.845 314.584C319.189 314.688 319.481 314.868 319.721 315.124C319.961 315.372 320.081 315.7 320.081 316.108C320.081 316.62 319.877 317.036 319.469 317.356C319.069 317.676 318.549 317.836 317.909 317.836C317.333 317.836 316.841 317.708 316.433 317.452C316.033 317.196 315.753 316.864 315.593 316.456L316.265 316.06C316.377 316.372 316.577 316.62 316.865 316.804C317.161 316.98 317.509 317.068 317.909 317.068C318.301 317.068 318.629 316.992 318.893 316.84C319.157 316.68 319.289 316.436 319.289 316.108C319.289 315.836 319.169 315.62 318.929 315.46C318.689 315.3 318.397 315.176 318.053 315.088C317.709 315 317.365 314.904 317.021 314.8C316.677 314.688 316.385 314.508 316.145 314.26C315.905 314.004 315.785 313.672 315.785 313.264C315.785 312.776 315.977 312.368 316.361 312.04C316.753 311.712 317.245 311.548 317.837 311.548C318.325 311.548 318.753 311.66 319.121 311.884C319.489 312.1 319.761 312.396 319.937 312.772L319.277 313.156C319.045 312.596 318.565 312.316 317.837 312.316C317.493 312.316 317.197 312.4 316.949 312.568C316.701 312.728 316.577 312.96 316.577 313.264ZM326.455 316.936C325.847 317.536 325.103 317.836 324.223 317.836C323.343 317.836 322.595 317.536 321.979 316.936C321.371 316.328 321.067 315.58 321.067 314.692C321.067 313.804 321.371 313.06 321.979 312.46C322.595 311.852 323.343 311.548 324.223 311.548C325.103 311.548 325.847 311.852 326.455 312.46C327.071 313.06 327.379 313.804 327.379 314.692C327.379 315.58 327.071 316.328 326.455 316.936ZM322.543 316.384C322.999 316.84 323.559 317.068 324.223 317.068C324.887 317.068 325.447 316.84 325.903 316.384C326.359 315.92 326.587 315.356 326.587 314.692C326.587 314.028 326.359 313.468 325.903 313.012C325.447 312.548 324.887 312.316 324.223 312.316C323.559 312.316 322.999 312.548 322.543 313.012C322.087 313.468 321.859 314.028 321.859 314.692C321.859 315.356 322.087 315.92 322.543 316.384ZM329.696 312.688C330.064 311.96 330.696 311.596 331.592 311.596V312.364C331.048 312.364 330.596 312.524 330.236 312.844C329.876 313.164 329.696 313.668 329.696 314.356V317.692H328.904V311.692H329.696V312.688ZM333.681 310.252C333.569 310.364 333.433 310.42 333.273 310.42C333.113 310.42 332.977 310.364 332.865 310.252C332.753 310.14 332.697 310.004 332.697 309.844C332.697 309.684 332.753 309.548 332.865 309.436C332.977 309.324 333.113 309.268 333.273 309.268C333.433 309.268 333.569 309.324 333.681 309.436C333.793 309.548 333.849 309.684 333.849 309.844C333.849 310.004 333.793 310.14 333.681 310.252ZM332.877 317.692V311.692H333.669V317.692H332.877ZM338.322 311.548C339.21 311.548 339.926 311.864 340.47 312.496C341.022 313.12 341.298 313.86 341.298 314.716C341.298 314.804 341.29 314.928 341.274 315.088H336.006C336.086 315.696 336.342 316.18 336.774 316.54C337.214 316.892 337.754 317.068 338.394 317.068C338.85 317.068 339.242 316.976 339.57 316.792C339.906 316.6 340.158 316.352 340.326 316.048L341.022 316.456C340.758 316.88 340.398 317.216 339.942 317.464C339.486 317.712 338.966 317.836 338.382 317.836C337.438 317.836 336.67 317.54 336.078 316.948C335.486 316.356 335.19 315.604 335.19 314.692C335.19 313.796 335.482 313.048 336.066 312.448C336.65 311.848 337.402 311.548 338.322 311.548ZM338.322 312.316C337.698 312.316 337.174 312.504 336.75 312.88C336.334 313.248 336.086 313.728 336.006 314.32H340.482C340.402 313.688 340.158 313.196 339.75 312.844C339.342 312.492 338.866 312.316 338.322 312.316ZM343.148 313.264C343.148 313.536 343.268 313.752 343.508 313.912C343.748 314.072 344.04 314.196 344.384 314.284C344.728 314.372 345.072 314.472 345.416 314.584C345.76 314.688 346.052 314.868 346.292 315.124C346.532 315.372 346.652 315.7 346.652 316.108C346.652 316.62 346.448 317.036 346.04 317.356C345.64 317.676 345.12 317.836 344.48 317.836C343.904 317.836 343.412 317.708 343.004 317.452C342.604 317.196 342.324 316.864 342.164 316.456L342.836 316.06C342.948 316.372 343.148 316.62 343.436 316.804C343.732 316.98 344.08 317.068 344.48 317.068C344.872 317.068 345.2 316.992 345.464 316.84C345.728 316.68 345.86 316.436 345.86 316.108C345.86 315.836 345.74 315.62 345.5 315.46C345.26 315.3 344.968 315.176 344.624 315.088C344.28 315 343.936 314.904 343.592 314.8C343.248 314.688 342.956 314.508 342.716 314.26C342.476 314.004 342.356 313.672 342.356 313.264C342.356 312.776 342.548 312.368 342.932 312.04C343.324 311.712 343.816 311.548 344.408 311.548C344.896 311.548 345.324 311.66 345.692 311.884C346.06 312.1 346.332 312.396 346.508 312.772L345.848 313.156C345.616 312.596 345.136 312.316 344.408 312.316C344.064 312.316 343.768 312.4 343.52 312.568C343.272 312.728 343.148 312.96 343.148 313.264Z" fill="white" fill-opacity="0.8"/>
<rect x="148.5" y="46.5581" width="61" height="255.462" rx="5" fill="#EDFE79"/>
<path d="M155.368 316.936C154.76 317.536 154.016 317.836 153.136 317.836C152.256 317.836 151.508 317.536 150.892 316.936C150.284 316.328 149.98 315.58 149.98 314.692C149.98 313.804 150.284 313.06 150.892 312.46C151.508 311.852 152.256 311.548 153.136 311.548C154.016 311.548 154.76 311.852 155.368 312.46C155.984 313.06 156.292 313.804 156.292 314.692C156.292 315.58 155.984 316.328 155.368 316.936ZM151.456 316.384C151.912 316.84 152.472 317.068 153.136 317.068C153.8 317.068 154.36 316.84 154.816 316.384C155.272 315.92 155.5 315.356 155.5 314.692C155.5 314.028 155.272 313.468 154.816 313.012C154.36 312.548 153.8 312.316 153.136 312.316C152.472 312.316 151.912 312.548 151.456 313.012C151 313.468 150.772 314.028 150.772 314.692C150.772 315.356 151 315.92 151.456 316.384ZM162.041 311.692H162.833V317.692H162.041V316.756C161.593 317.476 160.921 317.836 160.025 317.836C159.297 317.836 158.721 317.616 158.297 317.176C157.881 316.728 157.673 316.128 157.673 315.376V311.692H158.465V315.376C158.465 315.912 158.605 316.328 158.885 316.624C159.173 316.92 159.577 317.068 160.097 317.068C160.673 317.068 161.141 316.888 161.501 316.528C161.861 316.16 162.041 315.596 162.041 314.836V311.692ZM167.889 312.46H166.161V316.096C166.161 316.424 166.225 316.66 166.353 316.804C166.481 316.94 166.673 317.012 166.929 317.02C167.185 317.02 167.505 317.012 167.889 316.996V317.692C167.049 317.82 166.417 317.76 165.993 317.512C165.577 317.264 165.369 316.792 165.369 316.096V312.46H164.109V311.692H165.369V310.252L166.161 310.012V311.692H167.889V312.46ZM171.817 311.548C172.705 311.548 173.421 311.864 173.965 312.496C174.517 313.12 174.793 313.86 174.793 314.716C174.793 314.804 174.785 314.928 174.769 315.088H169.501C169.581 315.696 169.837 316.18 170.269 316.54C170.709 316.892 171.249 317.068 171.889 317.068C172.345 317.068 172.737 316.976 173.065 316.792C173.401 316.6 173.653 316.352 173.821 316.048L174.517 316.456C174.253 316.88 173.893 317.216 173.437 317.464C172.981 317.712 172.461 317.836 171.877 317.836C170.933 317.836 170.165 317.54 169.573 316.948C168.981 316.356 168.685 315.604 168.685 314.692C168.685 313.796 168.977 313.048 169.561 312.448C170.145 311.848 170.897 311.548 171.817 311.548ZM171.817 312.316C171.193 312.316 170.669 312.504 170.245 312.88C169.829 313.248 169.581 313.728 169.501 314.32H173.977C173.897 313.688 173.653 313.196 173.245 312.844C172.837 312.492 172.361 312.316 171.817 312.316ZM177.045 312.688C177.413 311.96 178.045 311.596 178.941 311.596V312.364C178.397 312.364 177.945 312.524 177.585 312.844C177.225 313.164 177.045 313.668 177.045 314.356V317.692H176.253V311.692H177.045V312.688ZM187.451 311.692H188.267L186.419 317.692H185.555L184.007 312.856L182.459 317.692H181.595L179.747 311.692H180.563L182.039 316.672L183.611 311.692H184.403L185.975 316.672L187.451 311.692ZM192.199 311.548C193.087 311.548 193.803 311.864 194.347 312.496C194.899 313.12 195.175 313.86 195.175 314.716C195.175 314.804 195.167 314.928 195.151 315.088H189.883C189.963 315.696 190.219 316.18 190.651 316.54C191.091 316.892 191.631 317.068 192.271 317.068C192.727 317.068 193.119 316.976 193.447 316.792C193.783 316.6 194.035 316.352 194.203 316.048L194.899 316.456C194.635 316.88 194.275 317.216 193.819 317.464C193.363 317.712 192.843 317.836 192.259 317.836C191.315 317.836 190.547 317.54 189.955 316.948C189.363 316.356 189.067 315.604 189.067 314.692C189.067 313.796 189.359 313.048 189.943 312.448C190.527 311.848 191.279 311.548 192.199 311.548ZM192.199 312.316C191.575 312.316 191.051 312.504 190.627 312.88C190.211 313.248 189.963 313.728 189.883 314.32H194.359C194.279 313.688 194.035 313.196 193.627 312.844C193.219 312.492 192.743 312.316 192.199 312.316ZM201.795 311.692H202.587V317.692H201.795V316.516C201.243 317.396 200.435 317.836 199.371 317.836C198.515 317.836 197.783 317.532 197.175 316.924C196.575 316.316 196.275 315.572 196.275 314.692C196.275 313.812 196.575 313.068 197.175 312.46C197.783 311.852 198.515 311.548 199.371 311.548C200.435 311.548 201.243 311.988 201.795 312.868V311.692ZM197.751 316.384C198.207 316.84 198.767 317.068 199.431 317.068C200.095 317.068 200.655 316.84 201.111 316.384C201.567 315.92 201.795 315.356 201.795 314.692C201.795 314.028 201.567 313.468 201.111 313.012C200.655 312.548 200.095 312.316 199.431 312.316C198.767 312.316 198.207 312.548 197.751 313.012C197.295 313.468 197.067 314.028 197.067 314.692C197.067 315.356 197.295 315.92 197.751 316.384ZM205.255 312.688C205.623 311.96 206.255 311.596 207.151 311.596V312.364C206.607 312.364 206.155 312.524 205.795 312.844C205.435 313.164 205.255 313.668 205.255 314.356V317.692H204.463V311.692H205.255V312.688Z" fill="white" fill-opacity="0.8"/>
</svg>
