<svg width="33" height="40" viewBox="0 0 33 40" fill="none" xmlns="http://www.w3.org/2000/svg">
<path id="Vector" fill-rule="evenodd" clip-rule="evenodd" d="M31.5451 35.8212H31.9686V39.3626L29.38 36.6823V39.2309H28.9447V35.6534L31.5451 38.3458V35.8212ZM19.3783 35.8212V37.9866C19.3783 38.3694 19.2693 38.6805 19.0514 38.9201C18.8219 39.1833 18.5074 39.3028 18.1082 39.3028C17.7333 39.3028 17.4191 39.1833 17.1889 38.9201C16.9594 38.6805 16.8502 38.3694 16.8502 37.9866V35.8212H17.2859V37.843C17.2859 38.549 17.552 38.9081 18.1082 38.9081C18.6765 38.9081 18.9548 38.549 18.9548 37.843V35.8212H19.3783ZM20.7087 35.8212H22.7767V36.2161H21.9544V39.2311H21.5432V36.2161H20.7087V35.8212ZM19.9588 35.8212H20.3942V39.2311H19.9588V35.8212ZM16.149 35.8212H16.6207L15.1209 39.4224L13.6212 35.8212H14.0929L15.1211 38.3458L16.149 35.8212ZM28.1465 37.5319C28.1465 37.9147 28.0133 38.2379 27.7354 38.513C27.4814 38.7762 27.1549 38.9079 26.7796 38.9079C26.4047 38.9079 26.0782 38.7762 25.8003 38.513C25.5219 38.2377 25.389 37.9147 25.389 37.5319C25.389 37.1492 25.5099 36.826 25.776 36.5628C26.042 36.2878 26.3808 36.1561 26.7796 36.1561C27.1788 36.1561 27.5053 36.2878 27.7593 36.5628C28.0135 36.826 28.1465 37.149 28.1465 37.5319ZM28.0499 36.2757C27.6872 35.9287 27.2637 35.7493 26.7798 35.7493C26.284 35.7493 25.8609 35.9287 25.4978 36.2757C25.1472 36.6226 24.9657 37.0415 24.9657 37.5317C24.9657 38.0341 25.1475 38.453 25.4978 38.7999C25.8487 39.135 26.2719 39.3026 26.7798 39.3026C27.276 39.3026 27.7111 39.135 28.0499 38.7999C28.4007 38.453 28.582 38.0341 28.582 37.5317C28.5822 37.0415 28.4009 36.6226 28.0499 36.2757ZM24.8691 35.8212V36.2161H24.0587V39.2311H23.6233V36.2161H22.801V35.8212H24.8691ZM4.86474 36.5628C5.11876 36.826 5.23964 37.1492 5.23964 37.5319C5.23964 37.9147 5.10651 38.2379 4.84065 38.513C4.57458 38.7762 4.24787 38.9079 3.87297 38.9079C3.49806 38.9079 3.17156 38.7762 2.89344 38.513C2.63942 38.2377 2.49445 37.9147 2.49445 37.5319C2.49445 37.1492 2.62738 36.826 2.8814 36.5628C3.14746 36.2878 3.47418 36.1561 3.87317 36.1561C4.27217 36.1561 4.61093 36.2878 4.86474 36.5628ZM5.14306 36.2757C4.78021 35.9287 4.35691 35.7493 3.87317 35.7493C3.37718 35.7493 2.94205 35.9287 2.60328 36.2757C2.24043 36.6226 2.05911 37.0415 2.05911 37.5317C2.05911 38.0341 2.24064 38.453 2.60328 38.7999C2.94205 39.135 3.36534 39.3026 3.87317 39.3026C4.38121 39.3026 4.80451 39.135 5.14306 38.7999C5.50592 38.453 5.67519 38.0341 5.67519 37.5317C5.67519 37.0415 5.50592 36.6226 5.14306 36.2757ZM6.46135 37.8428C6.46135 38.5488 6.73946 38.9079 7.29589 38.9079C7.84028 38.9079 8.13044 38.5488 8.13044 37.8428V35.821H8.55373V37.9864C8.55373 38.3692 8.4449 38.6803 8.21497 38.9199C7.98525 39.1831 7.67079 39.3026 7.29589 39.3026C6.90894 39.3026 6.60653 39.1831 6.37681 38.9199C6.13484 38.6803 6.02621 38.3692 6.02621 37.9864V35.821H6.46155L6.46135 37.8428ZM0.970332 35.8212V38.8481H2.02255V39.2309H0.547036V35.821H0.970332V35.8212ZM11.3353 37.2209C11.9158 37.4479 12.1941 37.783 12.1941 38.2377C12.1941 38.5488 12.0853 38.7999 11.8676 39.0035C11.662 39.2069 11.408 39.3028 11.1056 39.3028C10.8274 39.3028 10.5855 39.219 10.3801 39.0275C10.1865 38.8482 10.0656 38.6207 10.0292 38.3458L10.4646 38.2498C10.4646 38.4413 10.525 38.5969 10.6582 38.7286C10.7913 38.8481 10.9363 38.9079 11.1299 38.9079C11.3114 38.9079 11.4564 38.836 11.5895 38.7045C11.6983 38.5849 11.7588 38.4292 11.7588 38.2379C11.7588 37.9747 11.5652 37.7596 11.1662 37.5917L10.9242 37.5083C10.4405 37.2809 10.1865 36.9938 10.1865 36.6347C10.1865 36.3715 10.2953 36.1442 10.4889 35.9885C10.6945 35.8212 10.9242 35.7493 11.2026 35.7493C11.6016 35.7493 11.8919 35.9287 12.0853 36.2757L11.7467 36.4672C11.6136 36.2638 11.4323 36.1561 11.1903 36.1561C11.0451 36.1561 10.8999 36.1919 10.7911 36.2757C10.6702 36.3713 10.6096 36.4913 10.6096 36.6345C10.6096 36.8379 10.7668 36.9936 11.1054 37.1132L11.3353 37.2209ZM9.13426 35.8212H9.56981V39.2311H9.13426V35.8212ZM26.1178 4.99782L17.7761 24.474L15.4748 19.4786L19.7256 8.03315C20.0453 7.14801 21.1637 6.73688 23.0497 6.73688L23.7205 4.99782H13.8127L13.1734 6.73688C14.5798 6.73688 15.1551 7.1478 14.9312 8.03315L12.822 13.8507L8.66714 4.99782C7.9001 4.0494 8.28351 3.57498 9.78582 3.57498V1.52012H0.197266V3.57518C1.98724 3.57518 3.10572 4.0496 3.5853 4.99803L10.6168 19.795L7.32476 28.4896C7.26058 29.6594 5.40705 30.2289 1.82731 30.2289L1.15623 31.9677H28.5149L32.3184 23.9686H30.3367C28.4831 28.1104 26.3417 30.2289 23.9446 30.2289H11.3837L13.2374 25.3282L14.8355 28.4896H18.4152L28.5147 4.99823C28.9943 3.57539 30.2409 2.81681 32.1904 2.81681V0.982422H23.9444V2.8164C26.4375 2.8164 27.1408 3.57518 26.1178 4.99782Z" fill="white"/>
</svg>
