<svg width="22" height="18" viewBox="0 0 22 18" fill="none" xmlns="http://www.w3.org/2000/svg">
<path d="M2.0625 0.60498C0.923828 0.60498 0 1.52881 0 2.66748C0 3.31631 0.305078 3.92646 0.825 4.31748L10.175 11.33C10.6648 11.6952 11.3352 11.6952 11.825 11.33L21.175 4.31748C21.6949 3.92646 22 3.31631 22 2.66748C22 1.52881 21.0762 0.60498 19.9375 0.60498H2.0625ZM0 5.41748V14.355C0 15.8718 1.2332 17.105 2.75 17.105H19.25C20.7668 17.105 22 15.8718 22 14.355V5.41748L12.65 12.43C11.6703 13.1647 10.3297 13.1647 9.35 12.43L0 5.41748Z" fill="#545454"/>
</svg>
