<svg width="36" height="53" viewBox="0 0 36 53" fill="none" xmlns="http://www.w3.org/2000/svg">
<path d="M18 0.450806C22.6413 0.450806 27.0925 2.29455 30.3744 5.57644C33.6563 8.85832 35.5 13.3095 35.5 17.9508C35.5 26.6133 29.2 33.8175 20.9167 35.2175V41.2841H26.75V47.1175H20.9167V52.9508H15.0833V47.1175H9.25V41.2841H15.0833V35.2175C6.8 33.8175 0.5 26.6133 0.5 17.9508C0.5 13.3095 2.34375 8.85832 5.62563 5.57644C8.90752 2.29455 13.3587 0.450806 18 0.450806ZM18 6.28414C14.9058 6.28414 11.9383 7.5133 9.75042 9.70123C7.5625 11.8892 6.33333 14.8566 6.33333 17.9508C6.33333 21.045 7.5625 24.0125 9.75042 26.2004C11.9383 28.3883 14.9058 29.6175 18 29.6175C21.0942 29.6175 24.0617 28.3883 26.2496 26.2004C28.4375 24.0125 29.6667 21.045 29.6667 17.9508C29.6667 14.8566 28.4375 11.8892 26.2496 9.70123C24.0617 7.5133 21.0942 6.28414 18 6.28414Z" fill="#EDFE79"/>
</svg>
