<svg width="24" height="24" viewBox="0 0 24 24" fill="none" xmlns="http://www.w3.org/2000/svg">
<path d="M16.6875 9.75C16.3781 9.75 16.125 10.0031 16.125 10.3125V12C16.125 14.584 13.9365 16.6617 11.3156 16.493C8.92852 16.3277 7.125 14.2359 7.125 11.8418V10.3125C7.125 10.0031 6.87187 9.75 6.5625 9.75C6.25312 9.75 6 10.0031 6 10.3125V11.8024C6 14.7338 8.16668 17.2903 11.0625 17.5821V19.875H8.8125C8.50312 19.875 8.25 20.1281 8.25 20.4375C8.25 20.7469 8.50312 21 8.8125 21H14.4375C14.7469 21 15 20.7468 15 20.4375C15 20.1281 14.7469 19.875 14.4375 19.875H12.1875V17.5898C15.0281 17.3051 17.25 14.9109 17.25 12V10.3125C17.25 10.0031 16.9969 9.75 16.6875 9.75ZM11.625 15.375C13.4883 15.375 15 13.8633 15 12V6.375C15 4.54336 13.4883 3 11.625 3C9.76172 3 8.25 4.51172 8.25 6.375V12C8.25 13.8633 9.76172 15.375 11.625 15.375ZM9.375 6.375C9.375 5.13574 10.3857 4.125 11.625 4.125C12.8643 4.125 13.875 5.13574 13.875 6.375V12C13.875 13.2393 12.8643 14.25 11.625 14.25C10.3857 14.25 9.375 13.241 9.375 12V6.375Z" fill="#2020ED"/>
</svg>
