<svg width="18" height="17" viewBox="0 0 18 17" fill="none" xmlns="http://www.w3.org/2000/svg">
<path d="M15.75 2.73242H9.5625L7.96992 1.1416C7.54805 0.719375 6.97852 0.482422 6.38086 0.482422H2.25C1.00723 0.482422 0 1.48965 0 2.73242V13.9824C0 15.2252 1.00723 16.2324 2.25 16.2324H15.75C16.9928 16.2324 18 15.2252 18 13.9824V4.98242C18 3.74141 16.991 2.73242 15.75 2.73242ZM16.875 13.9824C16.875 14.6026 16.3702 15.1074 15.75 15.1074H2.25C1.62984 15.1074 1.125 14.6026 1.125 13.9824V2.73242C1.125 2.11227 1.62984 1.60742 2.25 1.60742H6.38086C6.68141 1.60742 6.96375 1.72442 7.17645 1.93701L9.09492 3.85742H15.75C16.3702 3.85742 16.875 4.36227 16.875 4.98242V13.9824Z" fill="#0A0A2F"/>
<path d="M11.6021 8.99095C11.8219 9.21033 11.8219 9.56646 11.6021 9.78619L8.78991 12.599C8.57053 12.8188 8.2144 12.8188 7.99467 12.599C7.88477 12.4893 7.82986 12.3456 7.82986 12.2014C7.82986 12.0573 7.88611 11.9131 7.99544 11.8038L9.84783 9.95142H5.57986C5.26894 9.95142 5.01736 9.69984 5.01736 9.38892C5.01736 9.078 5.26894 8.82642 5.57986 8.82642H9.84783L7.99439 6.97369C7.77466 6.75431 7.77501 6.39818 7.99439 6.17845C8.21377 5.95873 8.5699 5.95873 8.78963 6.17845L11.6021 8.99095Z" fill="#0A0A2F"/>
</svg>
