<svg width="32" height="32" viewBox="0 0 32 32" fill="none" xmlns="http://www.w3.org/2000/svg">
<path d="M26 0H6C2.68629 0 0 2.68629 0 6V26C0 29.3137 2.68629 32 6 32H26C29.3137 32 32 29.3137 32 26V6C32 2.68629 29.3137 0 26 0Z" fill="#F3F3F3"/>
<path d="M23.9719 19.4719C23.9719 20.8525 22.6287 21.9719 21 21.9719C19.3713 21.9719 18.0281 20.8525 18.0281 19.5C18.0281 18.1194 19.3713 17.0281 21 17.0281C21.3525 17.0281 21.6859 17.0881 22.0003 17.1812V12.6281L14 15L13.9999 21.5031C13.9719 22.8813 12.6562 24 10.9719 24C9.2875 24 8 22.8813 8 21.5C8 20.1194 9.34312 19.0281 10.9719 19.0281C11.3244 19.0281 11.6578 19.0881 11.9719 19.1812V11.9531C11.9719 11.5478 12.2862 11.1209 12.6722 10.9994L22.6441 8.04656C22.7531 8.02067 22.9156 8 23 8C23.5519 8 23.9991 8.44813 24 8.99969L23.9719 19.4719Z" fill="#EA4841"/>
</svg>
