<svg width="24" height="20" viewBox="0 0 24 20" fill="none" xmlns="http://www.w3.org/2000/svg">
<path d="M21.5401 9.63861L23.7982 7.38046C24.0661 7.1126 24.0661 6.67846 23.7982 6.41103C23.5304 6.1436 23.0962 6.14317 22.8288 6.41103L20.5715 8.67004L18.3134 6.41189C18.0455 6.14403 17.6114 6.14403 17.3439 6.41189C17.0765 6.67974 17.0761 7.11389 17.3439 7.38132L19.6029 9.63861L17.3448 11.8968C17.0769 12.1646 17.0769 12.5988 17.3448 12.8662C17.6125 13.1339 18.0464 13.1342 18.3142 12.8662L20.5715 10.6072L22.8297 12.8653C23.0974 13.133 23.5312 13.1334 23.7991 12.8653C24.067 12.5975 24.067 12.1633 23.7991 11.8959L21.5401 9.63861ZM12.3429 0C12.013 0 11.6876 0.119315 11.4313 0.347144L5.6486 5.52431H2.05715C0.921004 5.52431 0 6.44531 0 7.54289V11.6186C0 12.7548 0.921004 13.6372 2.05715 13.6372H5.65031L11.4318 18.7758C11.6882 19.0035 12.0138 19.1227 12.3429 19.1227C13.2446 19.1227 13.6758 18.3568 13.6758 17.7898V1.41001C13.6758 0.816004 13.2472 0 12.3429 0ZM12.3043 17.8287L6.13288 12.3429H2.05715C1.67906 12.3429 1.37143 12.0361 1.37143 11.6589V7.54461C1.37143 7.16742 1.67906 6.8606 2.05715 6.8606H6.13288L12.2658 1.41344C12.2661 1.4131 12.2656 1.4136 12.2658 1.41344L12.3043 17.8287Z" fill="#2020ED"/>
</svg>
