<svg width="19" height="13" viewBox="0 0 19 13" fill="none" xmlns="http://www.w3.org/2000/svg">
<path d="M9.5 3.6C9.7475 3.6 9.95 3.8025 9.95 4.05V7.65C9.95 7.8975 9.7475 8.1 9.5 8.1C9.2525 8.1 9.05 7.8975 9.05 7.65V4.05C9.05 3.8025 9.2525 3.6 9.5 3.6ZM10.175 9.9C10.175 10.2741 9.87406 10.575 9.5 10.575C9.12594 10.575 8.825 10.2741 8.825 9.9C8.825 9.52594 9.12594 9.225 9.5 9.225C9.87406 9.225 10.175 9.52594 10.175 9.9ZM8.15 0C9.82344 0 11.3028 0.831094 12.2 2.10375C12.6078 1.90884 13.0662 1.8 13.55 1.8C15.2909 1.8 16.7 3.20906 16.7 4.95C16.7 5.25094 16.6578 5.51531 16.5791 5.81625C17.7209 6.41812 18.5 7.61906 18.5 9C18.5 10.9884 16.8884 12.6 14.9 12.6H4.55C2.31322 12.6 0.5 10.7859 0.5 8.55C0.5 6.78375 1.62922 5.28469 3.20478 4.72781C3.32094 2.09813 5.48938 0 8.15 0ZM8.15 0.9C5.97312 0.9 4.19844 2.61562 4.10281 4.76719C4.08875 5.13562 3.84969 5.43094 3.50375 5.57719C2.27694 6.01031 1.4 7.1775 1.4 8.55C1.4 10.2909 2.81019 11.7 4.55 11.7H14.9C16.3906 11.7 17.6 10.4906 17.6 9C17.6 7.965 17.0178 7.065 16.16 6.61219C15.7831 6.38719 15.5975 5.97656 15.7128 5.54344C15.7691 5.37187 15.8 5.16656 15.8 4.95C15.8 3.70687 14.7931 2.7 13.55 2.7C13.2041 2.7 12.8778 2.77875 12.5853 2.91656C12.1916 3.105 11.7162 2.97844 11.4631 2.62125C10.7291 1.57837 9.51969 0.9 8.15 0.9Z" fill="white"/>
</svg>
