<svg width="17" height="18" viewBox="0 0 17 18" fill="none" xmlns="http://www.w3.org/2000/svg">
<path d="M7.78086 0.5625C7.78086 0.251859 8.06563 0 8.34336 0C8.68437 0 8.9375 0.251859 8.9375 0.5625V1.15277C11.7816 1.43508 14 3.83203 14 6.75V7.77305C14 9.30937 14.6117 10.7824 15.698 11.8723L15.793 11.9672C16.0848 12.259 16.25 12.6246 16.25 13.0676C16.25 13.9289 15.5539 14.625 14.6926 14.625H2.05672C1.19715 14.625 0.5 13.9289 0.5 13.0676C0.5 12.6246 0.664039 12.259 0.955977 11.9672L1.05266 11.8723C2.13934 10.7824 2.75 9.30937 2.75 7.77305V6.75C2.75 3.83203 4.96836 1.43508 7.8125 1.15277L7.78086 0.5625ZM8.34336 2.25C5.88945 2.25 3.84336 4.26445 3.84336 6.75V7.77305C3.84336 9.6082 3.14586 11.3695 1.84824 12.6668L1.75156 12.7617C1.67035 12.8426 1.59336 12.9551 1.59336 13.0676C1.59336 13.3066 1.81836 13.5 2.05672 13.5H14.6926C14.9316 13.5 15.125 13.3066 15.125 13.0676C15.125 12.9551 15.0793 12.8426 14.9984 12.7617L14.9035 12.6668C13.6027 11.3695 12.875 9.6082 12.875 7.77305V6.75C12.875 4.26445 10.8605 2.25 8.34336 2.25ZM8.34336 16.875C8.86367 16.875 9.28203 16.5621 9.43672 16.1262C9.53867 15.8309 9.86211 15.648 10.1539 15.7816C10.4457 15.8871 10.6004 16.207 10.4984 16.4988C10.1891 17.3742 9.35586 18 8.34336 18C7.39414 18 6.56094 17.3742 6.25156 16.4988C6.14961 16.207 6.3043 15.8871 6.59609 15.7816C6.88789 15.648 7.21133 15.8309 7.31328 16.1262C7.46797 16.5621 7.88633 16.875 8.34336 16.875Z" fill="#181941"/>
</svg>
