<svg width="32" height="32" viewBox="0 0 32 32" fill="none" xmlns="http://www.w3.org/2000/svg">
<path d="M15.8368 31.8327C24.4973 31.8327 31.6711 24.6743 31.6711 15.9984C31.6711 7.33779 24.4973 0.164062 15.8214 0.164062C7.16084 0.164062 0.00244141 7.33779 0.00244141 15.9984C0.00244141 24.6743 7.17617 31.8327 15.8368 31.8327Z" fill="#118CFD"/>
<path d="M22.8823 19.5796C21.7336 18.6086 21.0749 17.1895 21.0749 15.686V13.5678C21.0749 10.8944 19.0889 8.68128 16.5165 8.31053V7.49003C16.5165 7.0699 16.1762 6.7303 15.7568 6.7303C15.3374 6.7303 14.9971 7.0699 14.9971 7.49003V8.31053C12.4239 8.68128 10.4387 10.8944 10.4387 13.5678V15.686C10.4387 17.1895 9.78001 18.6086 8.62447 19.5856C8.32893 19.8386 8.15951 20.2063 8.15951 20.5953C8.15951 21.3285 8.7559 21.9248 9.48904 21.9248H22.0245C22.7577 21.9248 23.3541 21.3285 23.3541 20.5953C23.3541 20.2063 23.1846 19.8386 22.8823 19.5796Z" fill="white"/>
<path d="M15.7565 24.9638C17.1324 24.9638 18.2834 23.9829 18.5478 22.6846H12.9653C13.2297 23.9829 14.3807 24.9638 15.7565 24.9638Z" fill="white"/>
</svg>
