<svg width="25" height="24" viewBox="0 0 25 24" fill="none" xmlns="http://www.w3.org/2000/svg">
<path d="M13.3571 10.8C13.6732 10.8536 14.3268 10.9929 14.6482 11.0625C15.1089 11.1857 15.3768 11.6571 15.2589 12.1125C15.1357 12.5732 14.6643 12.8411 14.2089 12.7232C13.9946 12.6643 13.2607 12.5196 13.025 12.4821C12.3339 12.375 11.7554 12.4607 11.3696 12.6375C10.9839 12.8143 10.7911 13.0393 10.8071 13.1839C10.7696 13.4518 10.8018 13.5643 10.8339 13.6286C10.8661 13.7036 10.9357 13.7946 11.0964 13.9018C11.4607 14.1482 12.0125 14.3196 12.7571 14.5446L12.7893 14.5554C13.4482 14.7536 14.2839 15.0054 14.9054 15.4554C15.2375 15.6964 15.5482 16.0232 15.7411 16.4625C15.9339 16.9071 15.9714 17.4 15.8857 17.9196C15.7196 18.8089 15.1036 19.4946 14.3161 19.8321C14.0161 19.9607 13.6946 20.0464 13.3571 20.0946V20.5714C13.3571 21.0429 12.9714 21.4286 12.5 21.4286C12.0286 21.4286 11.6429 21.0429 11.6429 20.5714V20.0571C11.1393 19.9607 10.3786 19.7036 9.90714 19.5375C9.81071 19.5054 9.725 19.4786 9.65536 19.4571C9.21071 19.3071 8.96429 18.8196 9.11429 18.3696C9.26429 17.925 9.75179 17.6786 10.2018 17.8286C10.2554 17.8661 10.4161 17.9036 10.5286 17.9411C11.0375 18.1125 11.6375 18.3161 11.9804 18.3268C12.6929 18.4821 13.2661 18.4179 13.6411 18.2571C13.9893 18.1071 14.1446 17.8982 14.1929 17.625C14.2357 17.3786 14.2036 17.2339 14.1661 17.1482C14.1286 17.0571 14.0482 16.9554 13.8929 16.8429C13.5446 16.5857 12.9982 16.4089 12.2643 16.1839L12.1518 16.1518C11.5196 15.9589 10.7268 15.7232 10.1375 15.2732C9.8 15.0964 9.48393 14.7857 9.28036 14.3625C9.07679 13.9286 9.02857 13.4464 9.11429 12.9375C9.26964 12.0429 9.90714 11.4214 10.6625 11.0786C10.9625 10.9393 11.2946 10.8429 11.6429 10.7839V10.2375C11.6429 9.81429 12.0286 9.38036 12.5 9.38036C12.9714 9.38036 13.3571 9.81429 13.3571 10.2375V10.8ZM24.2054 7.05C24.3982 7.48929 24.5 7.96071 24.5 8.44286V20.5714C24.5 22.4625 22.9625 24 21.0714 24H3.92857C2.03482 24 0.5 22.4625 0.5 20.5714V8.44286C0.5 7.96071 0.600661 7.48929 0.7955 7.05L3.02375 2.03625C3.57393 0.797679 4.80179 0 6.15714 0H18.8429C20.1982 0 21.425 0.798214 21.9768 2.03625L24.2054 7.05ZM13.3571 6.85714H22.2446L20.4125 2.73214C20.1339 2.11339 19.5232 1.71429 18.8429 1.71429H13.3571V6.85714ZM2.21429 8.57143V20.5714C2.21429 21.5196 2.98196 22.2857 3.92857 22.2857H21.0714C22.0196 22.2857 22.7857 21.5196 22.7857 20.5714V8.57143H2.21429ZM11.6429 1.71429H6.15714C5.47946 1.71429 4.86554 2.11339 4.59018 2.73214L2.75696 6.85714H11.6429V1.71429Z" fill="white"/>
</svg>
