<svg width="25" height="24" viewBox="0 0 25 24" fill="none" xmlns="http://www.w3.org/2000/svg">
<path d="M13.25 5.7C13.5266 5.74687 14.0984 5.86875 14.3797 5.92969C14.7828 6.0375 15.0172 6.45 14.9141 6.84844C14.8062 7.25156 14.3937 7.48594 13.9953 7.38281C13.8078 7.33125 13.1656 7.20469 12.9594 7.17188C12.3547 7.07812 11.8484 7.15312 11.5109 7.30781C11.1734 7.4625 11.0047 7.65938 11.0187 7.78594C10.9859 8.02031 11.0141 8.11875 11.0422 8.175C11.0703 8.24062 11.1313 8.32031 11.2719 8.41406C11.5906 8.62969 12.0734 8.77969 12.725 8.97656L12.7531 8.98594C13.3297 9.15938 14.0609 9.37969 14.6047 9.77344C14.8953 9.98906 15.1672 10.2703 15.3359 10.6547C15.5047 11.0437 15.5375 11.475 15.4625 11.9297C15.3172 12.7078 14.7781 13.3078 14.0891 13.6031C13.8266 13.7156 13.5453 13.7906 13.25 13.8328V14.25C13.25 14.6625 12.9125 15 12.5 15C12.0875 15 11.75 14.6625 11.75 14.25V13.8C11.3094 13.7156 10.6438 13.4906 10.2313 13.3453C10.1469 13.3172 10.0719 13.2938 10.0109 13.275C9.62187 13.1438 9.40625 12.7172 9.5375 12.3234C9.66875 11.9344 10.0953 11.7188 10.4891 11.85C10.5359 11.8828 10.6766 11.9156 10.775 11.9484C11.2203 12.0984 11.7453 12.2766 12.0453 12.2859C12.6687 12.4266 13.1703 12.3656 13.4984 12.225C13.8031 12.0937 13.9391 11.9109 13.9813 11.6719C14.0188 11.4563 13.9906 11.3297 13.9578 11.2547C13.925 11.175 13.8547 11.0859 13.7188 10.9875C13.4141 10.7625 12.9359 10.6078 12.2938 10.4109L12.1953 10.3828C11.6422 10.2141 10.9484 10.0078 10.4328 9.65625C10.1375 9.45938 9.86094 9.1875 9.68281 8.81719C9.50469 8.4375 9.4625 8.01562 9.5375 7.57031C9.67344 6.7875 10.2312 6.24375 10.8922 5.94375C11.1547 5.82188 11.4453 5.7375 11.75 5.68594V5.25C11.75 4.8375 12.0875 4.5 12.5 4.5C12.9125 4.5 13.25 4.8375 13.25 5.25V5.7ZM2.75 9.75C2.75 4.365 7.11406 0 12.5 0C17.8859 0 22.25 4.365 22.25 9.75C22.25 15.1359 17.8859 19.5 12.5 19.5C7.11406 19.5 2.75 15.1359 2.75 9.75ZM12.5 18C17.0562 18 20.75 14.3062 20.75 9.75C20.75 5.19375 17.0562 1.5 12.5 1.5C7.94375 1.5 4.25 5.19375 4.25 9.75C4.25 14.3062 7.94375 18 12.5 18ZM4.85141 18H3.125C2.50391 18 2 18.5016 2 19.125V21.375C2 21.9984 2.50391 22.5 3.125 22.5H21.875C22.4984 22.5 23 21.9984 23 21.375V19.125C23 18.5016 22.4984 18 21.875 18H20.15C20.6422 17.5406 21.0969 17.0391 21.5 16.5H21.875C23.3234 16.5 24.5 17.6766 24.5 19.125V21.375C24.5 22.8234 23.3234 24 21.875 24H3.125C1.67516 24 0.5 22.8234 0.5 21.375V19.125C0.5 17.6766 1.67516 16.5 3.125 16.5H3.49906C3.90453 17.0391 4.35734 17.5406 4.85141 18Z" fill="white"/>
</svg>
