<svg width="25" height="25" viewBox="0 0 25 25" fill="none" xmlns="http://www.w3.org/2000/svg">
<path d="M14.303 13.0812L13.3773 11.2062C13.155 10.7646 12.6887 10.5434 12.2233 10.5434C11.756 10.5434 11.2891 10.7661 11.0688 11.2123L10.1407 13.0812L8.07212 13.3859C7.58604 13.4562 7.18761 13.7891 7.03761 14.2578C6.88527 14.7322 7.00832 15.2366 7.35987 15.582L8.85983 17.0352L8.50242 19.0977C8.35884 19.9405 9.03491 20.6075 9.77879 20.6075C9.97637 20.6075 10.1787 20.5604 10.3717 20.4572L12.2219 19.4844L14.0734 20.457C14.2619 20.5563 14.4613 20.6017 14.6569 20.6017C15.3976 20.6017 16.0861 19.9506 15.9427 19.0975L15.5853 17.0406L17.0852 15.5818C17.4368 15.2361 17.5601 14.7325 17.4075 14.2576C17.2552 13.7889 16.8567 13.4551 16.3702 13.3848L14.303 13.0812ZM13.9749 16.5125L14.3876 18.9242L12.2211 17.7842L10.048 18.9547L10.4675 16.512L8.71537 14.8034L11.1369 14.4483L12.2211 12.2536L13.3052 14.4483L15.7267 14.8034L13.9749 16.5125ZM12.2219 7.67188C7.66572 7.67188 3.97207 11.3656 3.97207 15.9219C3.97207 20.4781 7.66572 24.1719 12.2219 24.1719C16.778 24.1719 20.4716 20.4781 20.4716 15.9219C20.4716 11.3656 16.778 7.67188 12.2219 7.67188ZM12.2219 22.6719C8.50007 22.6719 5.47203 19.6437 5.47203 15.9219C5.47203 12.2 8.50007 9.17188 12.2219 9.17188C15.9436 9.17188 18.9717 12.2 18.9717 15.9219C18.9717 19.6437 15.9436 22.6719 12.2219 22.6719ZM5.47203 9.17188C5.61705 9.17188 5.76354 9.13086 5.89244 9.04297C6.23523 8.8115 6.32602 8.34406 6.09311 8.00141L1.80884 1.67047L6.43903 1.62359L9.44224 6.63125C9.65612 6.98722 10.1205 7.10563 10.4706 6.88906C10.8266 6.67667 10.9422 6.215 10.7285 5.86063L7.72666 0.854375C7.47354 0.432594 7.01418 0.171875 6.522 0.171875H1.62556C1.10105 0.171875 0.62509 0.460438 0.381909 0.926094C0.140227 1.39062 0.175368 1.9475 0.469797 2.3675L4.85109 8.84094C4.99391 9.05469 5.23297 9.17188 5.47203 9.17188ZM24.0622 0.926094C23.8184 0.460438 23.345 0.171875 22.82 0.171875H17.9217C17.4309 0.171875 16.9697 0.432594 16.7189 0.852969L13.7148 5.86391C13.5009 6.21838 13.6166 6.68 13.9726 6.89234C14.3256 7.10914 14.7887 6.9905 15.001 6.63453L17.9217 1.67188H22.6325L18.3492 8C18.1163 8.34275 18.2071 8.81 18.5499 9.04156C18.6811 9.12969 18.8264 9.17188 18.9717 9.17188C19.2119 9.17188 19.4479 9.05614 19.5928 8.8423L23.9684 2.37823C24.2684 1.9475 24.3059 1.39062 24.0622 0.926094Z" fill="white"/>
</svg>
