<svg width="25" height="36" viewBox="0 0 25 36" fill="none" xmlns="http://www.w3.org/2000/svg">
<path d="M19.3 3.45089H13.3333V0.117554H25V11.7842H21.6667V5.80089L15.2833 12.1842C16.0366 13.3216 16.4991 14.6265 16.6302 15.9844C16.7614 17.3422 16.5571 18.7115 16.0355 19.972C15.5138 21.2326 14.6907 22.3457 13.6384 23.2138C12.5861 24.0819 11.3367 24.6784 10 24.9509V28.4509H13.3333V31.7842H10V35.1176H6.66667V31.7842H3.33333V28.4509H6.66667V24.9509C4.78439 24.5667 3.09267 23.5439 1.87782 22.0557C0.662972 20.5675 -0.000391918 18.7053 1.73714e-07 16.7842C1.73714e-07 14.5741 0.877974 12.4545 2.44078 10.8917C4.00358 9.32886 6.1232 8.45089 8.33333 8.45089C10 8.45089 11.6 8.95089 12.9167 9.83422L19.3 3.45089ZM8.33333 11.7842C7.00725 11.7842 5.73548 12.311 4.7978 13.2487C3.86012 14.1864 3.33333 15.4581 3.33333 16.7842C3.33333 18.1103 3.86012 19.3821 4.7978 20.3198C5.73548 21.2574 7.00725 21.7842 8.33333 21.7842C9.65942 21.7842 10.9312 21.2574 11.8689 20.3198C12.8065 19.3821 13.3333 18.1103 13.3333 16.7842C13.3333 15.4581 12.8065 14.1864 11.8689 13.2487C10.9312 12.311 9.65942 11.7842 8.33333 11.7842Z" fill="#EDFE79"/>
</svg>
