<svg width="10" height="13" viewBox="0 0 10 13" fill="none" xmlns="http://www.w3.org/2000/svg">
<path d="M8.5 0.972656H7.5C6.67156 0.972656 6 1.64422 6 2.44453V11.4445C6 12.273 6.67156 12.9445 7.5 12.9445L8.5 13.0008C9.32844 13.0008 10 12.3292 10 11.5008V2.50078C10 1.67234 9.32812 0.972656 8.5 0.972656ZM2.5 0.972656H1.5C0.671562 0.972656 0 1.64422 0 2.47266V11.4727C0 12.3289 0.671562 13.0008 1.5 13.0008H2.5C3.32844 13.0008 4 12.3292 4 11.5008V2.50078C4 1.67234 3.32812 0.972656 2.5 0.972656Z" fill="#EA4841"/>
</svg>
