<svg width="22" height="23" viewBox="0 0 22 23" fill="none" xmlns="http://www.w3.org/2000/svg">
<path d="M7.08555 1.912C6.75469 1.11279 5.88242 0.687395 5.04883 0.915129L1.26758 1.94638C0.519922 2.15263 0 2.83154 0 3.60497C0 14.2354 8.61953 22.855 19.25 22.855C20.0234 22.855 20.7023 22.3351 20.9086 21.5874L21.9398 17.8061C22.1676 16.9726 21.7422 16.1003 20.943 15.7694L16.818 14.0507C16.1176 13.7585 15.3055 13.9604 14.8285 14.5491L13.0926 16.6675C10.0676 15.2366 7.61836 12.7874 6.1875 9.76239L8.30586 8.03075C8.89453 7.5495 9.09648 6.74169 8.8043 6.0413L7.08555 1.9163V1.912Z" fill="#545454"/>
</svg>
