<svg width="24" height="24" viewBox="0 0 24 24" fill="none" xmlns="http://www.w3.org/2000/svg">
<path d="M16.7109 11.0391C17.0438 11.2453 17.25 11.6062 17.25 12C17.25 12.3938 17.0438 12.7547 16.7109 12.9609L9.96094 17.0859C9.61406 17.2969 9.17813 17.3062 8.82656 17.1047C8.47031 16.9078 8.25 16.5328 8.25 16.125V7.83281C8.25 7.46719 8.47031 7.09219 8.82656 6.89531C9.17813 6.69375 9.61406 6.66094 9.96094 6.91406L16.7109 11.0391ZM9.75 8.54531V15.4547L15.4078 11.9578L9.75 8.54531ZM0 12C0 5.37188 5.37188 0 12 0C18.6281 0 24 5.37188 24 12C24 18.6281 18.6281 24 12 24C5.37188 24 0 18.6281 0 12ZM12 22.5C17.7984 22.5 22.5 17.7984 22.5 12C22.5 6.20156 17.7984 1.5 12 1.5C6.20156 1.5 1.5 6.20156 1.5 12C1.5 17.7984 6.20156 22.5 12 22.5Z" fill="#181941"/>
</svg>
