<svg width="16" height="16" viewBox="0 0 16 16" fill="none" xmlns="http://www.w3.org/2000/svg">
<path d="M8.57129 1.28571C8.57129 0.971422 8.31415 0.714279 7.99986 0.714279C7.68557 0.714279 7.42843 0.971422 7.42843 1.28571V7.57142H1.14272C0.828432 7.57142 0.571289 7.82857 0.571289 8.14285C0.571289 8.45714 0.828432 8.71428 1.14272 8.71428H7.42843V15C7.42843 15.3143 7.68557 15.5714 7.99986 15.5714C8.31415 15.5714 8.57129 15.3143 8.57129 15V8.71428H14.857C15.1713 8.71428 15.4284 8.45714 15.4284 8.14285C15.4284 7.82857 15.1713 7.57142 14.857 7.57142H8.57129V1.28571Z" fill="#FEFEFE"/>
</svg>
