<svg width="32" height="32" viewBox="0 0 32 32" fill="none" xmlns="http://www.w3.org/2000/svg">
<rect width="32" height="32" rx="6" fill="#F3F3F3"/>
<path d="M17.3333 10.3333V5H10C8.89542 5 8 5.89542 8 7V24.3333C8 25.4375 8.89542 26.3333 10 26.3333H22C23.1046 26.3333 24 25.4379 24 24.3333V11.6667H18.7042C17.9292 11.6667 17.3333 11.0708 17.3333 10.3333ZM18.6667 5V10.3333H24L18.6667 5Z" fill="#20AF9E"/>
<path d="M12.6719 14C12.901 14 13.1159 14.0443 13.3164 14.1328C13.5169 14.2214 13.6914 14.3411 13.8398 14.4922C13.9909 14.6406 14.1094 14.8151 14.1953 15.0156C14.2839 15.2161 14.3281 15.4297 14.3281 15.6562C14.3281 15.888 14.2839 16.1055 14.1953 16.3086C14.1094 16.5117 13.9909 16.6888 13.8398 16.8398C13.6914 16.9883 13.5169 17.1055 13.3164 17.1914C13.1159 17.2773 12.901 17.3203 12.6719 17.3203H12.0625V19.0742C12.0625 19.1497 12.0482 19.2201 12.0195 19.2852C11.9935 19.3477 11.957 19.4023 11.9102 19.4492C11.8633 19.4961 11.8073 19.5339 11.7422 19.5625C11.6771 19.5885 11.6081 19.6016 11.5352 19.6016C11.4648 19.6016 11.3971 19.5885 11.332 19.5625C11.2669 19.5339 11.2096 19.4961 11.1602 19.4492C11.1107 19.4023 11.0716 19.3477 11.043 19.2852C11.0143 19.2201 11 19.1497 11 19.0742V14.5312C11 14.4583 11.0143 14.3893 11.043 14.3242C11.0716 14.2591 11.1107 14.2031 11.1602 14.1562C11.2096 14.1068 11.2669 14.069 11.332 14.043C11.3971 14.0143 11.4648 14 11.5352 14H12.6719ZM12.6719 16.2656C12.7526 16.2656 12.8294 16.25 12.9023 16.2188C12.9753 16.1849 13.0378 16.1406 13.0898 16.0859C13.1445 16.0312 13.1875 15.9674 13.2188 15.8945C13.25 15.819 13.2656 15.7396 13.2656 15.6562C13.2656 15.5729 13.25 15.4948 13.2188 15.4219C13.1875 15.349 13.1445 15.2865 13.0898 15.2344C13.0378 15.1797 12.9753 15.1367 12.9023 15.1055C12.8294 15.0742 12.7526 15.0586 12.6719 15.0586H12.0625V16.2656H12.6719Z" fill="white"/>
<path d="M16.5703 14C16.7995 14 17.0143 14.0443 17.2148 14.1328C17.4154 14.2214 17.5898 14.3411 17.7383 14.4922C17.8893 14.6406 18.0078 14.8151 18.0938 15.0156C18.1823 15.2161 18.2266 15.4297 18.2266 15.6562C18.2266 15.888 18.1823 16.1055 18.0938 16.3086C18.0078 16.5117 17.8893 16.6888 17.7383 16.8398C17.5898 16.9883 17.4154 17.1055 17.2148 17.1914C17.0143 17.2773 16.7995 17.3203 16.5703 17.3203H15.9609V19.0742C15.9609 19.1497 15.9466 19.2201 15.918 19.2852C15.8919 19.3477 15.8555 19.4023 15.8086 19.4492C15.7617 19.4961 15.7057 19.5339 15.6406 19.5625C15.5755 19.5885 15.5065 19.6016 15.4336 19.6016C15.3633 19.6016 15.2956 19.5885 15.2305 19.5625C15.1654 19.5339 15.1081 19.4961 15.0586 19.4492C15.0091 19.4023 14.9701 19.3477 14.9414 19.2852C14.9128 19.2201 14.8984 19.1497 14.8984 19.0742V14.5312C14.8984 14.4583 14.9128 14.3893 14.9414 14.3242C14.9701 14.2591 15.0091 14.2031 15.0586 14.1562C15.1081 14.1068 15.1654 14.069 15.2305 14.043C15.2956 14.0143 15.3633 14 15.4336 14H16.5703ZM16.5703 16.2656C16.651 16.2656 16.7279 16.25 16.8008 16.2188C16.8737 16.1849 16.9362 16.1406 16.9883 16.0859C17.043 16.0312 17.0859 15.9674 17.1172 15.8945C17.1484 15.819 17.1641 15.7396 17.1641 15.6562C17.1641 15.5729 17.1484 15.4948 17.1172 15.4219C17.0859 15.349 17.043 15.2865 16.9883 15.2344C16.9362 15.1797 16.8737 15.1367 16.8008 15.1055C16.7279 15.0742 16.651 15.0586 16.5703 15.0586H15.9609V16.2656H16.5703Z" fill="white"/>
<path d="M21.1641 14C21.237 14 21.306 14.0143 21.3711 14.043C21.4362 14.069 21.4935 14.1068 21.543 14.1562C21.5924 14.2031 21.6302 14.2591 21.6562 14.3242C21.6849 14.3893 21.6992 14.4583 21.6992 14.5312C21.6992 14.6016 21.6849 14.6693 21.6562 14.7344C21.6302 14.7969 21.5924 14.8529 21.543 14.9023C21.4935 14.9492 21.4362 14.987 21.3711 15.0156C21.306 15.0443 21.237 15.0586 21.1641 15.0586H20.6367V19.0742C20.6367 19.1497 20.6224 19.2201 20.5938 19.2852C20.5677 19.3477 20.5312 19.4023 20.4844 19.4492C20.4375 19.4961 20.3828 19.5339 20.3203 19.5625C20.2578 19.5885 20.1901 19.6016 20.1172 19.6016C20.0417 19.6016 19.9701 19.5885 19.9023 19.5625C19.8372 19.5339 19.7799 19.4961 19.7305 19.4492C19.681 19.4023 19.6419 19.3477 19.6133 19.2852C19.5872 19.2201 19.5742 19.1497 19.5742 19.0742V15.0586H19.0273C18.957 15.0586 18.8906 15.0443 18.8281 15.0156C18.7656 14.987 18.7096 14.9492 18.6602 14.9023C18.6107 14.8529 18.5716 14.7969 18.543 14.7344C18.5143 14.6693 18.5 14.6016 18.5 14.5312C18.5 14.4583 18.5143 14.3893 18.543 14.3242C18.5716 14.2591 18.6107 14.2031 18.6602 14.1562C18.7096 14.1068 18.7656 14.069 18.8281 14.043C18.8906 14.0143 18.957 14 19.0273 14H21.1641Z" fill="white"/>
</svg>
