<svg width="14" height="14" viewBox="0 0 14 14" fill="none" xmlns="http://www.w3.org/2000/svg">
<path d="M5.65732 3.92188C5.38976 3.92188 5.17285 4.13878 5.17285 4.40634C5.17285 4.67391 5.38976 4.89081 5.65732 4.89081H10.825C11.0926 4.89081 11.3095 4.67391 11.3095 4.40634C11.3095 4.13878 11.0926 3.92188 10.825 3.92188H5.65732Z" fill="#434343"/>
<path d="M5.17285 6.99228C5.17285 6.72473 5.38976 6.50781 5.65732 6.50781H10.825C11.0926 6.50781 11.3095 6.72473 11.3095 6.99228C11.3095 7.25984 11.0926 7.47675 10.825 7.47675H5.65732C5.38976 7.47675 5.17285 7.25984 5.17285 6.99228Z" fill="#434343"/>
<path d="M5.65732 9.09375C5.38976 9.09375 5.17285 9.31066 5.17285 9.57822C5.17285 9.84578 5.38976 10.0627 5.65732 10.0627H9.53308C9.80063 10.0627 10.0175 9.84578 10.0175 9.57822C10.0175 9.31066 9.80063 9.09375 9.53308 9.09375H5.65732Z" fill="#434343"/>
<path fill-rule="evenodd" clip-rule="evenodd" d="M0.652344 1.82326C0.652344 0.842193 1.44766 0.046875 2.42873 0.046875H11.4722C12.4532 0.046875 13.2486 0.842193 13.2486 1.82326V12.1586C13.2486 13.1397 12.4532 13.935 11.4722 13.935H5.01257C4.0315 13.935 3.23618 13.1397 3.23618 12.1586V6.18349H2.42873C1.44766 6.18349 0.652344 5.38817 0.652344 4.4071V1.82326ZM4.20512 1.01581H11.4722C11.9181 1.01581 12.2796 1.37732 12.2796 1.82326V12.1586C12.2796 12.6046 11.9181 12.9661 11.4722 12.9661H5.01257C4.56663 12.9661 4.20512 12.6046 4.20512 12.1586V1.01581ZM2.42873 1.01581H3.23618V5.21455H2.42873C1.98279 5.21455 1.62128 4.85305 1.62128 4.4071V1.82326C1.62128 1.37732 1.98279 1.01581 2.42873 1.01581Z" fill="#434343"/>
</svg>
