<svg width="32" height="43" viewBox="0 0 32 43" fill="none" xmlns="http://www.w3.org/2000/svg">
<path d="M30.7692 7.58576C23.9568 7.58576 16.8967 1.27101 16.8268 1.20775C16.3576 0.782313 15.6423 0.782313 15.1732 1.20775C15.1029 1.2715 8.06137 7.58576 1.23077 7.58576C0.551056 7.58576 0 8.13682 0 8.81653V23.5561C0 35.4965 8.8809 40.2678 15.561 42.818C15.7024 42.872 15.8512 42.8989 16 42.8989C16.1488 42.8989 16.2976 42.8719 16.439 42.818C25.8055 39.2422 32 33.6644 32 23.5561V8.81653C32 8.13682 31.4489 7.58576 30.7692 7.58576V7.58576Z" fill="url(#paint0_linear_6067_18016)"/>
<path d="M16.0021 13.2734C11.2516 13.2734 7.38672 17.1383 7.38672 21.8888C7.38672 26.6393 11.2516 30.5042 16.0021 30.5042C20.7526 30.5042 24.6175 26.6393 24.6175 21.8888C24.6175 17.1383 20.7526 13.2734 16.0021 13.2734ZM19.3339 21.5283L15.6416 25.2206C15.4013 25.4609 15.0863 25.5811 14.7713 25.5811C14.4563 25.5811 14.1413 25.461 13.9011 25.2206L12.6703 23.9898C12.1897 23.5092 12.1897 22.7299 12.6703 22.2493C13.1509 21.7686 13.9302 21.7686 14.4109 22.2493L14.7714 22.6097L17.5935 19.7877C18.0741 19.3071 18.8534 19.3071 19.334 19.7877C19.8146 20.2684 19.8146 21.0476 19.3339 21.5283Z" fill="url(#paint1_linear_6067_18016)"/>
<defs>
<linearGradient id="paint0_linear_6067_18016" x1="16" y1="42.8989" x2="16" y2="0.888652" gradientUnits="userSpaceOnUse">
<stop stop-color="#00B59C"/>
<stop offset="1" stop-color="#9CFFAC"/>
</linearGradient>
<linearGradient id="paint1_linear_6067_18016" x1="16.0021" y1="30.5042" x2="16.0021" y2="13.2734" gradientUnits="userSpaceOnUse">
<stop stop-color="#C3FFE8"/>
<stop offset="0.9973" stop-color="#F0FFF4"/>
</linearGradient>
</defs>
</svg>
