<svg width="24" height="19" viewBox="0 0 24 19" fill="none" xmlns="http://www.w3.org/2000/svg">
<path d="M17.3341 9.56713C17.3341 12.5131 14.9465 14.9007 12.0005 14.9007C9.05456 14.9007 6.66696 12.5131 6.66696 9.56713C6.66696 6.62117 9.05456 4.23357 12.0005 4.23357C14.9465 4.23357 17.3341 6.62117 17.3341 9.56713ZM12.0005 5.56696C9.75459 5.56696 8.00035 7.3212 8.00035 9.56713C8.00035 11.7756 9.75459 13.5673 12.0005 13.5673C14.209 13.5673 16.0007 11.7756 16.0007 9.56713C16.0007 7.3212 14.209 5.56696 12.0005 5.56696ZM20.0259 3.59188C21.976 5.40029 23.2802 7.52955 23.8969 9.05461C24.0344 9.38379 24.0344 9.75048 23.8969 10.0797C23.2802 11.5672 21.976 13.6965 20.0259 15.5424C18.0633 17.3675 15.3673 18.9009 12.0005 18.9009C8.63371 18.9009 5.93776 17.3675 3.97601 15.5424C2.02593 13.6965 0.722536 11.5672 0.102551 10.0797C-0.0341838 9.75048 -0.0341838 9.38379 0.102551 9.05461C0.722536 7.52955 2.02593 5.40029 3.97601 3.59188C5.93776 1.76846 8.63371 0.233398 12.0005 0.233398C15.3673 0.233398 18.0633 1.76846 20.0259 3.59188ZM1.3334 9.56713C1.88884 10.9005 3.08889 12.9006 4.88355 14.5674C6.67946 16.2341 9.06706 17.5675 12.0005 17.5675C14.934 17.5675 17.3216 16.2341 19.1175 14.5674C20.9134 12.9006 22.1135 10.9005 22.6677 9.56713C22.1135 8.19624 20.9134 6.19616 19.1175 4.56692C17.3216 2.89976 14.934 1.56679 12.0005 1.56679C9.06706 1.56679 6.67946 2.89976 4.88355 4.56692C3.08889 6.19616 1.88884 8.19624 1.3334 9.56713Z" fill="#0A0A2F"/>
</svg>
