<svg width="17" height="18" viewBox="0 0 17 18" fill="none" xmlns="http://www.w3.org/2000/svg">
<path d="M8.5 9C10.9855 9 13 6.9852 13 4.5C13 2.0148 10.9855 0 8.5 0C6.01445 0 4 2.0148 4 4.5C4 6.9852 6.01445 9 8.5 9ZM8.5 1.125C10.3612 1.125 11.875 2.63883 11.875 4.5C11.875 6.36082 10.3612 7.875 8.5 7.875C6.63883 7.875 5.125 6.35977 5.125 4.5C5.125 2.63883 6.64023 1.125 8.5 1.125ZM10.2824 10.6875H6.71758C3.35348 10.6875 0.625 13.4156 0.625 16.7801C0.625 17.453 1.17063 17.9989 1.84352 17.9989H15.1572C15.8301 18 16.375 17.4551 16.375 16.7801C16.375 13.4156 13.6469 10.6875 10.2824 10.6875ZM15.1551 16.875H1.84352C1.79219 16.875 1.75 16.8328 1.75 16.7801C1.75 14.0414 3.97891 11.8125 6.71758 11.8125H10.2789C13.0211 11.8125 15.25 14.0414 15.25 16.7801C15.25 16.8328 15.2078 16.875 15.1551 16.875Z" fill="black"/>
</svg>
