<svg width="21" height="22" viewBox="0 0 21 22" fill="none" xmlns="http://www.w3.org/2000/svg">
<path d="M8.625 6.25C8.21079 6.25 7.875 6.58579 7.875 7C7.875 7.41421 8.21079 7.75 8.625 7.75H16.625C17.0392 7.75 17.375 7.41421 17.375 7C17.375 6.58579 17.0392 6.25 16.625 6.25H8.625Z" fill="#616180"/>
<path d="M7.875 11C7.875 10.5858 8.21079 10.25 8.625 10.25H16.625C17.0392 10.25 17.375 10.5858 17.375 11C17.375 11.4142 17.0392 11.75 16.625 11.75H8.625C8.21079 11.75 7.875 11.4142 7.875 11Z" fill="#616180"/>
<path d="M8.625 14.25C8.21079 14.25 7.875 14.5858 7.875 15C7.875 15.4142 8.21079 15.75 8.625 15.75H14.625C15.0392 15.75 15.375 15.4142 15.375 15C15.375 14.5858 15.0392 14.25 14.625 14.25H8.625Z" fill="#616180"/>
<path fill-rule="evenodd" clip-rule="evenodd" d="M0.875 3C0.875 1.48122 2.10622 0.25 3.625 0.25H17.625C19.1438 0.25 20.375 1.48122 20.375 3V19C20.375 20.5188 19.1438 21.75 17.625 21.75H7.625C6.10622 21.75 4.875 20.5188 4.875 19V9.75H3.625C2.10622 9.75 0.875 8.51878 0.875 7V3ZM6.375 1.75H17.625C18.3154 1.75 18.875 2.30964 18.875 3V19C18.875 19.6904 18.3154 20.25 17.625 20.25H7.625C6.93464 20.25 6.375 19.6904 6.375 19V1.75ZM3.625 1.75H4.875V8.25H3.625C2.93464 8.25 2.375 7.69036 2.375 7V3C2.375 2.30964 2.93464 1.75 3.625 1.75Z" fill="#616180"/>
</svg>
