<svg width="24" height="25" viewBox="0 0 24 25" fill="none" xmlns="http://www.w3.org/2000/svg">
<path d="M11.9946 0.579623C16.252 0.579623 20.1268 2.81677 22.2857 6.44034V1.43087C22.2857 0.957302 22.6714 0.57373 23.1429 0.57373C23.6143 0.57373 24 0.957302 24 1.43087V8.28802C24 8.75945 23.6143 9.14516 23.1429 9.14516H16.2857C15.8143 9.14516 15.4286 8.75945 15.4286 8.28802C15.4286 7.81659 15.8143 7.43087 16.2857 7.43087H20.8848C19.0446 4.25409 15.6911 2.28802 12 2.28802C6.32679 2.28802 1.71429 6.90052 1.71429 12.5737C1.71429 18.2469 6.32839 22.8594 12 22.8594C15.1864 22.8594 18.1446 21.4178 20.1054 18.9037C20.3967 18.5287 20.9346 18.4601 21.3091 18.7564C21.6816 19.0477 21.7477 19.5868 21.4564 19.9586C19.1636 22.8916 15.7082 24.5684 11.9904 24.5684C5.37857 24.5684 0 19.1898 0 12.5737C0 5.95766 5.37857 0.579623 11.9946 0.579623Z" fill="#181941"/>
</svg>
