<svg width="25" height="24" viewBox="0 0 25 24" fill="none" xmlns="http://www.w3.org/2000/svg">
<path d="M12.496 3.00442C15.689 3.00442 18.5951 4.68228 20.2143 7.39996V3.64286C20.2143 3.28768 20.5036 3 20.8571 3C21.2107 3 21.5 3.28768 21.5 3.64286V8.78571C21.5 9.13929 21.2107 9.42857 20.8571 9.42857H15.7143C15.3607 9.42857 15.0714 9.13929 15.0714 8.78571C15.0714 8.43214 15.3607 8.14286 15.7143 8.14286H19.1636C17.7835 5.76027 15.2683 4.28571 12.5 4.28571C8.24509 4.28571 4.78571 7.74509 4.78571 12C4.78571 16.2549 8.24629 19.7143 12.5 19.7143C14.8898 19.7143 17.1085 18.6331 18.579 16.7475C18.7975 16.4663 19.201 16.4148 19.4818 16.637C19.7612 16.8555 19.8108 17.2598 19.5923 17.5386C17.8727 19.7384 15.2812 20.996 12.4928 20.996C7.53393 20.996 3.5 16.9621 3.5 12C3.5 7.03795 7.53393 3.00442 12.496 3.00442Z" fill="#2D2D53"/>
</svg>
