<svg width="17" height="16" viewBox="0 0 17 16" fill="none" xmlns="http://www.w3.org/2000/svg">
<path d="M8.5 3.15625L9.7125 1.21781C10.1844 0.460313 11.0156 0 11.9094 0H12C13.3813 0 14.5 1.11937 14.5 2.5C14.5 3.06281 14.3125 3.58125 14 4H15C15.8281 4 16.5 4.67188 16.5 5.5V7.5C16.5 8.15312 16.0813 8.70937 15.5 8.91562V14C15.5 15.1031 14.6031 16 13.5 16H3.5C2.39531 16 1.5 15.1031 1.5 14V8.91562C0.9175 8.70937 0.5 8.15312 0.5 7.5V5.5C0.5 4.67188 1.17156 4 2 4H2.99969C2.68594 3.58125 2.5 3.06281 2.5 2.5C2.5 1.11937 3.61937 0 5 0H5.09062C5.98438 0 6.81562 0.460313 7.2875 1.21781L8.5 3.15625ZM11.9094 1C11.3594 1 10.85 1.2825 10.5594 1.74781L9.15312 4H12C12.8281 4 13.5 3.32812 13.5 2.5C13.5 1.67156 12.8281 1 12 1H11.9094ZM7.84688 4L6.44063 1.74781C6.15 1.2825 5.64062 1 5.09062 1H5C4.17188 1 3.5 1.67156 3.5 2.5C3.5 3.32812 4.17188 4 5 4H7.84688ZM2 5C1.72375 5 1.5 5.225 1.5 5.5V7.5C1.5 7.775 1.72375 8 2 8H8V5H2ZM9 8H15C15.275 8 15.5 7.775 15.5 7.5V5.5C15.5 5.225 15.275 5 15 5H9V8ZM8 9H2.5V14C2.5 14.5531 2.94781 15 3.5 15H8V9ZM9 15H13.5C14.0531 15 14.5 14.5531 14.5 14V9H9V15Z" fill="white"/>
</svg>
