<svg width="24" height="24" viewBox="0 0 24 24" fill="none" xmlns="http://www.w3.org/2000/svg">
<path d="M20.8339 20.0394L15.8595 15.065C16.9563 13.7854 17.5926 12.1296 17.5926 10.3121C17.5926 6.27288 14.3187 3 10.2805 3C6.2423 3 3 6.27393 3 10.3121C3 14.3503 6.27359 17.6242 10.2805 17.6242C12.0973 17.6242 13.7555 16.9577 15.0334 15.8613L20.0077 20.8356C20.1483 20.9428 20.2925 20.9991 20.4366 20.9991C20.5807 20.9991 20.7245 20.9442 20.8342 20.8343C21.0553 20.6159 21.0553 20.2573 20.8339 20.0394ZM10.3121 16.4993C6.87051 16.4993 4.12495 13.7221 4.12495 10.3121C4.12495 6.90214 6.87051 4.12494 10.3121 4.12494C13.7537 4.12494 16.4993 6.8705 16.4993 10.3121C16.4993 13.7537 13.7221 16.4993 10.3121 16.4993Z" fill="#616180"/>
</svg>
