<svg width="24" height="24" viewBox="0 0 24 24" fill="none" xmlns="http://www.w3.org/2000/svg">
<g clip-path="url(#clip0_1072_4423)">
<path d="M20.318 10.9664L4.56797 4.21605C4.42523 4.15488 4.27477 4.09335 4.1257 4.09335C3.82255 4.09335 3.52453 4.21637 3.30656 4.44667C2.98248 4.82144 2.90779 5.33085 3.11872 5.75308L6.375 12L3.11883 18.2473C2.90789 18.6698 2.9826 19.1789 3.3067 19.5224C3.52425 19.7525 3.82209 19.8757 4.12514 19.8757C4.27455 19.8757 4.42506 19.846 4.56776 19.7845L20.318 13.0336C20.7321 12.8567 21.0003 12.4496 21.0003 11.9996C20.9683 11.55 20.7328 11.1422 20.318 10.9664ZM4.1243 5.25105C4.12465 5.25035 4.12359 5.2514 4.1243 5.25105L18.5637 11.4375H7.34883L4.1243 5.25105ZM4.11621 18.7676L7.34883 12.5625H18.532L4.11621 18.7676Z" fill="#2020ED"/>
</g>
<defs>
<clipPath id="clip0_1072_4423">
<rect width="18" height="18" fill="white" transform="translate(3 3)"/>
</clipPath>
</defs>
</svg>
