<svg width="32" height="32" viewBox="0 0 32 32" fill="none" xmlns="http://www.w3.org/2000/svg">
<path d="M12.177 15.9578C12.177 13.7219 14.0239 11.8328 16.302 11.8328C18.5802 11.8328 20.427 13.7219 20.427 15.9578C20.427 18.2781 18.5802 20.125 16.302 20.125C14.0239 20.125 12.177 18.2781 12.177 15.9578ZM16.302 13.3328C14.8536 13.3328 13.677 14.5516 13.677 15.9578C13.677 17.4484 14.8536 18.5828 16.302 18.5828C17.7505 18.5828 18.927 17.4484 18.927 15.9578C18.927 14.5516 17.7505 13.3328 16.302 13.3328ZM7.38031 14.8094L5.48985 13.0844C4.9686 12.6109 4.8486 11.8375 5.2011 11.2281L6.6186 8.77188C6.9711 8.16156 7.70094 7.87891 8.37266 8.09312L10.8083 8.87031C11.4364 8.38562 12.1302 7.9825 12.8708 7.67641L13.4192 5.17937C13.5692 4.49078 14.1786 4 14.8864 4H17.7177C18.4255 4 19.0348 4.49078 19.1848 5.17937L19.7333 7.67641C20.4317 7.9825 21.1677 8.38562 21.7958 8.87031L24.2333 8.09312C24.9036 7.87891 25.6348 8.16156 25.9864 8.77188L27.402 11.2281C27.7536 11.8375 27.6364 12.6109 27.1161 13.0844L25.2223 14.8094C25.2739 15.1984 25.302 15.5969 25.302 15.9578C25.302 16.4031 25.2739 16.8016 25.2223 17.1906L27.1161 18.9156C27.6364 19.3891 27.7536 20.1625 27.402 20.7719L25.9864 23.2281C25.6348 23.8375 24.9036 24.1188 24.2333 23.9078L21.7958 23.1297C21.1677 23.6125 20.4317 24.0156 19.7333 24.325L19.1848 26.8187C19.0348 27.5078 18.4255 28 17.7177 28H14.8864C14.1786 28 13.5692 27.5078 13.4192 26.8187L12.8708 24.325C12.1302 24.0156 11.4364 23.6125 10.8083 23.1297L8.37266 23.9078C7.70094 24.1188 6.9711 23.8375 6.6186 23.2281L5.2011 20.7719C4.8486 20.1625 4.9686 19.3891 5.48985 18.9156L7.38031 17.1906C7.32875 16.8016 7.30203 16.4031 7.30203 15.9578C7.30203 15.5969 7.32875 15.1984 7.38031 14.8094ZM11.727 10.0562L11.1036 10.5391L7.9175 9.52188L6.5 11.9781L8.96985 14.2281L8.86719 15.0063C8.82406 15.3297 8.80203 15.6625 8.80203 15.9578C8.80203 16.3375 8.82406 16.6703 8.86719 16.9938L8.96985 17.7719L6.5 20.0219L7.9175 22.4781L11.1036 21.4609L11.727 21.9437C12.2473 22.3469 12.8286 22.6844 13.4427 22.8953L14.1692 23.2375L14.8864 26.5H17.7177L18.4348 23.2375L19.1192 22.8953C19.7755 22.6844 20.3567 22.3469 20.877 21.9437L21.5005 21.4609L24.688 22.4781L26.1036 20.0219L23.6333 17.7719L23.7364 16.9938C23.7786 16.6703 23.802 16.3375 23.802 16C23.802 15.6625 23.7786 15.3297 23.7364 15.0063L23.6333 14.2281L26.1036 11.9781L24.688 9.52188L21.5005 10.5391L20.877 10.0562C20.3567 9.65312 19.7755 9.31563 19.1192 9.0625L18.4348 8.7625L17.7177 5.5H14.8864L14.1692 8.7625L13.4427 9.0625C12.8286 9.31563 12.2473 9.65312 11.727 10.0562Z" fill="white"/>
<rect x="16" y="16" width="16" height="16" rx="8" fill="#EA4841"/>
<path d="M21.25 27.5C20.0073 27.5 19 26.4922 19 25.25C19 24.2687 19.6277 23.4344 20.5031 23.1266C20.5011 23.0844 20.5 23.0422 20.5 23C20.5 21.6187 21.6188 20.5 23 20.5C23.9266 20.5 24.7344 21.0039 25.1672 21.7531C25.4047 21.5797 25.6922 21.5 26 21.5C26.8281 21.5 27.5 22.1578 27.5 23C27.5 23.1906 27.4641 23.3719 27.4 23.5406C28.3125 23.725 29 24.5328 29 25.5C29 26.6047 28.1047 27.5 27 27.5H21.25ZM22.7344 23.7516L23.4703 24.4859L22.7344 25.2344C22.5891 25.3812 22.5891 25.6187 22.7344 25.7516C22.8812 25.9109 23.1188 25.9109 23.2516 25.7516L23.9859 25.0297L24.7344 25.7516C24.8812 25.9109 25.1188 25.9109 25.2516 25.7516C25.4109 25.6187 25.4109 25.3812 25.2516 25.2344L24.5297 24.4859L25.2516 23.7516C25.4109 23.6187 25.4109 23.3812 25.2516 23.2344C25.1188 23.0891 24.8812 23.0891 24.7344 23.2344L23.9859 23.9703L23.2516 23.2344C23.1188 23.0891 22.8812 23.0891 22.7344 23.2344C22.5891 23.3812 22.5891 23.6187 22.7344 23.7516Z" fill="white"/>
</svg>
