<svg width="23" height="24" viewBox="0 0 23 24" fill="none" xmlns="http://www.w3.org/2000/svg">
<path d="M7.17703 11.9578C7.17703 9.72188 9.02391 7.83281 11.302 7.83281C13.5802 7.83281 15.427 9.72188 15.427 11.9578C15.427 14.2781 13.5802 16.125 11.302 16.125C9.02391 16.125 7.17703 14.2781 7.17703 11.9578ZM11.302 9.33281C9.85359 9.33281 8.67703 10.5516 8.67703 11.9578C8.67703 13.4484 9.85359 14.5828 11.302 14.5828C12.7505 14.5828 13.927 13.4484 13.927 11.9578C13.927 10.5516 12.7505 9.33281 11.302 9.33281ZM2.38031 10.8094L0.489846 9.08438C-0.0314045 8.61094 -0.151404 7.8375 0.201096 7.22812L1.6186 4.77188C1.9711 4.16156 2.70094 3.87891 3.37266 4.09312L5.80828 4.87031C6.43641 4.38562 7.13016 3.9825 7.87078 3.67641L8.41922 1.17937C8.56922 0.490781 9.1786 0 9.88641 0H12.7177C13.4255 0 14.0348 0.490781 14.1848 1.17937L14.7333 3.67641C15.4317 3.9825 16.1677 4.38562 16.7958 4.87031L19.2333 4.09312C19.9036 3.87891 20.6348 4.16156 20.9864 4.77188L22.402 7.22812C22.7536 7.8375 22.6364 8.61094 22.1161 9.08438L20.2223 10.8094C20.2739 11.1984 20.302 11.5969 20.302 11.9578C20.302 12.4031 20.2739 12.8016 20.2223 13.1906L22.1161 14.9156C22.6364 15.3891 22.7536 16.1625 22.402 16.7719L20.9864 19.2281C20.6348 19.8375 19.9036 20.1188 19.2333 19.9078L16.7958 19.1297C16.1677 19.6125 15.4317 20.0156 14.7333 20.325L14.1848 22.8187C14.0348 23.5078 13.4255 24 12.7177 24H9.88641C9.1786 24 8.56922 23.5078 8.41922 22.8187L7.87078 20.325C7.13016 20.0156 6.43641 19.6125 5.80828 19.1297L3.37266 19.9078C2.70094 20.1188 1.9711 19.8375 1.6186 19.2281L0.201096 16.7719C-0.151404 16.1625 -0.0314045 15.3891 0.489846 14.9156L2.38031 13.1906C2.32875 12.8016 2.30203 12.4031 2.30203 11.9578C2.30203 11.5969 2.32875 11.1984 2.38031 10.8094ZM6.72703 6.05625L6.1036 6.53906L2.9175 5.52188L1.5 7.97812L3.96985 10.2281L3.86719 11.0063C3.82406 11.3297 3.80203 11.6625 3.80203 11.9578C3.80203 12.3375 3.82406 12.6703 3.86719 12.9938L3.96985 13.7719L1.5 16.0219L2.9175 18.4781L6.1036 17.4609L6.72703 17.9437C7.24734 18.3469 7.8286 18.6844 8.44266 18.8953L9.16922 19.2375L9.88641 22.5H12.7177L13.4348 19.2375L14.1192 18.8953C14.7755 18.6844 15.3567 18.3469 15.877 17.9437L16.5005 17.4609L19.688 18.4781L21.1036 16.0219L18.6333 13.7719L18.7364 12.9938C18.7786 12.6703 18.802 12.3375 18.802 12C18.802 11.6625 18.7786 11.3297 18.7364 11.0063L18.6333 10.2281L21.1036 7.97812L19.688 5.52188L16.5005 6.53906L15.877 6.05625C15.3567 5.65312 14.7755 5.31563 14.1192 5.0625L13.4348 4.7625L12.7177 1.5H9.88641L9.16922 4.7625L8.44266 5.0625C7.8286 5.31563 7.24734 5.65312 6.72703 6.05625Z" fill="#616180"/>
</svg>
