<svg width="33" height="32" viewBox="0 0 33 32" fill="none" xmlns="http://www.w3.org/2000/svg">
<path d="M12.677 15.9578C12.677 13.7219 14.5239 11.8328 16.802 11.8328C19.0802 11.8328 20.927 13.7219 20.927 15.9578C20.927 18.2781 19.0802 20.125 16.802 20.125C14.5239 20.125 12.677 18.2781 12.677 15.9578ZM16.802 13.3328C15.3536 13.3328 14.177 14.5516 14.177 15.9578C14.177 17.4484 15.3536 18.5828 16.802 18.5828C18.2505 18.5828 19.427 17.4484 19.427 15.9578C19.427 14.5516 18.2505 13.3328 16.802 13.3328ZM7.88031 14.8094L5.98985 13.0844C5.4686 12.6109 5.3486 11.8375 5.7011 11.2281L7.1186 8.77188C7.4711 8.16156 8.20094 7.87891 8.87266 8.09312L11.3083 8.87031C11.9364 8.38562 12.6302 7.9825 13.3708 7.67641L13.9192 5.17937C14.0692 4.49078 14.6786 4 15.3864 4H18.2177C18.9255 4 19.5348 4.49078 19.6848 5.17937L20.2333 7.67641C20.9317 7.9825 21.6677 8.38562 22.2958 8.87031L24.7333 8.09312C25.4036 7.87891 26.1348 8.16156 26.4864 8.77188L27.902 11.2281C28.2536 11.8375 28.1364 12.6109 27.6161 13.0844L25.7223 14.8094C25.7739 15.1984 25.802 15.5969 25.802 15.9578C25.802 16.4031 25.7739 16.8016 25.7223 17.1906L27.6161 18.9156C28.1364 19.3891 28.2536 20.1625 27.902 20.7719L26.4864 23.2281C26.1348 23.8375 25.4036 24.1188 24.7333 23.9078L22.2958 23.1297C21.6677 23.6125 20.9317 24.0156 20.2333 24.325L19.6848 26.8187C19.5348 27.5078 18.9255 28 18.2177 28H15.3864C14.6786 28 14.0692 27.5078 13.9192 26.8187L13.3708 24.325C12.6302 24.0156 11.9364 23.6125 11.3083 23.1297L8.87266 23.9078C8.20094 24.1188 7.4711 23.8375 7.1186 23.2281L5.7011 20.7719C5.3486 20.1625 5.4686 19.3891 5.98985 18.9156L7.88031 17.1906C7.82875 16.8016 7.80203 16.4031 7.80203 15.9578C7.80203 15.5969 7.82875 15.1984 7.88031 14.8094ZM12.227 10.0562L11.6036 10.5391L8.4175 9.52188L7 11.9781L9.46985 14.2281L9.36719 15.0063C9.32406 15.3297 9.30203 15.6625 9.30203 15.9578C9.30203 16.3375 9.32406 16.6703 9.36719 16.9938L9.46985 17.7719L7 20.0219L8.4175 22.4781L11.6036 21.4609L12.227 21.9437C12.7473 22.3469 13.3286 22.6844 13.9427 22.8953L14.6692 23.2375L15.3864 26.5H18.2177L18.9348 23.2375L19.6192 22.8953C20.2755 22.6844 20.8567 22.3469 21.377 21.9437L22.0005 21.4609L25.188 22.4781L26.6036 20.0219L24.1333 17.7719L24.2364 16.9938C24.2786 16.6703 24.302 16.3375 24.302 16C24.302 15.6625 24.2786 15.3297 24.2364 15.0063L24.1333 14.2281L26.6036 11.9781L25.188 9.52188L22.0005 10.5391L21.377 10.0562C20.8567 9.65312 20.2755 9.31563 19.6192 9.0625L18.9348 8.7625L18.2177 5.5H15.3864L14.6692 8.7625L13.9427 9.0625C13.3286 9.31563 12.7473 9.65312 12.227 10.0562Z" fill="#616180"/>
</svg>
