<svg width="32" height="32" viewBox="0 0 32 32" fill="none" xmlns="http://www.w3.org/2000/svg">
<circle cx="16" cy="16" r="15.5" fill="white" stroke="#B8B8CD"/>
<path d="M20.5469 13.4688H19.7031C19.4711 13.4688 19.2812 13.6586 19.2812 13.8906C19.2812 14.1227 19.4711 14.3125 19.7031 14.3125H20.5469C20.7789 14.3125 20.9687 14.5023 20.9687 14.7344V21.4844C20.9687 21.7167 20.7792 21.9063 20.5469 21.9063H11.2656C11.0333 21.9063 10.8437 21.7164 10.8437 21.4844V14.7344C10.8437 14.5023 11.0333 14.3125 11.2656 14.3125H12.1094C12.3414 14.3125 12.5312 14.1227 12.5312 13.8906C12.5312 13.6586 12.3414 13.4688 12.1094 13.4688H11.2656C10.5677 13.4688 10 14.0356 10 14.7344V21.4844C10 22.1831 10.5677 22.75 11.2656 22.75H20.5469C21.2448 22.75 21.8125 22.1823 21.8125 21.4844V14.7344C21.8125 14.0356 21.2456 13.4688 20.5469 13.4688ZM13.375 12.625C13.4829 12.625 13.5909 12.5838 13.6732 12.5014L15.4844 10.6904V18.1094C15.4844 18.3426 15.6731 18.5318 15.9062 18.5318C16.1394 18.5318 16.3281 18.3414 16.3281 18.1094V10.6904L18.1393 12.5016C18.2213 12.5828 18.3294 12.625 18.4375 12.625C18.6785 12.625 18.8594 12.428 18.8594 12.2031C18.8594 12.0952 18.8182 11.9872 18.7358 11.9049L16.2045 9.37367C16.1225 9.29119 16.0144 9.25 15.9062 9.25C15.7981 9.25 15.69 9.29119 15.6083 9.37361L13.077 11.9049C12.9953 11.9869 12.9531 12.095 12.9531 12.2031C12.9531 12.4273 13.1351 12.625 13.375 12.625Z" fill="#2020ED" stroke="#2020ED" stroke-width="0.35"/>
</svg>
