<svg width="24" height="19" viewBox="0 0 24 19" fill="none" xmlns="http://www.w3.org/2000/svg">
<path d="M8.25 8.073H21.1781L13.7672 1.89956C13.4493 1.63444 13.4068 1.16128 13.672 0.843467C13.9386 0.524155 14.4117 0.483139 14.7281 0.748264L23.7281 8.20608C23.9016 8.39175 24 8.598 24 8.78081C24 9.00347 23.9018 9.21455 23.7305 9.35644L14.7305 16.8142C14.5898 16.9314 14.4199 16.9886 14.25 16.9886C14.0362 16.9886 13.8223 16.8963 13.6744 16.719C13.4093 16.4012 13.4517 15.9283 13.7696 15.663L21.1805 9.48951H8.25C4.52766 9.48951 1.5 12.5172 1.5 16.1973V17.6551C1.5 18.2355 1.16438 18.573 0.75 18.573C0.335625 18.573 0 18.2355 0 17.823V16.3652C0 11.7339 3.70172 8.073 8.25 8.073Z" fill="#181941"/>
</svg>
