<svg width="20" height="20" viewBox="0 0 20 20" fill="none" xmlns="http://www.w3.org/2000/svg">
<path d="M9.4709 14.2969C9.4709 14.6283 9.73952 14.8969 10.0709 14.8969C10.4023 14.8969 10.6709 14.6283 10.6709 14.2969V3.41194L13.5995 6.34048C13.8338 6.5748 14.2137 6.5748 14.448 6.34048C14.6823 6.10618 14.6823 5.72628 14.448 5.49196L10.503 1.54695C10.3873 1.43124 10.236 1.37267 10.0844 1.37124C10.0799 1.37114 10.0754 1.37109 10.0709 1.37109C10.0621 1.37109 10.0533 1.37129 10.0445 1.37166C9.88342 1.36554 9.7203 1.42397 9.5973 1.54696L5.6523 5.49196C5.41798 5.72628 5.41798 6.10618 5.6523 6.3405C5.88662 6.57482 6.26652 6.57482 6.50082 6.3405L9.4709 3.37042V14.2969Z" fill="white"/>
<path d="M2.77423 11.4359C2.77423 11.1046 2.50559 10.8359 2.17423 10.8359C1.84285 10.8359 1.57422 11.1046 1.57422 11.4359V16.0329C1.57422 17.4688 2.73829 18.6329 4.17423 18.6329H15.8269C17.2628 18.6329 18.4269 17.4688 18.4269 16.0329V11.4359C18.4269 11.1046 18.1582 10.8359 17.8269 10.8359C17.4955 10.8359 17.2269 11.1046 17.2269 11.4359V16.0329C17.2269 16.8061 16.6001 17.4329 15.8269 17.4329H4.17423C3.40103 17.4329 2.77423 16.8061 2.77423 16.0329V11.4359Z" fill="white"/>
</svg>
