<svg width="68" height="31" viewBox="0 0 68 31" fill="none" xmlns="http://www.w3.org/2000/svg">
<rect width="67.8419" height="30.5617" rx="6.11234" fill="white"/>
<path d="M11.4707 18.3641C11.029 18.3641 10.6481 18.2812 10.3279 18.1156C10.0077 17.9445 9.72612 17.7071 9.48321 17.4034L9.90555 16.9894C10.0988 17.2599 10.3224 17.4614 10.5763 17.5939C10.8358 17.7264 11.1422 17.7927 11.4955 17.7927C11.8599 17.7927 12.1553 17.7098 12.3816 17.5442C12.608 17.3786 12.7212 17.1495 12.7212 16.8569C12.7212 16.6305 12.6687 16.4456 12.5638 16.302C12.4589 16.153 12.3209 16.0343 12.1498 15.9459C11.9841 15.8521 11.7992 15.7693 11.5949 15.6975C11.3907 15.6257 11.1864 15.5512 10.9821 15.4739C10.7834 15.3911 10.5984 15.289 10.4273 15.1675C10.2561 15.046 10.1181 14.8915 10.0132 14.7038C9.91383 14.516 9.86414 14.2759 9.86414 13.9833C9.86414 13.6741 9.93867 13.4091 10.0877 13.1883C10.2368 12.9675 10.4411 12.7991 10.7005 12.6831C10.96 12.5617 11.2554 12.5009 11.5866 12.5009C11.9565 12.5009 12.285 12.5727 12.5721 12.7163C12.8647 12.8598 13.1076 13.053 13.3009 13.2959L12.8868 13.71C12.7101 13.5002 12.5169 13.3401 12.3071 13.2297C12.0973 13.1193 11.8516 13.0641 11.5701 13.0641C11.2388 13.0641 10.9738 13.1414 10.7751 13.2959C10.5763 13.4505 10.477 13.6658 10.477 13.9419C10.477 14.1572 10.5266 14.3311 10.626 14.4636C10.7309 14.5961 10.8689 14.7065 11.0401 14.7948C11.2112 14.8832 11.3962 14.9632 11.5949 15.035C11.7992 15.1013 12.0035 15.1758 12.2077 15.2586C12.412 15.3414 12.597 15.4463 12.7626 15.5733C12.9337 15.7003 13.0717 15.8631 13.1766 16.0619C13.2815 16.2551 13.334 16.5035 13.334 16.8072C13.334 17.2985 13.1656 17.6822 12.8288 17.9583C12.4976 18.2288 12.0449 18.3641 11.4707 18.3641ZM17.1741 18.2812V15.9956C17.1741 15.6533 17.0719 15.3773 16.8677 15.1675C16.6689 14.9522 16.4039 14.8445 16.0727 14.8445C15.8463 14.8445 15.6476 14.8942 15.4764 14.9936C15.3053 15.093 15.17 15.2282 15.0706 15.3994C14.9713 15.5705 14.9216 15.7665 14.9216 15.9873L14.6566 15.8383C14.6566 15.5457 14.7256 15.2834 14.8636 15.0516C15.0016 14.8197 15.1866 14.6375 15.4185 14.505C15.6559 14.3725 15.9264 14.3063 16.23 14.3063C16.5281 14.3063 16.7931 14.3753 17.025 14.5133C17.2569 14.6458 17.4363 14.8307 17.5633 15.0681C17.6958 15.3055 17.762 15.5816 17.762 15.8963V18.2812H17.1741ZM14.3419 18.2812V12.4181H14.9216V18.2812H14.3419ZM20.5358 18.3641C20.1659 18.3641 19.8347 18.2757 19.5421 18.0991C19.2495 17.9169 19.0176 17.674 18.8464 17.3703C18.6808 17.0667 18.598 16.7244 18.598 16.3434C18.598 15.957 18.6808 15.6119 18.8464 15.3083C19.0176 14.9991 19.2495 14.7562 19.5421 14.5795C19.8347 14.3973 20.1632 14.3063 20.5275 14.3063C20.8257 14.3063 21.0907 14.367 21.3225 14.4884C21.5599 14.6044 21.7504 14.77 21.8939 14.9853C22.043 15.1951 22.1341 15.4408 22.1672 15.7223V16.9397C22.1341 17.2213 22.043 17.4697 21.8939 17.685C21.7504 17.9003 21.5599 18.0687 21.3225 18.1902C21.0907 18.3061 20.8284 18.3641 20.5358 18.3641ZM20.6269 17.8092C21.0299 17.8092 21.3529 17.674 21.5958 17.4034C21.8442 17.1329 21.9685 16.7768 21.9685 16.3352C21.9685 16.0426 21.9105 15.7858 21.7946 15.565C21.6841 15.3387 21.5268 15.1647 21.3225 15.0433C21.1238 14.9163 20.8891 14.8528 20.6186 14.8528C20.3426 14.8528 20.0969 14.9163 19.8816 15.0433C19.6718 15.1703 19.5034 15.3469 19.3764 15.5733C19.255 15.7941 19.1943 16.0481 19.1943 16.3352C19.1943 16.6222 19.255 16.8762 19.3764 17.097C19.5034 17.3179 19.6746 17.4918 19.8899 17.6188C20.1052 17.7457 20.3509 17.8092 20.6269 17.8092ZM21.9353 18.2812V17.2378L22.0513 16.2772L21.9353 15.3414V14.3891H22.515V18.2812H21.9353ZM23.6906 18.2812V14.3891H24.2703V18.2812H23.6906ZM24.2703 16.0122L24.0302 15.9045C24.0302 15.4132 24.1489 15.024 24.3863 14.7369C24.6292 14.4498 24.9604 14.3063 25.38 14.3063C25.5732 14.3063 25.7499 14.3421 25.91 14.4139C26.0701 14.4802 26.2192 14.5878 26.3572 14.7369L25.9763 15.1427C25.8824 15.0378 25.7775 14.9632 25.6616 14.9191C25.5512 14.8749 25.4242 14.8528 25.2806 14.8528C24.9825 14.8528 24.7396 14.9522 24.5519 15.1509C24.3642 15.3442 24.2703 15.6313 24.2703 16.0122ZM28.6336 18.3641C28.2416 18.3641 27.891 18.2757 27.5819 18.0991C27.2727 17.9224 27.027 17.6795 26.8448 17.3703C26.6682 17.0611 26.5798 16.7133 26.5798 16.3269C26.5798 15.9459 26.6682 15.6036 26.8448 15.3C27.0215 14.9908 27.2616 14.7479 27.5653 14.5713C27.8689 14.3946 28.2085 14.3063 28.5839 14.3063C28.9372 14.3063 29.2491 14.3863 29.5197 14.5464C29.7957 14.7065 30.011 14.9301 30.1656 15.2172C30.3257 15.4988 30.4058 15.8245 30.4058 16.1944C30.4058 16.2385 30.403 16.291 30.3975 16.3517C30.392 16.4069 30.3809 16.4732 30.3643 16.5505H26.9939V16.0536H30.0497L29.8426 16.2358C29.8481 15.9487 29.7985 15.703 29.6936 15.4988C29.5942 15.289 29.4479 15.1289 29.2547 15.0184C29.067 14.9025 28.8378 14.8445 28.5673 14.8445C28.2858 14.8445 28.0401 14.9053 27.8303 15.0267C27.6205 15.1482 27.4549 15.3193 27.3334 15.5402C27.2175 15.7555 27.1595 16.0122 27.1595 16.3103C27.1595 16.6084 27.2202 16.8707 27.3417 17.097C27.4687 17.3234 27.6426 17.5001 27.8634 17.627C28.0898 17.754 28.3492 17.8175 28.6418 17.8175C28.8792 17.8175 29.0973 17.7761 29.2961 17.6933C29.4948 17.6049 29.6632 17.4752 29.8012 17.3041L30.1739 17.685C29.9917 17.9003 29.7653 18.0687 29.4948 18.1902C29.2298 18.3061 28.9427 18.3641 28.6336 18.3641Z" fill="#060606"/>
<path d="M55.647 18.3975C54.6374 18.3975 53.7447 18.8958 53.1944 19.6581L46.2511 16.1854C46.3409 15.8996 46.3891 15.5958 46.3891 15.2814C46.3891 14.9663 46.3401 14.6624 46.2504 14.3767L53.1936 10.9048C53.744 11.6663 54.6367 12.1654 55.6462 12.1654C57.3147 12.1654 58.6726 10.8083 58.6726 9.13894C58.6734 7.47045 57.3163 6.11328 55.647 6.11328C53.9785 6.11328 52.6213 7.47039 52.6213 9.13971C52.6213 9.45486 52.6703 9.7587 52.7601 10.0445L45.8161 13.5156C45.2657 12.7541 44.373 12.255 43.3635 12.255C41.6942 12.255 40.337 13.6129 40.337 15.2814C40.337 16.95 41.6941 18.3078 43.3635 18.3078C44.373 18.3078 45.2664 17.8087 45.8161 17.0472L52.7593 20.5191C52.6696 20.8049 52.6206 21.1087 52.6206 21.4239C52.6206 23.0924 53.9777 24.4503 55.647 24.4503C57.3162 24.4496 58.6734 23.0924 58.6734 21.4231C58.6734 19.7546 57.3163 18.3975 55.647 18.3975ZM55.647 7.07828C56.7839 7.07828 57.7083 8.00264 57.7083 9.13965C57.7083 10.2766 56.784 11.201 55.647 11.201C54.51 11.201 53.5856 10.2767 53.5856 9.13965C53.5856 8.00269 54.5107 7.07828 55.647 7.07828ZM43.3635 17.3427C42.2265 17.3427 41.3021 16.4176 41.3021 15.2813C41.3021 14.145 42.2265 13.2199 43.3635 13.2199C44.5005 13.2199 45.4249 14.1443 45.4249 15.2813C45.4249 16.4175 44.4998 17.3427 43.3635 17.3427ZM55.647 23.4843C54.51 23.4843 53.5856 22.5599 53.5856 21.4229C53.5856 20.2867 54.51 19.3616 55.647 19.3616C56.7839 19.3616 57.7083 20.2859 57.7083 21.4229C57.7083 22.5599 56.784 23.4843 55.647 23.4843Z" fill="#060606"/>
</svg>
