<svg width="13" height="17" viewBox="0 0 13 17" fill="none" xmlns="http://www.w3.org/2000/svg">
<path d="M3.32042 5.04131L3.31355 5.08701C3.29497 5.2154 3.18442 5.30923 3.05789 5.30923C3.04693 5.30923 3.03577 5.30849 3.02444 5.30718C2.88435 5.2886 2.78495 5.16208 2.80149 5.02199L2.81059 4.96197L2.81951 4.904C3.00586 3.39068 4.48425 2.29039 6.3348 2.29039L6.39704 2.29095C7.94752 2.29095 9.1017 2.96539 9.82519 4.2957C9.8932 4.42074 9.84693 4.57756 9.7217 4.64556C9.59666 4.71393 9.43985 4.66711 9.37185 4.54226C8.73698 3.37452 7.76303 2.80672 6.39481 2.80672L6.33257 2.80635C4.77428 2.80635 3.48318 3.73626 3.33138 4.9694C3.33045 4.97628 3.32525 5.01009 3.32042 5.04131Z" fill="white"/>
<path d="M6.58767 7.8671C8.82913 8.4323 10.4155 9.01496 10.4155 11.3765C10.4155 13.1781 8.76206 14.4364 6.39481 14.4364C4.66095 14.4364 3.16491 13.5607 2.49028 12.151C2.42878 12.0225 2.48303 11.8684 2.6116 11.8069C2.74017 11.7453 2.8942 11.7999 2.9557 11.9285C3.54375 13.1571 4.86143 13.9204 6.39481 13.9204C8.45828 13.9204 9.89951 12.8744 9.89951 11.3765C9.89951 9.44583 8.79847 8.95681 6.46151 8.36727L6.18802 8.29592C5.51785 8.11812 4.39582 7.82028 3.62661 7.09474C3.52313 6.99701 3.51829 6.8337 3.61602 6.73002C3.71375 6.62672 3.87707 6.6217 3.98074 6.71925C4.65446 7.35471 5.69642 7.63159 6.31951 7.79717L6.32049 7.79743L6.58767 7.8671Z" fill="white"/>
<path d="M8.46144 4.26096C8.55675 4.36686 8.54821 4.52999 8.44249 4.62531C8.39306 4.6699 8.33138 4.69164 8.26988 4.69164C8.19928 4.69164 8.12886 4.66302 8.07814 4.60636C7.71007 4.19779 7.25543 3.98914 6.6475 3.94975C6.50536 3.94046 6.39741 3.81783 6.4067 3.67551C6.41599 3.53319 6.54029 3.42654 6.68094 3.4349C7.43175 3.48358 7.9975 3.74611 8.46144 4.26096Z" fill="white"/>
<path d="M11.5633 11.3837C11.5633 12.044 11.3918 12.6622 11.0535 13.2214C11.005 13.3017 10.9197 13.3459 10.8326 13.3459C10.7869 13.3459 10.7408 13.3338 10.6992 13.3086C10.5773 13.2348 10.5383 13.0763 10.612 12.9544C10.901 12.4769 11.0474 11.9483 11.0474 11.3837C11.0474 8.49285 8.74152 7.91102 6.70712 7.39768L6.70676 7.39759L6.49663 7.34315L6.49602 7.34299C5.55712 7.0927 3.98632 6.67397 3.98632 5.20592C3.99264 4.93317 4.05618 4.68458 4.17527 4.46162C4.24235 4.33565 4.39823 4.28846 4.5242 4.35516C4.64999 4.42242 4.69755 4.57867 4.63048 4.70427C4.54966 4.85588 4.50655 5.02644 4.50228 5.21187C4.50246 6.19585 5.50855 6.5459 6.62947 6.84466L6.83311 6.89743C8.82932 7.40094 11.5633 8.09081 11.5633 11.3837Z" fill="white"/>
<path d="M9.51157 14.3867C9.57882 14.5123 9.53163 14.6688 9.40585 14.7359C8.54969 15.1942 7.50848 15.4363 6.39481 15.4363C4.18902 15.4363 2.17962 14.2418 1.39481 12.4639C1.33889 12.3374 1.30247 12.2047 1.28668 12.0697C1.26996 11.9283 1.37122 11.8001 1.5128 11.7835C1.65382 11.7659 1.78239 11.8679 1.79911 12.0097C1.80896 12.0934 1.83162 12.1763 1.86674 12.2556C2.57054 13.8494 4.39006 14.9205 6.39481 14.9205C7.42376 14.9205 8.3808 14.6993 9.16245 14.281C9.28824 14.2138 9.44431 14.2611 9.51157 14.3867Z" fill="white"/>
<path d="M9.39359 11.4079C9.39359 11.8441 9.21764 12.248 8.88487 12.5756C8.36873 13.0839 7.4925 13.3834 6.53007 13.3834C6.50592 13.3834 6.48195 13.3833 6.45761 13.3829C5.86864 13.3743 5.30269 13.2329 4.82148 12.9739C4.4388 12.7681 4.19988 12.4863 4.057 12.3178L4.05692 12.3177C4.03574 12.2926 4.01642 12.27 3.99932 12.2504C3.90457 12.144 3.91404 11.981 4.02032 11.8863C4.12715 11.7915 4.2901 11.8008 4.38467 11.9075C4.40348 11.9286 4.42433 11.9531 4.44738 11.9802L4.45063 11.984L4.45069 11.9841C4.57759 12.1338 4.76932 12.3601 5.06599 12.5197C5.47474 12.7395 5.95856 12.8597 6.46541 12.8669C7.31953 12.8812 8.09022 12.6339 8.52294 12.2079C8.75816 11.9762 8.87763 11.707 8.87763 11.4079C8.87763 11.1375 8.81836 10.9038 8.69629 10.6933C8.63107 10.581 8.54579 10.4729 8.44286 10.3724C8.34104 10.2728 8.33918 10.1095 8.43877 10.0075C8.53836 9.90568 8.70168 9.90401 8.80368 10.0034C8.93987 10.1366 9.05395 10.2817 9.14257 10.4346C9.30923 10.7217 9.39359 11.0493 9.39359 11.4079Z" fill="white"/>
<path d="M6.48678 8.92522C6.62501 8.95997 6.70881 9.10043 6.67388 9.23848C6.64434 9.35553 6.53936 9.43338 6.42398 9.43338C6.40299 9.43338 6.38181 9.43078 6.36063 9.42539C6.17966 9.37987 5.9855 9.33509 5.78335 9.29236C3.99394 8.91556 1.6148 8.0856 1.6148 5.24476C1.6148 2.84797 3.54468 1.23747 6.41692 1.23747C8.13109 1.23747 10.2958 2.20715 10.9978 4.33639C11.0424 4.47184 10.9688 4.6175 10.8335 4.66228C10.6984 4.70687 10.5522 4.63311 10.5078 4.49785C9.88614 2.61219 7.95143 1.75325 6.41692 1.75325C3.85329 1.75325 2.13094 3.15658 2.13094 5.24476C2.13094 7.14732 3.29013 8.23982 5.88981 8.78755C6.09865 8.83158 6.2995 8.87803 6.48678 8.92522Z" fill="white"/>
<path d="M11.3794 8.03414C12.1984 8.77696 12.5635 9.80999 12.5635 11.3837C12.5635 14.3117 9.96919 16.4365 6.39481 16.4365C3.98279 16.4365 1.65363 15.108 0.598668 13.1309L0.574701 13.0863C0.491649 12.9355 0.319043 12.6209 0.178023 12.1535C0.136962 12.0171 0.214069 11.8733 0.35063 11.832C0.48682 11.7904 0.630811 11.8679 0.672058 12.0044C0.797472 12.4201 0.95243 12.7025 1.02693 12.8381L1.05406 12.8883C2.0217 14.7019 4.16784 15.9205 6.39481 15.9205C9.67024 15.9205 12.0475 14.0124 12.0475 11.3837C12.0475 9.94897 11.7439 9.06141 11.0329 8.41632C10.9273 8.32045 10.9194 8.15732 11.015 8.05179C11.1107 7.94663 11.274 7.93845 11.3794 8.03414Z" fill="white"/>
<path d="M5.62431 9.86424C5.76162 9.9027 5.84169 10.0448 5.80341 10.1821C5.77146 10.2962 5.66779 10.3709 5.55501 10.3709C5.53197 10.3709 5.50856 10.3678 5.48533 10.3613L5.48513 10.3612C4.27045 10.0215 1.42654 9.22626 0.665743 6.6401C0.625425 6.50335 0.703647 6.35991 0.840394 6.31978C0.976955 6.27909 1.12058 6.35768 1.16071 6.49425C1.84071 8.80644 4.39606 9.52085 5.62422 9.86422L5.62431 9.86424Z" fill="white"/>
<path d="M6.29114 0.752354C3.49934 0.752354 1.39667 2.25843 1.04087 4.52758C1.0208 4.65485 0.911181 4.7457 0.786325 4.7457C0.772947 4.7457 0.759569 4.74477 0.74582 4.74236C0.605172 4.72043 0.508927 4.58852 0.531037 4.4475C0.933661 1.8807 3.30128 0.185114 6.42101 0.237509C6.56351 0.239739 6.67723 0.356977 6.67503 0.499298C6.67277 0.641805 6.5598 0.751797 6.41302 0.753283C6.37233 0.752726 6.33146 0.752354 6.29114 0.752354Z" fill="white"/>
<path d="M11.6157 4.38489C11.6232 4.52256 11.7371 4.62921 11.8732 4.62921C11.8779 4.62921 11.8825 4.62921 11.8872 4.62884C12.0295 4.62122 12.1387 4.49971 12.1311 4.35757C12.1138 4.03243 11.3993 1.65143 8.77971 0.660942C8.64631 0.610776 8.49748 0.678035 8.44713 0.811066C8.39678 0.944469 8.46404 1.09329 8.59726 1.14383C10.8545 1.99701 11.5771 4.04803 11.6157 4.38489Z" fill="white"/>
</svg>
