<svg width="18" height="15" viewBox="0 0 18 15" fill="none" xmlns="http://www.w3.org/2000/svg">
<path d="M7.72594 8.55H4.87406C2.18278 8.55 0 10.7325 0 13.4241C0 13.9641 0.4365 14.4 0.974812 14.4H11.6257C12.1641 14.4 12.6 13.9641 12.6 13.4241C12.6 10.7325 10.4175 8.55 7.72594 8.55ZM11.6241 13.5H0.974812C0.93375 13.5 0.9 13.4662 0.9 13.4241C0.9 11.2331 2.68312 9.45 4.87406 9.45H7.72594C9.91688 9.45 11.7 11.2331 11.7 13.4241C11.7 13.4662 11.6662 13.5 11.6241 13.5ZM6.3 7.2C8.28844 7.2 9.9 5.58816 9.9 3.6C9.9 1.61184 8.28844 0 6.3 0C4.31156 0 2.7 1.61184 2.7 3.6C2.7 5.58816 4.31156 7.2 6.3 7.2ZM6.3 0.9C7.78894 0.9 9 2.11106 9 3.6C9 5.08866 7.78894 6.3 6.3 6.3C4.81106 6.3 3.6 5.08781 3.6 3.6C3.6 2.11106 4.81219 0.9 6.3 0.9ZM17.55 5.85H15.75V4.05C15.75 3.8025 15.5475 3.6 15.3 3.6C15.0525 3.6 14.85 3.80126 14.85 4.05V5.85H13.05C12.8025 5.85 12.6 6.0525 12.6 6.3C12.6 6.5475 12.8013 6.75 13.05 6.75H14.85V8.55C14.85 8.79874 15.0513 9 15.3 9C15.5487 9 15.75 8.79874 15.75 8.55V6.75H17.55C17.7975 6.75 18 6.5475 18 6.3C18 6.0525 17.7975 5.85 17.55 5.85Z" fill="#2020ED"/>
</svg>
