<svg width="18" height="18" viewBox="0 0 18 18" fill="none" xmlns="http://www.w3.org/2000/svg">
<path d="M8.991 0C4.023 0 0 4.023 0 9C0 13.977 4.023 18 8.991 18C13.959 18 18 13.977 18 9C18 4.023 13.968 0 8.991 0ZM9 16.2C5.022 16.2 1.8 12.978 1.8 9C1.8 5.022 5.022 1.8 9 1.8C12.978 1.8 16.2 5.022 16.2 9C16.2 12.978 12.978 16.2 9 16.2ZM9.9 7.146L10.854 8.1L11.808 7.146L12.762 8.1L13.716 7.146L11.808 5.238L9.9 7.146ZM6.192 7.146L7.146 8.1L8.1 7.146L6.192 5.238L4.284 7.146L5.238 8.1L6.192 7.146ZM9 13.95C11.097 13.95 12.879 12.636 13.599 10.8H4.401C5.121 12.636 6.903 13.95 9 13.95Z" fill="white"/>
</svg>
