<svg width="24" height="21" viewBox="0 0 24 21" fill="none" xmlns="http://www.w3.org/2000/svg">
<path d="M10.8 5.38281C11.2988 5.38281 11.7 4.98156 11.7 4.48281C11.7 3.98406 11.2973 3.58281 10.8 3.58281C10.3013 3.58281 9.9 3.98594 9.9 4.48281C9.9 4.97969 10.3013 5.38281 10.8 5.38281ZM21.6 0.882812H9.6C8.27625 0.882812 7.2 1.95719 7.2 3.28281V11.6828C7.2 13.0084 8.27437 14.0828 9.6 14.0828H21.6C22.9256 14.0828 24 13.0084 24 11.6828V3.28281C24 1.95719 22.9238 0.882812 21.6 0.882812ZM22.8 11.6828C22.8 12.3443 22.2615 12.8828 21.6 12.8828H9.6C8.9385 12.8828 8.4 12.3443 8.4 11.6828V3.28281C8.4 2.62131 8.9385 2.08281 9.6 2.08281H21.6C22.2615 2.08281 22.8 2.62131 22.8 3.28281V11.6828ZM17.7975 4.92906C17.3745 4.33619 16.3538 4.33131 15.9563 4.92789L14.3051 7.23151L14.0438 6.89623C13.6148 6.35398 12.6574 6.35023 12.2288 6.8974L9.8325 9.91281C9.5625 10.2541 9.525 10.7191 9.73125 11.0941C9.93 11.4241 10.3162 11.6828 10.74 11.6828H20.46C20.8725 11.6828 21.2539 11.4651 21.4553 11.1169C21.4553 11.1158 21.4541 11.1181 21.4553 11.1169C21.6674 10.7463 21.6457 10.2979 21.3961 9.94881L17.7975 4.92906ZM10.8825 10.4791L13.0669 7.64369L13.8203 8.60594C13.9833 8.81388 14.4803 9.00531 14.7799 8.58594L16.8214 5.63282L20.2969 10.4778H10.8825V10.4791ZM18.6 15.2828C18.2687 15.2828 18 15.5514 18 15.8828V17.6828C18 18.3454 17.4626 18.8828 16.8 18.8828H15.6V15.8828C15.6 15.5514 15.3314 15.2828 15 15.2828C14.6687 15.2828 14.4 15.5528 14.4 15.8828V18.8828H4.8V8.08281H5.4C5.73 8.08281 6 7.81281 6 7.48281C6 7.15281 5.73 6.88281 5.4 6.88281H2.4C1.07438 6.88281 0 7.95906 0 9.28281V17.6828C0 19.0084 1.07438 20.0828 2.4 20.0828H16.8C18.1256 20.0828 19.2 19.0084 19.2 17.6828V15.8828C19.2 15.5528 18.93 15.2828 18.6 15.2828ZM3.6 18.8828H2.4C1.7385 18.8828 1.2 18.3443 1.2 17.6828V16.4828H3.6V18.8828ZM3.6 15.2828H1.2V11.6828H3.6V15.2828ZM3.6 10.4828H1.2V9.28281C1.2 8.62131 1.7385 8.08281 2.4 8.08281H3.6V10.4828Z" fill="#0A0A2F"/>
</svg>
