<svg width="18" height="14" viewBox="0 0 18 14" fill="none" xmlns="http://www.w3.org/2000/svg">
<path d="M9.00001 0.0050354C6.47501 0.0050354 4.45314 1.15421 2.98126 2.52198C1.51876 3.87726 0.540637 5.5011 0.0781372 6.61592C-0.0249878 6.86262 -0.0249878 7.13742 0.0781372 7.38412C0.540637 8.49895 1.51876 10.1228 2.98126 11.4781C4.45314 12.8458 6.47501 13.995 9.00001 13.995C11.525 13.995 13.5469 12.8458 15.0188 11.4781C16.4813 10.1197 17.4594 8.49895 17.925 7.38412C18.0281 7.13742 18.0281 6.86262 17.925 6.61592C17.4594 5.5011 16.4813 3.87726 15.0188 2.52198C13.5469 1.15421 11.525 0.0050354 9.00001 0.0050354ZM13.5 7.00002C13.5 9.48262 11.4844 11.4968 9.00001 11.4968C6.51564 11.4968 4.50001 9.48262 4.50001 7.00002C4.50001 4.51743 6.51564 2.50324 9.00001 2.50324C11.4844 2.50324 13.5 4.51743 13.5 7.00002ZM9.00001 5.00145C9.00001 6.10379 8.10314 7.00002 7.00001 7.00002C6.64064 7.00002 6.30314 6.90634 6.01251 6.73771C6.00626 6.82515 6.00001 6.90946 6.00001 7.00002C6.00001 8.65508 7.34376 9.99787 9.00001 9.99787C10.6563 9.99787 12 8.65508 12 7.00002C12 5.34496 10.6563 4.00217 9.00001 4.00217C8.91251 4.00217 8.82501 4.00529 8.73751 4.01466C8.90314 4.30508 9.00001 4.64234 9.00001 5.00145Z" fill="black"/>
</svg>
