<svg width="14" height="16" viewBox="0 0 14 16" fill="none" xmlns="http://www.w3.org/2000/svg">
<path d="M7.31764 0.618164C7.12837 0.436523 6.817 0.436523 6.62774 0.618164L2.72035 4.36816C2.53109 4.5498 2.53109 4.84863 2.72035 5.03027C2.90962 5.21191 3.22099 5.21191 3.41025 5.03027L6.48426 2.08008V10.3242C6.48426 10.582 6.70405 10.793 6.97269 10.793C7.24132 10.793 7.46111 10.582 7.46111 10.3242V2.08008L10.5351 5.03027C10.7244 5.21191 11.0358 5.21191 11.225 5.03027C11.4143 4.84863 11.4143 4.5498 11.225 4.36816L7.31764 0.618164ZM1.11161 10.3242C1.11161 10.0664 0.891821 9.85547 0.623188 9.85547C0.354556 9.85547 0.134766 10.0664 0.134766 10.3242V13.1367C0.134766 14.4316 1.22761 15.4805 2.57688 15.4805H11.3685C12.7178 15.4805 13.8106 14.4316 13.8106 13.1367V10.3242C13.8106 10.0664 13.5908 9.85547 13.3222 9.85547C13.0536 9.85547 12.8338 10.0664 12.8338 10.3242V13.1367C12.8338 13.9131 12.1774 14.543 11.3685 14.543H2.57688C1.76793 14.543 1.11161 13.9131 1.11161 13.1367V10.3242Z" fill="white"/>
</svg>
