<svg width="19" height="17" viewBox="0 0 19 17" fill="none" xmlns="http://www.w3.org/2000/svg">
<defs>
<linearGradient id="paint0_linear_4977_15901" x1="0.908692" y1="6.38289" x2="18.6135" y2="11.2391" gradientUnits="userSpaceOnUse">
<stop stop-color="#AC0D86"/>
<stop offset="1" stop-color="#7A14AB"/>
</linearGradient>
</defs>
<path d="M3.15869 2.96289H9.34619L10.9388 1.37207C11.3606 0.949844 11.9302 0.712891 12.5278 0.712891H16.6587C17.9015 0.712891 18.9087 1.72012 18.9087 2.96289V14.2129C18.9087 15.4557 17.9015 16.4629 16.6587 16.4629H3.15869C1.91592 16.4629 0.908691 15.4557 0.908691 14.2129V5.21289C0.908691 3.97187 1.91768 2.96289 3.15869 2.96289ZM2.03369 14.2129C2.03369 14.833 2.53854 15.3379 3.15869 15.3379H16.6587C17.2788 15.3379 17.7837 14.833 17.7837 14.2129V2.96289C17.7837 2.34273 17.2788 1.83789 16.6587 1.83789H12.5278C12.2273 1.83789 11.9449 1.95489 11.7322 2.16748L9.81377 4.08789H3.15869C2.53854 4.08789 2.03369 4.59273 2.03369 5.21289V14.2129ZM9.51143 6.50312C9.73115 6.2834 10.0873 6.2834 10.3067 6.50312L13.1192 9.31563C13.3389 9.53535 13.3389 9.89148 13.1192 10.1109C12.8994 10.3302 12.5433 10.3306 12.3239 10.1109L10.4712 8.25742V12.5254C10.4712 12.8363 10.2196 13.0879 9.90869 13.0879C9.59777 13.0879 9.34619 12.8363 9.34619 12.5254V8.25742L7.49381 10.1098C7.38447 10.2191 7.24033 10.2754 7.09619 10.2754C6.95205 10.2754 6.80833 10.2205 6.69857 10.1106C6.47885 9.89085 6.47885 9.53472 6.69857 9.31534L9.51143 6.50312Z" fill="url(#paint0_linear_4977_15901)"/>

</svg>
