<svg width="18" height="16" viewBox="0 0 18 16" fill="none" xmlns="http://www.w3.org/2000/svg">
<defs>
<path d="M2.25 2.25H8.4375L10.0301 0.65918C10.452 0.236953 11.0215 0 11.6191 0H15.75C16.9928 0 18 1.00723 18 2.25V13.5C18 14.7428 16.9928 15.75 15.75 15.75H2.25C1.00723 15.75 0 14.7428 0 13.5V4.5C0 3.25898 1.00898 2.25 2.25 2.25ZM1.125 13.5C1.125 14.1202 1.62984 14.625 2.25 14.625H15.75C16.3702 14.625 16.875 14.1202 16.875 13.5V2.25C16.875 1.62984 16.3702 1.125 15.75 1.125H11.6191C11.3186 1.125 11.0362 1.242 10.8236 1.45459L8.90508 3.375H2.25C1.62984 3.375 1.125 3.87984 1.125 4.5V13.5ZM8.60273 5.79023C8.82246 5.57051 9.17859 5.57051 9.39797 5.79023L12.2105 8.60273C12.4302 8.82246 12.4302 9.17859 12.2105 9.39797C11.9907 9.61734 11.6346 9.6177 11.4152 9.39797L9.5625 7.54453V11.8125C9.5625 12.1234 9.31092 12.375 9 12.375C8.68908 12.375 8.4375 12.1234 8.4375 11.8125V7.54453L6.58512 9.39691C6.47578 9.50625 6.33164 9.5625 6.1875 9.5625C6.04336 9.5625 5.89964 9.50759 5.78988 9.39769C5.57016 9.17796 5.57016 8.82183 5.78988 8.60245L8.60273 5.79023Z" fill="url(#paint0_linear_4176_15989)"/>
</defs>
<linearGradient id="paint0_linear_4176_15989" x1="4.09842e-07" y1="5.67" x2="17.7048" y2="10.5262" gradientUnits="userSpaceOnUse">
<stop stop-color="#AC0D86"/>
<stop offset="1" stop-color="#7A14AB"/>
</linearGradient>
</svg>
