<svg width="32" height="32" viewBox="0 0 32 32" fill="none" xmlns="http://www.w3.org/2000/svg">
<path d="M32 16C32 24.8366 24.8366 32 16 32V32C7.16344 32 0 24.8366 0 16V16C0 7.16344 7.16344 0 16 0V0C24.8366 0 32 7.16344 32 16V16Z" fill="#B0B0B0" fill-opacity="0.56"/>
<path d="M12.0297 15.7797L15.25 12.5594L15.25 21.25C15.25 21.6625 15.5875 22 16 22C16.4125 22 16.75 21.6625 16.75 21.25V12.5594L19.9703 15.7797C20.2633 16.0727 20.7381 16.0727 21.0306 15.7797C21.3231 15.4867 21.3236 15.0119 21.0306 14.7194L16.5306 10.2194C16.3844 10.075 16.1922 10 16 10C15.8078 10 15.6162 10.0732 15.4698 10.2197L10.9698 14.7197C10.6769 15.0127 10.6769 15.4876 10.9698 15.7801C11.2628 16.0726 11.7391 16.075 12.0297 15.7797ZM16 28C22.6281 28 28 22.6281 28 16C28 9.37188 22.6281 4 16 4C9.37188 4 4 9.37188 4 16C4 22.6281 9.37188 28 16 28ZM16 5.5C21.7891 5.5 26.5 10.2109 26.5 16C26.5 21.7891 21.7891 26.5 16 26.5C10.2109 26.5 5.5 21.7891 5.5 16C5.5 10.2109 10.2109 5.5 16 5.5Z" fill="white"/>
</svg>
