<svg width="24" height="24" viewBox="0 0 24 24" fill="none" xmlns="http://www.w3.org/2000/svg">
<g opacity="0.66">
<path fill-rule="evenodd" clip-rule="evenodd" d="M11.383 3.07574C11.009 2.92174 10.579 3.00674 10.293 3.29274L6 7.99874H3C2.45 7.99874 2 8.44974 2 8.99874V14.9987C2 15.5487 2.45 15.9987 3 15.9987H6L10.293 20.7067C10.579 20.9927 11.009 21.0787 11.383 20.9237C11.757 20.7687 12 20.4037 12 19.9987V3.99874C12 3.59574 11.757 3.22874 11.383 3.07574ZM14 4.99865V6.99865C16.757 6.99865 19 9.24265 19 11.9987C19 14.7557 16.757 16.9987 14 16.9987V18.9987C17.86 18.9987 21 15.8597 21 11.9987C21 8.13966 17.86 4.99865 14 4.99865ZM14 8.99865C15.654 8.99865 17 10.3457 17 11.9987C17 13.6537 15.654 14.9987 14 14.9987V12.9987C14.551 12.9987 15 12.5497 15 11.9987C15 11.4477 14.551 10.9987 14 10.9987V8.99865Z" fill="#FF0000" style="mix-blend-mode:saturation"/>
<path fill-rule="evenodd" clip-rule="evenodd" d="M11.383 3.07574C11.009 2.92174 10.579 3.00674 10.293 3.29274L6 7.99874H3C2.45 7.99874 2 8.44974 2 8.99874V14.9987C2 15.5487 2.45 15.9987 3 15.9987H6L10.293 20.7067C10.579 20.9927 11.009 21.0787 11.383 20.9237C11.757 20.7687 12 20.4037 12 19.9987V3.99874C12 3.59574 11.757 3.22874 11.383 3.07574ZM14 4.99865V6.99865C16.757 6.99865 19 9.24265 19 11.9987C19 14.7557 16.757 16.9987 14 16.9987V18.9987C17.86 18.9987 21 15.8597 21 11.9987C21 8.13966 17.86 4.99865 14 4.99865ZM14 8.99865C15.654 8.99865 17 10.3457 17 11.9987C17 13.6537 15.654 14.9987 14 14.9987V12.9987C14.551 12.9987 15 12.5497 15 11.9987C15 11.4477 14.551 10.9987 14 10.9987V8.99865Z" fill="white" style="mix-blend-mode:difference"/>
<path fill-rule="evenodd" clip-rule="evenodd" d="M11.383 3.07574C11.009 2.92174 10.579 3.00674 10.293 3.29274L6 7.99874H3C2.45 7.99874 2 8.44974 2 8.99874V14.9987C2 15.5487 2.45 15.9987 3 15.9987H6L10.293 20.7067C10.579 20.9927 11.009 21.0787 11.383 20.9237C11.757 20.7687 12 20.4037 12 19.9987V3.99874C12 3.59574 11.757 3.22874 11.383 3.07574ZM14 4.99865V6.99865C16.757 6.99865 19 9.24265 19 11.9987C19 14.7557 16.757 16.9987 14 16.9987V18.9987C17.86 18.9987 21 15.8597 21 11.9987C21 8.13966 17.86 4.99865 14 4.99865ZM14 8.99865C15.654 8.99865 17 10.3457 17 11.9987C17 13.6537 15.654 14.9987 14 14.9987V12.9987C14.551 12.9987 15 12.5497 15 11.9987C15 11.4477 14.551 10.9987 14 10.9987V8.99865Z" fill="white" style="mix-blend-mode:saturation"/>
<path fill-rule="evenodd" clip-rule="evenodd" d="M11.383 3.07574C11.009 2.92174 10.579 3.00674 10.293 3.29274L6 7.99874H3C2.45 7.99874 2 8.44974 2 8.99874V14.9987C2 15.5487 2.45 15.9987 3 15.9987H6L10.293 20.7067C10.579 20.9927 11.009 21.0787 11.383 20.9237C11.757 20.7687 12 20.4037 12 19.9987V3.99874C12 3.59574 11.757 3.22874 11.383 3.07574ZM14 4.99865V6.99865C16.757 6.99865 19 9.24265 19 11.9987C19 14.7557 16.757 16.9987 14 16.9987V18.9987C17.86 18.9987 21 15.8597 21 11.9987C21 8.13966 17.86 4.99865 14 4.99865ZM14 8.99865C15.654 8.99865 17 10.3457 17 11.9987C17 13.6537 15.654 14.9987 14 14.9987V12.9987C14.551 12.9987 15 12.5497 15 11.9987C15 11.4477 14.551 10.9987 14 10.9987V8.99865Z" fill="white" style="mix-blend-mode:overlay"/>
<path fill-rule="evenodd" clip-rule="evenodd" d="M11.383 3.07574C11.009 2.92174 10.579 3.00674 10.293 3.29274L6 7.99874H3C2.45 7.99874 2 8.44974 2 8.99874V14.9987C2 15.5487 2.45 15.9987 3 15.9987H6L10.293 20.7067C10.579 20.9927 11.009 21.0787 11.383 20.9237C11.757 20.7687 12 20.4037 12 19.9987V3.99874C12 3.59574 11.757 3.22874 11.383 3.07574ZM14 4.99865V6.99865C16.757 6.99865 19 9.24265 19 11.9987C19 14.7557 16.757 16.9987 14 16.9987V18.9987C17.86 18.9987 21 15.8597 21 11.9987C21 8.13966 17.86 4.99865 14 4.99865ZM14 8.99865C15.654 8.99865 17 10.3457 17 11.9987C17 13.6537 15.654 14.9987 14 14.9987V12.9987C14.551 12.9987 15 12.5497 15 11.9987C15 11.4477 14.551 10.9987 14 10.9987V8.99865Z" fill="black" style="mix-blend-mode:overlay"/>
<path fill-rule="evenodd" clip-rule="evenodd" d="M11.383 3.07574C11.009 2.92174 10.579 3.00674 10.293 3.29274L6 7.99874H3C2.45 7.99874 2 8.44974 2 8.99874V14.9987C2 15.5487 2.45 15.9987 3 15.9987H6L10.293 20.7067C10.579 20.9927 11.009 21.0787 11.383 20.9237C11.757 20.7687 12 20.4037 12 19.9987V3.99874C12 3.59574 11.757 3.22874 11.383 3.07574ZM14 4.99865V6.99865C16.757 6.99865 19 9.24265 19 11.9987C19 14.7557 16.757 16.9987 14 16.9987V18.9987C17.86 18.9987 21 15.8597 21 11.9987C21 8.13966 17.86 4.99865 14 4.99865ZM14 8.99865C15.654 8.99865 17 10.3457 17 11.9987C17 13.6537 15.654 14.9987 14 14.9987V12.9987C14.551 12.9987 15 12.5497 15 11.9987C15 11.4477 14.551 10.9987 14 10.9987V8.99865Z" fill="white" style="mix-blend-mode:overlay"/>
<path fill-rule="evenodd" clip-rule="evenodd" d="M11.383 3.07574C11.009 2.92174 10.579 3.00674 10.293 3.29274L6 7.99874H3C2.45 7.99874 2 8.44974 2 8.99874V14.9987C2 15.5487 2.45 15.9987 3 15.9987H6L10.293 20.7067C10.579 20.9927 11.009 21.0787 11.383 20.9237C11.757 20.7687 12 20.4037 12 19.9987V3.99874C12 3.59574 11.757 3.22874 11.383 3.07574ZM14 4.99865V6.99865C16.757 6.99865 19 9.24265 19 11.9987C19 14.7557 16.757 16.9987 14 16.9987V18.9987C17.86 18.9987 21 15.8597 21 11.9987C21 8.13966 17.86 4.99865 14 4.99865ZM14 8.99865C15.654 8.99865 17 10.3457 17 11.9987C17 13.6537 15.654 14.9987 14 14.9987V12.9987C14.551 12.9987 15 12.5497 15 11.9987C15 11.4477 14.551 10.9987 14 10.9987V8.99865Z" fill="black" style="mix-blend-mode:overlay"/>
</g>
</svg>
