<svg width="24" height="22" viewBox="0 0 24 22" fill="none" xmlns="http://www.w3.org/2000/svg">
<path d="M21.75 0.731445C22.1625 0.731445 22.5 1.06707 22.5 1.48145C22.5 1.89582 22.1625 2.23145 21.75 2.23145H3.75C2.50734 2.23145 1.5 3.23879 1.5 4.48145V17.9814C1.5 19.2236 2.50734 20.2314 3.75 20.2314H20.25C21.4922 20.2314 22.5 19.2236 22.5 17.9814V7.48145C22.5 6.23926 21.4922 5.23145 20.25 5.23145H5.25C4.8375 5.23145 4.5 4.89395 4.5 4.48145C4.5 4.06895 4.8375 3.73145 5.25 3.73145H20.25C22.3219 3.73145 24 5.40957 24 7.48145V17.9814C24 20.0533 22.3219 21.7314 20.25 21.7314H3.75C1.67906 21.7314 0 20.0533 0 17.9814V4.48145C0 2.41051 1.67906 0.731445 3.75 0.731445H21.75ZM16.875 12.7314C16.875 12.108 17.3766 11.6064 18 11.6064C18.6234 11.6064 19.125 12.108 19.125 12.7314C19.125 13.3549 18.6234 13.8564 18 13.8564C17.3766 13.8564 16.875 13.3549 16.875 12.7314Z" fill="#F98303"/>
</svg>
