<svg width="19" height="16" viewBox="0 0 19 16" fill="none" xmlns="http://www.w3.org/2000/svg">
<path d="M16.8125 0C17.1219 0 17.375 0.251719 17.375 0.5625C17.375 0.873281 17.1219 1.125 16.8125 1.125H3.3125C2.38051 1.125 1.625 1.88051 1.625 2.8125V12.9375C1.625 13.8691 2.38051 14.625 3.3125 14.625H15.6875C16.6191 14.625 17.375 13.8691 17.375 12.9375V5.0625C17.375 4.13086 16.6191 3.375 15.6875 3.375H4.4375C4.12812 3.375 3.875 3.12188 3.875 2.8125C3.875 2.50312 4.12812 2.25 4.4375 2.25H15.6875C17.2414 2.25 18.5 3.50859 18.5 5.0625V12.9375C18.5 14.4914 17.2414 15.75 15.6875 15.75H3.3125C1.7593 15.75 0.5 14.4914 0.5 12.9375V2.8125C0.5 1.2593 1.7593 0 3.3125 0H16.8125ZM13.1562 9C13.1562 8.53242 13.5324 8.15625 14 8.15625C14.4676 8.15625 14.8438 8.53242 14.8438 9C14.8438 9.46758 14.4676 9.84375 14 9.84375C13.5324 9.84375 13.1562 9.46758 13.1562 9Z" fill="#181941"/>
</svg>
