<svg width="24" height="21" viewBox="0 0 24 21" fill="none" xmlns="http://www.w3.org/2000/svg">
<path d="M21.75 0C22.1625 0 22.5 0.335625 22.5 0.75C22.5 1.16438 22.1625 1.5 21.75 1.5H3.75C2.50734 1.5 1.5 2.50734 1.5 3.75V17.25C1.5 18.4922 2.50734 19.5 3.75 19.5H20.25C21.4922 19.5 22.5 18.4922 22.5 17.25V6.75C22.5 5.50781 21.4922 4.5 20.25 4.5H5.25C4.8375 4.5 4.5 4.1625 4.5 3.75C4.5 3.3375 4.8375 3 5.25 3H20.25C22.3219 3 24 4.67812 24 6.75V17.25C24 19.3219 22.3219 21 20.25 21H3.75C1.67906 21 0 19.3219 0 17.25V3.75C0 1.67906 1.67906 0 3.75 0H21.75ZM16.875 12C16.875 11.3766 17.3766 10.875 18 10.875C18.6234 10.875 19.125 11.3766 19.125 12C19.125 12.6234 18.6234 13.125 18 13.125C17.3766 13.125 16.875 12.6234 16.875 12Z" fill="#616180"/>
</svg>
