<svg width="512" height="512" viewBox="0 0 512 512" fill="none" xmlns="http://www.w3.org/2000/svg">
<g clip-path="url(#clip0_7_65)">
<path d="M410.832 86.797C397.784 86.797 387.169 97.436 387.169 110.514V401.64C388.363 433.113 433.399 433 434.585 401.64V110.514C434.585 97.437 423.93 86.797 410.832 86.797Z" fill="white"/>
<path d="M256 86.797C242.902 86.797 232.247 97.436 232.247 110.514V401.64C233.444 433.069 278.568 433.044 279.754 401.64V110.514C279.754 97.437 269.098 86.797 256 86.797Z" fill="white"/>
<path d="M333.415 173.517C320.368 173.517 309.754 184.156 309.754 197.234V314.921C310.948 346.396 355.983 346.279 357.169 314.921V197.234C357.169 184.156 346.513 173.517 333.415 173.517Z" fill="white"/>
<path d="M488.247 216.878C475.2 216.878 464.585 227.517 464.585 240.595V271.561C465.779 303.035 510.814 302.92 512 271.561V240.595C512 227.517 501.345 216.878 488.247 216.878Z" fill="white"/>
<path d="M23.754 216.878C10.656 216.878 0 227.517 0 240.594V271.56C1.198 302.942 46.233 303.011 47.415 271.56V240.594C47.415 227.517 36.801 216.878 23.754 216.878Z" fill="white"/>
<path d="M101.169 130.157C88.071 130.157 77.415 140.796 77.415 153.874V358.28C78.613 389.664 123.649 389.73 124.832 358.28V153.874C124.832 140.796 114.217 130.157 101.169 130.157Z" fill="white"/>
<path d="M178.585 0.0770264C165.487 0.0770264 154.832 10.716 154.832 23.794V488.36C156.029 519.743 201.064 519.81 202.247 488.36V23.794C202.247 10.716 191.632 0.0770264 178.585 0.0770264Z" fill="white"/>
</g>
<defs>
<clipPath id="clip0_7_65">
<rect width="512" height="512" fill="white"/>
</clipPath>
</defs>
</svg>
