<svg width="19" height="19" viewBox="0 0 19 19" fill="none" xmlns="http://www.w3.org/2000/svg">
<path id="Vector" d="M15.9857 8.16163L15.0361 5.86857L16.3124 4.35912L14.5822 2.6289L13.081 3.91182L10.7392 2.94877L10.2007 0.898682H8.50997L7.96331 2.97592L5.67536 3.94037L4.20086 2.6289L2.47064 4.35912L3.72796 5.90667L2.79289 8.20566L0.740417 8.68467V10.4149L2.81764 10.982L3.78193 13.2695L2.47064 14.7404L4.20086 16.4707L5.75041 15.2079L8.00475 16.1353L8.52641 18.2009H10.2566L10.7796 16.136L13.0726 15.1864C13.4549 15.4596 14.5822 16.4707 14.5822 16.4707L16.3124 14.7404L15.0285 13.226L15.9784 10.9322L18.0425 10.3952L18.0426 8.68467L15.9857 8.16163Z" stroke="black" stroke-width="0.86511" stroke-linecap="round" stroke-linejoin="round"/>
</svg>
