<svg width="26" height="19" viewBox="0 0 26 19" fill="none" xmlns="http://www.w3.org/2000/svg">
<path d="M25.8929 4.59024V16.4225C25.8917 17.7829 24.8409 18.8854 23.5456 18.8867H4.37461C3.45638 18.8829 2.62449 18.3175 2.2438 17.4409H21.606C23.2175 17.4409 24.5249 16.069 24.5249 14.3782V2.38256V2.3481C25.3604 2.75009 25.8953 3.62678 25.8929 4.59024ZM6.88131 5.66602C6.88131 6.57205 6.36198 7.38877 5.56415 7.7346C4.76632 8.0817 3.8493 7.89028 3.23875 7.24967C2.62822 6.60907 2.44577 5.64557 2.77658 4.80971C3.10617 3.97257 3.88455 3.42639 4.74804 3.42639C5.92532 3.42894 6.8801 4.43072 6.88131 5.66602ZM5.867 5.66602C5.867 5.19131 5.59457 4.76253 5.17618 4.58132C4.75779 4.40011 4.27619 4.49965 3.95631 4.83527C3.63647 5.17215 3.54038 5.67623 3.71429 6.11523C3.88699 6.55423 4.29564 6.84008 4.74806 6.84008C5.04482 6.84008 5.32941 6.71629 5.53861 6.4968C5.74901 6.27603 5.867 5.97742 5.867 5.66602ZM4.74808 5.17599C4.55713 5.17599 4.38563 5.29722 4.31268 5.48098C4.23971 5.66602 4.28106 5.87915 4.41606 6.01949C4.55106 6.15987 4.75416 6.20198 4.92929 6.12413C5.10564 6.04629 5.21875 5.86636 5.21753 5.66602C5.21753 5.53585 5.16888 5.4108 5.0801 5.31892C4.99131 5.22576 4.87213 5.17471 4.74808 5.17599ZM23.8814 2.38256L23.8827 14.3808C23.8827 15.0125 23.6431 15.6186 23.2174 16.0652C22.7917 16.5119 22.214 16.7633 21.612 16.7633H2.26946C1.01556 16.7633 0 15.6964 0 14.3807V2.38253C0 1.06686 1.01553 0 2.26946 0H21.5999C22.8538 0 23.8693 1.06683 23.8693 2.38253L23.8814 2.38256ZM11.4287 4.03896C11.4287 4.12956 11.4628 4.21634 11.5236 4.28014C11.5844 4.34395 11.6671 4.37968 11.7535 4.37968H18.36C18.5388 4.37968 18.6835 4.22782 18.6835 4.03895C18.6835 3.85136 18.5388 3.69949 18.36 3.69949H11.7535C11.5735 3.69949 11.4287 3.85135 11.4287 4.03896ZM7.21928 12.1653C7.21928 12.076 7.18523 11.9892 7.12442 11.9254C7.06361 11.8616 6.98091 11.8258 6.89456 11.8258H2.60012C2.42133 11.8258 2.27659 11.9777 2.27659 12.1653C2.27659 12.3542 2.42132 12.506 2.60012 12.506H6.89456C6.98091 12.506 7.06361 12.4703 7.12442 12.4065C7.18523 12.3427 7.21928 12.2559 7.21928 12.1653ZM7.21928 10.7501C7.21928 10.6595 7.18523 10.5727 7.12442 10.5089C7.06361 10.4451 6.98091 10.4094 6.89456 10.4094H2.60012C2.42133 10.4094 2.27659 10.5625 2.27659 10.7501C2.27659 10.9377 2.42132 11.0908 2.60012 11.0908H6.89456C6.98212 11.0908 7.06483 11.0538 7.12564 10.9887C7.18766 10.9237 7.2205 10.8343 7.21928 10.7437V10.7501ZM7.54402 5.67239H7.5428C7.5428 4.49197 6.86537 3.42769 5.82553 2.97468C4.78568 2.52293 3.58892 2.77305 2.7923 3.60763C1.9969 4.44349 1.75853 5.69918 2.18906 6.79028C2.62081 7.88135 3.63512 8.59215 4.76012 8.59215C6.29376 8.58322 7.53184 7.27521 7.53063 5.66602L7.54402 5.67239ZM9.92413 2.24871V2.24999C9.92413 2.06113 9.77818 1.90926 9.59939 1.90926C9.4206 1.90926 9.27466 2.06111 9.27466 2.24999V14.521C9.27466 14.7086 9.4206 14.8605 9.59939 14.8605C9.77818 14.8605 9.92413 14.7086 9.92413 14.521V2.24871ZM21.3784 13.9598C21.3784 13.8692 21.3443 13.7824 21.2835 13.7186C21.2227 13.6548 21.14 13.6191 21.0548 13.6191H11.7533C11.5733 13.6191 11.4285 13.7709 11.4285 13.9598C11.4285 14.1474 11.5733 14.2992 11.7533 14.2992H21.0548C21.14 14.2992 21.2227 14.2635 21.2835 14.1997C21.3443 14.1359 21.3784 14.0491 21.3784 13.9598ZM11.7533 12.8802H18.3598C18.5386 12.8802 18.6833 12.7283 18.6833 12.5407C18.6833 12.3519 18.5386 12.2 18.3598 12.2H11.7533C11.5733 12.2 11.4286 12.3518 11.4286 12.5407C11.4286 12.7283 11.5733 12.8802 11.7533 12.8802ZM21.3784 11.1242C21.3784 11.0349 21.3443 10.9481 21.2835 10.8843C21.2227 10.8205 21.14 10.7848 21.0548 10.7848H11.7533C11.5733 10.7848 11.4285 10.9366 11.4285 11.1242C11.4285 11.3131 11.5733 11.465 11.7533 11.465H21.0548C21.14 11.465 21.2227 11.4292 21.2835 11.3654C21.3443 11.3016 21.3784 11.2148 21.3784 11.1242ZM11.7533 10.0497H18.3598C18.5386 10.0497 18.6833 9.8966 18.6833 9.709C18.6833 9.5214 18.5386 9.36826 18.3598 9.36826H11.7533C11.5733 9.36826 11.4286 9.5214 11.4286 9.709C11.4286 9.8966 11.5733 10.0497 11.7533 10.0497ZM21.3784 5.45815C21.3784 5.36882 21.3443 5.28205 21.2835 5.21824C21.2227 5.15443 21.14 5.1187 21.0548 5.1187H11.7533C11.5733 5.1187 11.4285 5.27056 11.4285 5.45816C11.4285 5.64702 11.5733 5.79889 11.7533 5.79889H21.0548C21.14 5.79889 21.2227 5.76316 21.2835 5.69935C21.3443 5.63555 21.3784 5.54875 21.3784 5.45815Z" fill="black"/>
</svg>
