<svg width="21" height="23" viewBox="0 0 21 23" fill="none" xmlns="http://www.w3.org/2000/svg">
<path d="M11.18 7.10988C10.6213 7.10988 10.1641 7.58955 10.1641 8.17581C10.1641 8.76208 10.6213 9.24175 11.18 9.24175H14.5663C15.1251 9.24175 15.5822 8.76208 15.5822 8.17581C15.5822 7.58955 15.1251 7.10988 14.5663 7.10988H11.18Z" fill="black"/>
<path d="M6.43899 9.24175C7.00005 9.24175 7.45488 8.76451 7.45488 8.17581C7.45488 7.58711 7.00005 7.10988 6.43899 7.10988C5.87793 7.10988 5.4231 7.58711 5.4231 8.17581C5.4231 8.76451 5.87793 9.24175 6.43899 9.24175Z" fill="black"/>
<path d="M6.43899 12.792C5.88025 12.792 5.4231 13.2717 5.4231 13.858C5.4231 14.4442 5.88025 14.9239 6.43899 14.9239H9.82529C10.384 14.9239 10.8412 14.4442 10.8412 13.858C10.8412 13.2717 10.384 12.792 9.82529 12.792H6.43899Z" fill="black"/>
<path d="M14.5663 14.9239C15.1274 14.9239 15.5822 14.4467 15.5822 13.858C15.5822 13.2693 15.1274 12.792 14.5663 12.792C14.0053 12.792 13.5504 13.2693 13.5504 13.858C13.5504 14.4467 14.0053 14.9239 14.5663 14.9239Z" fill="black"/>
<path d="M5.38937 0.241102C5.17942 0.0598927 4.91868 -0.025382 4.64439 0.00659605L4.01453 0.0741048C1.93873 0.290845 0.279442 2.03187 0.0728778 4.20993L0.00853782 4.87081C-0.0185526 5.15506 0.0627186 5.4322 0.232034 5.6525C0.404735 5.87279 0.648549 6.00781 0.916067 6.03623C1.48835 6.09664 1.97259 5.66316 2.02677 5.08044L2.09111 4.41957C2.20286 3.24704 3.09685 2.30901 4.21433 2.19176L4.84418 2.12425C5.11508 2.09583 5.3589 1.96081 5.52821 1.74052C5.69753 1.52022 5.7788 1.24308 5.75171 0.958831C5.72462 0.674582 5.59255 0.418757 5.3826 0.241102H5.38937Z" fill="black"/>
<path d="M4.01423 21.9631L4.64408 22.0306C4.91499 22.059 5.17912 21.9773 5.38907 21.7961C5.59902 21.6149 5.7277 21.3591 5.75479 21.0784C5.75817 21.0429 5.75818 21.0073 5.75818 20.9718C5.75818 20.4246 5.36536 19.9663 4.84387 19.913L4.21402 19.8455C3.09654 19.7282 2.20256 18.7902 2.09081 17.6176L2.02647 16.9568C1.99938 16.6725 1.8707 16.4167 1.66075 16.239C1.4508 16.0578 1.18667 15.9761 0.915761 16.0045C0.357021 16.0649 -0.0493355 16.5872 0.00484531 17.17L0.0691853 17.8308C0.27575 20.0089 1.93504 21.7499 4.01084 21.9667L4.01423 21.9631Z" fill="black"/>
<path d="M20.0861 15.9975C19.5104 15.9371 19.0296 16.3705 18.9754 16.9532L18.911 17.6141C18.7993 18.7867 17.9053 19.7247 16.7878 19.8419L16.158 19.9094C15.8871 19.9379 15.6433 20.0729 15.4739 20.2932C15.3046 20.5135 15.2234 20.7906 15.2505 21.0749C15.2775 21.3591 15.4096 21.6149 15.6196 21.7926C15.8295 21.9738 16.0903 22.0591 16.3645 22.0271L16.9944 21.9596C19.0702 21.7428 20.7295 20.0018 20.9361 17.8238L21.0004 17.1629C21.0275 16.8786 20.9462 16.6015 20.7769 16.3812C20.6042 16.1609 20.3604 16.0259 20.0929 15.9975H20.0861Z" fill="black"/>
<path d="M16.991 0.0746158L16.3611 0.00710639C16.3273 0.00355328 16.2934 0 16.2562 0C16.0225 0 15.799 0.0852749 15.6161 0.241612C15.4062 0.422821 15.2775 0.678645 15.2504 0.959342C15.247 0.994873 15.247 1.0304 15.247 1.06593C15.247 1.61311 15.6398 2.07147 16.1613 2.12476L16.7912 2.19227C17.9087 2.30953 18.8027 3.24755 18.9144 4.42008L18.9787 5.08096C19.0058 5.36521 19.1345 5.62103 19.3445 5.79869C19.5544 5.97989 19.8185 6.06162 20.0895 6.03319C20.6482 5.97279 21.0545 5.45048 21.0004 4.86777L20.936 4.20689C20.7295 2.02883 19.0702 0.287803 16.9944 0.0710626L16.991 0.0746158Z" fill="black"/>
</svg>
