<svg width="24" height="23" viewBox="0 0 24 23" fill="none" xmlns="http://www.w3.org/2000/svg">
<path fill-rule="evenodd" clip-rule="evenodd" d="M8.2171 3.71403C8.20672 -0.0564458 13.3474 -1.43503 15.2841 1.85108C16.9709 4.71326 14.2618 8.13759 11.0251 7.28824C9.90299 6.99385 8.98949 6.21571 8.52862 5.17429C5.68919 6.42363 3.74493 8.87326 3.34514 11.9155C3.21931 12.8729 1.73622 12.6859 1.86175 11.7313C2.28322 8.52592 4.15754 5.88871 7.00889 4.27587L7.01011 4.27767L7.94925 3.82083L7.94986 3.82263C8.03782 3.78493 8.12731 3.74903 8.2171 3.71403ZM22.0841 14.4085C22.6067 10.8248 21.0967 7.24127 18.1769 5.05911C17.3966 4.47572 16.4883 5.64159 17.2686 6.22468C19.6894 8.03408 20.9767 10.9723 20.6367 13.9487C18.7847 13.7459 17.0426 14.9028 16.5576 16.6763C15.6845 19.8687 19.2218 22.4982 22.1082 20.8482C24.6902 19.3724 24.5781 15.7934 22.0841 14.4085ZM6.81464 19.8732C9.28086 21.6512 12.5463 22.0348 15.3699 20.8641C16.2712 20.4904 16.8536 21.8394 15.9508 22.2137C12.5332 23.6308 8.58116 23.1049 5.66751 20.8584C2.74562 22.4904 -0.730602 19.8385 0.134635 16.6763C1.00109 13.5086 5.38225 12.9145 7.07241 15.7829C7.83503 17.0769 7.73058 18.6876 6.81464 19.8732Z" fill="black"/>
</svg>
