<svg width="24" height="27" viewBox="0 0 24 27" fill="none" xmlns="http://www.w3.org/2000/svg">
<path d="M11.9891 4.84455e-05C11.9606 0.00149063 11.9323 0.0045273 11.9041 0.00914596C11.703 0.0339845 11.5177 0.138087 11.3843 0.301198C11.2509 0.464309 11.1789 0.674761 11.1823 0.891605V2.63833C11.1808 2.75406 11.2007 2.86896 11.241 2.97636C11.2813 3.08375 11.3411 3.1815 11.4169 3.26392C11.4928 3.34634 11.5832 3.41178 11.6829 3.45645C11.7825 3.50112 11.8895 3.52413 11.9975 3.52413C12.1056 3.52413 12.2126 3.50112 12.3122 3.45645C12.4119 3.41178 12.5023 3.34634 12.5781 3.26392C12.654 3.1815 12.7138 3.08375 12.7541 2.97636C12.7944 2.86896 12.8143 2.75406 12.8128 2.63833V0.891605C12.8151 0.774625 12.7954 0.658349 12.7549 0.549679C12.7144 0.441009 12.654 0.342161 12.5771 0.259003C12.5003 0.175844 12.4086 0.110071 12.3076 0.0655872C12.2066 0.0211035 12.0983 -0.00118382 11.9891 4.84455e-05ZM4.56673 2.62923C4.41872 2.64564 4.27771 2.70512 4.159 2.80125C4.04029 2.89737 3.9484 3.02646 3.89328 3.17454C3.83817 3.32261 3.82193 3.48402 3.84633 3.64127C3.87074 3.79853 3.93485 3.94563 4.03172 4.06664L6.47752 7.26896C6.54357 7.36364 6.62688 7.44297 6.72239 7.50215C6.8179 7.56133 6.92363 7.59913 7.03318 7.61325C7.14273 7.62738 7.25381 7.61754 7.3597 7.58433C7.46559 7.55112 7.56409 7.49523 7.64923 7.42004C7.73437 7.34486 7.80438 7.25195 7.85502 7.14693C7.90566 7.04191 7.93587 6.92698 7.94383 6.80909C7.9518 6.69119 7.93734 6.5728 7.90134 6.46107C7.86533 6.34934 7.80854 6.24659 7.73438 6.15907L5.28859 2.95674C5.20364 2.84157 5.09298 2.7512 4.96681 2.69395C4.84065 2.63671 4.70305 2.61445 4.56673 2.62923ZM19.318 2.62923C19.2 2.63316 19.0842 2.66448 18.9786 2.72102C18.8731 2.77757 18.7802 2.85799 18.7065 2.95674L16.2607 6.15907C16.1866 6.24659 16.1298 6.34934 16.0938 6.46107C16.0578 6.5728 16.0433 6.69119 16.0513 6.80909C16.0592 6.92698 16.0894 7.04191 16.1401 7.14693C16.1907 7.25195 16.2607 7.34486 16.3459 7.42004C16.431 7.49523 16.5295 7.55112 16.6354 7.58433C16.7413 7.61754 16.8524 7.62738 16.9619 7.61325C17.0715 7.59913 17.1772 7.56133 17.2727 7.50215C17.3682 7.44297 17.4515 7.36364 17.5176 7.26896L19.9634 4.06664C20.0651 3.93788 20.1299 3.78032 20.1498 3.61299C20.1698 3.44567 20.1441 3.27573 20.0758 3.12371C20.0075 2.9717 19.8997 2.84411 19.7652 2.75636C19.6307 2.66861 19.4754 2.62445 19.318 2.62923ZM11.9296 6.13177C11.8015 6.14349 11.6777 6.18752 11.5685 6.26025C11.4593 6.33298 11.3677 6.43236 11.3012 6.55026L9.31396 10.0073L5.58582 10.8079C5.44121 10.839 5.30718 10.9116 5.19802 11.0178C5.08886 11.1241 5.00866 11.2601 4.96596 11.4114C4.92325 11.5626 4.91965 11.7234 4.95553 11.8767C4.9914 12.03 5.06542 12.1699 5.16969 12.2817L7.87875 15.1838L7.3862 19.1139C7.36704 19.267 7.38609 19.4227 7.44143 19.5653C7.49677 19.7079 7.5864 19.8323 7.7012 19.9256C7.81601 20.019 7.95187 20.0782 8.09494 20.097C8.23802 20.1158 8.3832 20.0936 8.51568 20.0328L11.9975 18.4316L15.4794 20.0328C15.6119 20.0936 15.7571 20.1158 15.9002 20.097C16.0432 20.0782 16.1791 20.019 16.2939 19.9256C16.4087 19.8323 16.4983 19.7079 16.5537 19.5653C16.609 19.4227 16.6281 19.267 16.6089 19.1139L16.4306 17.6492C16.4036 17.4237 16.2956 17.2183 16.1295 17.0767C15.9634 16.9351 15.7523 16.8685 15.5411 16.891C15.3299 16.9135 15.1352 17.0234 14.9984 17.1973C14.8616 17.3711 14.7935 17.5953 14.8085 17.8221L12.3203 16.6849C12.2183 16.6378 12.1085 16.6136 11.9975 16.6136C11.8866 16.6136 11.7768 16.6378 11.6748 16.6849L9.18658 17.8221L9.54326 14.9837C9.56069 14.8502 9.54906 14.7142 9.50928 14.5864C9.46951 14.4586 9.40266 14.3423 9.31396 14.2468L7.40318 12.1998L9.98486 11.6449C10.095 11.6212 10.1993 11.5734 10.2914 11.5046C10.3834 11.4357 10.4612 11.3472 10.5199 11.2446L11.9975 8.66998L13.4752 11.2446C13.5339 11.3472 13.6116 11.4357 13.7037 11.5046C13.7958 11.5734 13.9001 11.6212 14.0102 11.6449L16.5919 12.1998L14.6811 14.2468C14.528 14.4108 14.4419 14.6334 14.4419 14.8654C14.4419 15.0974 14.528 15.3199 14.6811 15.484C14.8343 15.6481 15.042 15.7403 15.2586 15.7403C15.4752 15.7403 15.6829 15.6481 15.8361 15.484L18.8254 12.2817C18.9297 12.1699 19.0037 12.03 19.0396 11.8767C19.0754 11.7234 19.0718 11.5626 19.0291 11.4114C18.9864 11.2601 18.9062 11.1241 18.7971 11.0178C18.6879 10.9116 18.5539 10.839 18.4093 10.8079L14.6811 10.0073L12.6939 6.55026C12.6154 6.41127 12.5023 6.29848 12.3673 6.22455C12.2323 6.15062 12.0807 6.1185 11.9296 6.13177ZM0.830098 9.61612C0.801661 9.61757 0.773314 9.6206 0.745174 9.62522C0.544036 9.64383 0.356497 9.74173 0.218858 9.89995C0.08122 10.0582 0.00327127 10.2655 0.000100655 10.4817C-0.00306996 10.698 0.068763 10.9078 0.201695 11.0705C0.334627 11.2333 0.519204 11.3375 0.719697 11.3628L2.35023 11.654C2.5642 11.6926 2.78372 11.6385 2.9605 11.5038C3.13728 11.369 3.25684 11.1645 3.29288 10.9353C3.32892 10.706 3.27848 10.4709 3.15266 10.2815C3.02685 10.0921 2.83595 9.96404 2.62199 9.92544L0.991452 9.63432C0.938366 9.62252 0.884314 9.61643 0.830098 9.61612ZM23.182 9.61612C23.1422 9.61605 23.1025 9.61909 23.0631 9.62522C23.0432 9.62747 23.0233 9.6305 23.0036 9.63432L21.3731 9.92544C21.1591 9.96404 20.9683 10.0921 20.8424 10.2815C20.7166 10.4709 20.6662 10.706 20.7022 10.9353C20.7383 11.1645 20.8578 11.369 21.0346 11.5038C21.2114 11.6385 21.4309 11.6926 21.6449 11.654L23.2754 11.3628C23.4829 11.3373 23.6734 11.2277 23.8079 11.0566C23.9423 10.8854 24.0106 10.6656 23.9987 10.4422C23.9867 10.2189 23.8955 10.0089 23.7436 9.85526C23.5918 9.70166 23.3908 9.6161 23.182 9.61612ZM5.14422 15.4385C5.04644 15.4505 4.95149 15.4813 4.86397 15.5295L1.33115 17.2762C1.22618 17.3183 1.13044 17.3831 1.04991 17.4666C0.96937 17.5501 0.905766 17.6505 0.863066 17.7615C0.820366 17.8725 0.799487 17.9917 0.801732 18.1118C0.803977 18.2318 0.829299 18.3501 0.876116 18.4591C0.922933 18.5682 0.990239 18.6658 1.07383 18.7458C1.15743 18.8257 1.25551 18.8864 1.36197 18.9239C1.46842 18.9615 1.58096 18.9751 1.69255 18.964C1.80414 18.9528 1.91239 18.9172 2.01054 18.8592L5.54336 17.1125C5.71413 17.0327 5.85424 16.8926 5.94036 16.7156C6.02648 16.5386 6.05342 16.3354 6.01668 16.1397C5.97995 15.944 5.88177 15.7677 5.73848 15.6401C5.59519 15.5126 5.41544 15.4414 5.22914 15.4385C5.20085 15.437 5.1725 15.437 5.14422 15.4385ZM18.7405 15.4476C18.5595 15.4602 18.3876 15.537 18.2519 15.666C18.1162 15.7949 18.0246 15.9687 17.9915 16.1597C17.9583 16.3507 17.9856 16.5482 18.069 16.7207C18.1523 16.8933 18.287 17.0311 18.4517 17.1125L21.9846 18.8592C22.0827 18.9172 22.191 18.9528 22.3025 18.964C22.4141 18.9751 22.5267 18.9615 22.6331 18.9239C22.7396 18.8864 22.8377 18.8257 22.9213 18.7458C23.0049 18.6658 23.0722 18.5682 23.119 18.4591C23.1658 18.3501 23.1911 18.2318 23.1934 18.1118C23.1956 17.9917 23.1747 17.8725 23.132 17.7615C23.0893 17.6505 23.0257 17.5501 22.9452 17.4666C22.8647 17.3831 22.7689 17.3183 22.6639 17.2762L19.1311 15.5295C19.0092 15.4681 18.875 15.4399 18.7405 15.4476ZM11.9891 20.3785C11.9606 20.3799 11.9323 20.383 11.9041 20.3876C11.703 20.4124 11.5177 20.5165 11.3843 20.6796C11.2509 20.8427 11.1789 21.0532 11.1823 21.27V25.3457C11.1808 25.4615 11.2007 25.5764 11.241 25.6838C11.2813 25.7912 11.3411 25.8889 11.4169 25.9713C11.4928 26.0537 11.5832 26.1192 11.6829 26.1639C11.7825 26.2085 11.8895 26.2315 11.9975 26.2315C12.1056 26.2315 12.2126 26.2085 12.3122 26.1639C12.4119 26.1192 12.5023 26.0537 12.5781 25.9713C12.654 25.8889 12.7138 25.7912 12.7541 25.6838C12.7944 25.5764 12.8143 25.4615 12.8128 25.3457V21.27C12.8151 21.1531 12.7954 21.0368 12.7549 20.9281C12.7144 20.8194 12.654 20.7206 12.5771 20.6374C12.5003 20.5543 12.4086 20.4885 12.3076 20.444C12.2066 20.3995 12.0983 20.3773 11.9891 20.3785ZM6.51148 20.9698C6.37881 20.9807 6.25063 21.0261 6.13812 21.1022C6.02562 21.1784 5.93222 21.2828 5.86607 21.4065L5.0508 22.8621C4.98281 22.9601 4.93476 23.0723 4.90974 23.1914C4.88472 23.3105 4.88329 23.4339 4.90554 23.5537C4.9278 23.6734 4.97324 23.7868 5.03893 23.8866C5.10463 23.9864 5.18912 24.0703 5.28696 24.1329C5.3848 24.1955 5.49381 24.2355 5.60695 24.2502C5.72009 24.2649 5.83486 24.2541 5.94384 24.2183C6.05283 24.1826 6.1536 24.1228 6.23967 24.0427C6.32575 23.9627 6.3952 23.8642 6.44355 23.7537L7.25881 22.2981C7.3369 22.1616 7.37851 22.0048 7.37907 21.8448C7.37964 21.6848 7.33916 21.5276 7.26204 21.3906C7.18492 21.2535 7.07414 21.1418 6.94178 21.0676C6.80941 20.9934 6.66057 20.9596 6.51148 20.9698ZM17.3817 20.9698C17.2412 20.979 17.1054 21.027 16.9874 21.1091C16.8694 21.1912 16.7732 21.3046 16.7082 21.4383C16.6433 21.5721 16.6117 21.7215 16.6166 21.8722C16.6215 22.0228 16.6628 22.1695 16.7363 22.2981L17.5515 23.7537C17.5999 23.8642 17.6693 23.9627 17.7554 24.0427C17.8415 24.1228 17.9423 24.1826 18.0513 24.2183C18.1602 24.2541 18.275 24.2649 18.3881 24.2502C18.5013 24.2355 18.6103 24.1955 18.7081 24.1329C18.806 24.0703 18.8905 23.9864 18.9562 23.8866C19.0219 23.7868 19.0673 23.6734 19.0896 23.5537C19.1118 23.4339 19.1104 23.3105 19.0854 23.1914C19.0603 23.0723 19.0123 22.9601 18.9443 22.8621L18.129 21.4065C18.0541 21.267 17.9447 21.1524 17.8128 21.0754C17.6809 20.9983 17.5317 20.9618 17.3817 20.9698Z" fill="black"/>
</svg>
