<svg width="23" height="23" viewBox="0 0 23 23" fill="none" xmlns="http://www.w3.org/2000/svg">
<path d="M22.9999 8.14311V7.59849C22.9999 7.51102 22.9909 7.38839 22.9864 7.28469C22.9791 7.17649 22.9584 7.07009 22.9422 6.9619C22.861 6.53449 22.6879 6.12604 22.4363 5.77349C21.9404 5.06297 21.1325 4.57785 20.2669 4.48047C20.1587 4.46694 20.0496 4.46694 19.9441 4.45973H19.6673L19.1227 4.45702L18.0469 4.45251C18.0289 4.27668 17.9775 4.09906 17.9432 3.94487C17.8828 3.68158 17.8305 3.44173 17.7611 3.16221C17.6782 2.834 17.5555 2.5184 17.3986 2.22086C17.0776 1.62756 16.6187 1.11269 16.0642 0.738487C15.7891 0.549134 15.4916 0.39224 15.1805 0.279525C14.8712 0.156896 14.5457 0.0811538 14.2175 0.0369681L13.9704 0.00901672L13.7234 0H13.6008H13.5016H13.3032L12.5115 0.00901672H11.6829H11.4755H11.3718L11.2429 0.0135253C11.0724 0.0162302 10.9011 0.0342639 10.7307 0.0595115C10.0499 0.165911 9.39891 0.442737 8.85159 0.860218C8.30426 1.2759 7.86153 1.82952 7.57932 2.45801C7.50538 2.6131 7.45038 2.7763 7.39447 2.9377L7.32504 3.18656C7.3016 3.27402 7.29258 3.32722 7.27455 3.39936L7.0897 4.20727C7.087 4.2235 7.08249 4.23702 7.07798 4.25325L6.04644 4.21358L5.22951 4.17841L5.09065 4.1739H4.91302C3.96444 4.19194 3.01136 4.63106 2.37849 5.37856C2.08093 5.72211 1.81944 6.17927 1.69502 6.67609C1.6283 6.92315 1.60305 7.17743 1.60486 7.42179C1.60486 7.55794 1.61387 7.62737 1.62289 7.71753C1.63191 7.80499 1.64363 7.88795 1.65715 7.97181C1.76987 8.62733 2.03586 9.10524 2.61293 9.08449C3.08632 9.06646 3.2964 8.59307 3.38839 7.97001C3.40011 7.89157 3.40913 7.81041 3.41814 7.73016C3.42265 7.68868 3.42536 7.6472 3.42987 7.60572L3.43438 7.54351L3.44159 7.50203C3.45511 7.39112 3.47405 7.28022 3.502 7.17381C3.557 6.95921 3.64717 6.75363 3.76529 6.58953C4.03037 6.21983 4.44876 5.96827 4.89599 5.91327C4.95099 5.90154 5.0087 5.90605 5.06641 5.89974C5.08985 5.89704 5.13313 5.89704 5.17912 5.89704H5.31257L5.84546 5.89433L6.91216 5.88712L11.1754 5.84744C14.0167 5.81769 16.8587 5.78523 19.7025 5.78523C20.8747 5.70949 21.7385 6.57511 21.6673 7.73827V9.96542V10.2449C21.6673 10.3396 21.6673 10.4388 21.6628 10.4893C21.6628 10.5542 21.6583 10.6164 21.6447 10.6804C21.6375 10.7454 21.6267 10.8076 21.6078 10.8698C21.5428 11.1187 21.4274 11.3594 21.2705 11.5668C21.1109 11.7724 20.9108 11.941 20.7025 12.0492C20.5988 12.0979 20.4951 12.1412 20.4004 12.1556C20.3517 12.1691 20.3057 12.1673 20.2616 12.1718H20.2453H20.2111H20.001H17.7738L13.3167 12.1763C12.3384 12.1763 10.8884 11.95 10.8263 12.7994C10.7595 13.7155 12.278 13.4594 13.2059 13.4711L17.5638 13.5009L19.7431 13.5054C19.9298 13.5054 20.0921 13.5081 20.3022 13.5027C20.524 13.4982 20.7359 13.454 20.937 13.39C20.909 14.4107 20.9045 15.4305 20.9072 16.4513V17.2772C20.9099 17.4107 20.9162 17.5631 20.9072 17.6721C20.9045 17.7903 20.8982 17.9075 20.8748 18.0256C20.8053 18.4918 20.6277 18.9444 20.3437 19.3231C20.0623 19.7018 19.6972 20.0228 19.2707 20.2212C18.8487 20.4223 18.3798 20.5169 17.9181 20.4917C16.8244 20.434 15.718 20.3366 14.6198 20.1797C14.1076 20.1058 13.3619 20.0183 13.3782 21.1725C13.3917 22.1192 14.0959 22.0128 14.5693 22.0174C15.6477 22.0264 16.7225 21.9993 17.8009 21.9687H17.9028L18.03 21.9569L18.2815 21.9389C18.4474 21.9227 18.6143 21.8857 18.7774 21.8578C19.103 21.7766 19.424 21.6729 19.7242 21.5232C20.3248 21.2302 20.8604 20.81 21.2751 20.2906C21.707 19.7478 22.0163 19.1022 22.1525 18.4187C22.1759 18.2456 22.2147 18.0752 22.2219 17.9021C22.2309 17.7289 22.2399 17.5441 22.2381 17.417V16.5721L22.2336 13.1925C22.2336 12.9797 22.3049 12.7101 22.2102 12.5135C22.45 12.234 22.6439 11.9202 22.7755 11.5785C22.8513 11.3774 22.9117 11.17 22.946 10.9554C22.9595 10.849 22.9829 10.7426 22.9829 10.6326C22.9874 10.5262 22.9946 10.409 22.9919 10.326L22.9874 8.14666L22.9999 8.14311ZM11.4971 4.37318C10.4674 4.35244 9.44036 4.32448 8.41067 4.29202L8.54952 3.75193L8.59822 3.55536L8.64691 3.38674C8.67486 3.27584 8.72535 3.17214 8.76503 3.06395C8.85971 2.85656 8.97512 2.65729 9.11128 2.47335C9.25194 2.29301 9.40702 2.1244 9.58646 1.97923C9.94174 1.69069 10.3646 1.48331 10.8119 1.39042C10.9228 1.36247 11.0382 1.35616 11.1509 1.33993C11.2663 1.33542 11.3727 1.3264 11.5152 1.32821H12.3258L13.1364 1.33722L13.5403 1.34444C13.6738 1.34895 13.7739 1.35346 13.8911 1.36969C14.1174 1.39764 14.3365 1.46166 14.5466 1.54281C14.754 1.63027 14.9506 1.74388 15.1282 1.87733C15.4816 2.14964 15.7585 2.50942 15.9154 2.90887C15.9911 3.10994 16.0488 3.31282 16.0651 3.52293L16.0858 3.70056L16.1065 3.90344L16.1435 4.31009C16.1462 4.35157 16.1507 4.39575 16.1552 4.43903H15.855C14.4032 4.4228 12.9488 4.40477 11.4971 4.37411L11.4971 4.37318Z" fill="black"/>
<path d="M4.11778 20.2476C5.00143 20.3513 5.91845 20.1899 6.71463 19.7904C7.08613 20.2223 7.51081 20.6119 7.86879 21.0573C7.86157 21.0645 7.85256 21.069 7.86879 21.0573C8.31692 21.6164 8.76236 22.1772 9.2168 22.7308C9.29073 22.821 9.22401 23.1005 9.89126 22.5739C10.6117 22.0059 10.2979 22.0248 10.2348 21.9301C9.53059 20.8589 8.5198 20.0303 8.05544 18.768C8.49365 18.2829 8.83089 17.7058 9.02927 17.0809C9.34306 16.0719 9.30608 14.9575 8.90664 13.9765C8.50539 12.9981 7.76421 12.1713 6.83366 11.6682C6.67677 11.5942 6.51267 11.4833 6.33052 11.4121C6.24035 11.3724 6.14838 11.3363 6.05821 11.3057C5.96623 11.2822 5.87336 11.2615 5.78589 11.2525C5.61007 11.2245 5.44685 11.257 5.32423 11.3381C5.2016 11.4193 5.11865 11.5527 5.0862 11.7628C5.02128 12.22 5.19711 12.4048 5.42072 12.5085C5.53343 12.5662 5.66958 12.5942 5.79942 12.642C5.93287 12.6762 6.06001 12.7276 6.1664 12.7826C6.81291 13.1379 7.344 13.706 7.62982 14.3822C7.92286 15.054 7.98779 15.8222 7.79573 16.5309C7.6181 17.2415 7.17897 17.8817 6.58657 18.3172C6.29083 18.5363 5.96081 18.7094 5.61004 18.8158C5.25929 18.9222 4.88959 18.9682 4.52261 18.952C3.78414 18.9312 3.07272 18.622 2.53079 18.1396C1.98347 17.6527 1.63272 16.9674 1.53173 16.2632C1.43435 15.5571 1.59666 14.8205 1.96994 14.2434C2.34595 13.6663 2.92122 13.2371 3.54608 13.0613C3.84182 12.9756 4.18807 12.9387 4.46941 12.8097C4.54064 12.78 4.61007 12.7385 4.67229 12.6853C4.73721 12.6393 4.79672 12.5816 4.84992 12.5077C4.95812 12.3598 5.04648 12.1542 5.07173 11.8657C5.09247 11.6303 5.03206 11.4545 4.90582 11.3228C4.8409 11.2579 4.76246 11.2029 4.66779 11.1587C4.57582 11.1218 4.46942 11.0965 4.3558 11.0776C3.89864 11.0127 3.33509 11.1587 2.9158 11.3319C1.9555 11.7178 1.12416 12.4193 0.614695 13.3219C0.358611 13.77 0.176486 14.2614 0.079098 14.7673C-0.0182827 15.2731 -0.0227931 15.7925 0.0493416 16.2974C0.1882 17.3182 0.697654 18.2622 1.4208 18.9682C2.14575 19.6787 3.11506 20.1268 4.11506 20.2468L4.11778 20.2476Z" fill="black"/>
</svg>
