<svg width="23" height="25" viewBox="0 0 23 25" fill="none" xmlns="http://www.w3.org/2000/svg">
<path d="M10.5795 9.29122H12.5345C12.9945 9.29122 13.3395 9.65321 13.3395 10.1359H15.6395C15.6395 8.44656 14.3745 6.99858 12.7645 6.99858V6.03326H10.4645V6.87792C8.85454 6.99858 7.58954 8.3259 7.58954 10.0152C7.58954 11.8252 8.96954 13.2732 10.6945 13.2732H12.6495C13.1095 13.2732 13.4545 13.6352 13.4545 14.1178C13.4545 14.6005 13.1095 14.9625 12.6495 14.9625H10.6945C10.2345 14.9625 9.88954 14.6005 9.88954 14.1178H7.58954C7.58954 15.8071 8.85454 17.2551 10.4645 17.2551V18.0998H12.7645V17.2551C14.3745 17.1344 15.6395 15.8071 15.6395 14.1178C15.6395 12.3078 14.2595 10.8599 12.5345 10.8599H10.5795C10.1195 10.8599 9.77454 10.4979 9.77454 10.0152C9.77454 9.65322 10.1195 9.29122 10.5795 9.29122Z" fill="black"/>
<path d="M11.5 0C5.175 0 0 5.42993 0 12.0665C0 18.7031 5.175 24.133 11.5 24.133C16.445 24.133 20.93 20.7544 22.425 15.8071C22.77 14.6005 23 13.2732 23 12.0665C23 5.42993 17.825 0 11.5 0ZM20.24 15.0831C18.975 19.0651 15.525 21.7197 11.5 21.7197C6.44 21.7197 2.3 17.3758 2.3 12.0665C2.3 6.75724 6.44 2.4133 11.5 2.4133C16.56 2.4133 20.7 6.75724 20.7 12.0665C20.7 13.1525 20.585 14.1178 20.24 15.0831Z" fill="black"/>
</svg>
