<svg width="19" height="17" viewBox="0 0 19 17" fill="none" xmlns="http://www.w3.org/2000/svg">
<path d="M9.23961 9.27041C8.86441 9.26921 8.49272 9.19455 8.14363 9.05027L0.838162 5.99465C0.588431 5.87671 0.37648 5.6856 0.22779 5.44429C0.0791 5.20299 0 4.92175 0 4.6344C0 4.34705 0.0791 4.06582 0.22779 3.82451C0.37648 3.5832 0.588431 3.39209 0.838162 3.27416L8.14363 0.221819C8.8471 -0.0739397 9.63212 -0.0739397 10.3356 0.221819L17.6411 3.27416C17.8908 3.39209 18.1027 3.5832 18.2514 3.82451C18.4001 4.06582 18.4792 4.34705 18.4792 4.6344C18.4792 4.92175 18.4001 5.20299 18.2514 5.44429C18.1027 5.6856 17.8908 5.87671 17.6411 5.99465L10.3356 9.05027C9.98641 9.19426 9.61477 9.2689 9.23961 9.27041ZM1.81828 4.6344L8.72293 7.52246C9.05421 7.66382 9.425 7.66382 9.75628 7.52246L16.6609 4.6344L9.75628 1.74635C9.425 1.60499 9.05421 1.60499 8.72293 1.74635L1.81828 4.6344Z" fill="black"/>
<path d="M9.24007 13.0313C8.86454 13.0305 8.49258 12.9547 8.14409 12.8079L0.838625 9.75553C0.652315 9.67085 0.504648 9.51353 0.426789 9.31678C0.34893 9.12003 0.346971 8.89923 0.421325 8.70099C0.49568 8.50275 0.64053 8.34258 0.825305 8.25427C1.01008 8.16597 1.22032 8.15645 1.41166 8.22772L8.714 11.2833C9.04528 11.4247 9.41607 11.4247 9.74735 11.2833L17.0685 8.22772C17.2616 8.14668 17.4774 8.14944 17.6686 8.23539C17.8597 8.32135 18.0105 8.48346 18.0877 8.68606C18.165 8.88866 18.1623 9.11515 18.0804 9.31572C17.9985 9.51628 17.844 9.67449 17.6509 9.75553L10.336 12.8079C9.98756 12.9547 9.6156 13.0305 9.24007 13.0313Z" fill="black"/>
<path d="M9.24007 16.787C8.86454 16.7863 8.49258 16.7104 8.14409 16.5636L0.838625 13.5112C0.652315 13.4266 0.504648 13.2693 0.426789 13.0725C0.34893 12.8757 0.346971 12.655 0.421325 12.4567C0.49568 12.2585 0.64053 12.0983 0.825305 12.01C1.01008 11.9217 1.22032 11.9122 1.41166 11.9834L8.714 15.0391C9.04528 15.1804 9.41607 15.1804 9.74735 15.0391L17.0685 11.9834C17.2616 11.9024 17.4774 11.9052 17.6686 11.9911C17.8597 12.0771 18.0105 12.2392 18.0877 12.4418C18.165 12.6444 18.1623 12.8709 18.0804 13.0714C17.9985 13.272 17.844 13.4302 17.6509 13.5112L10.336 16.5636C9.98756 16.7104 9.6156 16.7863 9.24007 16.787Z" fill="black"/>
</svg>
