<svg width="23" height="25" viewBox="0 0 23 25" fill="none" xmlns="http://www.w3.org/2000/svg">
<path d="M11.5001 6.46677C8.55824 6.46677 6.16315 8.97984 6.16315 12.0667C6.16315 15.1535 8.55824 17.6666 11.5001 17.6666C14.4421 17.6666 16.8371 15.1535 16.8371 12.0667C16.8371 8.97984 14.4421 6.46677 11.5001 6.46677ZM12.4516 15.0235C12.4188 15.5475 12.0579 16.0639 11.4673 16.0639C10.9825 16.0639 10.5778 15.7043 10.4976 15.2147C10.3044 15.1803 10.1112 15.1344 9.93988 15.077C9.66646 14.989 9.48054 14.7787 9.42222 14.4918C9.34931 14.1399 9.48054 13.7268 9.73937 13.4858C9.94717 13.2907 10.2096 13.2371 10.4721 13.3328C10.7164 13.4207 11.3871 13.5661 11.6095 13.4016C11.6533 13.371 11.6715 13.3289 11.6715 13.2716C11.6715 13.065 11.2267 12.9158 10.957 12.8279C10.8512 12.7934 10.7601 12.7628 10.7018 12.7322C9.81593 12.3191 9.36753 11.7033 9.36753 10.8962C9.36753 10.0891 9.78312 9.46945 10.4831 9.12519C10.5159 8.59733 10.8768 8.0733 11.4673 8.0733C11.9558 8.0733 12.3568 8.43285 12.437 8.92629C12.5355 8.94541 12.6339 8.96454 12.7287 8.99131C13.0422 9.07929 13.2682 9.35852 13.312 9.7219C13.3593 10.1121 13.1953 10.4793 12.8927 10.6629C12.6193 10.8273 12.3423 10.77 12.0725 10.7126C11.9413 10.6858 11.8173 10.659 11.697 10.659C11.4491 10.659 11.3179 10.7355 11.3179 10.7929C11.3179 10.9651 11.8428 11.1372 12.0433 11.2022C12.1162 11.2252 12.1782 11.2443 12.2183 11.2634C13.1771 11.6956 13.6255 12.3077 13.6255 13.1912C13.6255 14.0022 13.188 14.6868 12.448 15.0273L12.4516 15.0235Z" fill="black"/>
<path d="M21.7694 12.0665C21.7694 11.8064 22.0464 11.2097 22.2469 10.7736C22.7245 9.74468 23.3187 8.46711 22.7974 7.15511C22.2615 5.80103 20.9528 5.33437 19.9029 4.95952C19.5091 4.81799 18.9113 4.60379 18.7618 4.44696C18.6124 4.29013 18.4082 3.66282 18.2733 3.24971C17.9161 2.14426 17.4677 0.771061 16.1808 0.212601C14.9304 -0.33056 13.7092 0.289102 12.7322 0.790187C12.3166 1.00057 11.7515 1.29127 11.5 1.29127C11.2485 1.29127 10.6834 1.00057 10.2678 0.790187C9.28719 0.289102 8.06959 -0.334385 6.81919 0.212601C5.52868 0.774887 5.08393 2.14809 4.72668 3.24971C4.59179 3.66282 4.38764 4.29013 4.23818 4.44696C4.08871 4.60379 3.49085 4.81799 3.09714 4.95952C2.04359 5.33437 0.734861 5.80486 0.202619 7.15511C-0.31504 8.47093 0.275529 9.74851 0.753089 10.7736C0.953591 11.2097 1.23065 11.8026 1.23065 12.0665C1.23065 12.3304 0.953591 12.9233 0.753089 13.3594C0.275529 14.3883 -0.318686 15.6659 0.202619 16.9779C0.738507 18.332 2.04724 18.7986 3.09714 19.1735C3.49085 19.315 4.08871 19.5292 4.23818 19.686C4.38764 19.8429 4.59179 20.4702 4.72668 20.8833C5.08393 21.9887 5.53233 23.3619 6.81919 23.9204C7.16551 24.0696 7.50454 24.1308 7.83993 24.1308C8.72213 24.1308 9.55695 23.7024 10.2678 23.3428C10.6834 23.1324 11.2485 22.8417 11.5 22.8417C11.7515 22.8417 12.3166 23.1324 12.7322 23.3428C13.7128 23.8439 14.9304 24.4674 16.1808 23.9204C17.4713 23.3581 17.9161 21.9849 18.2733 20.8833C18.4082 20.4702 18.6124 19.8429 18.7618 19.686C18.9113 19.5292 19.5091 19.315 19.9029 19.1735C20.9528 18.7986 22.2651 18.3281 22.7974 16.9779C23.315 15.6659 22.7245 14.3845 22.2469 13.3594C22.0464 12.9233 21.7694 12.3304 21.7694 12.0665ZM11.5 19.686C7.49725 19.686 4.23818 16.2664 4.23818 12.0665C4.23818 7.86657 7.49725 4.44696 11.5 4.44696C15.5028 4.44696 18.7618 7.86657 18.7618 12.0665C18.7618 16.2664 15.5028 19.686 11.5 19.686Z" fill="black"/>
</svg>
