<svg width="25" height="25" viewBox="0 0 25 25" fill="none" xmlns="http://www.w3.org/2000/svg">
<path d="M23.5776 7.75898C23.7571 7.77515 23.9381 7.75359 24.1088 7.69569C24.2796 7.63779 24.4363 7.54483 24.569 7.42278C24.7037 7.30227 24.8117 7.15485 24.8859 6.99003C24.9602 6.82521 24.999 6.64666 25 6.46589V4.74177C25 3.48428 24.5005 2.2783 23.6113 1.38913C22.7221 0.499956 21.5161 0.000423559 20.2587 0.000423559H18.6078C18.2767 -0.00788444 17.9542 0.106275 17.7021 0.321026C17.4499 0.535777 17.2859 0.836015 17.2414 1.16421C17.2233 1.34456 17.2433 1.52672 17.3001 1.69884C17.3569 1.87097 17.4493 2.02924 17.5712 2.16336C17.6932 2.29749 17.8419 2.40448 18.0079 2.47739C18.1738 2.55031 18.3533 2.58752 18.5345 2.58661H20.2587C20.8302 2.58661 21.3784 2.81367 21.7826 3.21784C22.1868 3.62201 22.4138 4.17018 22.4138 4.74177V6.39262C22.4055 6.7237 22.5197 7.04622 22.7344 7.29835C22.9492 7.55048 23.2494 7.7145 23.5776 7.75898Z" fill="black"/>
<path d="M0 6.46548C0.000970525 6.64625 0.0398314 6.8248 0.114074 6.98962C0.188317 7.15444 0.296292 7.30186 0.431031 7.42237C0.563711 7.54442 0.720446 7.63738 0.891174 7.69528C1.0619 7.75318 1.24285 7.77474 1.4224 7.75858C1.7506 7.7141 2.05083 7.55007 2.26558 7.29794C2.48034 7.04581 2.59449 6.7233 2.58619 6.39221V4.74136C2.58619 4.16978 2.81325 3.6216 3.21742 3.21743C3.62159 2.81326 4.16976 2.5862 4.74134 2.5862H6.39219C6.72328 2.59451 7.04579 2.48035 7.29793 2.2656C7.55006 2.05085 7.71408 1.75061 7.75856 1.42242C7.77669 1.24206 7.7567 1.05991 7.69988 0.887781C7.64306 0.715651 7.55069 0.557389 7.42876 0.423264C7.30683 0.289139 7.15806 0.182149 6.99211 0.109233C6.82616 0.0363179 6.64673 -0.000892573 6.46547 1.62551e-05H4.74134C3.48386 1.62551e-05 2.27788 0.499549 1.38871 1.38872C0.499533 2.2779 0 3.48388 0 4.74136V6.46548Z" fill="black"/>
<path d="M0 20.2598C0 21.5173 0.499533 22.7233 1.38871 23.6124C2.27788 24.5016 3.48386 25.0011 4.74134 25.0011H6.39219C6.72328 25.0095 7.04579 24.8953 7.29793 24.6805C7.55006 24.4658 7.71408 24.1656 7.75856 23.8374C7.77669 23.657 7.7567 23.4749 7.69988 23.3027C7.64306 23.1306 7.55069 22.9723 7.42876 22.8382C7.30683 22.7041 7.15806 22.5971 6.99211 22.5242C6.82616 22.4513 6.64673 22.414 6.46547 22.415H4.74134C4.16976 22.415 3.62159 22.1879 3.21742 21.7837C2.81325 21.3796 2.58619 20.8314 2.58619 20.2598V18.609C2.59449 18.2779 2.48034 17.9554 2.26558 17.7032C2.05083 17.4511 1.7506 17.2871 1.4224 17.2426H1.29309C0.974107 17.2445 0.66708 17.3642 0.431031 17.5788C0.296292 17.6993 0.188317 17.8467 0.114074 18.0115C0.0398314 18.1764 0.000970525 18.3549 0 18.5357V20.2598Z" fill="black"/>
<path d="M23.7583 22.3624L20.8574 19.4615L21.0428 19.1684C21.8266 17.9369 22.1374 16.4629 21.9176 15.0197C21.6978 13.5765 20.9623 12.2619 19.8473 11.3195C18.7323 10.3772 17.3136 9.87096 15.8539 9.89469C14.3942 9.91842 12.9927 10.4705 11.9089 11.4486C10.8252 12.4267 10.1328 13.7645 9.95997 15.2141C9.78719 16.6637 10.1458 18.1268 10.9692 19.3322C11.7927 20.5377 13.0252 21.4037 14.4384 21.7699C15.8516 22.136 17.3496 21.9775 18.6549 21.3236L18.935 21.1813L21.9523 24.1986C22.1984 24.4336 22.5257 24.5647 22.866 24.5647C23.2064 24.5647 23.5337 24.4336 23.7798 24.1986C23.8996 24.0769 23.9941 23.9328 24.058 23.7744C24.1218 23.6161 24.1536 23.4467 24.1516 23.276C24.1496 23.1053 24.1138 22.9367 24.0463 22.7798C23.9788 22.623 23.8809 22.4812 23.7583 22.3624ZM15.948 19.3969C15.266 19.3969 14.5993 19.1946 14.0322 18.8157C13.4652 18.4368 13.0232 17.8983 12.7622 17.2682C12.5012 16.6381 12.4329 15.9448 12.566 15.2759C12.699 14.607 13.0275 13.9926 13.5097 13.5104C13.992 13.0281 14.6064 12.6997 15.2753 12.5666C15.9442 12.4336 16.6375 12.5019 17.2676 12.7629C17.8977 13.0239 18.4362 13.4658 18.8151 14.0329C19.194 14.6 19.3962 15.2666 19.3962 15.9486C19.3962 16.8632 19.0329 17.7402 18.3863 18.3869C17.7396 19.0336 16.8625 19.3969 15.948 19.3969Z" fill="black"/>
</svg>
