<svg width="24" height="26" viewBox="0 0 24 26" fill="none" xmlns="http://www.w3.org/2000/svg">
<path fill-rule="evenodd" clip-rule="evenodd" d="M24 6.75595C24 4.96467 23.3213 3.24607 22.1147 1.97916C20.9063 0.712199 19.2703 0 17.5613 0H6.43879C4.72974 0 3.0937 0.712174 1.88531 1.97916C0.678763 3.24612 0 4.96449 0 6.75595V18.4263C0 20.2176 0.678739 21.9362 1.88531 23.2031C3.09374 24.4701 4.72976 25.1823 6.43879 25.1823H17.5613C19.2703 25.1823 20.9064 24.4701 22.1147 23.2031C23.3213 21.9361 24 20.2178 24 18.4263V6.75595ZM12.6705 15.6621H11.3299C11.0786 14.7748 10.2939 14.1266 9.36581 14.1266C8.43769 14.1266 7.65395 14.7748 7.40176 15.6621H7.31738C6.99583 15.6621 6.73239 15.9375 6.73239 16.2759C6.73239 16.6153 6.99583 16.8897 7.31738 16.8897H7.4027C7.65395 17.777 8.43862 18.4252 9.36674 18.4252C10.2949 18.4252 11.0786 17.777 11.3308 16.8897H12.6714C12.9227 17.777 13.7073 18.4252 14.6354 18.4252C15.5636 18.4252 16.3473 17.777 16.5995 16.8897L16.6829 16.8907C17.0045 16.8907 17.2679 16.6153 17.2679 16.2769C17.2679 15.9375 17.0045 15.6631 16.6829 15.6631L16.5986 15.6621C16.3464 14.7748 15.5617 14.1266 14.6345 14.1266C13.7064 14.1266 12.9226 14.7748 12.6705 15.6621ZM9.36569 15.3552C9.8513 15.3552 10.2441 15.7683 10.2441 16.2769C10.2441 16.7855 9.85226 17.1986 9.36569 17.1986C8.88007 17.1986 8.48724 16.7855 8.48724 16.2769C8.48724 15.7683 8.87911 15.3552 9.36569 15.3552ZM14.6344 15.3552C15.12 15.3552 15.5128 15.7683 15.5128 16.2769C15.5128 16.7855 15.1209 17.1986 14.6344 17.1986C14.1488 17.1986 13.7559 16.7855 13.7559 16.2769C13.7559 15.7683 14.1478 15.3552 14.6344 15.3552ZM7.17666 11.567C6.98916 11.511 6.80167 11.4529 6.61512 11.391C6.30763 11.2896 5.97667 11.4687 5.88012 11.7923C5.78357 12.1159 5.95606 12.4612 6.26357 12.5625C8.1751 13.194 10.0887 13.5108 12 13.5118C13.9113 13.5127 15.8251 13.197 17.7364 12.5625C18.0468 12.4602 18.2164 12.115 18.1199 11.7913C18.0205 11.4677 17.6924 11.2887 17.3849 11.391C17.1974 11.4529 17.0099 11.512 16.8233 11.568L16.0096 8.15184C15.8137 7.33146 15.1115 6.756 14.3062 6.756H9.69364C8.88833 6.756 8.18617 7.33146 7.99021 8.15184L7.17666 11.567ZM15.6882 11.8661L14.8745 8.44987C14.8098 8.17642 14.5754 7.98458 14.3063 7.98458H9.69381C9.42475 7.98458 9.1932 8.17639 9.12569 8.44987L8.31195 11.8643C9.541 12.1427 10.77 12.2834 12 12.2834C13.2291 12.2834 14.4581 12.1447 15.6881 11.8653L15.6882 11.8661Z" fill="black"/>
</svg>
