<svg width="24" height="26" viewBox="0 0 24 26" fill="none" xmlns="http://www.w3.org/2000/svg">
<path d="M12.0014 25.1823H11.9524C11.7131 25.1823 11.5199 24.9796 11.5199 24.7286C11.5199 24.4775 11.7131 24.2749 11.9524 24.2749H12.0043C12.7425 24.2749 13.4836 24.1963 14.2074 24.045C14.4409 23.9936 14.6687 24.1539 14.7177 24.3989C14.7639 24.6439 14.6139 24.8828 14.3804 24.9343C13.6018 25.0976 12.8031 25.1823 12.0043 25.1823H12.0014ZM9.10348 24.7982C9.06888 24.7982 9.03139 24.7921 8.9939 24.783C8.224 24.5743 7.46851 24.281 6.75339 23.915C6.54001 23.8061 6.45062 23.5339 6.55443 23.3071C6.65823 23.0832 6.91775 22.9895 7.13402 23.0984C7.80012 23.4401 8.49794 23.7093 9.21305 23.9029C9.44374 23.9664 9.58215 24.2144 9.52448 24.4564C9.47546 24.662 9.29956 24.7951 9.10636 24.7951L9.10348 24.7982ZM17.0217 23.9815C16.8602 23.9815 16.7074 23.8878 16.6324 23.7244C16.5286 23.4976 16.618 23.2284 16.8343 23.1195C17.4975 22.7838 18.1347 22.3755 18.7259 21.9037C18.9162 21.7524 19.1872 21.7918 19.3314 21.9914C19.4756 22.191 19.4381 22.4753 19.2478 22.6265C18.6105 23.1316 17.9271 23.5732 17.212 23.9362C17.1515 23.9664 17.088 23.9815 17.0246 23.9815H17.0217ZM4.53595 22.312C4.4379 22.312 4.33698 22.2757 4.25624 22.2061C3.64781 21.6647 3.08841 21.0598 2.59532 20.4065C2.44826 20.2099 2.47709 19.9256 2.66452 19.7684C2.85196 19.6111 3.12301 19.6443 3.27295 19.8409C3.73144 20.4489 4.25047 21.0114 4.81565 21.5105C4.99731 21.6738 5.02038 21.9581 4.86755 22.1487C4.78105 22.2545 4.65994 22.309 4.53595 22.309V22.312ZM21.0442 20.6152C20.9491 20.6152 20.8539 20.5819 20.7732 20.5154C20.5858 20.3581 20.5569 20.0738 20.7069 19.8772C21.1682 19.2693 21.5748 18.613 21.9122 17.9264C22.0218 17.7056 22.2813 17.6179 22.4947 17.7298C22.708 17.8447 22.7917 18.117 22.6821 18.3408C22.3188 19.0818 21.8805 19.7895 21.3816 20.4428C21.2951 20.5547 21.1711 20.6122 21.0442 20.6122V20.6152ZM1.43613 17.999C1.27177 17.999 1.11318 17.8992 1.04109 17.7298C0.715249 16.9676 0.461497 16.1661 0.2856 15.3525C0.233697 15.1075 0.380757 14.8656 0.611441 14.8111C0.845008 14.7567 1.07569 14.911 1.1276 15.1529C1.28907 15.909 1.52552 16.6501 1.8283 17.3578C1.92634 17.5877 1.8283 17.8538 1.61203 17.9567C1.55436 17.9839 1.49381 17.996 1.43613 17.996V17.999ZM23.2819 15.7548C23.2502 15.7548 23.2184 15.7518 23.1838 15.7427C22.9503 15.6852 22.8061 15.4433 22.858 15.1983C23.0224 14.4452 23.1146 13.6709 23.1348 12.8906C23.1406 12.6395 23.3395 12.4339 23.5789 12.449C23.8182 12.455 24.0056 12.6637 23.9999 12.9148C23.9797 13.7526 23.8788 14.5904 23.7029 15.4009C23.6567 15.6096 23.478 15.7548 23.2819 15.7548ZM0.432661 12.7061C0.432661 12.7061 0.424011 12.7061 0.421127 12.7061C0.181793 12.7 -0.0056375 12.4913 0.000129588 12.2403C0.0231979 11.4025 0.124122 10.5677 0.302902 9.75412C0.357689 9.50913 0.588373 9.35791 0.82194 9.41537C1.05551 9.47284 1.19968 9.7148 1.1449 9.95979C0.977651 10.7129 0.885378 11.4902 0.865193 12.2645C0.859426 12.5095 0.666228 12.7061 0.432661 12.7061ZM23.2876 10.359C23.0887 10.359 22.9128 10.2169 22.8666 10.0052C22.7023 9.24902 22.4658 8.50801 22.1631 7.80027C22.065 7.57343 22.1631 7.30425 22.3793 7.20142C22.5985 7.09858 22.8522 7.20142 22.9503 7.42826C23.279 8.19044 23.5327 8.98891 23.7115 9.80554C23.7634 10.0505 23.6192 10.2925 23.3857 10.3469C23.354 10.356 23.3222 10.359 23.2905 10.359H23.2876ZM1.71872 7.47967C1.6524 7.47967 1.5832 7.46455 1.51976 7.42826C1.30638 7.31332 1.22564 7.03809 1.33521 6.8173C1.70142 6.07629 2.13972 5.37157 2.63857 4.71827C2.78852 4.52168 3.05957 4.49143 3.247 4.64871C3.43443 4.80598 3.46327 5.09029 3.31332 5.28688C2.84907 5.89179 2.44249 6.54812 2.10223 7.23469C2.02438 7.39196 1.87443 7.47967 1.71872 7.47967ZM21.0558 5.49255C20.9289 5.49255 20.802 5.43509 20.7184 5.32015C20.257 4.71525 19.738 4.15269 19.1728 3.65364C18.9912 3.49334 18.9681 3.20601 19.1209 3.01546C19.2737 2.82491 19.5477 2.80072 19.7293 2.96102C20.3378 3.49939 20.8972 4.10429 21.396 4.75759C21.546 4.95419 21.5143 5.23849 21.3268 5.39577C21.2461 5.46231 21.1509 5.49558 21.0587 5.49558L21.0558 5.49255ZM5.03768 3.35421C4.90792 3.35421 4.77816 3.29069 4.69166 3.17274C4.54748 2.97312 4.58497 2.68881 4.77528 2.53758C5.41254 2.03249 6.09883 1.59393 6.81394 1.23401C7.03021 1.12513 7.28685 1.22191 7.39065 1.44573C7.49446 1.66954 7.40219 1.94175 7.18881 2.05063C6.52271 2.38636 5.88544 2.79467 5.2972 3.26045C5.21935 3.32094 5.12707 3.35118 5.03768 3.35118V3.35421ZM17.0361 2.11717C16.9727 2.11717 16.9092 2.10205 16.8487 2.07181C16.1826 1.73306 15.4819 1.46387 14.7696 1.2703C14.539 1.20679 14.3977 0.961802 14.4582 0.716814C14.5188 0.474852 14.7523 0.32665 14.9859 0.390165C15.7558 0.598858 16.5113 0.889213 17.2293 1.25216C17.4456 1.36104 17.535 1.63325 17.4283 1.85706C17.3533 2.01736 17.2005 2.11415 17.039 2.11415L17.0361 2.11717ZM9.72921 1.14025C9.52736 1.14025 9.3457 0.992047 9.30533 0.774281C9.25919 0.529294 9.41202 0.290355 9.64559 0.241963C10.4155 0.0816625 11.2056 0 11.9986 0C12.2379 0 12.4426 0.202644 12.4426 0.45368C12.4426 0.704716 12.261 0.90736 12.0216 0.90736H11.9986C11.2633 0.90736 10.5308 0.982973 9.81571 1.13118C9.78688 1.13722 9.75804 1.14025 9.73209 1.14025H9.72921ZM9.25054 14.2788C8.65076 13.562 8.31627 12.6426 8.31627 11.6687C8.31627 9.48494 10.0089 7.70954 12.0879 7.70954C14.167 7.70954 15.8596 9.48494 15.8596 11.6687C15.8596 12.6849 15.4992 13.6316 14.8562 14.3575C16.0384 15.1348 16.8948 16.3779 17.2322 17.7994C18.4606 16.4414 19.2161 14.6085 19.2161 12.5911C19.2161 8.41425 15.975 5.01468 11.9899 5.01468C8.00485 5.01468 4.76375 8.41425 4.76375 12.5911C4.76375 14.6055 5.51923 16.4383 6.74762 17.7964C7.09365 16.3204 7.9962 15.0471 9.24477 14.2758L9.25054 14.2788ZM13.9363 14.8595L13.2933 14.542L13.8584 14.0883C14.5822 13.5076 14.9974 12.6274 14.9974 11.6687C14.9974 9.98701 13.6941 8.6169 12.0908 8.6169C10.4876 8.6169 9.18422 9.98701 9.18422 11.6687C9.18422 12.5942 9.57638 13.4562 10.2627 14.0399L10.8134 14.5087L10.1617 14.8081C8.71997 15.4705 7.71649 16.8829 7.506 18.5192C8.74015 19.5506 10.303 20.1706 11.9986 20.1706C13.6941 20.1706 15.257 19.5536 16.4911 18.5222C16.2835 16.9374 15.3175 15.5461 13.9392 14.8626L13.9363 14.8595ZM4.57631 6.79613V3.78672C4.57631 3.53568 4.38312 3.33304 4.14378 3.33304H1.27754C1.03821 3.33304 0.845008 3.53568 0.845008 3.78672C0.845008 4.03775 1.03821 4.2404 1.27754 4.2404H3.71125V6.79613C3.71125 7.04716 3.90445 7.24981 4.14378 7.24981C4.38312 7.24981 4.57631 7.04716 4.57631 6.79613ZM23.2386 21.3986C23.2386 21.1475 23.0454 20.9449 22.8061 20.9449H20.3724V18.3892C20.3724 18.1381 20.1792 17.9355 19.9398 17.9355C19.7005 17.9355 19.5073 18.1381 19.5073 18.3892V21.3986C19.5073 21.6496 19.7005 21.8523 19.9398 21.8523H22.8061C23.0454 21.8523 23.2386 21.6496 23.2386 21.3986Z" fill="black"/>
</svg>
