<svg width="24" height="19" viewBox="0 0 24 19" fill="none" xmlns="http://www.w3.org/2000/svg">
<path fill-rule="evenodd" clip-rule="evenodd" d="M3.74461 0.00103357H20.2564C22.3183 0.00103357 24 1.70849 24 3.80035V15.2007C24 17.2926 22.3171 19 20.2564 19L3.74461 18.999C1.68279 18.999 0 17.2915 0 15.1996V3.79932C0 1.70738 1.68287 0 3.74461 0V0.00103357ZM20.064 16.8504L14.3491 11.0076C12.9271 12.3461 10.695 12.341 9.26906 11.0025L3.52059 16.8349L20.064 16.8504ZM21.8304 15.6153L21.8253 3.36747C19.8368 5.40983 17.8525 7.47399 15.8486 9.50078L21.8305 15.6164L21.8304 15.6153ZM2.11767 15.2194L7.76627 9.48832L2.11767 3.75614L2.11666 15.2184L2.11767 15.2194ZM3.54179 2.16328L10.6563 9.38698C11.2889 10.0268 12.3198 10.0371 12.9534 9.39421L20.0384 2.15093L3.54065 2.16437L3.54179 2.16328Z" fill="black"/>
</svg>
